<svg width="205" height="171" viewBox="0 0 205 171" fill="none" xmlns="http://www.w3.org/2000/svg">
<path d="M185.386 0.366516H19.4405C8.86947 0.366516 0.292969 8.525 0.292969 18.5808V152.152C0.292969 162.208 8.86947 170.367 19.4405 170.367H185.386C195.957 170.367 204.533 162.208 204.533 152.152V18.5808C204.533 8.525 195.957 0.366516 185.386 0.366516ZM152.037 110.601C153.952 112.422 153.952 115.382 152.037 117.204L135.881 132.572C133.967 134.393 130.855 134.393 128.94 132.572L102.413 107.11L75.8858 132.572C73.9711 134.393 70.8596 134.393 68.9449 132.572L52.7891 117.204C50.8744 115.382 50.8744 112.422 52.7891 110.601L79.5558 85.3665L52.7891 60.1321C50.8744 58.3107 50.8744 55.3509 52.7891 53.5295L68.9449 38.1612C70.8596 36.3397 73.9711 36.3397 75.8858 38.1612L102.413 63.6232L128.94 38.1612C130.855 36.3397 133.967 36.3397 135.881 38.1612L152.037 53.5295C153.952 55.3509 153.952 58.3107 152.037 60.1321L125.271 85.3665L152.037 110.601Z" fill="#FF0000"/>
</svg>
