<?xml version="1.0" encoding="UTF-8"?>
<svg width="8979px" height="1143px" viewBox="0 0 8979 1143" version="1.1" xmlns="http://www.w3.org/2000/svg" xmlns:xlink="http://www.w3.org/1999/xlink">
    <!-- Generator: Sketch 52.6 (67491) - http://www.bohemiancoding.com/sketch -->
    <title>Slice 1</title>
    <desc>Created with Sketch.</desc>
    <defs>
        <path d="M1883.24,358.189 C1896.99,377.053 1904.92,399.527 1906.06,422.843 L1920.02,709 L1743.33,709 C1725.23,628.79 1653.54,568.88 1567.85,568.88 C1475.55,568.88 1399.49,638.4 1389.16,727.94 L583.924,727.94 C573.601,638.4 497.535,568.88 405.233,568.88 C312.93,568.88 236.865,638.4 226.541,727.94 L96.5887,727.94 L96.5887,638.94 L0.0194092,638.94 L0.0194092,527.22 L1227.02,527.22 L1227.02,0.826 L1570.94,0.826 C1603.5,0.826 1634.11,16.392 1653.3,42.711 L1883.24,358.189 Z M1558.63,38.135 C1586.67,38.135 1613,51.595 1629.43,74.321 L1815.37,331.597 L1293.96,331.597 L1293.96,38.135 L1558.63,38.135 Z" id="path-1"></path>
    </defs>
    <g id="Page-1" stroke="none" stroke-width="1" fill="none" fill-rule="evenodd">
        <g id="logo" transform="translate(0.000000, 1.000000)">
            <path d="M1883.24,550.189 C1896.99,569.053 1904.92,591.527 1906.06,614.843 L1920.02,901 L1743.33,901 C1725.23,820.79 1653.54,760.88 1567.85,760.88 C1475.55,760.88 1399.49,830.4 1389.16,919.94 L583.924,919.94 C573.601,830.4 497.535,760.88 405.233,760.88 C312.93,760.88 236.865,830.4 226.541,919.94 L96.5887,919.94 L96.5887,830.94 L0.0194092,830.94 L0.0194092,719.22 L1227.02,719.22 L1227.02,192.826 L1570.94,192.826 C1603.5,192.826 1634.11,208.392 1653.3,234.711 L1883.24,550.189 Z M1558.63,230.135 C1586.67,230.135 1613,243.595 1629.43,266.321 L1815.37,523.597 L1293.96,523.597 L1293.96,230.135 L1558.63,230.135 Z" id="Shape" fill="#FFFFFF" fill-rule="nonzero"></path>
            <g id="Group" transform="translate(0.000000, 192.000000)">
                <g id="Clipped">
                    <mask id="mask-2" fill="white">
                        <use xlink:href="#path-1"></use>
                    </mask>
                    <use id="a" fill="#FFF3DC" xlink:href="#path-1"></use>
                    <path d="M1906.06,422.843 L1902.43,423.02 L1906.06,422.843 Z M1883.24,358.189 L1886.18,356.045 L1883.24,358.189 Z M1920.02,709 L1923.65,708.83 L1923.84,712.64 L1920.02,712.64 L1920.02,709 Z M1743.33,709 L1743.33,712.64 L1740.42,712.64 L1739.78,709.8 L1743.33,709 Z M1389.16,727.94 L1392.78,728.35 L1392.41,731.58 L1389.16,731.58 L1389.16,727.94 Z M583.924,727.94 L583.924,731.58 L580.68,731.58 L580.308,728.35 L583.924,727.94 Z M226.541,727.94 L230.157,728.35 L229.786,731.58 L226.541,731.58 L226.541,727.94 Z M96.5887,727.94 L96.5887,731.58 L92.9489,731.58 L92.9489,727.94 L96.5887,727.94 Z M96.5887,638.94 L96.5887,635.3 L100.229,635.3 L100.229,638.94 L96.5887,638.94 Z M0.0194092,638.94 L0.0194092,642.58 L-3.62043,642.58 L-3.62043,638.94 L0.0194092,638.94 Z M0.0194092,527.22 L-3.62043,527.22 L-3.62043,523.58 L0.0194092,523.58 L0.0194092,527.22 Z M1227.02,527.22 L1230.66,527.22 L1230.66,530.86 L1227.02,530.86 L1227.02,527.22 Z M1227.02,0.826 L1223.38,0.826 L1223.38,-2.814 L1227.02,-2.814 L1227.02,0.826 Z M1653.3,42.711 L1650.35,44.855 L1653.3,42.711 Z M1629.43,74.321 L1632.38,72.189 L1629.43,74.321 Z M1815.37,331.597 L1818.32,329.465 L1822.49,335.237 L1815.37,335.237 L1815.37,331.597 Z M1293.96,331.597 L1293.96,335.237 L1290.32,335.237 L1290.32,331.597 L1293.96,331.597 Z M1293.96,38.135 L1290.32,38.135 L1290.32,34.495 L1293.96,34.495 L1293.96,38.135 Z M1902.43,423.02 C1901.32,400.414 1893.63,378.623 1880.3,360.333 L1886.18,356.045 C1900.35,375.483 1908.53,398.641 1909.7,422.666 L1902.43,423.02 Z M1916.38,709.18 L1902.43,423.02 L1909.7,422.666 L1923.65,708.83 L1916.38,709.18 Z M1743.33,705.36 L1920.02,705.36 L1920.02,712.64 L1743.33,712.64 L1743.33,705.36 Z M1567.85,565.24 C1655.28,565.24 1728.41,626.36 1746.88,708.2 L1739.78,709.8 C1722.04,631.21 1651.8,572.52 1567.85,572.52 L1567.85,565.24 Z M1385.55,727.52 C1396.08,636.17 1473.68,565.24 1567.85,565.24 L1567.85,572.52 C1477.42,572.52 1402.89,640.63 1392.78,728.35 L1385.55,727.52 Z M583.924,724.3 L1389.16,724.3 L1389.16,731.58 L583.924,731.58 L583.924,724.3 Z M405.233,565.24 C499.406,565.24 577.007,636.17 587.54,727.52 L580.308,728.35 C570.194,640.63 495.665,572.52 405.233,572.52 L405.233,565.24 Z M222.925,727.52 C233.458,636.17 311.06,565.24 405.233,565.24 L405.233,572.52 C314.8,572.52 240.271,640.63 230.157,728.35 L222.925,727.52 Z M96.5887,724.3 L226.541,724.3 L226.541,731.58 L96.5887,731.58 L96.5887,724.3 Z M100.229,638.94 L100.229,727.94 L92.9489,727.94 L92.9489,638.94 L100.229,638.94 Z M0.0194092,635.3 L96.5887,635.3 L96.5887,642.58 L0.0194092,642.58 L0.0194092,635.3 Z M3.65925,527.22 L3.65925,638.94 L-3.62043,638.94 L-3.62043,527.22 L3.65925,527.22 Z M1181.58,530.86 L0.0194092,530.86 L0.0194092,523.58 L1181.58,523.58 L1181.58,530.86 Z M1227.02,530.86 L1181.58,530.86 L1181.58,523.58 L1227.02,523.58 L1227.02,530.86 Z M1230.66,0.826 L1230.66,527.22 L1223.38,527.22 L1223.38,0.826 L1230.66,0.826 Z M1570.94,4.466 L1227.02,4.466 L1227.02,-2.814 L1570.94,-2.814 L1570.94,4.466 Z M1650.35,44.855 C1631.86,19.476 1602.34,4.466 1570.94,4.466 L1570.94,-2.814 C1604.67,-2.814 1636.37,13.308 1656.24,40.567 L1650.35,44.855 Z M1880.3,360.333 L1650.35,44.855 L1656.24,40.567 L1886.18,356.045 L1880.3,360.333 Z M1626.48,76.453 C1610.74,54.674 1585.5,41.775 1558.63,41.775 L1558.63,34.495 C1587.83,34.495 1615.27,48.516 1632.38,72.189 L1626.48,76.453 Z M1812.42,333.729 L1626.48,76.453 L1632.38,72.189 L1818.32,329.465 L1812.42,333.729 Z M1293.96,327.957 L1815.37,327.957 L1815.37,335.237 L1293.96,335.237 L1293.96,327.957 Z M1297.6,38.135 L1297.6,331.597 L1290.32,331.597 L1290.32,38.135 L1297.6,38.135 Z M1558.63,41.775 L1293.96,41.775 L1293.96,34.495 L1558.63,34.495 L1558.63,41.775 Z" id="Shape" fill="#000000" fill-rule="nonzero" mask="url(#mask-2)"></path>
                </g>
            </g>
            <polygon id="Path" stroke="#000000" stroke-width="1.81992" fill="#B8B8B8" points="1933.72 780.42 1852.22 780.42 1852.22 899.79 1933.72 899.79"></polygon>
            <path d="M1567.91,1104.61 C1477.45,1104.61 1404.12,1031.27 1404.12,940.81 C1404.12,850.35 1477.45,777.02 1567.91,777.02 C1658.37,777.02 1731.71,850.35 1731.71,940.81 C1731.71,1031.27 1658.37,1104.61 1567.91,1104.61 Z M1567.91,1050.92 C1507.1,1050.92 1457.81,1001.62 1457.81,940.81 C1457.81,880 1507.1,830.71 1567.91,830.71 C1628.72,830.71 1678.02,880 1678.02,940.81 C1678.02,1001.62 1628.72,1050.92 1567.91,1050.92 Z M405.387,1106.43 C314.927,1106.43 241.594,1033.09 241.594,942.63 C241.594,852.17 314.927,778.84 405.387,778.84 C495.847,778.84 569.18,852.17 569.18,942.63 C569.18,1033.09 495.847,1106.43 405.387,1106.43 Z M405.387,1052.74 C344.577,1052.74 295.282,1003.44 295.282,942.63 C295.282,881.82 344.577,832.53 405.387,832.53 C466.196,832.53 515.492,881.82 515.492,942.63 C515.492,1003.44 466.196,1052.74 405.387,1052.74 Z" id="Shape" fill="#333333" fill-rule="nonzero"></path>
            <circle id="Oval" fill="#B8B8B8" transform="translate(1567.910000, 940.810000) scale(-1, 1) translate(-1567.910000, -940.810000) " cx="1567.91" cy="940.81" r="110.105"></circle>
            <circle id="Oval" fill="#B8B8B8" transform="translate(405.442000, 942.630000) scale(-1, 1) translate(-405.442000, -942.630000) " cx="405.442" cy="942.63" r="110.105"></circle>
            <path d="M1226.17,0.825 L2.276,0.825 C2.02466,0.825 1.82092,1.029 1.82092,1.28 L1.82092,718.78 L1226.63,718.78 L1226.63,1.28 C1226.63,1.029 1226.42,0.825 1226.17,0.825 Z" id="Path" stroke="#000000" stroke-width="3.63984" fill="#2F80ED"></path>
            <polygon id="Path" fill="#D3B875" points="210 201.347 687.033 291.128 687.033 655 210 521.623"></polygon>
            <polygon id="Path" fill="#B78C59" points="687.033 291.128 965.876 168.542 965.876 507.38 687.033 655"></polygon>
            <path d="M713.59,531.189 C713.59,528.405 715.24,525.885 717.793,524.772 L778.538,498.291 C779.915,497.69 781.456,498.7 781.456,500.202 L781.456,574.565 C781.456,577.167 780.014,579.554 777.71,580.763 L716.644,612.821 C715.256,613.55 713.59,612.543 713.59,610.975 L713.59,531.189 Z" id="Path" fill="#FFFFFF"></path>
            <polygon id="Path" fill="#F2CF8B" points="493.269 108.544 965.875 168.542 687.033 291.128 210 201.347"></polygon>
            <polygon id="Path" fill-opacity="0.62" fill="#6F5D3A" points="391.961 235.591 459.827 248.395 459.827 591.549 391.961 572.557"></polygon>
            <polygon id="Path" fill-opacity="0.62" fill="#6F5D3A" points="693.918 134.011 747.522 140.486 459.827 248.396 391.961 235.594"></polygon>
            <polygon id="Path" fill-opacity="0.62" fill="#6F5D3A" points="353.602 154.296 394.42 140.915 855.715 216.884 800.635 241.056"></polygon>
            <path d="M727.123,537.999 L772.997,518.074 M727.123,545.725 L772.997,525.393 M727.123,554.264 L772.997,533.932 M727.123,562.803 L772.997,542.065 M754.838,562.803 L772.997,554.264 M754.838,570.123 L772.997,561.177 M754.838,577.849 L772.997,568.496" id="Shape" stroke-opacity="0.7" stroke="#585050" stroke-width="2.78023"></path>
            <path d="M855.715,216.885 L800.635,241.057 L800.635,337.972 L809.487,349.398 L809.487,339.47 L816.864,345.082 L819.323,339.47 L819.323,335.585 C819.323,332.132 822.273,325.226 823.749,322.205 L826.208,335.585 L826.208,345.082 C828.011,340.621 831.912,332.478 833.093,335.585 C834.273,338.693 835.552,343.211 836.043,345.082 L843.42,339.47 L843.42,322.205 L848.83,306.234 L855.715,329.5 L855.715,216.885 Z" id="Path" fill-opacity="0.62" fill="#6F5D3A"></path>
            <path d="M2624.73,453.679 C2624.73,520.296 2601.93,571.609 2556.31,607.619 C2511,643.328 2446.04,661.183 2361.41,661.183 L2283.99,661.183 L2283.99,920 L2207.47,920 L2207.47,261.929 L2378.07,261.929 C2542.51,261.929 2624.73,325.846 2624.73,453.679 Z M2283.99,595.466 L2352.86,595.466 C2420.68,595.466 2469.74,584.513 2500.05,562.607 C2530.36,540.701 2545.51,505.592 2545.51,457.28 C2545.51,413.768 2531.26,381.36 2502.75,360.054 C2474.24,338.749 2429.83,328.096 2369.52,328.096 L2283.99,328.096 L2283.99,595.466 Z M3055.04,920 L3040.19,849.78 L3036.59,849.78 C3011.98,880.69 2987.38,901.7 2962.77,912.8 C2938.46,923.6 2908.01,929 2871.4,929 C2822.48,929 2784.07,916.4 2756.17,891.19 C2728.56,865.99 2714.76,830.13 2714.76,783.61 C2714.76,683.989 2794.43,631.775 2953.77,626.974 L3037.49,624.273 L3037.49,593.665 C3037.49,554.955 3029.09,526.448 3012.28,508.143 C2995.78,489.538 2969.22,480.236 2932.61,480.236 C2891.5,480.236 2844.99,492.839 2793.08,518.045 L2770.12,460.881 C2794.43,447.677 2820.98,437.325 2849.79,429.823 C2878.9,422.321 2908.01,418.57 2937.11,418.57 C2995.93,418.57 3039.44,431.623 3067.65,457.73 C3096.15,483.837 3110.41,525.697 3110.41,583.312 L3110.41,920 L3055.04,920 Z M2886.25,867.34 C2932.76,867.34 2969.22,854.58 2995.63,829.08 C3022.34,803.57 3035.69,767.86 3035.69,721.95 L3035.69,677.387 L2960.97,680.538 C2901.55,682.638 2858.64,691.941 2832.24,708.44 C2806.13,724.65 2793.08,750.01 2793.08,784.51 C2793.08,811.52 2801.18,832.08 2817.38,846.18 C2833.89,860.28 2856.84,867.34 2886.25,867.34 Z M3461.95,929 C3390.53,929 3335.17,907.1 3295.86,863.29 C3256.85,819.17 3237.34,756.91 3237.34,676.487 C3237.34,593.965 3257.15,530.199 3296.76,485.187 C3336.67,440.175 3393.38,417.669 3466.9,417.669 C3490.61,417.669 3514.31,420.22 3538.02,425.321 C3561.73,430.423 3580.33,436.424 3593.83,443.326 L3570.88,506.793 C3554.37,500.191 3536.37,494.789 3516.86,490.588 C3497.36,486.087 3480.1,483.837 3465.1,483.837 C3364.87,483.837 3314.76,547.753 3314.76,675.586 C3314.76,736.2 3326.91,782.71 3351.22,815.12 C3375.83,847.53 3412.14,863.74 3460.15,863.74 C3501.26,863.74 3543.42,854.88 3586.63,837.18 L3586.63,903.35 C3553.62,920.45 3512.06,929 3461.95,929 Z M3777.93,667.484 C3790.84,649.18 3810.49,625.173 3836.9,595.466 L3996.24,426.672 L4084.91,426.672 L3885.06,636.876 L4098.87,920 L4008.39,920 L3834.2,686.839 L3777.93,735.45 L3777.93,920 L3704.11,920 L3704.11,219.618 L3777.93,219.618 L3777.93,590.964 C3777.93,607.469 3776.73,632.975 3774.33,667.484 L3777.93,667.484 Z M4616.95,453.679 C4616.95,520.296 4594.14,571.609 4548.53,607.619 C4503.22,643.328 4438.25,661.183 4353.63,661.183 L4276.21,661.183 L4276.21,920 L4199.69,920 L4199.69,261.929 L4370.29,261.929 C4534.73,261.929 4616.95,325.846 4616.95,453.679 Z M4276.21,595.466 L4345.08,595.466 C4412.9,595.466 4461.96,584.513 4492.27,562.607 C4522.58,540.701 4537.73,505.592 4537.73,457.28 C4537.73,413.768 4523.48,381.36 4494.97,360.054 C4466.46,338.749 4422.05,328.096 4361.73,328.096 L4276.21,328.096 L4276.21,595.466 Z M4818.6,920 L4743.88,920 L4743.88,426.672 L4818.6,426.672 L4818.6,920 Z M4737.58,292.987 C4737.58,275.883 4741.78,263.429 4750.18,255.627 C4758.59,247.525 4769.09,243.474 4781.69,243.474 C4793.7,243.474 4804.05,247.525 4812.75,255.627 C4821.45,263.729 4825.8,276.183 4825.8,292.987 C4825.8,309.791 4821.45,322.395 4812.75,330.797 C4804.05,338.899 4793.7,342.95 4781.69,342.95 C4769.09,342.95 4758.59,338.899 4750.18,330.797 C4741.78,322.395 4737.58,309.791 4737.58,292.987 Z M5174.19,929 C5102.78,929 5047.41,907.1 5008.1,863.29 C4969.09,819.17 4949.59,756.91 4949.59,676.487 C4949.59,593.965 4969.39,530.199 5009,485.187 C5048.91,440.175 5105.63,417.669 5179.15,417.669 C5202.85,417.669 5226.56,420.22 5250.26,425.321 C5273.97,430.423 5292.58,436.424 5306.08,443.326 L5283.12,506.793 C5266.62,500.191 5248.61,494.789 5229.11,490.588 C5209.6,486.087 5192.35,483.837 5177.35,483.837 C5077.12,483.837 5027.01,547.753 5027.01,675.586 C5027.01,736.2 5039.16,782.71 5063.47,815.12 C5088.07,847.53 5124.38,863.74 5172.39,863.74 C5213.51,863.74 5255.67,854.88 5298.88,837.18 L5298.88,903.35 C5265.87,920.45 5224.31,929 5174.19,929 Z M5490.18,667.484 C5503.08,649.18 5522.74,625.173 5549.14,595.466 L5708.48,426.672 L5797.16,426.672 L5597.3,636.876 L5811.11,920 L5720.64,920 L5546.44,686.839 L5490.18,735.45 L5490.18,920 L5416.36,920 L5416.36,219.618 L5490.18,219.618 L5490.18,590.964 C5490.18,607.469 5488.98,632.975 5486.58,667.484 L5490.18,667.484 Z M5970.9,426.672 L5970.9,746.7 C5970.9,786.92 5980.05,816.92 5998.36,836.73 C6016.66,856.53 6045.32,866.44 6084.33,866.44 C6135.94,866.44 6173.6,852.33 6197.31,824.13 C6221.32,795.92 6233.32,749.86 6233.32,685.939 L6233.32,426.672 L6308.04,426.672 L6308.04,920 L6246.37,920 L6235.57,853.83 L6231.52,853.83 C6216.22,878.14 6194.91,896.74 6167.6,909.65 C6140.6,922.55 6109.69,929 6074.88,929 C6014.86,929 5969.85,914.75 5939.84,886.24 C5910.14,857.73 5895.28,812.12 5895.28,749.41 L5895.28,426.672 L5970.9,426.672 Z M6696.49,929 C6664.38,929 6634.97,923.15 6608.27,911.45 C6581.86,899.44 6559.66,881.14 6541.65,856.53 L6536.25,856.53 C6539.85,885.34 6541.65,912.65 6541.65,938.45 L6541.65,1141.46 L6466.93,1141.46 L6466.93,426.672 L6527.7,426.672 L6538.05,494.189 L6541.65,494.189 C6560.86,467.182 6583.21,447.677 6608.72,435.674 C6634.22,423.671 6663.48,417.669 6696.49,417.669 C6761.91,417.669 6812.32,440.025 6847.73,484.737 C6883.44,529.448 6901.29,592.165 6901.29,672.886 C6901.29,753.91 6883.14,816.92 6846.83,861.93 C6810.82,906.65 6760.71,929 6696.49,929 Z M6685.69,481.136 C6635.27,481.136 6598.82,495.09 6576.31,522.997 C6553.8,550.904 6542.25,595.316 6541.65,656.231 L6541.65,672.886 C6541.65,742.2 6553.2,791.87 6576.31,821.87 C6599.42,851.58 6636.48,866.44 6687.49,866.44 C6730.1,866.44 6763.41,849.18 6787.41,814.67 C6811.72,780.16 6823.87,732.6 6823.87,671.986 C6823.87,610.47 6811.72,563.357 6787.41,530.649 C6763.41,497.64 6729.5,481.136 6685.69,481.136 Z M7021.47,872.29 C7021.47,852.18 7025.98,837.03 7034.98,826.83 C7044.28,816.32 7057.48,811.07 7074.59,811.07 C7091.99,811.07 7105.5,816.32 7115.1,826.83 C7125,837.03 7129.95,852.18 7129.95,872.29 C7129.95,891.79 7125,906.8 7115.1,917.3 C7105.2,927.8 7091.69,933.05 7074.59,933.05 C7059.28,933.05 7046.53,928.4 7036.33,919.1 C7026.43,909.5 7021.47,893.89 7021.47,872.29 Z M7475.19,929 C7403.77,929 7348.41,907.1 7309.1,863.29 C7270.09,819.17 7250.58,756.91 7250.58,676.487 C7250.58,593.965 7270.39,530.199 7310,485.187 C7349.91,440.175 7406.63,417.669 7480.14,417.669 C7503.85,417.669 7527.56,420.22 7551.26,425.321 C7574.97,430.423 7593.57,436.424 7607.08,443.326 L7584.12,506.793 C7567.62,500.191 7549.61,494.789 7530.11,490.588 C7510.6,486.087 7493.35,483.837 7478.34,483.837 C7378.12,483.837 7328,547.753 7328,675.586 C7328,736.2 7340.16,782.71 7364.46,815.12 C7389.07,847.53 7425.38,863.74 7473.39,863.74 C7514.5,863.74 7556.66,854.88 7599.88,837.18 L7599.88,903.35 C7566.87,920.45 7525.31,929 7475.19,929 Z M8143.17,672.886 C8143.17,753.31 8122.91,816.17 8082.4,861.48 C8041.89,906.5 7985.93,929 7914.51,929 C7870.4,929 7831.24,918.65 7797.03,897.94 C7762.82,877.24 7736.41,847.53 7717.81,808.82 C7699.2,770.11 7689.9,724.8 7689.9,672.886 C7689.9,592.465 7710,529.899 7750.21,485.187 C7790.42,440.175 7846.24,417.669 7917.66,417.669 C7986.68,417.669 8041.44,440.625 8081.95,486.537 C8122.76,532.449 8143.17,594.565 8143.17,672.886 Z M7767.32,672.886 C7767.32,735.9 7779.92,783.91 7805.13,816.92 C7830.34,849.93 7867.39,866.44 7916.31,866.44 C7965.22,866.44 8002.28,850.08 8027.49,817.37 C8052.99,784.36 8065.75,736.2 8065.75,672.886 C8065.75,610.169 8052.99,562.607 8027.49,530.199 C8002.28,497.49 7964.92,481.136 7915.41,481.136 C7866.49,481.136 7829.59,497.19 7804.68,529.298 C7779.77,561.407 7767.32,609.269 7767.32,672.886 Z M8903.41,920 L8903.41,599.067 C8903.41,559.756 8895.01,530.349 8878.21,510.844 C8861.4,491.038 8835.3,481.136 8799.89,481.136 C8753.38,481.136 8719.02,494.489 8696.81,521.196 C8674.6,547.903 8663.5,589.014 8663.5,644.528 L8663.5,920 L8588.78,920 L8588.78,599.067 C8588.78,559.756 8580.38,530.349 8563.58,510.844 C8546.77,491.038 8520.51,481.136 8484.81,481.136 C8437.99,481.136 8403.63,495.24 8381.73,523.447 C8360.12,551.354 8349.32,597.266 8349.32,661.183 L8349.32,920 L8274.6,920 L8274.6,426.672 L8335.37,426.672 L8347.52,494.189 L8351.12,494.189 C8365.22,470.183 8385.03,451.428 8410.54,437.925 C8436.34,424.421 8465.15,417.669 8496.96,417.669 C8574.08,417.669 8624.49,445.577 8648.2,501.391 L8651.8,501.391 C8666.5,475.584 8687.81,455.179 8715.72,440.175 C8743.62,425.171 8775.43,417.669 8811.14,417.669 C8866.95,417.669 8908.67,432.073 8936.27,460.881 C8964.18,489.388 8978.13,535.15 8978.13,598.166 L8978.13,920 L8903.41,920 Z" id="Shape" fill="#2F80ED" fill-rule="nonzero"></path>
        </g>
    </g>
</svg>