<svg width="406" height="223" viewBox="0 0 406 223" fill="none" xmlns="http://www.w3.org/2000/svg">
<path d="M126.86 202.704L120.119 193.106C119.286 193.166 118.631 193.195 118.155 193.195H110.431V202.704H105.967V171.455H118.155C122.202 171.455 125.387 172.422 127.708 174.356C130.029 176.291 131.19 178.954 131.19 182.347C131.19 184.758 130.595 186.812 129.404 188.508C128.214 190.204 126.518 191.439 124.315 192.213L131.726 202.704H126.86ZM118.021 189.401C120.848 189.401 123.006 188.791 124.494 187.57C125.982 186.35 126.726 184.609 126.726 182.347C126.726 180.085 125.982 178.359 124.494 177.169C123.006 175.949 120.848 175.338 118.021 175.338H110.431V189.401H118.021ZM158.492 191.008C158.492 191.335 158.462 191.767 158.403 192.303H139.206C139.474 194.386 140.382 196.067 141.929 197.347C143.507 198.597 145.456 199.222 147.778 199.222C150.605 199.222 152.882 198.27 154.608 196.365L156.974 199.133C155.903 200.383 154.563 201.335 152.956 201.99C151.379 202.645 149.608 202.972 147.644 202.972C145.144 202.972 142.926 202.466 140.992 201.454C139.057 200.413 137.555 198.969 136.483 197.124C135.441 195.279 134.921 193.195 134.921 190.874C134.921 188.582 135.427 186.514 136.438 184.669C137.48 182.823 138.894 181.395 140.679 180.383C142.495 179.341 144.534 178.821 146.795 178.821C149.057 178.821 151.066 179.341 152.822 180.383C154.608 181.395 155.992 182.823 156.974 184.669C157.986 186.514 158.492 188.627 158.492 191.008ZM146.795 182.437C144.742 182.437 143.016 183.062 141.617 184.312C140.248 185.562 139.444 187.198 139.206 189.222H154.385C154.147 187.228 153.328 185.606 151.929 184.356C150.56 183.076 148.849 182.437 146.795 182.437ZM174.086 202.972C171.675 202.972 169.517 202.451 167.612 201.41C165.738 200.368 164.264 198.939 163.193 197.124C162.121 195.279 161.586 193.195 161.586 190.874C161.586 188.553 162.121 186.484 163.193 184.669C164.264 182.823 165.738 181.395 167.612 180.383C169.517 179.341 171.675 178.821 174.086 178.821C176.228 178.821 178.133 179.252 179.8 180.115C181.496 180.978 182.806 182.228 183.728 183.865L180.47 185.963C179.725 184.832 178.803 183.984 177.702 183.419C176.6 182.853 175.38 182.57 174.041 182.57C172.493 182.57 171.095 182.913 169.845 183.597C168.624 184.282 167.657 185.264 166.943 186.544C166.258 187.794 165.916 189.237 165.916 190.874C165.916 192.541 166.258 194.014 166.943 195.294C167.657 196.544 168.624 197.511 169.845 198.195C171.095 198.88 172.493 199.222 174.041 199.222C175.38 199.222 176.6 198.939 177.702 198.374C178.803 197.808 179.725 196.96 180.47 195.829L183.728 197.883C182.806 199.52 181.496 200.785 179.8 201.677C178.133 202.541 176.228 202.972 174.086 202.972ZM198.392 202.972C196.041 202.972 193.928 202.451 192.053 201.41C190.178 200.368 188.705 198.939 187.634 197.124C186.592 195.279 186.071 193.195 186.071 190.874C186.071 188.553 186.592 186.484 187.634 184.669C188.705 182.823 190.178 181.395 192.053 180.383C193.928 179.341 196.041 178.821 198.392 178.821C200.744 178.821 202.842 179.341 204.687 180.383C206.562 181.395 208.02 182.823 209.062 184.669C210.133 186.484 210.669 188.553 210.669 190.874C210.669 193.195 210.133 195.279 209.062 197.124C208.02 198.939 206.562 200.368 204.687 201.41C202.842 202.451 200.744 202.972 198.392 202.972ZM198.392 199.222C199.91 199.222 201.264 198.88 202.455 198.195C203.675 197.481 204.627 196.499 205.312 195.249C205.997 193.969 206.339 192.511 206.339 190.874C206.339 189.237 205.997 187.794 205.312 186.544C204.627 185.264 203.675 184.282 202.455 183.597C201.264 182.913 199.91 182.57 198.392 182.57C196.875 182.57 195.506 182.913 194.285 183.597C193.095 184.282 192.142 185.264 191.428 186.544C190.744 187.794 190.401 189.237 190.401 190.874C190.401 192.511 190.744 193.969 191.428 195.249C192.142 196.499 193.095 197.481 194.285 198.195C195.506 198.88 196.875 199.222 198.392 199.222ZM236.21 179.044L225.853 202.704H221.478L211.121 179.044H215.585L223.71 198.017L232.013 179.044H236.21ZM260.27 191.008C260.27 191.335 260.24 191.767 260.18 192.303H240.984C241.252 194.386 242.16 196.067 243.707 197.347C245.285 198.597 247.234 199.222 249.555 199.222C252.383 199.222 254.66 198.27 256.386 196.365L258.752 199.133C257.68 200.383 256.341 201.335 254.734 201.99C253.157 202.645 251.386 202.972 249.422 202.972C246.922 202.972 244.704 202.466 242.77 201.454C240.835 200.413 239.332 198.969 238.261 197.124C237.219 195.279 236.698 193.195 236.698 190.874C236.698 188.582 237.204 186.514 238.216 184.669C239.258 182.823 240.672 181.395 242.457 180.383C244.273 179.341 246.311 178.821 248.573 178.821C250.835 178.821 252.844 179.341 254.6 180.383C256.386 181.395 257.77 182.823 258.752 184.669C259.764 186.514 260.27 188.627 260.27 191.008ZM248.573 182.437C246.52 182.437 244.794 183.062 243.395 184.312C242.026 185.562 241.222 187.198 240.984 189.222H256.163C255.924 187.228 255.106 185.606 253.707 184.356C252.338 183.076 250.627 182.437 248.573 182.437ZM269.658 183.017C270.402 181.648 271.503 180.606 272.962 179.892C274.42 179.178 276.191 178.821 278.274 178.821V182.972C278.036 182.942 277.709 182.928 277.292 182.928C274.971 182.928 273.14 183.627 271.801 185.026C270.491 186.395 269.837 188.359 269.837 190.919V202.704H265.551V179.044H269.658V183.017ZM304.783 179.044L293.31 205.07C292.298 207.481 291.108 209.177 289.739 210.16C288.399 211.142 286.777 211.633 284.873 211.633C283.712 211.633 282.581 211.439 281.48 211.052C280.408 210.695 279.515 210.16 278.801 209.445L280.631 206.231C281.852 207.392 283.265 207.972 284.873 207.972C285.914 207.972 286.777 207.689 287.462 207.124C288.176 206.588 288.816 205.651 289.381 204.311L290.14 202.66L279.694 179.044H284.158L292.417 197.972L300.587 179.044H304.783Z" fill="#657076"/>
<path d="M343.128 118.987H334.1C333.957 118.987 333.842 119.103 333.842 119.246V132.055C333.842 132.198 333.957 132.314 334.1 132.314H343.128C343.271 132.314 343.387 132.198 343.387 132.055V119.246C343.387 119.103 343.271 118.987 343.128 118.987Z" fill="#B8B8B8" stroke="black" stroke-width="0.172515"/>
<mask id="path-4-inside-1" fill="white">
<path fill-rule="evenodd" clip-rule="evenodd" d="M317.719 49.3642C317.356 48.7936 316.723 48.4448 316.047 48.4448H265.293C264.197 48.4448 263.309 49.3331 263.309 50.4287V111.364H271.725V56.6815C271.725 55.5858 272.613 54.6976 273.709 54.6976H316.508C317.244 54.6976 317.923 55.1104 318.265 55.7614C327.563 73.4199 332.182 83.3976 333.768 95.341L333.768 119.091C333.831 119.028 333.918 118.988 334.014 118.988H341.206V103.249C341.206 103.058 341.177 102.865 341.123 102.682C333.813 78.0226 328.494 66.3015 317.719 49.3642ZM333.669 132.381H305.193L305.193 132.272C305.193 120.79 295.923 111.47 284.447 111.365V111.364H284.251H271.811V56.6815C271.811 55.6335 272.661 54.7839 273.709 54.7839H316.508C317.212 54.7839 317.861 55.1787 318.189 55.8016C327.486 73.458 332.098 83.4229 333.682 95.3467L333.682 119.238C333.673 119.269 333.669 119.3 333.669 119.333V132.381ZM315.11 57.0233C315.763 57.0353 316.37 57.3673 316.724 57.9162C322.854 67.4248 326.763 77.3383 328.092 82.8671L330.691 91.038C331.171 92.5457 329.779 93.9807 328.257 93.5473L273.8 78.0395C273.614 77.9867 273.487 77.8174 273.487 77.6247V58.2814C273.487 57.1715 274.397 56.2775 275.507 56.2978L315.11 57.0233Z"/>
</mask>
<path fill-rule="evenodd" clip-rule="evenodd" d="M317.719 49.3642C317.356 48.7936 316.723 48.4448 316.047 48.4448H265.293C264.197 48.4448 263.309 49.3331 263.309 50.4287V111.364H271.725V56.6815C271.725 55.5858 272.613 54.6976 273.709 54.6976H316.508C317.244 54.6976 317.923 55.1104 318.265 55.7614C327.563 73.4199 332.182 83.3976 333.768 95.341L333.768 119.091C333.831 119.028 333.918 118.988 334.014 118.988H341.206V103.249C341.206 103.058 341.177 102.865 341.123 102.682C333.813 78.0226 328.494 66.3015 317.719 49.3642ZM333.669 132.381H305.193L305.193 132.272C305.193 120.79 295.923 111.47 284.447 111.365V111.364H284.251H271.811V56.6815C271.811 55.6335 272.661 54.7839 273.709 54.7839H316.508C317.212 54.7839 317.861 55.1787 318.189 55.8016C327.486 73.458 332.098 83.4229 333.682 95.3467L333.682 119.238C333.673 119.269 333.669 119.3 333.669 119.333V132.381ZM315.11 57.0233C315.763 57.0353 316.37 57.3673 316.724 57.9162C322.854 67.4248 326.763 77.3383 328.092 82.8671L330.691 91.038C331.171 92.5457 329.779 93.9807 328.257 93.5473L273.8 78.0395C273.614 77.9867 273.487 77.8174 273.487 77.6247V58.2814C273.487 57.1715 274.397 56.2775 275.507 56.2978L315.11 57.0233Z" fill="#FFF3DC"/>
<path d="M317.719 49.3642L318.01 49.179L318.01 49.179L317.719 49.3642ZM263.309 111.364V111.709H262.964V111.364H263.309ZM271.725 111.364H272.07V111.709H271.725V111.364ZM318.265 55.7614L318.571 55.6006L318.571 55.6006L318.265 55.7614ZM333.768 95.341L334.11 95.2956L334.113 95.3182L334.113 95.341L333.768 95.341ZM333.768 119.091L334.014 119.333L333.423 119.932L333.423 119.091L333.768 119.091ZM341.206 118.988H341.551V119.333H341.206V118.988ZM341.123 102.682L341.454 102.584L341.454 102.584L341.123 102.682ZM333.669 132.381H334.014V132.726H333.669V132.381ZM305.193 132.381V132.726H304.847L304.848 132.38L305.193 132.381ZM305.193 132.272L305.538 132.272L305.538 132.273L305.193 132.272ZM284.447 111.365L284.444 111.71L284.102 111.707V111.365H284.447ZM284.447 111.364V111.019H284.792V111.364H284.447ZM271.811 111.364V111.709H271.466V111.364H271.811ZM318.189 55.8016L317.884 55.9623L317.884 55.9623L318.189 55.8016ZM333.682 95.3467L334.024 95.3013L334.027 95.3239L334.027 95.3467L333.682 95.3467ZM333.682 119.238L334.027 119.238L334.027 119.287L334.014 119.333L333.682 119.238ZM316.724 57.9162L317.014 57.7293L317.014 57.7293L316.724 57.9162ZM315.11 57.0233L315.117 56.6784L315.117 56.6784L315.11 57.0233ZM328.092 82.8671L327.764 82.9716L327.76 82.9598L327.757 82.9477L328.092 82.8671ZM330.691 91.038L331.02 90.9334L331.02 90.9334L330.691 91.038ZM328.257 93.5473L328.163 93.8792L328.163 93.8792L328.257 93.5473ZM273.8 78.0395L273.705 78.3713L273.705 78.3713L273.8 78.0395ZM275.507 56.2978L275.501 56.6428L275.501 56.6428L275.507 56.2978ZM316.047 48.0998C316.841 48.0998 317.584 48.5093 318.01 49.179L317.428 49.5494C317.128 49.078 316.605 48.7899 316.047 48.7899V48.0998ZM265.293 48.0998H316.047V48.7899H265.293V48.0998ZM262.964 50.4287C262.964 49.1425 264.007 48.0998 265.293 48.0998V48.7899C264.388 48.7899 263.654 49.5236 263.654 50.4287H262.964ZM262.964 111.364V50.4287H263.654V111.364H262.964ZM271.725 111.709H263.309V111.019H271.725V111.709ZM272.07 56.6815V111.364H271.38V56.6815H272.07ZM273.709 55.0426C272.804 55.0426 272.07 55.7764 272.07 56.6815H271.38C271.38 55.3953 272.423 54.3526 273.709 54.3526V55.0426ZM316.508 55.0426H273.709V54.3526H316.508V55.0426ZM317.96 55.9221C317.676 55.3835 317.115 55.0426 316.508 55.0426V54.3526C317.373 54.3526 318.169 54.8372 318.571 55.6006L317.96 55.9221ZM333.426 95.3864C331.849 83.5113 327.259 73.5836 317.96 55.9221L318.571 55.6006C327.867 73.2562 332.515 83.2838 334.11 95.2956L333.426 95.3864ZM333.423 119.091L333.423 95.341L334.113 95.341L334.113 119.091L333.423 119.091ZM334.014 119.333L334.014 119.333L333.523 118.849C333.647 118.722 333.822 118.643 334.014 118.643V119.333ZM341.206 119.333H334.014V118.643H341.206V119.333ZM341.551 103.249V118.988H340.861V103.249H341.551ZM341.454 102.584C341.517 102.798 341.551 103.025 341.551 103.249H340.861C340.861 103.092 340.837 102.932 340.792 102.78L341.454 102.584ZM318.01 49.179C328.806 66.1477 334.136 77.8991 341.454 102.584L340.792 102.78C333.49 78.146 328.183 66.4553 317.428 49.5494L318.01 49.179ZM333.669 132.726H305.193V132.036H333.669V132.726ZM304.848 132.38L304.848 132.271L305.538 132.273L305.538 132.382L304.848 132.38ZM304.848 132.272C304.848 120.98 295.731 111.813 284.444 111.71L284.45 111.02C296.114 111.126 305.538 120.6 305.538 132.272H304.848ZM284.102 111.365V111.364H284.792V111.365H284.102ZM284.447 111.709H284.251V111.019H284.447V111.709ZM284.251 111.709H271.811V111.019H284.251V111.709ZM271.466 111.364V56.6815H272.156V111.364H271.466ZM271.466 56.6815C271.466 55.4429 272.47 54.4388 273.709 54.4388V55.1289C272.851 55.1289 272.156 55.824 272.156 56.6815H271.466ZM273.709 54.4388H316.508V55.1289H273.709V54.4388ZM316.508 54.4388C317.341 54.4388 318.107 54.9055 318.494 55.6408L317.884 55.9623C317.615 55.4518 317.083 55.1289 316.508 55.1289V54.4388ZM318.494 55.6408C327.789 73.2944 332.431 83.3091 334.024 95.3013L333.34 95.3921C331.765 83.5366 327.182 73.6217 317.884 55.9623L318.494 55.6408ZM334.027 95.3467L334.027 119.238L333.337 119.238L333.337 95.3467L334.027 95.3467ZM334.014 119.333L334.014 119.333H333.324C333.324 119.268 333.333 119.204 333.35 119.144L334.014 119.333ZM334.014 119.333V132.381H333.324V119.333H334.014ZM316.434 58.1032C316.144 57.6527 315.644 57.3782 315.104 57.3683L315.117 56.6784C315.882 56.6924 316.597 57.0818 317.014 57.7293L316.434 58.1032ZM327.757 82.9477C326.438 77.4606 322.546 67.5827 316.434 58.1032L317.014 57.7293C323.163 67.267 327.089 77.2161 328.428 82.7864L327.757 82.9477ZM330.362 91.1426L327.764 82.9716L328.421 82.7625L331.02 90.9334L330.362 91.1426ZM328.352 93.2155C329.609 93.5735 330.758 92.3881 330.362 91.1426L331.02 90.9334C331.583 92.7034 329.949 94.3879 328.163 93.8792L328.352 93.2155ZM273.894 77.7077L328.352 93.2155L328.163 93.8792L273.705 78.3713L273.894 77.7077ZM273.832 77.6247C273.832 77.6633 273.857 77.6971 273.894 77.7077L273.705 78.3713C273.372 78.2763 273.142 77.9716 273.142 77.6247H273.832ZM273.832 58.2814V77.6247H273.142V58.2814H273.832ZM275.501 56.6428C274.584 56.626 273.832 57.3645 273.832 58.2814H273.142C273.142 56.9785 274.21 55.929 275.513 55.9529L275.501 56.6428ZM315.104 57.3683L275.501 56.6428L275.513 55.9529L315.117 56.6784L315.104 57.3683Z" fill="black" mask="url(#path-4-inside-1)"/>
<path d="M274.246 111.402L270.007 111.402C266.621 117.959 263.629 120.103 261.363 128.595C259.098 137.088 262.519 130.123 262.519 130.123C266.037 121.774 268.855 117.593 274.246 111.402Z" fill="black"/>
<mask id="path-7-inside-2" fill="white">
<path fill-rule="evenodd" clip-rule="evenodd" d="M248.234 111.682H250.71V116.655H250.714V119.481H250.71V128.64H250.198V128.66H157.416V125.797H159.113V111.682H161.588V116.655L248.234 116.655V111.682ZM248.234 119.481V125.797H161.588V119.481H248.234Z"/>
</mask>
<path fill-rule="evenodd" clip-rule="evenodd" d="M248.234 111.682H250.71V116.655H250.714V119.481H250.71V128.64H250.198V128.66H157.416V125.797H159.113V111.682H161.588V116.655L248.234 116.655V111.682ZM248.234 119.481V125.797H161.588V119.481H248.234Z" fill="#B8B8B8"/>
<path d="M250.71 111.682V111.337H251.055V111.682H250.71ZM248.234 111.682H247.889V111.337H248.234V111.682ZM250.71 116.655V117H250.365V116.655H250.71ZM250.714 116.655V116.31H251.059V116.655H250.714ZM250.714 119.481H251.059V119.826H250.714V119.481ZM250.71 119.481H250.365V119.136H250.71V119.481ZM250.71 128.64H251.055V128.985H250.71V128.64ZM250.198 128.64H249.853V128.295H250.198V128.64ZM250.198 128.66H250.543V129.005H250.198V128.66ZM157.416 128.66V129.005H157.071V128.66H157.416ZM157.416 125.797H157.071V125.452H157.416V125.797ZM159.113 125.797H159.458V126.142H159.113V125.797ZM159.113 111.682H158.768V111.337H159.113V111.682ZM161.588 111.682V111.337H161.933V111.682H161.588ZM161.588 116.655L161.588 117L161.243 117V116.655H161.588ZM248.234 116.655H248.579V117L248.234 117L248.234 116.655ZM248.234 119.481V119.136H248.579V119.481H248.234ZM248.234 125.797H248.579V126.142H248.234V125.797ZM161.588 125.797V126.142H161.243V125.797H161.588ZM161.588 119.481H161.243V119.136H161.588V119.481ZM250.71 112.027H248.234V111.337H250.71V112.027ZM250.365 116.655V111.682H251.055V116.655H250.365ZM250.714 117H250.71V116.31H250.714V117ZM250.369 119.481V116.655H251.059V119.481H250.369ZM250.71 119.136H250.714V119.826H250.71V119.136ZM250.365 128.64V119.481H251.055V128.64H250.365ZM250.198 128.295H250.71V128.985H250.198V128.295ZM249.853 128.66V128.64H250.543V128.66H249.853ZM157.416 128.315H250.198V129.005H157.416V128.315ZM157.761 125.797V128.66H157.071V125.797H157.761ZM159.113 126.142H157.416V125.452H159.113V126.142ZM159.458 111.682V125.797H158.768V111.682H159.458ZM161.588 112.027H159.113V111.337H161.588V112.027ZM161.243 116.655V111.682H161.933V116.655H161.243ZM248.234 117L161.588 117L161.588 116.31L248.234 116.31L248.234 117ZM248.579 111.682V116.655H247.889V111.682H248.579ZM248.579 119.481V125.797H247.889V119.481H248.579ZM248.234 126.142H161.588V125.452H248.234V126.142ZM161.243 125.797V119.481H161.933V125.797H161.243ZM161.588 119.136H248.234V119.826H161.588V119.136Z" fill="black" mask="url(#path-7-inside-2)"/>
<mask id="path-9-inside-3" fill="white">
<path fill-rule="evenodd" clip-rule="evenodd" d="M79.4475 111.786H81.7833V125.415H107.478V111.786H109.814V128.141H107.478V128.14H81.7833V128.141H79.4475V128.14H69.0044C69.002 128.141 68.9995 128.141 68.9971 128.141H63.736C63.6407 128.141 63.5635 128.063 63.5635 127.968V117.41C63.5635 117.315 63.6407 117.237 63.736 117.237H68.9971C69.0923 117.237 69.1696 117.315 69.1696 117.41V125.415H79.4475V111.786Z"/>
</mask>
<path fill-rule="evenodd" clip-rule="evenodd" d="M79.4475 111.786H81.7833V125.415H107.478V111.786H109.814V128.141H107.478V128.14H81.7833V128.141H79.4475V128.14H69.0044C69.002 128.141 68.9995 128.141 68.9971 128.141H63.736C63.6407 128.141 63.5635 128.063 63.5635 127.968V117.41C63.5635 117.315 63.6407 117.237 63.736 117.237H68.9971C69.0923 117.237 69.1696 117.315 69.1696 117.41V125.415H79.4475V111.786Z" fill="#B8B8B8"/>
<path d="M81.7833 111.786V111.441H82.1283V111.786H81.7833ZM79.4475 111.786H79.1024V111.441H79.4475V111.786ZM81.7833 125.415V125.76H81.4383V125.415H81.7833ZM107.478 125.415H107.823V125.76H107.478V125.415ZM107.478 111.786H107.133V111.441H107.478V111.786ZM109.814 111.786V111.441H110.159V111.786H109.814ZM109.814 128.141H110.159V128.486H109.814V128.141ZM107.478 128.141V128.486H107.133V128.141H107.478ZM107.478 128.14V127.795H107.823V128.14H107.478ZM81.7833 128.14H81.4383V127.795H81.7833V128.14ZM81.7833 128.141H82.1283V128.486H81.7833V128.141ZM79.4475 128.141V128.486H79.1024V128.141H79.4475ZM79.4475 128.14V127.795H79.7925V128.14H79.4475ZM69.0044 128.14L68.9899 127.796L68.9971 127.795H69.0044V128.14ZM69.1696 125.415V125.76H68.8245V125.415H69.1696ZM79.4475 125.415H79.7925V125.76H79.4475V125.415ZM81.7833 112.131H79.4475V111.441H81.7833V112.131ZM81.4383 125.415V111.786H82.1283V125.415H81.4383ZM107.478 125.76H81.7833V125.07H107.478V125.76ZM107.823 111.786V125.415H107.133V111.786H107.823ZM109.814 112.131H107.478V111.441H109.814V112.131ZM109.469 128.141V111.786H110.159V128.141H109.469ZM107.478 127.796H109.814V128.486H107.478V127.796ZM107.823 128.14V128.141H107.133V128.14H107.823ZM81.7833 127.795H107.478V128.485H81.7833V127.795ZM81.4383 128.141V128.14H82.1283V128.141H81.4383ZM79.4475 127.796H81.7833V128.486H79.4475V127.796ZM79.7925 128.14V128.141H79.1024V128.14H79.7925ZM69.0044 127.795H79.4475V128.485H69.0044V127.795ZM68.9971 127.796C68.9947 127.796 68.9923 127.796 68.9899 127.796L69.019 128.485C69.0116 128.486 69.0043 128.486 68.9971 128.486V127.796ZM63.736 127.796H68.9971V128.486H63.736V127.796ZM63.9085 127.968C63.9085 127.873 63.8312 127.796 63.736 127.796V128.486C63.4501 128.486 63.2184 128.254 63.2184 127.968H63.9085ZM63.9085 117.41V127.968H63.2184V117.41H63.9085ZM63.736 117.582C63.8312 117.582 63.9085 117.505 63.9085 117.41H63.2184C63.2184 117.124 63.4501 116.892 63.736 116.892V117.582ZM68.9971 117.582H63.736V116.892H68.9971V117.582ZM68.8245 117.41C68.8245 117.505 68.9018 117.582 68.9971 117.582V116.892C69.2829 116.892 69.5146 117.124 69.5146 117.41H68.8245ZM68.8245 125.415V117.41H69.5146V125.415H68.8245ZM79.4475 125.76H69.1696V125.07H79.4475V125.76ZM79.7925 111.786V125.415H79.1024V111.786H79.7925Z" fill="black" mask="url(#path-9-inside-3)"/>
<path d="M326.986 87.0936C327.314 90.6647 328.454 91.345 331.214 91.5555" stroke="black" stroke-width="0.0862576"/>
<path d="M325.731 77.0285C325.721 76.9882 325.683 76.9601 325.641 76.9616L324.651 76.9978C324.599 76.9997 324.562 77.046 324.571 77.0967L327.299 91.5954C327.311 91.6616 327.392 91.6911 327.442 91.6478L329.095 90.2255C329.119 90.2049 329.129 90.1724 329.121 90.1413L325.731 77.0285Z" fill="black"/>
<path d="M250.67 48.4426V111.059H59.8737C52.2242 111.059 33.7517 106.455 25.4717 104.153H239.445L244.927 48.4426H250.67Z" fill="#FFF3DC" stroke="black" stroke-width="0.345031"/>
<path fill-rule="evenodd" clip-rule="evenodd" d="M147.334 111.318H120.415V111.528L110.489 128.705L112.47 129.847L121.49 113.863H146.193L155.415 129.876L157.395 128.734L147.391 111.422H147.334V111.318Z" fill="black"/>
<rect x="123.537" y="55.2716" width="97.6802" height="42.0455" stroke="white" stroke-width="0.0431288"/>
<path d="M134.016 115.361C124.022 115.361 115.926 123.333 115.926 133.172C115.926 143.012 124.022 150.984 134.016 150.984C144.01 150.984 152.106 143.012 152.106 133.172C152.106 123.333 143.986 115.361 134.016 115.361ZM134.016 146.513C126.52 146.513 120.466 140.529 120.466 133.172C120.466 125.816 126.545 119.832 134.016 119.832C141.488 119.832 147.566 125.816 147.566 133.172C147.566 140.529 141.488 146.513 134.016 146.513Z" fill="url(#paint0_radial)"/>
<path d="M133.944 146.466C141.441 146.466 147.518 140.482 147.518 133.101C147.518 125.721 141.441 119.737 133.944 119.737C126.448 119.737 120.371 125.721 120.371 133.101C120.371 140.482 126.448 146.466 133.944 146.466Z" fill="url(#paint1_radial)"/>
<path d="M134.473 126.384L133.296 126.336L132.671 127.306L133.223 128.347L134.401 128.394L135.025 127.401L134.473 126.384Z" fill="url(#paint2_radial)"/>
<path d="M134.473 137.974L133.296 137.927L132.671 138.897L133.223 139.937L134.401 139.985L135.025 138.991L134.473 137.974Z" fill="url(#paint3_radial)"/>
<path d="M129.356 127.945L128.491 128.726L128.731 129.861L129.86 130.192L130.725 129.412L130.461 128.276L129.356 127.945Z" fill="url(#paint4_radial)"/>
<path d="M137.668 136.129L136.803 136.91L137.067 138.045L138.197 138.4L139.062 137.596L138.797 136.484L137.668 136.129Z" fill="url(#paint5_radial)"/>
<path d="M126.881 132.558L126.833 133.693L127.842 134.332L128.875 133.788L128.923 132.628L127.938 132.013L126.881 132.558Z" fill="url(#paint6_radial)"/>
<path d="M138.653 132.557L138.605 133.693L139.614 134.331L140.647 133.787L140.695 132.628L139.71 132.013L138.653 132.557Z" fill="url(#paint7_radial)"/>
<path d="M128.466 137.525L129.259 138.376L130.412 138.116L130.749 137.004L129.956 136.153L128.803 136.413L128.466 137.525Z" fill="url(#paint8_radial)"/>
<path d="M136.779 129.317L137.572 130.168L138.725 129.908L139.085 128.82L138.268 127.969L137.139 128.205L136.779 129.317Z" fill="url(#paint9_radial)"/>
<path d="M284.152 114.165C274.158 114.165 266.062 122.253 266.062 132.236C266.062 142.22 274.158 150.308 284.152 150.308C294.146 150.308 302.243 142.22 302.243 132.236C302.243 122.253 294.122 114.165 284.152 114.165ZM284.152 145.772C276.657 145.772 270.603 139.7 270.603 132.236C270.603 124.773 276.681 118.701 284.152 118.701C291.624 118.701 297.702 124.773 297.702 132.236C297.702 139.7 291.624 145.772 284.152 145.772Z" fill="url(#paint10_radial)"/>
<path d="M284.081 145.724C291.577 145.724 297.654 139.653 297.654 132.164C297.654 124.676 291.577 118.605 284.081 118.605C276.584 118.605 270.507 124.676 270.507 132.164C270.507 139.653 276.584 145.724 284.081 145.724Z" fill="url(#paint11_radial)"/>
<path d="M284.609 125.349L283.432 125.301L282.807 126.285L283.36 127.341L284.537 127.389L285.161 126.381L284.609 125.349Z" fill="url(#paint12_radial)"/>
<path d="M284.609 137.108L283.432 137.06L282.807 138.044L283.36 139.1L284.537 139.148L285.161 138.14L284.609 137.108Z" fill="url(#paint13_radial)"/>
<path d="M279.492 126.933L278.627 127.725L278.867 128.877L279.996 129.213L280.861 128.421L280.597 127.269L279.492 126.933Z" fill="url(#paint14_radial)"/>
<path d="M287.804 135.236L286.939 136.028L287.204 137.18L288.333 137.54L289.198 136.724L288.933 135.596L287.804 135.236Z" fill="url(#paint15_radial)"/>
<path d="M277.017 131.612L276.969 132.764L277.978 133.412L279.011 132.86L279.059 131.684L278.074 131.06L277.017 131.612Z" fill="url(#paint16_radial)"/>
<path d="M288.789 131.612L288.741 132.764L289.75 133.412L290.783 132.86L290.831 131.684L289.846 131.06L288.789 131.612Z" fill="url(#paint17_radial)"/>
<path d="M278.603 136.652L279.395 137.516L280.549 137.252L280.885 136.124L280.092 135.26L278.939 135.524L278.603 136.652Z" fill="url(#paint18_radial)"/>
<path d="M286.915 128.325L287.708 129.189L288.861 128.925L289.221 127.821L288.405 126.957L287.275 127.197L286.915 128.325Z" fill="url(#paint19_radial)"/>
<mask id="path-36-inside-4" fill="white">
<path fill-rule="evenodd" clip-rule="evenodd" d="M213.952 74.4241L176.074 67.3295C176.074 67.3295 150.625 52.6968 141.451 52.6968H107.272C102.094 52.6968 79.1598 65.5558 79.1598 65.5558C79.1598 65.5558 62.7362 67.9207 62.7362 71.1724V86.5441H61.1087V93.673C61.1087 94.4234 61.6454 95.0665 62.3838 95.2006L75.7567 97.6295L76.3578 91.1812C76.6404 83.0215 83.3513 76.4933 91.5884 76.4933C91.6376 76.4933 91.6867 76.4935 91.7357 76.494L91.7365 76.4934L91.7372 76.494C99.349 76.5667 105.626 82.2139 106.674 89.5453L106.749 89.6101L107.272 98.9597L179.329 98.7516L179.066 92.7335C179.051 92.5065 179.041 92.2782 179.037 92.0487L179.031 91.9244L179.034 91.9212C179.033 91.8533 179.033 91.7853 179.033 91.7172C179.033 83.3093 185.856 76.4933 194.273 76.4933H194.275L194.421 76.3456L194.564 76.496C202.847 76.6511 209.513 83.4065 209.513 91.7172C209.513 91.878 209.51 92.0382 209.505 92.1978L209.526 92.219L209.496 97.9834L218.159 97.6792C218.949 97.6515 219.574 97.0035 219.574 96.2137V83.588L213.952 74.4241Z"/>
</mask>
<path fill-rule="evenodd" clip-rule="evenodd" d="M213.952 74.4241L176.074 67.3295C176.074 67.3295 150.625 52.6968 141.451 52.6968H107.272C102.094 52.6968 79.1598 65.5558 79.1598 65.5558C79.1598 65.5558 62.7362 67.9207 62.7362 71.1724V86.5441H61.1087V93.673C61.1087 94.4234 61.6454 95.0665 62.3838 95.2006L75.7567 97.6295L76.3578 91.1812C76.6404 83.0215 83.3513 76.4933 91.5884 76.4933C91.6376 76.4933 91.6867 76.4935 91.7357 76.494L91.7365 76.4934L91.7372 76.494C99.349 76.5667 105.626 82.2139 106.674 89.5453L106.749 89.6101L107.272 98.9597L179.329 98.7516L179.066 92.7335C179.051 92.5065 179.041 92.2782 179.037 92.0487L179.031 91.9244L179.034 91.9212C179.033 91.8533 179.033 91.7853 179.033 91.7172C179.033 83.3093 185.856 76.4933 194.273 76.4933H194.275L194.421 76.3456L194.564 76.496C202.847 76.6511 209.513 83.4065 209.513 91.7172C209.513 91.878 209.51 92.0382 209.505 92.1978L209.526 92.219L209.496 97.9834L218.159 97.6792C218.949 97.6515 219.574 97.0035 219.574 96.2137V83.588L213.952 74.4241Z" fill="#2F80ED"/>
<path d="M176.074 67.3295L175.947 68.0077L175.832 67.9861L175.73 67.9277L176.074 67.3295ZM213.952 74.4241L214.079 73.7458L214.38 73.8022L214.54 74.0632L213.952 74.4241ZM79.1598 65.5558L79.4973 66.1577L79.3853 66.2205L79.2582 66.2388L79.1598 65.5558ZM62.7362 86.5441H63.4263V87.2342H62.7362V86.5441ZM61.1087 86.5441H60.4186V85.8541H61.1087V86.5441ZM62.3838 95.2006L62.2605 95.8796L62.2605 95.8796L62.3838 95.2006ZM75.7567 97.6295L76.4438 97.6935L76.374 98.4429L75.6334 98.3084L75.7567 97.6295ZM76.3578 91.1812L77.0474 91.2051L77.0467 91.2252L77.0449 91.2452L76.3578 91.1812ZM91.7357 76.494L92.1831 77.0194L91.9869 77.1865L91.7292 77.184L91.7357 76.494ZM91.7365 76.4934L91.2891 75.968L91.7412 75.583L92.1893 75.9727L91.7365 76.4934ZM91.7372 76.494L91.7306 77.184L91.4762 77.1816L91.2843 77.0147L91.7372 76.494ZM106.674 89.5453L106.22 90.065L106.028 89.8965L105.991 89.643L106.674 89.5453ZM106.749 89.6101L107.203 89.0904L107.421 89.2815L107.438 89.5715L106.749 89.6101ZM107.272 98.9597L107.274 99.6498L106.62 99.6517L106.583 98.9983L107.272 98.9597ZM179.329 98.7516L180.018 98.7216L180.05 99.4396L179.331 99.4417L179.329 98.7516ZM179.066 92.7335L179.755 92.6881L179.756 92.6957L179.756 92.7034L179.066 92.7335ZM179.037 92.0487L179.726 92.0186L179.726 92.0263L179.726 92.0339L179.037 92.0487ZM179.031 91.9244L178.342 91.9545L178.329 91.6536L178.54 91.4393L179.031 91.9244ZM179.034 91.9212L179.724 91.9121L179.728 92.2008L179.525 92.4062L179.034 91.9212ZM194.275 76.4933L194.766 76.9783L194.563 77.1834H194.275V76.4933ZM194.421 76.3456L193.93 75.8606L194.43 75.3543L194.921 75.8699L194.421 76.3456ZM194.564 76.496L194.551 77.186L194.263 77.1806L194.064 76.9717L194.564 76.496ZM209.505 92.1978L209.005 92.6735L208.807 92.4646L208.816 92.1764L209.505 92.1978ZM209.526 92.219L210.025 91.7434L210.217 91.9447L210.216 92.2225L209.526 92.219ZM209.496 97.9834L209.521 98.6731L208.803 98.6983L208.806 97.9799L209.496 97.9834ZM218.159 97.6792L218.184 98.3688L218.184 98.3688L218.159 97.6792ZM219.574 83.588L220.162 83.2271L220.264 83.3932V83.588H219.574ZM176.201 66.6512L214.079 73.7458L213.825 75.1024L175.947 68.0077L176.201 66.6512ZM141.451 52.0067C143.88 52.0067 147.293 52.9635 150.972 54.3366C154.677 55.7193 158.741 57.559 162.505 59.3928C166.271 61.2275 169.748 63.0616 172.283 64.4365C173.551 65.1242 174.584 65.6973 175.3 66.0988C175.658 66.2995 175.937 66.4574 176.127 66.5652C176.222 66.619 176.294 66.6604 176.343 66.6884C176.368 66.7024 176.386 66.713 176.399 66.7202C176.405 66.7238 176.41 66.7265 176.413 66.7284C176.414 66.7293 176.416 66.73 176.416 66.7305C176.417 66.7307 176.417 66.7309 176.417 66.731C176.418 66.7312 176.418 66.7312 176.074 67.3295C175.73 67.9277 175.73 67.9277 175.73 67.9276C175.73 67.9275 175.729 67.9273 175.729 67.9271C175.728 67.9267 175.727 67.9261 175.726 67.9252C175.723 67.9235 175.718 67.921 175.712 67.9175C175.7 67.9106 175.682 67.9003 175.658 67.8866C175.61 67.8592 175.539 67.8184 175.445 67.7651C175.257 67.6586 174.981 67.502 174.625 67.3027C173.914 66.9039 172.887 66.3339 171.625 65.6497C169.102 64.281 165.643 62.4569 161.9 60.6335C158.156 58.8091 154.136 56.9906 150.49 55.6296C146.817 54.2592 143.609 53.3868 141.451 53.3868V52.0067ZM107.272 52.0067H141.451V53.3868H107.272V52.0067ZM79.1598 65.5558C78.8223 64.9539 78.8224 64.9538 78.8227 64.9537C78.8228 64.9536 78.8231 64.9535 78.8235 64.9533C78.8242 64.9528 78.8253 64.9522 78.8267 64.9514C78.8296 64.9498 78.8338 64.9475 78.8394 64.9443C78.8506 64.9381 78.8673 64.9288 78.8892 64.9165C78.9331 64.892 78.9981 64.8557 79.0831 64.8084C79.253 64.7139 79.5026 64.5753 79.822 64.3991C80.4607 64.0466 81.3786 63.5433 82.4961 62.9395C84.7307 61.732 87.7654 60.1213 90.9636 58.51C94.1598 56.8997 97.5284 55.2841 100.428 54.0695C101.878 53.4624 103.22 52.9513 104.371 52.5908C105.505 52.2357 106.514 52.0067 107.272 52.0067V53.3868C106.736 53.3868 105.895 53.5597 104.784 53.9078C103.689 54.2506 102.39 54.7441 100.962 55.3425C98.105 56.5389 94.7692 58.1381 91.5846 59.7426C88.4019 61.346 85.3795 62.9501 83.1522 64.1537C82.0387 64.7554 81.1245 65.2567 80.4888 65.6075C80.1709 65.7828 79.9228 65.9206 79.7542 66.0144C79.6699 66.0613 79.6056 66.0972 79.5623 66.1213C79.5407 66.1334 79.5244 66.1426 79.5135 66.1486C79.508 66.1517 79.504 66.154 79.5013 66.1555C79.4999 66.1563 79.4989 66.1568 79.4982 66.1572C79.4979 66.1574 79.4977 66.1575 79.4975 66.1576C79.4974 66.1577 79.4973 66.1577 79.1598 65.5558ZM62.0462 71.1724C62.0462 70.4605 62.4923 69.8924 62.999 69.4683C63.5201 69.0321 64.229 68.6421 65.024 68.2916C66.6204 67.5876 68.7207 66.9758 70.7851 66.4742C72.8571 65.9707 74.9254 65.5706 76.4734 65.2966C77.248 65.1595 77.8937 65.0538 78.3463 64.9822C78.5727 64.9464 78.7508 64.9191 78.8726 64.9008C78.9335 64.8916 78.9804 64.8847 79.0122 64.88C79.0281 64.8776 79.0403 64.8759 79.0485 64.8747C79.0526 64.8741 79.0558 64.8736 79.058 64.8733C79.059 64.8731 79.0599 64.873 79.0605 64.8729C79.0608 64.8729 79.061 64.8729 79.0612 64.8728C79.0613 64.8728 79.0615 64.8728 79.1598 65.5558C79.2582 66.2388 79.2582 66.2388 79.2581 66.2388C79.258 66.2388 79.2579 66.2389 79.2577 66.2389C79.2573 66.239 79.2566 66.2391 79.2557 66.2392C79.2539 66.2394 79.2511 66.2399 79.2473 66.2404C79.2398 66.2415 79.2284 66.2432 79.2132 66.2454C79.1829 66.2499 79.1375 66.2566 79.0781 66.2655C78.9594 66.2834 78.7847 66.3101 78.5619 66.3454C78.1163 66.4158 77.479 66.5202 76.7139 66.6556C75.1824 66.9267 73.1448 67.3211 71.111 67.8153C69.0695 68.3113 67.0638 68.9004 65.5808 69.5544C64.8361 69.8828 64.2619 70.2111 63.8848 70.5266C63.4934 70.8543 63.4263 71.0713 63.4263 71.1724H62.0462ZM62.0462 86.5441V71.1724H63.4263V86.5441H62.0462ZM61.1087 85.8541H62.7362V87.2342H61.1087V85.8541ZM60.4186 93.673V86.5441H61.7987V93.673H60.4186ZM62.2605 95.8796C61.194 95.6858 60.4186 94.757 60.4186 93.673H61.7987C61.7987 94.0899 62.0969 94.4471 62.5072 94.5217L62.2605 95.8796ZM75.6334 98.3084L62.2605 95.8796L62.5072 94.5217L75.88 96.9505L75.6334 98.3084ZM77.0449 91.2452L76.4438 97.6935L75.0696 97.5654L75.6707 91.1172L77.0449 91.2452ZM91.5884 77.1834C83.7237 77.1834 77.3172 83.4163 77.0474 91.2051L75.6681 91.1573C75.9636 82.6267 82.9788 75.8032 91.5884 75.8032V77.1834ZM91.7292 77.184C91.6823 77.1836 91.6354 77.1834 91.5884 77.1834V75.8032C91.6398 75.8032 91.691 75.8035 91.7422 75.804L91.7292 77.184ZM92.1839 77.0188L92.1831 77.0194L91.2883 75.9686L91.2891 75.968L92.1839 77.0188ZM91.2843 77.0147L91.2836 77.014L92.1893 75.9727L92.1901 75.9733L91.2843 77.0147ZM105.991 89.643C104.991 82.645 98.9975 77.2535 91.7306 77.184L91.7438 75.804C99.7004 75.88 106.262 81.7827 107.358 89.4476L105.991 89.643ZM106.295 90.1298L106.22 90.065L107.128 89.0256L107.203 89.0904L106.295 90.1298ZM106.583 98.9983L106.06 89.6487L107.438 89.5715L107.961 98.9211L106.583 98.9983ZM179.331 99.4417L107.274 99.6498L107.27 98.2697L179.327 98.0616L179.331 99.4417ZM179.756 92.7034L180.018 98.7216L178.64 98.7817L178.377 92.7636L179.756 92.7034ZM179.726 92.0339C179.731 92.2532 179.741 92.4713 179.755 92.6881L178.378 92.7789C178.362 92.5418 178.352 92.3032 178.347 92.0634L179.726 92.0339ZM179.721 91.8943L179.726 92.0186L178.347 92.0787L178.342 91.9545L179.721 91.8943ZM179.525 92.4062L179.522 92.4095L178.54 91.4393L178.544 91.4361L179.525 92.4062ZM179.723 91.7172C179.723 91.7823 179.723 91.8472 179.724 91.9121L178.344 91.9302C178.343 91.8593 178.343 91.7883 178.343 91.7172H179.723ZM194.273 77.1834C186.237 77.1834 179.723 83.6911 179.723 91.7172H178.343C178.343 82.9275 185.476 75.8032 194.273 75.8032V77.1834ZM194.275 77.1834H194.273V75.8032H194.275V77.1834ZM194.912 76.8305L194.766 76.9783L193.784 76.0083L193.93 75.8606L194.912 76.8305ZM194.064 76.9717L193.921 76.8213L194.921 75.8699L195.064 76.0203L194.064 76.9717ZM208.823 91.7172C208.823 83.7839 202.459 77.334 194.551 77.186L194.577 75.8061C203.234 75.9681 210.203 83.029 210.203 91.7172H208.823ZM208.816 92.1764C208.82 92.024 208.823 91.8709 208.823 91.7172H210.203C210.203 91.8852 210.2 92.0525 210.195 92.2193L208.816 92.1764ZM209.026 92.6947L209.005 92.6735L210.005 91.7222L210.025 91.7434L209.026 92.6947ZM208.806 97.9799L208.836 92.2156L210.216 92.2225L210.186 97.9869L208.806 97.9799ZM218.184 98.3688L209.521 98.6731L209.472 97.2938L218.135 96.9895L218.184 98.3688ZM220.264 96.2137C220.264 97.3752 219.344 98.328 218.184 98.3688L218.135 96.9895C218.553 96.9749 218.884 96.6318 218.884 96.2137H220.264ZM220.264 83.588V96.2137H218.884V83.588H220.264ZM214.54 74.0632L220.162 83.2271L218.986 83.9489L213.364 74.785L214.54 74.0632Z" fill="black" mask="url(#path-36-inside-4)"/>
<path fill-rule="evenodd" clip-rule="evenodd" d="M91.5888 103.972C84.7316 103.972 79.1729 98.4193 79.1729 91.5695C79.1729 84.7197 84.7316 79.1666 91.5888 79.1666C98.4458 79.1666 104.005 84.7197 104.005 91.5695C104.005 98.4193 98.4458 103.972 91.5888 103.972ZM91.5888 99.907C86.9793 99.907 83.2425 96.1741 83.2425 91.5695C83.2425 86.9649 86.9793 83.232 91.5888 83.232C96.1982 83.232 99.935 86.9649 99.935 91.5695C99.935 96.1741 96.1982 99.907 91.5888 99.907Z" fill="#333333"/>
<path d="M91.589 99.9161C86.9744 99.9161 83.2336 96.1792 83.2336 91.5695C83.2336 86.9598 86.9744 83.2229 91.589 83.2229C96.2035 83.2229 99.9443 86.9598 99.9443 91.5695C99.9443 96.1792 96.2035 99.9161 91.589 99.9161Z" fill="#B8B8B8"/>
<path fill-rule="evenodd" clip-rule="evenodd" d="M194.143 104.128C187.286 104.128 181.728 98.5753 181.728 91.7255C181.728 84.8757 187.286 79.3226 194.143 79.3226C201 79.3226 206.559 84.8757 206.559 91.7255C206.559 98.5753 201 104.128 194.143 104.128ZM194.143 100.063C189.534 100.063 185.797 96.3301 185.797 91.7255C185.797 87.1209 189.534 83.388 194.143 83.388C198.753 83.388 202.49 87.1209 202.49 91.7255C202.49 96.3301 198.753 100.063 194.143 100.063Z" fill="#333333"/>
<path d="M194.144 100.072C189.529 100.072 185.788 96.3352 185.788 91.7255C185.788 87.1158 189.529 83.3789 194.144 83.3789C198.758 83.3789 202.499 87.1158 202.499 91.7255C202.499 96.3352 198.758 100.072 194.144 100.072Z" fill="#B8B8B8"/>
<path d="M130.02 55.8502L132.239 69.4279C132.26 69.5531 132.368 69.645 132.495 69.645H169.104C167.338 68.3644 163.004 65.3064 157.975 62.3921C155.058 60.7014 151.913 59.0628 148.905 57.8478C145.891 56.6302 143.043 55.8502 140.711 55.8502H140.668H140.626H140.583H140.541H140.498H140.456H140.414H140.372H140.33H140.288H140.246H140.205H140.163H140.122H140.08H140.039H139.998H139.957H139.916H139.875H139.835H139.794H139.754H139.713H139.673H139.633H139.593H139.553H139.513H139.474H139.434H139.395H139.355H139.316H139.277H139.238H139.199H139.16H139.121H139.082H139.044H139.005H138.967H138.929H138.891H138.853H138.815H138.777H138.739H138.702H138.664H138.627H138.589H138.552H138.515H138.478H138.441H138.404H138.368H138.331H138.294H138.258H138.222H138.186H138.149H138.113H138.078H138.042H138.006H137.971H137.935H137.9H137.864H137.829H137.794H137.759H137.724H137.689H137.655H137.62H137.586H137.551H137.517H137.483H137.449H137.415H137.381H137.347H137.313H137.279H137.246H137.212H137.179H137.146H137.113H137.08H137.047H137.014H136.981H136.949H136.916H136.884H136.851H136.819H136.787H136.755H136.723H136.691H136.659H136.627H136.596H136.564H136.533H136.501H136.47H136.439H136.408H136.377H136.346H136.315H136.285H136.254H136.224H136.193H136.163H136.133H136.103H136.073H136.043H136.013H135.983H135.953H135.924H135.894H135.865H135.836H135.806H135.777H135.748H135.719H135.69H135.662H135.633H135.604H135.576H135.548H135.519H135.491H135.463H135.435H135.407H135.379H135.351H135.324H135.296H135.268H135.241H135.214H135.186H135.159H135.132H135.105H135.078H135.052H135.025H134.998H134.972H134.945H134.919H134.893H134.866H134.84H134.814H134.788H134.762H134.737H134.711H134.685H134.66H134.634H134.609H134.584H134.558H134.533H134.508H134.483H134.459H134.434H134.409H134.385H134.36H134.336H134.311H134.287H134.263H134.239H134.215H134.191H134.167H134.143H134.119H134.096H134.072H134.049H134.025H134.002H133.979H133.956H133.933H133.91H133.887H133.864H133.841H133.819H133.796H133.774H133.751H133.729H133.707H133.685H133.663H133.641H133.619H133.597H133.575H133.553H133.532H133.51H133.489H133.467H133.446H133.425H133.404H133.383H133.362H133.341H133.32H133.299H133.278H133.258H133.237H133.217H133.197H133.176H133.156H133.136H133.116H133.096H133.076H133.056H133.036H133.016H132.997H132.977H132.958H132.938H132.919H132.9H132.881H132.862H132.843H132.824H132.805H132.786H132.767H132.748H132.73H132.711H132.693H132.675H132.656H132.638H132.62H132.602H132.584H132.566H132.548H132.53H132.512H132.495H132.477H132.46H132.442H132.425H132.407H132.39H132.373H132.356H132.339H132.322H132.305H132.288H132.271H132.255H132.238H132.222H132.205H132.189H132.172H132.156H132.14H132.124H132.108H132.092H132.076H132.06H132.044H132.028H132.013H131.997H131.981H131.966H131.951H131.935H131.92H131.905H131.89H131.875H131.86H131.845H131.83H131.815H131.8H131.786H131.771H131.756H131.742H131.727H131.713H131.699H131.685H131.67H131.656H131.642H131.628H131.614H131.6H131.587H131.573H131.559H131.546H131.532H131.519H131.505H131.492H131.479H131.465H131.452H131.439H131.426H131.413H131.4H131.387H131.374H131.362H131.349H131.336H131.324H131.311H131.299H131.287H131.274H131.262H131.25H131.238H131.225H131.213H131.201H131.19H131.178H131.166H131.154H131.143H131.131H131.119H131.108H131.096H131.085H131.074H131.062H131.051H131.04H131.029H131.018H131.007H130.996H130.985H130.974H130.963H130.953H130.942H130.931H130.921H130.91H130.9H130.89H130.879H130.869H130.859H130.849H130.838H130.828H130.818H130.808H130.799H130.789H130.779H130.769H130.759H130.75H130.74H130.731H130.721H130.712H130.702H130.693H130.684H130.675H130.666H130.656H130.647H130.638H130.629H130.62H130.612H130.603H130.594H130.585H130.577H130.568H130.56H130.551H130.543H130.534H130.526H130.517H130.509H130.501H130.493H130.485H130.477H130.469H130.461H130.453H130.445H130.437H130.429H130.422H130.414H130.406H130.399H130.391H130.384H130.376H130.369H130.361H130.354H130.347H130.34H130.333H130.325H130.318H130.311H130.304H130.297H130.29H130.284H130.277H130.27H130.263H130.257H130.25H130.243H130.237H130.23H130.224H130.218H130.211H130.205H130.199H130.192H130.186H130.18H130.174H130.168H130.162H130.156H130.15H130.144H130.138H130.132H130.127H130.121H130.115H130.109H130.104H130.098H130.093H130.087H130.082H130.076H130.071H130.066H130.06H130.055H130.05H130.045H130.04H130.035H130.03H130.025H130.02Z" fill="#F2F2F2" stroke="black" stroke-width="0.690061"/>
<path d="M125.177 55.5546H111.708L111.672 55.5635C111.623 55.576 111.549 55.5947 111.456 55.619C111.268 55.6676 111 55.7386 110.679 55.8282C110.035 56.0075 109.179 56.2604 108.324 56.5557C107.466 56.852 106.624 57.1862 106.002 57.5259C105.69 57.6965 105.449 57.8597 105.291 58.0092C105.125 58.1669 105.102 58.2594 105.102 58.2888C105.102 59.4807 105.545 67.4195 105.662 69.4858C105.667 69.5741 105.74 69.645 105.834 69.645H126.858L125.177 55.5546Z" fill="#F2F2F2" stroke="black" stroke-width="0.690061"/>
<path d="M103.066 69.3473L102.657 59.273C101.914 59.5993 100.378 60.2927 98.8406 61.1026C98.0265 61.5314 97.2167 61.9905 96.526 62.4429C95.829 62.8994 95.2771 63.3338 94.9589 63.7095C94.1631 64.6489 93.4692 65.8467 93.3167 66.8457C93.2414 67.3388 93.3029 67.747 93.5066 68.0566C93.7075 68.3621 94.085 68.6292 94.7632 68.7647C97.2392 69.2594 101.748 69.3358 103.066 69.3473Z" fill="#F2F2F2" stroke="black" stroke-width="0.690061"/>
<ellipse opacity="0.5" cx="195.675" cy="150.485" rx="134.713" ry="3.68729" fill="#403F45" fill-opacity="0.72"/>
<path d="M245.244 101.84C245.218 101.799 245.158 101.799 245.133 101.84L241.922 107.186C241.896 107.229 241.927 107.284 241.977 107.284H248.399C248.449 107.284 248.48 107.229 248.454 107.186L245.244 101.84Z" fill="#FF0000" stroke="black" stroke-width="0.129428"/>
<rect x="1.94462" y="1.94462" width="402.111" height="219.716" stroke="#5C5450" stroke-width="2.11075"/>
<defs>
<radialGradient id="paint0_radial" cx="0" cy="0" r="1" gradientUnits="userSpaceOnUse" gradientTransform="translate(134.004 133.161) scale(18.0783 17.7994)">
<stop offset="0.7777" stop-color="#1A1A1A"/>
<stop offset="0.8882" stop-color="#333333"/>
<stop offset="1"/>
</radialGradient>
<radialGradient id="paint1_radial" cx="0" cy="0" r="1" gradientUnits="userSpaceOnUse" gradientTransform="translate(133.944 133.101) scale(13.5737 13.3643)">
<stop stop-color="#8D8C8C"/>
<stop offset="0.0810056" stop-color="#898989"/>
<stop offset="0.1659" stop-color="#808080"/>
<stop offset="0.2687" stop-color="#868686"/>
<stop offset="0.3295" stop-color="#A4A4A4"/>
<stop offset="0.3447" stop-color="#ACACAC"/>
<stop offset="0.5274" stop-color="#B3B3B3"/>
<stop offset="0.5715" stop-color="#A4A4A4"/>
<stop offset="0.6558" stop-color="#7D7D7D"/>
<stop offset="0.7012" stop-color="#666666"/>
<stop offset="0.7387" stop-color="#6F6F70"/>
<stop offset="0.8018" stop-color="#88898A"/>
<stop offset="0.8676" stop-color="#A8AAAC"/>
<stop offset="0.927" stop-color="#7E8486"/>
<stop offset="1" stop-color="#465053"/>
</radialGradient>
<radialGradient id="paint2_radial" cx="0" cy="0" r="1" gradientUnits="userSpaceOnUse" gradientTransform="translate(133.851 127.362) rotate(2.26092) scale(1.09877 1.08188)">
<stop offset="0.00561773" stop-color="#534741"/>
<stop offset="0.1684" stop-color="#5C5450"/>
<stop offset="0.4792" stop-color="#737577"/>
<stop offset="0.6742" stop-color="#838C92"/>
<stop offset="0.9793" stop-color="#333333"/>
<stop offset="0.9852" stop-color="#3E4042"/>
<stop offset="0.9965" stop-color="#5B6469"/>
<stop offset="1" stop-color="#657076"/>
</radialGradient>
<radialGradient id="paint3_radial" cx="0" cy="0" r="1" gradientUnits="userSpaceOnUse" gradientTransform="translate(133.851 138.952) rotate(2.26091) scale(1.09877 1.08188)">
<stop offset="0.00561773" stop-color="#534741"/>
<stop offset="0.1684" stop-color="#5C5450"/>
<stop offset="0.4792" stop-color="#737577"/>
<stop offset="0.6742" stop-color="#838C92"/>
<stop offset="0.9793" stop-color="#333333"/>
<stop offset="0.9852" stop-color="#3E4042"/>
<stop offset="0.9965" stop-color="#5B6469"/>
<stop offset="1" stop-color="#657076"/>
</radialGradient>
<radialGradient id="paint4_radial" cx="0" cy="0" r="1" gradientUnits="userSpaceOnUse" gradientTransform="translate(129.606 129.067) rotate(-42.2587) scale(1.09105 1.08956)">
<stop offset="0.00561773" stop-color="#534741"/>
<stop offset="0.1684" stop-color="#5C5450"/>
<stop offset="0.4792" stop-color="#737577"/>
<stop offset="0.6742" stop-color="#838C92"/>
<stop offset="0.9793" stop-color="#333333"/>
<stop offset="0.9852" stop-color="#3E4042"/>
<stop offset="0.9965" stop-color="#5B6469"/>
<stop offset="1" stop-color="#657076"/>
</radialGradient>
<radialGradient id="paint5_radial" cx="0" cy="0" r="1" gradientUnits="userSpaceOnUse" gradientTransform="translate(137.93 137.263) rotate(-42.2586) scale(1.09105 1.08956)">
<stop offset="0.00561773" stop-color="#534741"/>
<stop offset="0.1684" stop-color="#5C5450"/>
<stop offset="0.4792" stop-color="#737577"/>
<stop offset="0.6742" stop-color="#838C92"/>
<stop offset="0.9793" stop-color="#333333"/>
<stop offset="0.9852" stop-color="#3E4042"/>
<stop offset="0.9965" stop-color="#5B6469"/>
<stop offset="1" stop-color="#657076"/>
</radialGradient>
<radialGradient id="paint6_radial" cx="0" cy="0" r="1" gradientUnits="userSpaceOnUse" gradientTransform="translate(127.882 133.164) rotate(-87.6678) scale(1.08188 1.09877)">
<stop offset="0.00561773" stop-color="#534741"/>
<stop offset="0.1684" stop-color="#5C5450"/>
<stop offset="0.4792" stop-color="#737577"/>
<stop offset="0.6742" stop-color="#838C92"/>
<stop offset="0.9793" stop-color="#333333"/>
<stop offset="0.9852" stop-color="#3E4042"/>
<stop offset="0.9965" stop-color="#5B6469"/>
<stop offset="1" stop-color="#657076"/>
</radialGradient>
<radialGradient id="paint7_radial" cx="0" cy="0" r="1" gradientUnits="userSpaceOnUse" gradientTransform="translate(139.654 133.164) rotate(-87.6678) scale(1.08188 1.09877)">
<stop offset="0.00561773" stop-color="#534741"/>
<stop offset="0.1684" stop-color="#5C5450"/>
<stop offset="0.4792" stop-color="#737577"/>
<stop offset="0.6742" stop-color="#838C92"/>
<stop offset="0.9793" stop-color="#333333"/>
<stop offset="0.9852" stop-color="#3E4042"/>
<stop offset="0.9965" stop-color="#5B6469"/>
<stop offset="1" stop-color="#657076"/>
</radialGradient>
<radialGradient id="paint8_radial" cx="0" cy="0" r="1" gradientUnits="userSpaceOnUse" gradientTransform="translate(129.606 137.262) rotate(-133.146) scale(1.0897 1.09093)">
<stop offset="0.00561773" stop-color="#534741"/>
<stop offset="0.1684" stop-color="#5C5450"/>
<stop offset="0.4792" stop-color="#737577"/>
<stop offset="0.6742" stop-color="#838C92"/>
<stop offset="0.9793" stop-color="#333333"/>
<stop offset="0.9852" stop-color="#3E4042"/>
<stop offset="0.9965" stop-color="#5B6469"/>
<stop offset="1" stop-color="#657076"/>
</radialGradient>
<radialGradient id="paint9_radial" cx="0" cy="0" r="1" gradientUnits="userSpaceOnUse" gradientTransform="translate(137.93 129.066) rotate(-133.146) scale(1.08969 1.09092)">
<stop offset="0.00561773" stop-color="#534741"/>
<stop offset="0.1684" stop-color="#5C5450"/>
<stop offset="0.4792" stop-color="#737577"/>
<stop offset="0.6742" stop-color="#838C92"/>
<stop offset="0.9793" stop-color="#333333"/>
<stop offset="0.9852" stop-color="#3E4042"/>
<stop offset="0.9965" stop-color="#5B6469"/>
<stop offset="1" stop-color="#657076"/>
</radialGradient>
<radialGradient id="paint10_radial" cx="0" cy="0" r="1" gradientUnits="userSpaceOnUse" gradientTransform="translate(284.14 132.224) scale(18.0783 18.0593)">
<stop offset="0.7777" stop-color="#1A1A1A"/>
<stop offset="0.8882" stop-color="#333333"/>
<stop offset="1"/>
</radialGradient>
<radialGradient id="paint11_radial" cx="0" cy="0" r="1" gradientUnits="userSpaceOnUse" gradientTransform="translate(284.081 132.164) scale(13.5737 13.5595)">
<stop stop-color="#8D8C8C"/>
<stop offset="0.0810056" stop-color="#898989"/>
<stop offset="0.1659" stop-color="#808080"/>
<stop offset="0.2687" stop-color="#868686"/>
<stop offset="0.3295" stop-color="#A4A4A4"/>
<stop offset="0.3447" stop-color="#ACACAC"/>
<stop offset="0.5274" stop-color="#B3B3B3"/>
<stop offset="0.5715" stop-color="#A4A4A4"/>
<stop offset="0.6558" stop-color="#7D7D7D"/>
<stop offset="0.7012" stop-color="#666666"/>
<stop offset="0.7387" stop-color="#6F6F70"/>
<stop offset="0.8018" stop-color="#88898A"/>
<stop offset="0.8676" stop-color="#A8AAAC"/>
<stop offset="0.927" stop-color="#7E8486"/>
<stop offset="1" stop-color="#465053"/>
</radialGradient>
<radialGradient id="paint12_radial" cx="0" cy="0" r="1" gradientUnits="userSpaceOnUse" gradientTransform="translate(283.987 126.341) rotate(2.2939) scale(1.09879 1.09765)">
<stop offset="0.00561773" stop-color="#534741"/>
<stop offset="0.1684" stop-color="#5C5450"/>
<stop offset="0.4792" stop-color="#737577"/>
<stop offset="0.6742" stop-color="#838C92"/>
<stop offset="0.9793" stop-color="#333333"/>
<stop offset="0.9852" stop-color="#3E4042"/>
<stop offset="0.9965" stop-color="#5B6469"/>
<stop offset="1" stop-color="#657076"/>
</radialGradient>
<radialGradient id="paint13_radial" cx="0" cy="0" r="1" gradientUnits="userSpaceOnUse" gradientTransform="translate(283.987 138.1) rotate(2.2939) scale(1.09879 1.09765)">
<stop offset="0.00561773" stop-color="#534741"/>
<stop offset="0.1684" stop-color="#5C5450"/>
<stop offset="0.4792" stop-color="#737577"/>
<stop offset="0.6742" stop-color="#838C92"/>
<stop offset="0.9793" stop-color="#333333"/>
<stop offset="0.9852" stop-color="#3E4042"/>
<stop offset="0.9965" stop-color="#5B6469"/>
<stop offset="1" stop-color="#657076"/>
</radialGradient>
<radialGradient id="paint14_radial" cx="0" cy="0" r="1" gradientUnits="userSpaceOnUse" gradientTransform="translate(279.743 128.071) rotate(-42.6723) scale(1.09828)">
<stop offset="0.00561773" stop-color="#534741"/>
<stop offset="0.1684" stop-color="#5C5450"/>
<stop offset="0.4792" stop-color="#737577"/>
<stop offset="0.6742" stop-color="#838C92"/>
<stop offset="0.9793" stop-color="#333333"/>
<stop offset="0.9852" stop-color="#3E4042"/>
<stop offset="0.9965" stop-color="#5B6469"/>
<stop offset="1" stop-color="#657076"/>
</radialGradient>
<radialGradient id="paint15_radial" cx="0" cy="0" r="1" gradientUnits="userSpaceOnUse" gradientTransform="translate(288.067 136.387) rotate(-42.672) scale(1.09829)">
<stop offset="0.00561773" stop-color="#534741"/>
<stop offset="0.1684" stop-color="#5C5450"/>
<stop offset="0.4792" stop-color="#737577"/>
<stop offset="0.6742" stop-color="#838C92"/>
<stop offset="0.9793" stop-color="#333333"/>
<stop offset="0.9852" stop-color="#3E4042"/>
<stop offset="0.9965" stop-color="#5B6469"/>
<stop offset="1" stop-color="#657076"/>
</radialGradient>
<radialGradient id="paint16_radial" cx="0" cy="0" r="1" gradientUnits="userSpaceOnUse" gradientTransform="translate(278.018 132.228) rotate(-87.7013) scale(1.09765 1.09881)">
<stop offset="0.00561773" stop-color="#534741"/>
<stop offset="0.1684" stop-color="#5C5450"/>
<stop offset="0.4792" stop-color="#737577"/>
<stop offset="0.6742" stop-color="#838C92"/>
<stop offset="0.9793" stop-color="#333333"/>
<stop offset="0.9852" stop-color="#3E4042"/>
<stop offset="0.9965" stop-color="#5B6469"/>
<stop offset="1" stop-color="#657076"/>
</radialGradient>
<radialGradient id="paint17_radial" cx="0" cy="0" r="1" gradientUnits="userSpaceOnUse" gradientTransform="translate(289.79 132.228) rotate(-87.7013) scale(1.09765 1.09881)">
<stop offset="0.00561773" stop-color="#534741"/>
<stop offset="0.1684" stop-color="#5C5450"/>
<stop offset="0.4792" stop-color="#737577"/>
<stop offset="0.6742" stop-color="#838C92"/>
<stop offset="0.9793" stop-color="#333333"/>
<stop offset="0.9852" stop-color="#3E4042"/>
<stop offset="0.9965" stop-color="#5B6469"/>
<stop offset="1" stop-color="#657076"/>
</radialGradient>
<radialGradient id="paint18_radial" cx="0" cy="0" r="1" gradientUnits="userSpaceOnUse" gradientTransform="translate(279.742 136.385) rotate(-132.732) scale(1.09819)">
<stop offset="0.00561773" stop-color="#534741"/>
<stop offset="0.1684" stop-color="#5C5450"/>
<stop offset="0.4792" stop-color="#737577"/>
<stop offset="0.6742" stop-color="#838C92"/>
<stop offset="0.9793" stop-color="#333333"/>
<stop offset="0.9852" stop-color="#3E4042"/>
<stop offset="0.9965" stop-color="#5B6469"/>
<stop offset="1" stop-color="#657076"/>
</radialGradient>
<radialGradient id="paint19_radial" cx="0" cy="0" r="1" gradientUnits="userSpaceOnUse" gradientTransform="translate(288.067 128.07) rotate(-132.732) scale(1.0982)">
<stop offset="0.00561773" stop-color="#534741"/>
<stop offset="0.1684" stop-color="#5C5450"/>
<stop offset="0.4792" stop-color="#737577"/>
<stop offset="0.6742" stop-color="#838C92"/>
<stop offset="0.9793" stop-color="#333333"/>
<stop offset="0.9852" stop-color="#3E4042"/>
<stop offset="0.9965" stop-color="#5B6469"/>
<stop offset="1" stop-color="#657076"/>
</radialGradient>
</defs>
</svg>
