<svg width="406" height="223" viewBox="0 0 406 223" fill="none" xmlns="http://www.w3.org/2000/svg">
<rect x="3" y="3" width="400" height="217.606" rx="6.33226" fill="white"/>
<path d="M157.093 202.704L157.048 179.937L145.754 198.91H143.7L132.406 180.071V202.704H128.12V171.455H131.781L144.816 193.419L157.673 171.455H161.334L161.379 202.704H157.093ZM179.596 202.972C177.245 202.972 175.132 202.451 173.257 201.41C171.382 200.368 169.909 198.939 168.838 197.124C167.796 195.279 167.275 193.195 167.275 190.874C167.275 188.553 167.796 186.484 168.838 184.669C169.909 182.823 171.382 181.395 173.257 180.383C175.132 179.341 177.245 178.821 179.596 178.821C181.948 178.821 184.046 179.341 185.891 180.383C187.766 181.395 189.224 182.823 190.266 184.669C191.337 186.484 191.873 188.553 191.873 190.874C191.873 193.195 191.337 195.279 190.266 197.124C189.224 198.939 187.766 200.368 185.891 201.41C184.046 202.451 181.948 202.972 179.596 202.972ZM179.596 199.222C181.114 199.222 182.468 198.88 183.659 198.195C184.879 197.481 185.831 196.499 186.516 195.249C187.2 193.969 187.543 192.511 187.543 190.874C187.543 189.237 187.2 187.794 186.516 186.544C185.831 185.264 184.879 184.282 183.659 183.597C182.468 182.913 181.114 182.57 179.596 182.57C178.079 182.57 176.71 182.913 175.489 183.597C174.299 184.282 173.346 185.264 172.632 186.544C171.948 187.794 171.605 189.237 171.605 190.874C171.605 192.511 171.948 193.969 172.632 195.249C173.346 196.499 174.299 197.481 175.489 198.195C176.71 198.88 178.079 199.222 179.596 199.222ZM217.414 179.044L207.057 202.704H202.682L192.325 179.044H196.789L204.914 198.017L213.217 179.044H217.414ZM241.474 191.008C241.474 191.335 241.444 191.767 241.384 192.303H222.188C222.456 194.386 223.364 196.067 224.911 197.347C226.489 198.597 228.438 199.222 230.759 199.222C233.587 199.222 235.864 198.27 237.59 196.365L239.956 199.133C238.884 200.383 237.545 201.335 235.938 201.99C234.361 202.645 232.59 202.972 230.625 202.972C228.126 202.972 225.908 202.466 223.974 201.454C222.039 200.413 220.536 198.969 219.465 197.124C218.423 195.279 217.902 193.195 217.902 190.874C217.902 188.582 218.408 186.514 219.42 184.669C220.462 182.823 221.876 181.395 223.661 180.383C225.477 179.341 227.515 178.821 229.777 178.821C232.039 178.821 234.048 179.341 235.804 180.383C237.59 181.395 238.974 182.823 239.956 184.669C240.968 186.514 241.474 188.627 241.474 191.008ZM229.777 182.437C227.724 182.437 225.998 183.062 224.599 184.312C223.23 185.562 222.426 187.198 222.188 189.222H237.366C237.128 187.228 236.31 185.606 234.911 184.356C233.542 183.076 231.831 182.437 229.777 182.437ZM250.862 183.017C251.606 181.648 252.707 180.606 254.166 179.892C255.624 179.178 257.395 178.821 259.478 178.821V182.972C259.24 182.942 258.913 182.928 258.496 182.928C256.175 182.928 254.344 183.627 253.005 185.026C251.695 186.395 251.041 188.359 251.041 190.919V202.704H246.755V179.044H250.862V183.017ZM271.051 202.972C269.116 202.972 267.256 202.719 265.47 202.213C263.685 201.677 262.286 201.008 261.274 200.204L263.06 196.811C264.101 197.555 265.366 198.151 266.854 198.597C268.342 199.044 269.845 199.267 271.363 199.267C275.113 199.267 276.988 198.195 276.988 196.052C276.988 195.338 276.735 194.773 276.229 194.356C275.723 193.939 275.083 193.642 274.31 193.463C273.565 193.255 272.494 193.032 271.095 192.794C269.191 192.496 267.628 192.154 266.408 191.767C265.217 191.38 264.191 190.725 263.327 189.803C262.464 188.88 262.033 187.585 262.033 185.919C262.033 183.776 262.926 182.065 264.711 180.785C266.497 179.475 268.893 178.821 271.899 178.821C273.476 178.821 275.054 179.014 276.631 179.401C278.208 179.788 279.503 180.309 280.515 180.963L278.684 184.356C276.75 183.106 274.473 182.481 271.854 182.481C270.039 182.481 268.655 182.779 267.702 183.374C266.75 183.969 266.274 184.758 266.274 185.74C266.274 186.514 266.542 187.124 267.077 187.57C267.613 188.017 268.268 188.344 269.042 188.553C269.845 188.761 270.961 188.999 272.39 189.267C274.295 189.594 275.827 189.951 276.988 190.338C278.179 190.695 279.19 191.32 280.024 192.213C280.857 193.106 281.274 194.356 281.274 195.963C281.274 198.106 280.351 199.817 278.506 201.097C276.69 202.347 274.205 202.972 271.051 202.972Z" fill="#737577"/>
<path d="M73.4085 119.2H82.4533C82.5486 119.2 82.6259 119.277 82.6259 119.372V132.203C82.6259 132.299 82.5486 132.376 82.4534 132.376H73.4085C73.3132 132.376 73.236 132.299 73.236 132.203V119.372C73.236 119.277 73.3132 119.2 73.4085 119.2Z" fill="#B8B8B8" stroke="black" stroke-width="0.345031"/>
<mask id="path-5-inside-1" fill="white">
<path fill-rule="evenodd" clip-rule="evenodd" d="M98.8639 49.3777C99.2269 48.8073 99.8598 48.4585 100.536 48.4585H151.385C152.48 48.4585 153.369 49.3467 153.369 50.4424V111.478H144.938V56.7052C144.938 55.6095 144.05 54.7213 142.954 54.7213H100.073C99.3378 54.7213 98.6594 55.134 98.3166 55.785C89.0018 73.4729 84.3741 83.4668 82.7854 95.4298L82.7854 119.217C82.7228 119.154 82.636 119.115 82.54 119.115H75.335V103.35C75.335 103.159 75.3636 102.966 75.4177 102.783C82.7409 78.083 88.0688 66.3432 98.8639 49.3777ZM82.8851 132.529H111.411L111.411 132.42C111.411 120.919 120.698 111.584 132.194 111.479V111.478H132.39H144.852V56.7052C144.852 55.6572 144.002 54.8076 142.954 54.8076H100.073C99.3701 54.8076 98.7209 55.2023 98.3929 55.8252C89.0792 73.5111 84.4588 83.4921 82.8716 95.4355L82.8716 119.364C82.8804 119.395 82.8851 119.427 82.8851 119.46V132.529ZM101.474 57.0508C100.821 57.0628 100.215 57.3947 99.8607 57.9436C93.7188 67.4679 89.8029 77.398 88.4712 82.9359L85.8661 91.1256C85.3865 92.6333 86.7783 94.0683 88.3 93.635L142.86 78.1005C143.045 78.0477 143.173 77.8784 143.173 77.6856V58.3076C143.173 57.1977 142.263 56.3037 141.153 56.3241L101.474 57.0508Z"/>
</mask>
<path fill-rule="evenodd" clip-rule="evenodd" d="M98.8639 49.3777C99.2269 48.8073 99.8598 48.4585 100.536 48.4585H151.385C152.48 48.4585 153.369 49.3467 153.369 50.4424V111.478H144.938V56.7052C144.938 55.6095 144.05 54.7213 142.954 54.7213H100.073C99.3378 54.7213 98.6594 55.134 98.3166 55.785C89.0018 73.4729 84.3741 83.4668 82.7854 95.4298L82.7854 119.217C82.7228 119.154 82.636 119.115 82.54 119.115H75.335V103.35C75.335 103.159 75.3636 102.966 75.4177 102.783C82.7409 78.083 88.0688 66.3432 98.8639 49.3777ZM82.8851 132.529H111.411L111.411 132.42C111.411 120.919 120.698 111.584 132.194 111.479V111.478H132.39H144.852V56.7052C144.852 55.6572 144.002 54.8076 142.954 54.8076H100.073C99.3701 54.8076 98.7209 55.2023 98.3929 55.8252C89.0792 73.5111 84.4588 83.4921 82.8716 95.4355L82.8716 119.364C82.8804 119.395 82.8851 119.427 82.8851 119.46V132.529ZM101.474 57.0508C100.821 57.0628 100.215 57.3947 99.8607 57.9436C93.7188 67.4679 89.8029 77.398 88.4712 82.9359L85.8661 91.1256C85.3865 92.6333 86.7783 94.0683 88.3 93.635L142.86 78.1005C143.045 78.0477 143.173 77.8784 143.173 77.6856V58.3076C143.173 57.1977 142.263 56.3037 141.153 56.3241L101.474 57.0508Z" fill="#FFF3DC"/>
<path d="M98.8639 49.3777L99.155 49.5629L99.155 49.5629L98.8639 49.3777ZM153.369 111.478V111.823H153.714V111.478H153.369ZM144.938 111.478H144.593V111.823H144.938V111.478ZM98.3166 55.785L98.6218 55.9458L98.6218 55.9458L98.3166 55.785ZM82.7854 95.4298L82.4433 95.3844L82.4403 95.407L82.4403 95.4298L82.7854 95.4298ZM82.7854 119.217L82.54 119.46L83.1304 120.057L83.1304 119.217L82.7854 119.217ZM75.335 119.115H74.9899V119.46H75.335V119.115ZM75.4177 102.783L75.0869 102.685L75.0869 102.685L75.4177 102.783ZM82.8851 132.529H82.54V132.874H82.8851V132.529ZM111.411 132.529V132.874H111.757L111.756 132.528L111.411 132.529ZM111.411 132.42H111.066L111.066 132.421L111.411 132.42ZM132.194 111.479L132.197 111.824L132.539 111.821V111.479H132.194ZM132.194 111.478V111.133H131.849V111.478H132.194ZM144.852 111.478V111.823H145.197V111.478H144.852ZM98.3929 55.8252L98.0876 55.6644L98.0876 55.6644L98.3929 55.8252ZM82.8716 95.4355L82.5296 95.39L82.5266 95.4127L82.5266 95.4355L82.8716 95.4355ZM82.8716 119.364L82.5266 119.364L82.5266 119.413L82.5401 119.46L82.8716 119.364ZM99.8607 57.9436L100.151 58.1306L100.151 58.1306L99.8607 57.9436ZM101.474 57.0508L101.468 56.7058L101.468 56.7058L101.474 57.0508ZM88.4712 82.9359L88.8 83.0405L88.8038 83.0286L88.8067 83.0166L88.4712 82.9359ZM85.8661 91.1256L86.1949 91.2302L86.1949 91.2302L85.8661 91.1256ZM88.3 93.635L88.2055 93.3032L88.2055 93.3032L88.3 93.635ZM142.86 78.1005L142.766 77.7686L142.766 77.7686L142.86 78.1005ZM141.153 56.3241L141.159 56.669L141.159 56.669L141.153 56.3241ZM100.536 48.1135C99.7414 48.1135 98.9989 48.5229 98.5728 49.1925L99.155 49.5629C99.4549 49.0916 99.9783 48.8035 100.536 48.8035V48.1135ZM151.385 48.1135H100.536V48.8035H151.385V48.1135ZM153.714 50.4424C153.714 49.1562 152.671 48.1135 151.385 48.1135V48.8035C152.29 48.8035 153.024 49.5373 153.024 50.4424H153.714ZM153.714 111.478V50.4424H153.024V111.478H153.714ZM144.938 111.823H153.369V111.133H144.938V111.823ZM144.593 56.7052V111.478H145.283V56.7052H144.593ZM142.954 55.0663C143.859 55.0663 144.593 55.8001 144.593 56.7052H145.283C145.283 55.419 144.24 54.3763 142.954 54.3763V55.0663ZM100.073 55.0663H142.954V54.3763H100.073V55.0663ZM98.6218 55.9458C98.9055 55.4072 99.4669 55.0663 100.073 55.0663V54.3763C99.2087 54.3763 98.4133 54.8609 98.0113 55.6242L98.6218 55.9458ZM83.1274 95.4752C84.707 83.5806 89.3055 73.6366 98.6218 55.9458L98.0113 55.6242C88.6981 73.3092 84.0411 83.3531 82.4433 95.3844L83.1274 95.4752ZM83.1304 119.217L83.1304 95.4298L82.4403 95.4298L82.4403 119.217L83.1304 119.217ZM82.54 119.46L82.54 119.46L83.0307 118.975C82.906 118.849 82.7319 118.77 82.54 118.77V119.46ZM75.335 119.46H82.54V118.77H75.335V119.46ZM74.9899 103.35V119.115H75.68V103.35H74.9899ZM75.0869 102.685C75.0235 102.899 74.9899 103.126 74.9899 103.35H75.68C75.68 103.193 75.7036 103.033 75.7485 102.881L75.0869 102.685ZM98.5728 49.1925C87.7577 66.1893 82.4177 77.9595 75.0869 102.685L75.7485 102.881C83.0642 78.2065 88.3798 66.497 99.155 49.5629L98.5728 49.1925ZM82.8851 132.874H111.411V132.184H82.8851V132.874ZM111.756 132.528L111.756 132.419L111.066 132.421L111.066 132.53L111.756 132.528ZM111.756 132.42C111.756 121.11 120.889 111.928 132.197 111.824L132.19 111.134C120.506 111.241 111.066 120.729 111.066 132.42H111.756ZM132.539 111.479V111.478H131.849V111.479H132.539ZM132.194 111.823H132.39V111.133H132.194V111.823ZM132.39 111.823H144.852V111.133H132.39V111.823ZM145.197 111.478V56.7052H144.507V111.478H145.197ZM145.197 56.7052C145.197 55.4666 144.192 54.4625 142.954 54.4625V55.1526C143.811 55.1526 144.507 55.8477 144.507 56.7052H145.197ZM142.954 54.4625H100.073V55.1526H142.954V54.4625ZM100.073 54.4625C99.2409 54.4625 98.4748 54.9292 98.0876 55.6644L98.6982 55.9859C98.967 55.4755 99.4992 55.1526 100.073 55.1526V54.4625ZM98.0876 55.6644C88.7755 73.3474 84.1258 83.3783 82.5296 95.39L83.2136 95.4809C84.7917 83.6059 89.3829 73.6748 98.6982 55.9859L98.0876 55.6644ZM82.5266 95.4355L82.5266 119.364L83.2167 119.364L83.2166 95.4355L82.5266 95.4355ZM82.5401 119.46L82.54 119.46H83.2301C83.2301 119.394 83.2208 119.33 83.2032 119.269L82.5401 119.46ZM82.54 119.46V132.529H83.2301V119.46H82.54ZM100.151 58.1306C100.441 57.6801 100.94 57.4057 101.481 57.3958L101.468 56.7058C100.702 56.7199 99.9881 57.1093 99.5707 57.7566L100.151 58.1306ZM88.8067 83.0166C90.1284 77.5203 94.0275 67.6257 100.151 58.1306L99.5707 57.7566C93.41 67.31 89.4774 77.2758 88.1358 82.8552L88.8067 83.0166ZM86.1949 91.2302L88.8 83.0405L88.1424 82.8313L85.5373 91.021L86.1949 91.2302ZM88.2055 93.3032C86.9485 93.6611 85.7987 92.4757 86.1949 91.2302L85.5373 91.021C84.9743 92.7909 86.6081 94.4755 88.3945 93.9669L88.2055 93.3032ZM142.766 77.7686L88.2055 93.3032L88.3945 93.9669L142.954 78.4323L142.766 77.7686ZM142.828 77.6856C142.828 77.7242 142.803 77.7581 142.766 77.7686L142.954 78.4323C143.288 78.3373 143.518 78.0325 143.518 77.6856H142.828ZM142.828 58.3076V77.6856H143.518V58.3076H142.828ZM141.159 56.669C142.076 56.6522 142.828 57.3908 142.828 58.3076H143.518C143.518 57.0047 142.449 55.9552 141.147 55.9791L141.159 56.669ZM101.481 57.3958L141.159 56.669L141.147 55.9791L101.468 56.7058L101.481 57.3958Z" fill="black" mask="url(#path-5-inside-1)"/>
<mask id="path-7-inside-2" fill="white">
<path fill-rule="evenodd" clip-rule="evenodd" d="M158.549 48.8499H153.452V120.481H158.549V48.8499ZM178.548 116.691H158.549V120.481H168.941L178.548 116.691Z"/>
</mask>
<path fill-rule="evenodd" clip-rule="evenodd" d="M158.549 48.8499H153.452V120.481H158.549V48.8499ZM178.548 116.691H158.549V120.481H168.941L178.548 116.691Z" fill="#FFF3DC"/>
<path d="M153.452 48.8499V48.5049H153.107V48.8499H153.452ZM158.549 48.8499H158.894V48.5049H158.549V48.8499ZM153.452 120.481H153.107V120.826H153.452V120.481ZM158.549 120.481V120.826H158.894V120.481H158.549ZM158.549 116.691V116.346H158.204V116.691H158.549ZM178.548 116.691L178.675 117.012L178.548 116.346V116.691ZM158.549 120.481H158.204V120.826H158.549V120.481ZM168.941 120.481V120.826H169.006L169.067 120.802L168.941 120.481ZM153.452 49.1949H158.549V48.5049H153.452V49.1949ZM153.797 120.481V48.8499H153.107V120.481H153.797ZM158.549 120.136H153.452V120.826H158.549V120.136ZM158.204 48.8499V120.481H158.894V48.8499H158.204ZM158.549 117.036H178.548V116.346H158.549V117.036ZM158.894 120.481V116.691H158.204V120.481H158.894ZM168.941 120.136H158.549V120.826H168.941V120.136ZM178.421 116.37L168.814 120.16L169.067 120.802L178.675 117.012L178.421 116.37Z" fill="black" mask="url(#path-7-inside-2)"/>
<path d="M142.412 111.517L146.659 111.517C150.05 118.083 153.048 120.231 155.318 128.737C157.587 137.244 154.16 130.268 154.16 130.268C150.635 121.905 147.813 117.717 142.412 111.517Z" fill="black"/>
<path d="M131.904 113.619C141.616 113.619 149.485 121.479 149.485 131.182C149.485 140.885 141.616 148.745 131.904 148.745C122.191 148.745 114.322 140.885 114.322 131.182C114.322 121.479 122.214 113.619 131.904 113.619ZM131.904 144.337C139.188 144.337 145.072 138.436 145.072 131.182C145.072 123.928 139.165 118.027 131.904 118.027C124.642 118.027 118.735 123.928 118.735 131.182C118.735 138.436 124.642 144.337 131.904 144.337Z" fill="url(#paint0_radial)"/>
<path d="M131.974 144.29C124.688 144.29 118.782 138.39 118.782 131.112C118.782 123.834 124.688 117.934 131.974 117.934C139.259 117.934 145.166 123.834 145.166 131.112C145.166 138.39 139.259 144.29 131.974 144.29Z" fill="url(#paint1_radial)"/>
<path d="M131.46 124.488L132.604 124.441L133.211 125.398L132.674 126.424L131.53 126.471L130.923 125.491L131.46 124.488Z" fill="url(#paint2_radial)"/>
<path d="M131.46 135.917L132.604 135.87L133.211 136.826L132.674 137.853L131.53 137.899L130.923 136.92L131.46 135.917Z" fill="url(#paint3_radial)"/>
<path d="M136.433 126.027L137.274 126.797L137.04 127.917L135.943 128.243L135.103 127.473L135.359 126.354L136.433 126.027Z" fill="url(#paint4_radial)"/>
<path d="M128.355 134.097L129.195 134.867L128.938 135.987L127.841 136.337L127.001 135.544L127.257 134.447L128.355 134.097Z" fill="url(#paint5_radial)"/>
<path d="M138.838 130.576L138.885 131.695L137.904 132.325L136.9 131.788L136.853 130.645L137.811 130.039L138.838 130.576Z" fill="url(#paint6_radial)"/>
<path d="M127.398 130.576L127.444 131.695L126.464 132.325L125.46 131.788L125.413 130.645L126.37 130.039L127.398 130.576Z" fill="url(#paint7_radial)"/>
<path d="M137.297 135.474L136.526 136.313L135.406 136.057L135.079 134.96L135.849 134.121L136.97 134.377L137.297 135.474Z" fill="url(#paint8_radial)"/>
<path d="M129.218 127.38L128.448 128.22L127.327 127.963L126.977 126.89L127.771 126.051L128.868 126.284L129.218 127.38Z" fill="url(#paint9_radial)"/>
<path d="M274.856 116.375C284.569 116.375 292.437 124.235 292.437 133.938C292.437 143.641 284.569 151.501 274.856 151.501C265.143 151.501 257.274 143.641 257.274 133.938C257.274 124.235 265.166 116.375 274.856 116.375ZM274.856 147.093C282.14 147.093 288.024 141.192 288.024 133.938C288.024 126.684 282.117 120.784 274.856 120.784C267.594 120.784 261.687 126.684 261.687 133.938C261.687 141.192 267.594 147.093 274.856 147.093Z" fill="url(#paint10_radial)"/>
<path d="M274.926 147.046C267.64 147.046 261.734 141.146 261.734 133.868C261.734 126.59 267.64 120.69 274.926 120.69C282.211 120.69 288.118 126.59 288.118 133.868C288.118 141.146 282.211 147.046 274.926 147.046Z" fill="url(#paint11_radial)"/>
<path d="M274.412 127.244L275.556 127.198L276.163 128.154L275.626 129.18L274.482 129.227L273.875 128.247L274.412 127.244Z" fill="url(#paint12_radial)"/>
<path d="M274.412 138.673L275.556 138.626L276.163 139.583L275.626 140.609L274.482 140.655L273.875 139.676L274.412 138.673Z" fill="url(#paint13_radial)"/>
<path d="M279.386 128.784L280.226 129.553L279.993 130.673L278.895 130.999L278.055 130.23L278.312 129.11L279.386 128.784Z" fill="url(#paint14_radial)"/>
<path d="M271.307 136.854L272.147 137.623L271.891 138.743L270.793 139.093L269.953 138.3L270.21 137.204L271.307 136.854Z" fill="url(#paint15_radial)"/>
<path d="M281.79 133.332L281.837 134.451L280.856 135.081L279.852 134.545L279.806 133.402L280.763 132.795L281.79 133.332Z" fill="url(#paint16_radial)"/>
<path d="M270.35 133.332L270.396 134.451L269.416 135.081L268.412 134.545L268.365 133.402L269.322 132.795L270.35 133.332Z" fill="url(#paint17_radial)"/>
<path d="M280.249 138.23L279.479 139.069L278.358 138.813L278.031 137.717L278.801 136.877L279.922 137.134L280.249 138.23Z" fill="url(#paint18_radial)"/>
<path d="M272.17 130.136L271.4 130.976L270.279 130.719L269.929 129.647L270.723 128.807L271.82 129.04L272.17 130.136Z" fill="url(#paint19_radial)"/>
<mask id="path-30-inside-3" fill="white">
<path fill-rule="evenodd" clip-rule="evenodd" d="M201.983 116.739H203.943V126.525H225.51V116.739H227.471V126.525H249.038V116.739H250.999V128.482H249.038L227.471 128.482V128.482H225.51V128.482H203.943V128.482H201.983V128.482H180.416V128.483H178.455V116.74H180.416V126.525H201.983V116.739Z"/>
</mask>
<path fill-rule="evenodd" clip-rule="evenodd" d="M201.983 116.739H203.943V126.525H225.51V116.739H227.471V126.525H249.038V116.739H250.999V128.482H249.038L227.471 128.482V128.482H225.51V128.482H203.943V128.482H201.983V128.482H180.416V128.483H178.455V116.74H180.416V126.525H201.983V116.739Z" fill="#B8B8B8"/>
<path d="M203.943 116.739H204.288V116.394H203.943V116.739ZM201.983 116.739V116.394H201.638V116.739H201.983ZM203.943 126.525H203.598V126.87H203.943V126.525ZM225.51 126.525V126.87H225.855V126.525H225.51ZM225.51 116.739V116.394H225.165V116.739H225.51ZM227.471 116.739H227.816V116.394H227.471V116.739ZM227.471 126.525H227.126V126.87H227.471V126.525ZM249.038 126.525V126.87H249.383V126.525H249.038ZM249.038 116.739V116.394H248.693V116.739H249.038ZM250.999 116.739H251.344V116.394H250.999V116.739ZM250.999 128.482V128.827H251.344V128.482H250.999ZM249.038 128.482L249.038 128.827H249.038V128.482ZM227.471 128.482L227.471 128.137L227.126 128.137V128.482H227.471ZM227.471 128.482V128.827H227.816V128.482H227.471ZM225.51 128.482H225.165V128.827H225.51V128.482ZM225.51 128.482H225.855V128.137H225.51V128.482ZM203.943 128.482V128.137H203.598V128.482H203.943ZM203.943 128.482V128.827H204.288V128.482H203.943ZM201.983 128.482H201.638V128.827H201.983V128.482ZM201.983 128.482H202.328V128.137H201.983V128.482ZM180.416 128.482V128.137H180.071V128.482H180.416ZM180.416 128.483V128.828H180.761V128.483H180.416ZM178.455 128.483H178.11V128.828H178.455V128.483ZM178.455 116.74V116.395H178.11V116.74H178.455ZM180.416 116.74H180.761V116.395H180.416V116.74ZM180.416 126.525H180.071V126.87H180.416V126.525ZM201.983 126.525V126.87H202.328V126.525H201.983ZM203.943 116.394H201.983V117.084H203.943V116.394ZM204.288 126.525V116.739H203.598V126.525H204.288ZM203.943 126.87H225.51V126.18H203.943V126.87ZM225.855 126.525V116.739H225.165V126.525H225.855ZM225.51 117.084H227.471V116.394H225.51V117.084ZM227.126 116.739V126.525H227.816V116.739H227.126ZM227.471 126.87H249.038V126.18H227.471V126.87ZM248.693 116.739V126.525H249.383V116.739H248.693ZM250.999 116.394H249.038V117.084H250.999V116.394ZM251.344 128.482V116.739H250.654V128.482H251.344ZM249.038 128.827H250.999V128.137H249.038V128.827ZM249.038 128.137L227.471 128.137L227.471 128.827L249.038 128.827L249.038 128.137ZM227.126 128.482V128.482H227.816V128.482H227.126ZM227.471 128.137H225.51V128.827H227.471V128.137ZM225.855 128.482V128.482H225.165V128.482H225.855ZM225.51 128.137H203.943V128.827H225.51V128.137ZM204.288 128.482V128.482H203.598V128.482H204.288ZM201.983 128.827H203.943V128.137H201.983V128.827ZM201.638 128.482V128.482H202.328V128.482H201.638ZM201.983 128.137H180.416V128.827H201.983V128.137ZM180.761 128.483V128.482H180.071V128.483H180.761ZM178.455 128.828H180.416V128.138H178.455V128.828ZM178.11 116.74V128.483H178.8V116.74H178.11ZM180.416 116.395H178.455V117.085H180.416V116.395ZM180.761 126.525V116.74H180.071V126.525H180.761ZM180.416 126.87H201.983V126.18H180.416V126.87ZM201.638 116.739V126.525H202.328V116.739H201.638Z" fill="black" mask="url(#path-30-inside-3)"/>
<mask id="path-32-inside-4" fill="white">
<path fill-rule="evenodd" clip-rule="evenodd" d="M323.511 116.726H321.55V126.511H299.983V116.726H298.022V128.469H299.983V128.468H321.55V128.469H323.511V128.468H332.306C332.307 128.469 332.309 128.469 332.31 128.469H336.67C336.766 128.469 336.843 128.391 336.843 128.296V120.813C336.843 120.717 336.766 120.64 336.67 120.64H332.31C332.215 120.64 332.137 120.717 332.137 120.813V126.511H323.511V116.726Z"/>
</mask>
<path fill-rule="evenodd" clip-rule="evenodd" d="M323.511 116.726H321.55V126.511H299.983V116.726H298.022V128.469H299.983V128.468H321.55V128.469H323.511V128.468H332.306C332.307 128.469 332.309 128.469 332.31 128.469H336.67C336.766 128.469 336.843 128.391 336.843 128.296V120.813C336.843 120.717 336.766 120.64 336.67 120.64H332.31C332.215 120.64 332.137 120.717 332.137 120.813V126.511H323.511V116.726Z" fill="#B8B8B8"/>
<path d="M321.55 116.726V116.381H321.205V116.726H321.55ZM323.511 116.726H323.856V116.381H323.511V116.726ZM321.55 126.511V126.856H321.895V126.511H321.55ZM299.983 126.511H299.638V126.856H299.983V126.511ZM299.983 116.726H300.328V116.381H299.983V116.726ZM298.022 116.726V116.381H297.677V116.726H298.022ZM298.022 128.469H297.677V128.814H298.022V128.469ZM299.983 128.469V128.814H300.328V128.469H299.983ZM299.983 128.468V128.123H299.638V128.468H299.983ZM321.55 128.468H321.895V128.123H321.55V128.468ZM321.55 128.469H321.205V128.814H321.55V128.469ZM323.511 128.469V128.814H323.856V128.469H323.511ZM323.511 128.468V128.123H323.165V128.468H323.511ZM332.306 128.468L332.314 128.123H332.306V128.468ZM332.137 126.511V126.856H332.482V126.511H332.137ZM323.511 126.511H323.165V126.856H323.511V126.511ZM321.55 117.071H323.511V116.381H321.55V117.071ZM321.895 126.511V116.726H321.205V126.511H321.895ZM299.983 126.856H321.55V126.166H299.983V126.856ZM299.638 116.726V126.511H300.328V116.726H299.638ZM298.022 117.071H299.983V116.381H298.022V117.071ZM298.367 128.469V116.726H297.677V128.469H298.367ZM299.983 128.124H298.022V128.814H299.983V128.124ZM299.638 128.468V128.469H300.328V128.468H299.638ZM321.55 128.123H299.983V128.814H321.55V128.123ZM321.895 128.469V128.468H321.205V128.469H321.895ZM323.511 128.124H321.55V128.814H323.511V128.124ZM323.165 128.468V128.469H323.856V128.468H323.165ZM332.306 128.123H323.511V128.814H332.306V128.123ZM332.31 128.124C332.311 128.124 332.313 128.124 332.314 128.124L332.297 128.813C332.301 128.814 332.306 128.814 332.31 128.814V128.124ZM336.67 128.124H332.31V128.814H336.67V128.124ZM336.498 128.296C336.498 128.201 336.575 128.124 336.67 128.124V128.814C336.956 128.814 337.188 128.582 337.188 128.296H336.498ZM336.498 120.813V128.296H337.188V120.813H336.498ZM336.67 120.985C336.575 120.985 336.498 120.908 336.498 120.813H337.188C337.188 120.527 336.956 120.295 336.67 120.295V120.985ZM332.31 120.985H336.67V120.295H332.31V120.985ZM332.482 120.813C332.482 120.908 332.405 120.985 332.31 120.985V120.295C332.024 120.295 331.792 120.527 331.792 120.813H332.482ZM332.482 126.511V120.813H331.792V126.511H332.482ZM323.511 126.856H332.137V126.166H323.511V126.856ZM323.165 116.726V126.511H323.856V116.726H323.165Z" fill="black" mask="url(#path-32-inside-4)"/>
<rect x="158.597" y="96.9544" width="174.152" height="19.6178" rx="0.258773" fill="#FFF3DC" stroke="black" stroke-width="0.345031"/>
<rect x="158.611" y="23.3311" width="174.154" height="73.1882" rx="0.258773" fill="#2F80ED" stroke="black" stroke-width="0.345031"/>
<path d="M170.066 102.161L174.346 109.286C174.38 109.344 174.339 109.417 174.272 109.417H165.712C165.645 109.417 165.604 109.344 165.638 109.286L169.918 102.161C169.952 102.105 170.032 102.105 170.066 102.161Z" fill="#FF0000" stroke="black" stroke-width="0.172515"/>
<path d="M321.428 102.161L325.707 109.286C325.742 109.344 325.701 109.417 325.633 109.417H317.074C317.007 109.417 316.966 109.344 317 109.286L321.28 102.161C321.313 102.105 321.394 102.105 321.428 102.161Z" fill="#FF0000" stroke="black" stroke-width="0.172515"/>
<path d="M286.612 116.682L290.691 116.682C292.662 121.024 294.999 122.138 295.649 128.106C296.298 134.075 294.362 129.434 294.362 129.434C292.564 123.776 290.444 120.425 286.612 116.682Z" fill="black"/>
<path d="M263.223 116.682L259.145 116.682C257.174 121.024 254.836 122.138 254.186 128.106C253.537 134.075 255.474 129.434 255.474 129.434C257.271 123.776 259.391 120.425 263.223 116.682Z" fill="black"/>
<path d="M89.5801 87.1691C89.2515 90.746 88.109 91.4273 85.3441 91.6382" stroke="black" stroke-width="0.0862576"/>
<path d="M90.8371 77.0879C90.8475 77.0475 90.8853 77.0194 90.927 77.0209L91.9197 77.0573C91.9715 77.0591 92.0086 77.1054 91.9991 77.1561L89.2668 91.6784C89.2543 91.7447 89.1737 91.7741 89.1234 91.7308L87.4673 90.3061C87.4433 90.2854 87.4333 90.253 87.4414 90.2218L90.8371 77.0879Z" fill="black"/>
<path d="M333.199 49.9926V112.163L336.531 114.061L334.847 71.9098L333.772 51.0311L333.199 49.9926Z" fill="#B8B8B8" stroke="black" stroke-width="0.345031"/>
<path d="M334.295 111.841H332.903V116.593H334.295C335.607 116.593 336.67 115.529 336.67 114.217C336.67 112.905 335.607 111.841 334.295 111.841Z" fill="#B8B8B8" stroke="black" stroke-width="0.345031"/>
<path d="M334.1 114.191C334.1 114.483 334.337 114.721 334.63 114.721C334.923 114.721 335.16 114.483 335.16 114.191C335.16 113.899 334.923 113.662 334.63 113.662C334.337 113.662 334.1 113.899 334.1 114.191Z" stroke="black" stroke-width="0.345031"/>
<path d="M197.748 49.0309V72.8309H195.334V53.7909L185.984 69.8049H184.794L175.444 53.8929V72.8309H173.03V49.0309H175.104L185.44 66.6769L195.674 49.0309H197.748ZM215.396 73.0349C213.039 73.0349 210.897 72.5136 208.97 71.4709C207.066 70.4056 205.57 68.9549 204.482 67.1189C203.417 65.2829 202.884 63.2203 202.884 60.9309C202.884 58.6416 203.417 56.5789 204.482 54.7429C205.57 52.9069 207.066 51.4676 208.97 50.4249C210.897 49.3596 213.039 48.8269 215.396 48.8269C217.754 48.8269 219.873 49.3483 221.754 50.3909C223.658 51.4336 225.154 52.8843 226.242 54.7429C227.33 56.5789 227.874 58.6416 227.874 60.9309C227.874 63.2203 227.33 65.2943 226.242 67.1529C225.154 68.9889 223.658 70.4283 221.754 71.4709C219.873 72.5136 217.754 73.0349 215.396 73.0349ZM215.396 70.7909C217.278 70.7909 218.978 70.3716 220.496 69.5329C222.015 68.6716 223.205 67.4929 224.066 65.9969C224.928 64.4783 225.358 62.7896 225.358 60.9309C225.358 59.0723 224.928 57.3949 224.066 55.8989C223.205 54.3803 222.015 53.2016 220.496 52.3629C218.978 51.5016 217.278 51.0709 215.396 51.0709C213.515 51.0709 211.804 51.5016 210.262 52.3629C208.744 53.2016 207.542 54.3803 206.658 55.8989C205.797 57.3949 205.366 59.0723 205.366 60.9309C205.366 62.7896 205.797 64.4783 206.658 65.9969C207.542 67.4929 208.744 68.6716 210.262 69.5329C211.804 70.3716 213.515 70.7909 215.396 70.7909ZM252.061 49.0309L241.521 72.8309H239.039L228.499 49.0309H231.219L240.331 69.7029L249.511 49.0309H252.061ZM271.836 70.6549V72.8309H255.006V49.0309H271.326V51.2069H257.522V59.6729H269.83V61.8149H257.522V70.6549H271.836ZM293.492 72.8309L288.052 65.1809C287.44 65.2489 286.805 65.2829 286.148 65.2829H279.756V72.8309H277.24V49.0309H286.148C289.185 49.0309 291.565 49.7563 293.288 51.2069C295.01 52.6576 295.872 54.6523 295.872 57.1909C295.872 59.0496 295.396 60.6249 294.444 61.9169C293.514 63.1863 292.177 64.1043 290.432 64.6709L296.246 72.8309H293.492ZM286.08 63.1409C288.437 63.1409 290.239 62.6196 291.486 61.5769C292.732 60.5343 293.356 59.0723 293.356 57.1909C293.356 55.2643 292.732 53.7909 291.486 52.7709C290.239 51.7283 288.437 51.2069 286.08 51.2069H279.756V63.1409H286.08ZM307.862 73.0349C306.094 73.0349 304.394 72.7516 302.762 72.1849C301.153 71.6183 299.906 70.8703 299.022 69.9409L300.008 68.0029C300.869 68.8643 302.014 69.5669 303.442 70.1109C304.87 70.6323 306.343 70.8929 307.862 70.8929C309.993 70.8929 311.591 70.5076 312.656 69.7369C313.721 68.9436 314.254 67.9236 314.254 66.6769C314.254 65.7249 313.959 64.9656 313.37 64.3989C312.803 63.8323 312.101 63.4016 311.262 63.1069C310.423 62.7896 309.256 62.4496 307.76 62.0869C305.969 61.6336 304.541 61.2029 303.476 60.7949C302.411 60.3643 301.493 59.7183 300.722 58.8569C299.974 57.9956 299.6 56.8283 299.6 55.3549C299.6 54.1536 299.917 53.0656 300.552 52.0909C301.187 51.0936 302.161 50.3003 303.476 49.7109C304.791 49.1216 306.423 48.8269 308.372 48.8269C309.732 48.8269 311.058 49.0196 312.35 49.4049C313.665 49.7676 314.798 50.2776 315.75 50.9349L314.9 52.9409C313.903 52.2836 312.837 51.7963 311.704 51.4789C310.571 51.1389 309.46 50.9689 308.372 50.9689C306.287 50.9689 304.711 51.3769 303.646 52.1929C302.603 52.9863 302.082 54.0176 302.082 55.2869C302.082 56.2389 302.365 57.0096 302.932 57.5989C303.521 58.1656 304.247 58.6076 305.108 58.9249C305.992 59.2196 307.171 59.5483 308.644 59.9109C310.389 60.3416 311.795 60.7723 312.86 61.2029C313.948 61.6109 314.866 62.2456 315.614 63.1069C316.362 63.9456 316.736 65.0903 316.736 66.5409C316.736 67.7423 316.407 68.8416 315.75 69.8389C315.115 70.8136 314.129 71.5956 312.792 72.1849C311.455 72.7516 309.811 73.0349 307.862 73.0349Z" fill="white"/>
<ellipse opacity="0.5" cx="205.548" cy="149.661" rx="122.93" ry="3.4995" fill="#403F45" fill-opacity="0.72"/>
<rect x="1.94462" y="1.94462" width="402.111" height="219.716" stroke="#5C5450" stroke-width="2.11075"/>
<defs>
<radialGradient id="paint0_radial" cx="0" cy="0" r="1" gradientUnits="userSpaceOnUse" gradientTransform="translate(131.915 131.17) rotate(180) scale(17.5697 17.5512)">
<stop offset="0.7777" stop-color="#1A1A1A"/>
<stop offset="0.8882" stop-color="#333333"/>
<stop offset="1"/>
</radialGradient>
<radialGradient id="paint1_radial" cx="0" cy="0" r="1" gradientUnits="userSpaceOnUse" gradientTransform="translate(131.974 131.112) rotate(180) scale(13.1918 13.178)">
<stop stop-color="#8D8C8C"/>
<stop offset="0.0810056" stop-color="#898989"/>
<stop offset="0.1659" stop-color="#808080"/>
<stop offset="0.2687" stop-color="#868686"/>
<stop offset="0.3295" stop-color="#A4A4A4"/>
<stop offset="0.3447" stop-color="#ACACAC"/>
<stop offset="0.5274" stop-color="#B3B3B3"/>
<stop offset="0.5715" stop-color="#A4A4A4"/>
<stop offset="0.6558" stop-color="#7D7D7D"/>
<stop offset="0.7012" stop-color="#666666"/>
<stop offset="0.7387" stop-color="#6F6F70"/>
<stop offset="0.8018" stop-color="#88898A"/>
<stop offset="0.8676" stop-color="#A8AAAC"/>
<stop offset="0.927" stop-color="#7E8486"/>
<stop offset="1" stop-color="#465053"/>
</radialGradient>
<radialGradient id="paint2_radial" cx="0" cy="0" r="1" gradientUnits="userSpaceOnUse" gradientTransform="translate(132.065 125.452) rotate(177.706) scale(1.06789 1.06677)">
<stop offset="0.00561773" stop-color="#534741"/>
<stop offset="0.1684" stop-color="#5C5450"/>
<stop offset="0.4792" stop-color="#737577"/>
<stop offset="0.6742" stop-color="#838C92"/>
<stop offset="0.9793" stop-color="#333333"/>
<stop offset="0.9852" stop-color="#3E4042"/>
<stop offset="0.9965" stop-color="#5B6469"/>
<stop offset="1" stop-color="#657076"/>
</radialGradient>
<radialGradient id="paint3_radial" cx="0" cy="0" r="1" gradientUnits="userSpaceOnUse" gradientTransform="translate(132.065 136.881) rotate(177.706) scale(1.06789 1.06677)">
<stop offset="0.00561773" stop-color="#534741"/>
<stop offset="0.1684" stop-color="#5C5450"/>
<stop offset="0.4792" stop-color="#737577"/>
<stop offset="0.6742" stop-color="#838C92"/>
<stop offset="0.9793" stop-color="#333333"/>
<stop offset="0.9852" stop-color="#3E4042"/>
<stop offset="0.9965" stop-color="#5B6469"/>
<stop offset="1" stop-color="#657076"/>
</radialGradient>
<radialGradient id="paint4_radial" cx="0" cy="0" r="1" gradientUnits="userSpaceOnUse" gradientTransform="translate(136.19 127.134) rotate(-137.328) scale(1.06739)">
<stop offset="0.00561773" stop-color="#534741"/>
<stop offset="0.1684" stop-color="#5C5450"/>
<stop offset="0.4792" stop-color="#737577"/>
<stop offset="0.6742" stop-color="#838C92"/>
<stop offset="0.9793" stop-color="#333333"/>
<stop offset="0.9852" stop-color="#3E4042"/>
<stop offset="0.9965" stop-color="#5B6469"/>
<stop offset="1" stop-color="#657076"/>
</radialGradient>
<radialGradient id="paint5_radial" cx="0" cy="0" r="1" gradientUnits="userSpaceOnUse" gradientTransform="translate(128.1 135.216) rotate(-137.328) scale(1.06739)">
<stop offset="0.00561773" stop-color="#534741"/>
<stop offset="0.1684" stop-color="#5C5450"/>
<stop offset="0.4792" stop-color="#737577"/>
<stop offset="0.6742" stop-color="#838C92"/>
<stop offset="0.9793" stop-color="#333333"/>
<stop offset="0.9852" stop-color="#3E4042"/>
<stop offset="0.9965" stop-color="#5B6469"/>
<stop offset="1" stop-color="#657076"/>
</radialGradient>
<radialGradient id="paint6_radial" cx="0" cy="0" r="1" gradientUnits="userSpaceOnUse" gradientTransform="translate(137.865 131.174) rotate(-92.2987) scale(1.06677 1.06788)">
<stop offset="0.00561773" stop-color="#534741"/>
<stop offset="0.1684" stop-color="#5C5450"/>
<stop offset="0.4792" stop-color="#737577"/>
<stop offset="0.6742" stop-color="#838C92"/>
<stop offset="0.9793" stop-color="#333333"/>
<stop offset="0.9852" stop-color="#3E4042"/>
<stop offset="0.9965" stop-color="#5B6469"/>
<stop offset="1" stop-color="#657076"/>
</radialGradient>
<radialGradient id="paint7_radial" cx="0" cy="0" r="1" gradientUnits="userSpaceOnUse" gradientTransform="translate(126.425 131.174) rotate(-92.2987) scale(1.06677 1.06789)">
<stop offset="0.00561773" stop-color="#534741"/>
<stop offset="0.1684" stop-color="#5C5450"/>
<stop offset="0.4792" stop-color="#737577"/>
<stop offset="0.6742" stop-color="#838C92"/>
<stop offset="0.9793" stop-color="#333333"/>
<stop offset="0.9852" stop-color="#3E4042"/>
<stop offset="0.9965" stop-color="#5B6469"/>
<stop offset="1" stop-color="#657076"/>
</radialGradient>
<radialGradient id="paint8_radial" cx="0" cy="0" r="1" gradientUnits="userSpaceOnUse" gradientTransform="translate(136.189 135.214) rotate(-47.2676) scale(1.0673)">
<stop offset="0.00561773" stop-color="#534741"/>
<stop offset="0.1684" stop-color="#5C5450"/>
<stop offset="0.4792" stop-color="#737577"/>
<stop offset="0.6742" stop-color="#838C92"/>
<stop offset="0.9793" stop-color="#333333"/>
<stop offset="0.9852" stop-color="#3E4042"/>
<stop offset="0.9965" stop-color="#5B6469"/>
<stop offset="1" stop-color="#657076"/>
</radialGradient>
<radialGradient id="paint9_radial" cx="0" cy="0" r="1" gradientUnits="userSpaceOnUse" gradientTransform="translate(128.099 127.133) rotate(-47.2676) scale(1.0673)">
<stop offset="0.00561773" stop-color="#534741"/>
<stop offset="0.1684" stop-color="#5C5450"/>
<stop offset="0.4792" stop-color="#737577"/>
<stop offset="0.6742" stop-color="#838C92"/>
<stop offset="0.9793" stop-color="#333333"/>
<stop offset="0.9852" stop-color="#3E4042"/>
<stop offset="0.9965" stop-color="#5B6469"/>
<stop offset="1" stop-color="#657076"/>
</radialGradient>
<radialGradient id="paint10_radial" cx="0" cy="0" r="1" gradientUnits="userSpaceOnUse" gradientTransform="translate(274.867 133.927) rotate(180) scale(17.5697 17.5512)">
<stop offset="0.7777" stop-color="#1A1A1A"/>
<stop offset="0.8882" stop-color="#333333"/>
<stop offset="1"/>
</radialGradient>
<radialGradient id="paint11_radial" cx="0" cy="0" r="1" gradientUnits="userSpaceOnUse" gradientTransform="translate(274.926 133.868) rotate(180) scale(13.1918 13.178)">
<stop stop-color="#8D8C8C"/>
<stop offset="0.0810056" stop-color="#898989"/>
<stop offset="0.1659" stop-color="#808080"/>
<stop offset="0.2687" stop-color="#868686"/>
<stop offset="0.3295" stop-color="#A4A4A4"/>
<stop offset="0.3447" stop-color="#ACACAC"/>
<stop offset="0.5274" stop-color="#B3B3B3"/>
<stop offset="0.5715" stop-color="#A4A4A4"/>
<stop offset="0.6558" stop-color="#7D7D7D"/>
<stop offset="0.7012" stop-color="#666666"/>
<stop offset="0.7387" stop-color="#6F6F70"/>
<stop offset="0.8018" stop-color="#88898A"/>
<stop offset="0.8676" stop-color="#A8AAAC"/>
<stop offset="0.927" stop-color="#7E8486"/>
<stop offset="1" stop-color="#465053"/>
</radialGradient>
<radialGradient id="paint12_radial" cx="0" cy="0" r="1" gradientUnits="userSpaceOnUse" gradientTransform="translate(275.016 128.209) rotate(177.706) scale(1.06789 1.06677)">
<stop offset="0.00561773" stop-color="#534741"/>
<stop offset="0.1684" stop-color="#5C5450"/>
<stop offset="0.4792" stop-color="#737577"/>
<stop offset="0.6742" stop-color="#838C92"/>
<stop offset="0.9793" stop-color="#333333"/>
<stop offset="0.9852" stop-color="#3E4042"/>
<stop offset="0.9965" stop-color="#5B6469"/>
<stop offset="1" stop-color="#657076"/>
</radialGradient>
<radialGradient id="paint13_radial" cx="0" cy="0" r="1" gradientUnits="userSpaceOnUse" gradientTransform="translate(275.017 139.637) rotate(177.706) scale(1.06789 1.06677)">
<stop offset="0.00561773" stop-color="#534741"/>
<stop offset="0.1684" stop-color="#5C5450"/>
<stop offset="0.4792" stop-color="#737577"/>
<stop offset="0.6742" stop-color="#838C92"/>
<stop offset="0.9793" stop-color="#333333"/>
<stop offset="0.9852" stop-color="#3E4042"/>
<stop offset="0.9965" stop-color="#5B6469"/>
<stop offset="1" stop-color="#657076"/>
</radialGradient>
<radialGradient id="paint14_radial" cx="0" cy="0" r="1" gradientUnits="userSpaceOnUse" gradientTransform="translate(279.142 129.89) rotate(-137.327) scale(1.06739)">
<stop offset="0.00561773" stop-color="#534741"/>
<stop offset="0.1684" stop-color="#5C5450"/>
<stop offset="0.4792" stop-color="#737577"/>
<stop offset="0.6742" stop-color="#838C92"/>
<stop offset="0.9793" stop-color="#333333"/>
<stop offset="0.9852" stop-color="#3E4042"/>
<stop offset="0.9965" stop-color="#5B6469"/>
<stop offset="1" stop-color="#657076"/>
</radialGradient>
<radialGradient id="paint15_radial" cx="0" cy="0" r="1" gradientUnits="userSpaceOnUse" gradientTransform="translate(271.052 137.972) rotate(-137.328) scale(1.06739)">
<stop offset="0.00561773" stop-color="#534741"/>
<stop offset="0.1684" stop-color="#5C5450"/>
<stop offset="0.4792" stop-color="#737577"/>
<stop offset="0.6742" stop-color="#838C92"/>
<stop offset="0.9793" stop-color="#333333"/>
<stop offset="0.9852" stop-color="#3E4042"/>
<stop offset="0.9965" stop-color="#5B6469"/>
<stop offset="1" stop-color="#657076"/>
</radialGradient>
<radialGradient id="paint16_radial" cx="0" cy="0" r="1" gradientUnits="userSpaceOnUse" gradientTransform="translate(280.817 133.93) rotate(-92.2987) scale(1.06677 1.06789)">
<stop offset="0.00561773" stop-color="#534741"/>
<stop offset="0.1684" stop-color="#5C5450"/>
<stop offset="0.4792" stop-color="#737577"/>
<stop offset="0.6742" stop-color="#838C92"/>
<stop offset="0.9793" stop-color="#333333"/>
<stop offset="0.9852" stop-color="#3E4042"/>
<stop offset="0.9965" stop-color="#5B6469"/>
<stop offset="1" stop-color="#657076"/>
</radialGradient>
<radialGradient id="paint17_radial" cx="0" cy="0" r="1" gradientUnits="userSpaceOnUse" gradientTransform="translate(269.377 133.93) rotate(-92.2987) scale(1.06677 1.06789)">
<stop offset="0.00561773" stop-color="#534741"/>
<stop offset="0.1684" stop-color="#5C5450"/>
<stop offset="0.4792" stop-color="#737577"/>
<stop offset="0.6742" stop-color="#838C92"/>
<stop offset="0.9793" stop-color="#333333"/>
<stop offset="0.9852" stop-color="#3E4042"/>
<stop offset="0.9965" stop-color="#5B6469"/>
<stop offset="1" stop-color="#657076"/>
</radialGradient>
<radialGradient id="paint18_radial" cx="0" cy="0" r="1" gradientUnits="userSpaceOnUse" gradientTransform="translate(279.141 137.97) rotate(-47.2675) scale(1.0673)">
<stop offset="0.00561773" stop-color="#534741"/>
<stop offset="0.1684" stop-color="#5C5450"/>
<stop offset="0.4792" stop-color="#737577"/>
<stop offset="0.6742" stop-color="#838C92"/>
<stop offset="0.9793" stop-color="#333333"/>
<stop offset="0.9852" stop-color="#3E4042"/>
<stop offset="0.9965" stop-color="#5B6469"/>
<stop offset="1" stop-color="#657076"/>
</radialGradient>
<radialGradient id="paint19_radial" cx="0" cy="0" r="1" gradientUnits="userSpaceOnUse" gradientTransform="translate(271.051 129.889) rotate(-47.2678) scale(1.06729)">
<stop offset="0.00561773" stop-color="#534741"/>
<stop offset="0.1684" stop-color="#5C5450"/>
<stop offset="0.4792" stop-color="#737577"/>
<stop offset="0.6742" stop-color="#838C92"/>
<stop offset="0.9793" stop-color="#333333"/>
<stop offset="0.9852" stop-color="#3E4042"/>
<stop offset="0.9965" stop-color="#5B6469"/>
<stop offset="1" stop-color="#657076"/>
</radialGradient>
</defs>
</svg>
