<svg width="406" height="223" viewBox="0 0 406 223" fill="none" xmlns="http://www.w3.org/2000/svg">
<rect x="3" y="3" width="400" height="217.606" rx="6.33226" fill="white"/>
<path d="M57.4271 175.338H46.7129V171.455H72.5609V175.338H61.8467V202.704H57.4271V175.338ZM79.6688 183.017C80.4128 181.648 81.514 180.606 82.9723 179.892C84.4306 179.178 86.2015 178.821 88.2848 178.821V182.972C88.0467 182.943 87.7193 182.928 87.3026 182.928C84.9812 182.928 83.1509 183.627 81.8116 185.026C80.5021 186.395 79.8473 188.359 79.8473 190.919V202.704H75.5617V179.044H79.6688V183.017ZM115.256 179.044V202.704H111.193V199.133C110.33 200.353 109.184 201.305 107.756 201.99C106.357 202.645 104.824 202.972 103.158 202.972C100.003 202.972 97.5179 202.109 95.7024 200.383C93.8869 198.627 92.9792 196.053 92.9792 192.66V179.044H97.2649V192.169C97.2649 194.46 97.8155 196.201 98.9167 197.392C100.018 198.553 101.595 199.133 103.649 199.133C105.911 199.133 107.696 198.448 109.006 197.079C110.315 195.71 110.97 193.776 110.97 191.276V179.044H115.256ZM133.057 202.972C130.647 202.972 128.489 202.451 126.584 201.41C124.709 200.368 123.236 198.939 122.165 197.124C121.093 195.279 120.557 193.195 120.557 190.874C120.557 188.553 121.093 186.484 122.165 184.669C123.236 182.824 124.709 181.395 126.584 180.383C128.489 179.341 130.647 178.821 133.057 178.821C135.2 178.821 137.105 179.252 138.772 180.115C140.468 180.978 141.777 182.228 142.7 183.865L139.441 185.963C138.697 184.832 137.775 183.984 136.673 183.419C135.572 182.853 134.352 182.571 133.013 182.571C131.465 182.571 130.066 182.913 128.816 183.597C127.596 184.282 126.629 185.264 125.915 186.544C125.23 187.794 124.888 189.237 124.888 190.874C124.888 192.541 125.23 194.014 125.915 195.294C126.629 196.544 127.596 197.511 128.816 198.195C130.066 198.88 131.465 199.222 133.013 199.222C134.352 199.222 135.572 198.939 136.673 198.374C137.775 197.808 138.697 196.96 139.441 195.829L142.7 197.883C141.777 199.52 140.468 200.785 138.772 201.678C137.105 202.541 135.2 202.972 133.057 202.972ZM156.47 191.678L151.56 196.231V202.704H147.274V169.58H151.56V190.829L164.461 179.044H169.64L159.684 188.82L170.622 202.704H165.354L156.47 191.678ZM208.915 203.195L204.763 199.044C201.995 201.722 198.513 203.061 194.317 203.061C192.233 203.061 190.358 202.719 188.692 202.035C187.025 201.35 185.715 200.398 184.763 199.178C183.84 197.928 183.379 196.514 183.379 194.936C183.379 193.032 183.959 191.35 185.12 189.892C186.311 188.404 188.26 186.886 190.968 185.338C189.599 183.969 188.632 182.734 188.067 181.633C187.501 180.532 187.218 179.386 187.218 178.196C187.218 176.083 187.977 174.386 189.495 173.106C191.043 171.827 193.096 171.187 195.656 171.187C198.037 171.187 199.927 171.767 201.325 172.928C202.724 174.088 203.424 175.681 203.424 177.705C203.424 179.282 202.903 180.696 201.861 181.946C200.849 183.196 199.153 184.505 196.772 185.874L204.495 193.553C205.388 191.856 206.028 189.966 206.415 187.883L209.852 188.999C209.316 191.737 208.409 194.118 207.129 196.142L211.325 200.338L208.915 203.195ZM195.656 174.312C194.257 174.312 193.156 174.669 192.352 175.383C191.578 176.068 191.192 176.975 191.192 178.106C191.192 178.91 191.4 179.684 191.817 180.428C192.263 181.172 193.111 182.184 194.361 183.463C196.415 182.303 197.828 181.306 198.602 180.472C199.406 179.639 199.808 178.731 199.808 177.749C199.808 176.707 199.436 175.874 198.691 175.249C197.977 174.624 196.965 174.312 195.656 174.312ZM194.584 199.49C197.68 199.49 200.224 198.508 202.218 196.544L193.334 187.704C191.192 188.895 189.689 190.011 188.825 191.053C187.992 192.065 187.576 193.21 187.576 194.49C187.576 195.978 188.215 197.184 189.495 198.106C190.805 199.029 192.501 199.49 194.584 199.49ZM233.517 175.338H222.803V171.455H248.651V175.338H237.937V202.704H233.517V175.338ZM255.759 183.017C256.503 181.648 257.604 180.606 259.062 179.892C260.521 179.178 262.291 178.821 264.375 178.821V182.972C264.137 182.943 263.809 182.928 263.393 182.928C261.071 182.928 259.241 183.627 257.902 185.026C256.592 186.395 255.937 188.359 255.937 190.919V202.704H251.652V179.044H255.759V183.017ZM277.56 178.821C280.833 178.821 283.333 179.624 285.06 181.231C286.816 182.838 287.694 185.234 287.694 188.419V202.704H283.631V199.579C282.917 200.68 281.89 201.529 280.551 202.124C279.241 202.689 277.679 202.972 275.863 202.972C273.214 202.972 271.087 202.332 269.479 201.053C267.902 199.773 267.113 198.091 267.113 196.008C267.113 193.925 267.872 192.258 269.39 191.008C270.908 189.728 273.319 189.088 276.622 189.088H283.408V188.24C283.408 186.395 282.872 184.981 281.801 183.999C280.729 183.017 279.152 182.526 277.069 182.526C275.67 182.526 274.301 182.764 272.962 183.24C271.622 183.687 270.491 184.297 269.569 185.071L267.783 181.856C269.003 180.874 270.462 180.13 272.158 179.624C273.854 179.088 275.655 178.821 277.56 178.821ZM276.578 199.669C278.214 199.669 279.628 199.311 280.819 198.597C282.009 197.853 282.872 196.811 283.408 195.472V192.169H276.801C273.17 192.169 271.354 193.389 271.354 195.829C271.354 197.02 271.816 197.957 272.738 198.642C273.661 199.326 274.941 199.669 276.578 199.669ZM294.955 179.044H299.241V202.704H294.955V179.044ZM297.098 174.49C296.264 174.49 295.565 174.222 295 173.687C294.464 173.151 294.196 172.496 294.196 171.722C294.196 170.949 294.464 170.294 295 169.758C295.565 169.193 296.264 168.91 297.098 168.91C297.931 168.91 298.616 169.178 299.151 169.714C299.717 170.219 299.999 170.859 299.999 171.633C299.999 172.437 299.717 173.121 299.151 173.687C298.616 174.222 297.931 174.49 297.098 174.49ZM306.754 169.58H311.039V202.704H306.754V169.58ZM339.936 191.008C339.936 191.335 339.907 191.767 339.847 192.303H320.651C320.919 194.386 321.826 196.067 323.374 197.347C324.951 198.597 326.901 199.222 329.222 199.222C332.05 199.222 334.326 198.27 336.052 196.365L338.419 199.133C337.347 200.383 336.008 201.335 334.401 201.99C332.823 202.645 331.053 202.972 329.088 202.972C326.588 202.972 324.371 202.466 322.437 201.454C320.502 200.413 318.999 198.969 317.928 197.124C316.886 195.279 316.365 193.195 316.365 190.874C316.365 188.582 316.871 186.514 317.883 184.669C318.925 182.824 320.338 181.395 322.124 180.383C323.939 179.341 325.978 178.821 328.24 178.821C330.502 178.821 332.511 179.341 334.267 180.383C336.052 181.395 337.436 182.824 338.419 184.669C339.43 186.514 339.936 188.627 339.936 191.008ZM328.24 182.437C326.186 182.437 324.46 183.062 323.062 184.312C321.692 185.562 320.889 187.198 320.651 189.222H335.829C335.591 187.228 334.773 185.606 333.374 184.356C332.005 183.076 330.294 182.437 328.24 182.437ZM349.325 183.017C350.069 181.648 351.17 180.606 352.628 179.892C354.087 179.178 355.858 178.821 357.941 178.821V182.972C357.703 182.943 357.375 182.928 356.959 182.928C354.637 182.928 352.807 183.627 351.468 185.026C350.158 186.395 349.503 188.359 349.503 190.919V202.704H345.218V179.044H349.325V183.017Z" fill="#737577"/>
<path fill-rule="evenodd" clip-rule="evenodd" d="M22.771 135.73H37.8105C37.806 135.557 37.8037 135.384 37.8037 135.21C37.8037 124.459 46.5187 115.744 57.2692 115.744C68.0197 115.744 76.7348 124.459 76.7348 135.21C76.7348 135.384 76.7325 135.557 76.7279 135.73H117.793C117.788 135.557 117.786 135.384 117.786 135.21C117.786 124.459 126.501 115.744 137.251 115.744C148.002 115.744 156.717 124.459 156.717 135.21C156.717 135.384 156.715 135.557 156.71 135.73H161.689V127.539H164.291V120.196H161.689V116.746H147.89V111.562H125.456V116.746H80.5894V57.6368H78.0068C78.0775 52.3625 79.1401 41.2511 82.825 39C75.0774 39 54.8024 53.3197 52.9907 55.4782H42.6027L23.407 105.51V116.746H25.3728V123.646H22.771V135.73ZM30.1524 95.8162H62.1645V62.9368H42.4827L30.1524 95.8162Z" fill="#FFF3DC"/>
<path d="M37.8105 135.73V135.884H37.9688L37.9646 135.726L37.8105 135.73ZM22.771 135.73H22.6168V135.884H22.771V135.73ZM76.7279 135.73L76.5738 135.726L76.5697 135.884H76.7279V135.73ZM117.793 135.73V135.884H117.951L117.947 135.726L117.793 135.73ZM156.71 135.73L156.556 135.726L156.552 135.884H156.71V135.73ZM161.689 135.73V135.884H161.844V135.73H161.689ZM161.689 127.539V127.385H161.535V127.539H161.689ZM164.291 127.539V127.693H164.445V127.539H164.291ZM164.291 120.196H164.445V120.042H164.291V120.196ZM161.689 120.196H161.535V120.35H161.689V120.196ZM161.689 116.746H161.844V116.592H161.689V116.746ZM147.89 116.746H147.736V116.901H147.89V116.746ZM147.89 111.562H148.044V111.408H147.89V111.562ZM125.456 111.562V111.408H125.302V111.562H125.456ZM125.456 116.746V116.901H125.611V116.746H125.456ZM80.5894 116.746H80.4352V116.901H80.5894V116.746ZM80.5894 57.6368H80.7436V57.4826H80.5894V57.6368ZM78.0068 57.6368L77.8527 57.6347L77.8506 57.791H78.0068V57.6368ZM82.825 39L82.9054 39.1316L83.3732 38.8458H82.825V39ZM52.9907 55.4782V55.6324H53.0626L53.1088 55.5774L52.9907 55.4782ZM42.6027 55.4782V55.3241H42.4967L42.4588 55.423L42.6027 55.4782ZM23.407 105.51L23.263 105.455L23.2528 105.482V105.51H23.407ZM23.407 116.746H23.2528V116.901H23.407V116.746ZM25.3728 116.746H25.527V116.592H25.3728V116.746ZM25.3728 123.646V123.8H25.527V123.646H25.3728ZM22.771 123.646V123.492H22.6168V123.646H22.771ZM62.1645 95.8162V95.9704H62.3187V95.8162H62.1645ZM30.1524 95.8162L30.008 95.7621L29.9299 95.9704H30.1524V95.8162ZM62.1645 62.9368H62.3187V62.7826H62.1645V62.9368ZM42.4827 62.9368V62.7826H42.3759L42.3384 62.8827L42.4827 62.9368ZM37.8105 135.576H22.771V135.884H37.8105V135.576ZM37.6495 135.21C37.6495 135.385 37.6518 135.56 37.6564 135.734L37.9646 135.726C37.9601 135.555 37.9579 135.382 37.9579 135.21H37.6495ZM57.2692 115.59C46.4336 115.59 37.6495 124.374 37.6495 135.21H37.9579C37.9579 124.544 46.6039 115.898 57.2692 115.898V115.59ZM76.8889 135.21C76.8889 124.374 68.1049 115.59 57.2692 115.59V115.898C67.9346 115.898 76.5806 124.544 76.5806 135.21H76.8889ZM76.8821 135.734C76.8866 135.56 76.8889 135.385 76.8889 135.21H76.5806C76.5806 135.382 76.5783 135.555 76.5738 135.726L76.8821 135.734ZM117.793 135.576H76.7279V135.884H117.793V135.576ZM117.947 135.726C117.942 135.555 117.94 135.382 117.94 135.21H117.632C117.632 135.385 117.634 135.56 117.638 135.734L117.947 135.726ZM117.94 135.21C117.94 124.544 126.586 115.898 137.251 115.898V115.59C126.416 115.59 117.632 124.374 117.632 135.21H117.94ZM137.251 115.898C147.917 115.898 156.563 124.544 156.563 135.21H156.871C156.871 124.374 148.087 115.59 137.251 115.59V115.898ZM156.563 135.21C156.563 135.382 156.56 135.555 156.556 135.726L156.864 135.734C156.869 135.56 156.871 135.385 156.871 135.21H156.563ZM161.689 135.576H156.71V135.884H161.689V135.576ZM161.535 127.539V135.73H161.844V127.539H161.535ZM164.291 127.385H161.689V127.693H164.291V127.385ZM164.137 120.196V127.539H164.445V120.196H164.137ZM161.689 120.35H164.291V120.042H161.689V120.35ZM161.535 116.746V120.196H161.844V116.746H161.535ZM147.89 116.901H161.689V116.592H147.89V116.901ZM147.736 111.562V116.746H148.044V111.562H147.736ZM125.456 111.716H147.89V111.408H125.456V111.716ZM125.611 116.746V111.562H125.302V116.746H125.611ZM80.5894 116.901H125.456V116.592H80.5894V116.901ZM80.4352 57.6368V116.746H80.7436V57.6368H80.4352ZM78.0068 57.791H80.5894V57.4826H78.0068V57.791ZM82.7447 38.8684C81.782 39.4565 81.0087 40.6093 80.3859 42.0591C79.761 43.5136 79.278 45.29 78.9093 47.1548C78.1719 50.8849 77.8881 54.991 77.8527 57.6347L78.161 57.6389C78.1963 55.0083 78.479 50.9215 79.2118 47.2146C79.5783 45.3608 80.0562 43.6077 80.6692 42.1808C81.2842 40.7493 82.0256 39.6691 82.9054 39.1316L82.7447 38.8684ZM53.1088 55.5774C53.3242 55.3207 53.8276 54.8697 54.5717 54.2705C55.312 53.6746 56.2806 52.9398 57.4175 52.1178C59.6911 50.474 62.6342 48.4838 65.7626 46.561C68.8915 44.638 72.2029 42.7841 75.2136 41.4115C78.2307 40.036 80.9241 39.1542 82.825 39.1542V38.8458C80.8521 38.8458 78.1058 39.754 75.0857 41.1309C72.0592 42.5107 68.736 44.3716 65.6011 46.2983C62.4659 48.2253 59.5164 50.2198 57.2368 51.8679C56.097 52.692 55.1239 53.4301 54.3784 54.0304C53.6367 54.6275 53.1102 55.0961 52.8726 55.3791L53.1088 55.5774ZM42.6027 55.6324H52.9907V55.3241H42.6027V55.6324ZM23.5509 105.566L42.7467 55.5335L42.4588 55.423L23.263 105.455L23.5509 105.566ZM23.5612 116.746V105.51H23.2528V116.746H23.5612ZM25.3728 116.592H23.407V116.901H25.3728V116.592ZM25.527 123.646V116.746H25.2186V123.646H25.527ZM22.771 123.8H25.3728V123.492H22.771V123.8ZM22.9252 135.73V123.646H22.6168V135.73H22.9252ZM62.1645 95.662H30.1524V95.9704H62.1645V95.662ZM62.0103 62.9368V95.8162H62.3187V62.9368H62.0103ZM42.4827 63.091H62.1645V62.7826H42.4827V63.091ZM30.2968 95.8704L42.6271 62.991L42.3384 62.8827L30.008 95.7621L30.2968 95.8704Z" fill="black"/>
<path d="M28.8997 123.338H22V135.711H28.8997V123.338Z" fill="#B8B8B8" stroke="black" stroke-width="0.154182"/>
<rect x="85.4847" y="36.2247" width="306.438" height="75.2025" fill="#2F80ED" stroke="black" stroke-width="0.308365"/>
<path d="M57.3465 118.096C47.7852 118.096 40.0396 125.841 40.0396 135.403C40.0396 144.964 47.7852 152.71 57.3465 152.71C66.9079 152.71 74.6535 144.964 74.6535 135.403C74.6535 125.841 66.8849 118.096 57.3465 118.096ZM57.3465 148.366C50.1755 148.366 44.3835 142.551 44.3835 135.403C44.3835 128.255 50.1985 122.44 57.3465 122.44C64.4946 122.44 70.3095 128.255 70.3095 135.403C70.3095 142.551 64.4946 148.366 57.3465 148.366Z" fill="url(#paint0_radial)"/>
<path d="M57.2775 148.32C64.4494 148.32 70.2635 142.506 70.2635 135.334C70.2635 128.162 64.4494 122.348 57.2775 122.348C50.1055 122.348 44.2915 128.162 44.2915 135.334C44.2915 142.506 50.1055 148.32 57.2775 148.32Z" fill="url(#paint1_radial)"/>
<path d="M57.7829 128.806L56.6567 128.76L56.0591 129.702L56.5877 130.714L57.7139 130.76L58.3115 129.794L57.7829 128.806Z" fill="url(#paint2_radial)"/>
<path d="M57.7829 140.068L56.6567 140.022L56.0591 140.965L56.5877 141.976L57.7139 142.022L58.3115 141.057L57.7829 140.068Z" fill="url(#paint3_radial)"/>
<path d="M52.8875 130.323L52.0601 131.082L52.2899 132.185L53.3701 132.507L54.1976 131.748L53.9447 130.645L52.8875 130.323Z" fill="url(#paint4_radial)"/>
<path d="M60.8396 138.276L60.0122 139.034L60.265 140.137L61.3453 140.482L62.1727 139.701L61.9199 138.62L60.8396 138.276Z" fill="url(#paint5_radial)"/>
<path d="M50.5201 134.806L50.4741 135.909L51.4394 136.529L52.4278 136.001L52.4737 134.875L51.5314 134.277L50.5201 134.806Z" fill="url(#paint6_radial)"/>
<path d="M61.7823 134.805L61.7363 135.908L62.7017 136.529L63.69 136L63.7359 134.874L62.7936 134.276L61.7823 134.805Z" fill="url(#paint7_radial)"/>
<path d="M52.0366 139.632L52.7951 140.459L53.8983 140.206L54.2201 139.126L53.4616 138.299L52.3584 138.551L52.0366 139.632Z" fill="url(#paint8_radial)"/>
<path d="M59.9893 131.656L60.7477 132.484L61.851 132.231L62.1957 131.173L61.4143 130.346L60.334 130.576L59.9893 131.656Z" fill="url(#paint9_radial)"/>
<path d="M137.328 118.096C127.767 118.096 120.021 125.841 120.021 135.403C120.021 144.964 127.767 152.71 137.328 152.71C146.89 152.71 154.635 144.964 154.635 135.403C154.635 125.841 146.867 118.096 137.328 118.096ZM137.328 148.366C130.157 148.366 124.365 142.551 124.365 135.403C124.365 128.255 130.18 122.44 137.328 122.44C144.476 122.44 150.291 128.255 150.291 135.403C150.291 142.551 144.476 148.366 137.328 148.366Z" fill="url(#paint10_radial)"/>
<path d="M137.259 148.32C144.431 148.32 150.245 142.506 150.245 135.334C150.245 128.162 144.431 122.348 137.259 122.348C130.087 122.348 124.273 128.162 124.273 135.334C124.273 142.506 130.087 148.32 137.259 148.32Z" fill="url(#paint11_radial)"/>
<path d="M137.765 128.806L136.639 128.76L136.041 129.702L136.57 130.714L137.696 130.76L138.293 129.794L137.765 128.806Z" fill="url(#paint12_radial)"/>
<path d="M137.765 140.068L136.639 140.022L136.041 140.965L136.57 141.976L137.696 142.022L138.293 141.057L137.765 140.068Z" fill="url(#paint13_radial)"/>
<path d="M132.869 130.323L132.042 131.082L132.272 132.185L133.352 132.507L134.18 131.748L133.927 130.645L132.869 130.323Z" fill="url(#paint14_radial)"/>
<path d="M140.822 138.276L139.995 139.034L140.247 140.137L141.328 140.482L142.155 139.701L141.902 138.62L140.822 138.276Z" fill="url(#paint15_radial)"/>
<path d="M130.502 134.806L130.456 135.909L131.421 136.529L132.41 136.001L132.456 134.875L131.513 134.277L130.502 134.806Z" fill="url(#paint16_radial)"/>
<path d="M141.764 134.805L141.718 135.908L142.684 136.529L143.672 136L143.718 134.874L142.776 134.276L141.764 134.805Z" fill="url(#paint17_radial)"/>
<path d="M132.019 139.632L132.778 140.459L133.881 140.206L134.203 139.126L133.444 138.299L132.341 138.551L132.019 139.632Z" fill="url(#paint18_radial)"/>
<path d="M139.972 131.656L140.73 132.484L141.833 132.231L142.178 131.173L141.397 130.346L140.316 130.576L139.972 131.656Z" fill="url(#paint19_radial)"/>
<path d="M267.458 118.096C257.897 118.096 250.151 125.841 250.151 135.403C250.151 144.964 257.897 152.71 267.458 152.71C277.02 152.71 284.765 144.964 284.765 135.403C284.765 125.841 276.997 118.096 267.458 118.096ZM267.458 148.366C260.287 148.366 254.495 142.551 254.495 135.403C254.495 128.255 260.31 122.44 267.458 122.44C274.606 122.44 280.421 128.255 280.421 135.403C280.421 142.551 274.606 148.366 267.458 148.366Z" fill="url(#paint20_radial)"/>
<path d="M267.389 148.32C274.561 148.32 280.375 142.506 280.375 135.334C280.375 128.162 274.561 122.348 267.389 122.348C260.217 122.348 254.403 128.162 254.403 135.334C254.403 142.506 260.217 148.32 267.389 148.32Z" fill="url(#paint21_radial)"/>
<path d="M267.895 128.806L266.769 128.76L266.171 129.702L266.7 130.714L267.826 130.76L268.424 129.794L267.895 128.806Z" fill="url(#paint22_radial)"/>
<path d="M267.895 140.068L266.769 140.022L266.171 140.965L266.7 141.976L267.826 142.022L268.424 141.057L267.895 140.068Z" fill="url(#paint23_radial)"/>
<path d="M262.999 130.323L262.172 131.082L262.402 132.185L263.482 132.507L264.309 131.748L264.057 130.645L262.999 130.323Z" fill="url(#paint24_radial)"/>
<path d="M270.952 138.276L270.125 139.034L270.377 140.137L271.458 140.482L272.285 139.701L272.032 138.62L270.952 138.276Z" fill="url(#paint25_radial)"/>
<path d="M260.632 134.806L260.586 135.909L261.552 136.529L262.54 136.001L262.586 134.874L261.644 134.277L260.632 134.806Z" fill="url(#paint26_radial)"/>
<path d="M271.895 134.805L271.849 135.908L272.814 136.529L273.802 136L273.848 134.874L272.906 134.276L271.895 134.805Z" fill="url(#paint27_radial)"/>
<path d="M262.149 139.632L262.907 140.459L264.011 140.206L264.332 139.126L263.574 138.299L262.471 138.551L262.149 139.632Z" fill="url(#paint28_radial)"/>
<path d="M270.102 131.656L270.86 132.484L271.963 132.231L272.308 131.173L271.527 130.346L270.446 130.576L270.102 131.656Z" fill="url(#paint29_radial)"/>
<path d="M311.362 118.096C301.8 118.096 294.055 125.841 294.055 135.403C294.055 144.964 301.8 152.71 311.362 152.71C320.923 152.71 328.669 144.964 328.669 135.403C328.669 125.841 320.9 118.096 311.362 118.096ZM311.362 148.366C304.191 148.366 298.399 142.551 298.399 135.403C298.399 128.255 304.214 122.44 311.362 122.44C318.51 122.44 324.325 128.255 324.325 135.403C324.325 142.551 318.51 148.366 311.362 148.366Z" fill="url(#paint30_radial)"/>
<path d="M311.293 148.32C318.465 148.32 324.279 142.506 324.279 135.334C324.279 128.162 318.465 122.348 311.293 122.348C304.121 122.348 298.307 128.162 298.307 135.334C298.307 142.506 304.121 148.32 311.293 148.32Z" fill="url(#paint31_radial)"/>
<path d="M311.799 128.806L310.672 128.76L310.075 129.702L310.603 130.714L311.73 130.76L312.327 129.794L311.799 128.806Z" fill="url(#paint32_radial)"/>
<path d="M311.799 140.068L310.672 140.022L310.075 140.965L310.603 141.976L311.73 142.022L312.327 141.057L311.799 140.068Z" fill="url(#paint33_radial)"/>
<path d="M306.903 130.323L306.076 131.082L306.306 132.185L307.386 132.507L308.213 131.748L307.96 130.645L306.903 130.323Z" fill="url(#paint34_radial)"/>
<path d="M314.855 138.276L314.028 139.034L314.281 140.137L315.361 140.482L316.188 139.701L315.935 138.62L314.855 138.276Z" fill="url(#paint35_radial)"/>
<path d="M304.536 134.806L304.49 135.909L305.455 136.529L306.443 136.001L306.489 134.874L305.547 134.277L304.536 134.806Z" fill="url(#paint36_radial)"/>
<path d="M315.798 134.805L315.752 135.908L316.717 136.529L317.706 136L317.752 134.874L316.809 134.276L315.798 134.805Z" fill="url(#paint37_radial)"/>
<path d="M306.053 139.632L306.811 140.459L307.914 140.206L308.236 139.126L307.478 138.299L306.375 138.551L306.053 139.632Z" fill="url(#paint38_radial)"/>
<path d="M314.005 131.656L314.764 132.484L315.867 132.231L316.212 131.173L315.43 130.346L314.35 130.576L314.005 131.656Z" fill="url(#paint39_radial)"/>
<path d="M355.342 118.096C345.781 118.096 338.035 125.841 338.035 135.403C338.035 144.964 345.781 152.71 355.342 152.71C364.903 152.71 372.649 144.964 372.649 135.403C372.649 125.841 364.88 118.096 355.342 118.096ZM355.342 148.366C348.171 148.366 342.379 142.551 342.379 135.403C342.379 128.255 348.194 122.44 355.342 122.44C362.49 122.44 368.305 128.255 368.305 135.403C368.305 142.551 362.49 148.366 355.342 148.366Z" fill="url(#paint40_radial)"/>
<path d="M355.274 148.32C362.446 148.32 368.26 142.506 368.26 135.334C368.26 128.162 362.446 122.348 355.274 122.348C348.102 122.348 342.288 128.162 342.288 135.334C342.288 142.506 348.102 148.32 355.274 148.32Z" fill="url(#paint41_radial)"/>
<path d="M355.779 128.806L354.653 128.76L354.055 129.702L354.584 130.714L355.71 130.76L356.308 129.794L355.779 128.806Z" fill="url(#paint42_radial)"/>
<path d="M355.779 140.068L354.653 140.022L354.055 140.965L354.584 141.976L355.71 142.022L356.308 141.057L355.779 140.068Z" fill="url(#paint43_radial)"/>
<path d="M350.884 130.323L350.056 131.082L350.286 132.185L351.366 132.507L352.194 131.748L351.941 130.645L350.884 130.323Z" fill="url(#paint44_radial)"/>
<path d="M358.836 138.276L358.008 139.034L358.261 140.137L359.341 140.482L360.169 139.701L359.916 138.62L358.836 138.276Z" fill="url(#paint45_radial)"/>
<path d="M348.516 134.806L348.47 135.909L349.436 136.529L350.424 136.001L350.47 134.874L349.527 134.277L348.516 134.806Z" fill="url(#paint46_radial)"/>
<path d="M359.778 134.805L359.732 135.908L360.697 136.529L361.686 136L361.732 134.874L360.789 134.276L359.778 134.805Z" fill="url(#paint47_radial)"/>
<path d="M350.033 139.632L350.791 140.459L351.894 140.206L352.216 139.126L351.458 138.299L350.354 138.551L350.033 139.632Z" fill="url(#paint48_radial)"/>
<path d="M357.985 131.656L358.744 132.484L359.847 132.231L360.192 131.173L359.41 130.346L358.33 130.576L357.985 131.656Z" fill="url(#paint49_radial)"/>
<path d="M91.9536 102.769L88.6952 108.199C88.6798 108.225 88.6983 108.258 88.7283 108.258H95.245C95.2749 108.258 95.2934 108.225 95.278 108.199L92.0197 102.769C92.0047 102.744 91.9685 102.744 91.9536 102.769Z" fill="#FF0000" stroke="black" stroke-width="0.0770912"/>
<path d="M383.32 102.769L380.061 108.199C380.046 108.225 380.065 108.258 380.094 108.258H386.611C386.641 108.258 386.66 108.225 386.644 108.199L383.386 102.769C383.371 102.744 383.335 102.744 383.32 102.769Z" fill="#FF0000" stroke="black" stroke-width="0.0770912"/>
<path fill-rule="evenodd" clip-rule="evenodd" d="M189.519 131.741H172.443L176.182 126.942V111.736H379.375V119.464H383.365V126.942H379.375V136H374.561C374.571 135.738 374.577 135.474 374.577 135.21C374.577 124.459 365.862 115.744 355.111 115.744C344.361 115.744 335.646 124.459 335.646 135.21C335.646 135.474 335.651 135.738 335.661 136H330.696C330.706 135.738 330.712 135.474 330.712 135.21C330.712 124.459 321.997 115.744 311.246 115.744C300.496 115.744 291.781 124.459 291.781 135.21C291.781 135.474 291.786 135.738 291.796 136H286.831C286.842 135.738 286.847 135.474 286.847 135.21C286.847 124.459 278.132 115.744 267.381 115.744C256.631 115.744 247.916 124.459 247.916 135.21C247.916 135.474 247.921 135.738 247.931 136H244.986V119.464H239.648V136H194.048V119.464H184.72V126.942L189.519 131.741ZM237.74 119.676H195.725V134.285H237.74V119.676Z" fill="#B8B8B8"/>
<path d="M172.443 131.741L172.322 131.646L172.128 131.895H172.443V131.741ZM189.519 131.741V131.895H189.891L189.628 131.632L189.519 131.741ZM176.182 126.942L176.304 127.037L176.336 126.995V126.942H176.182ZM176.182 111.736V111.581H176.028V111.736H176.182ZM379.375 111.736H379.53V111.581H379.375V111.736ZM379.375 119.464H379.221V119.618H379.375V119.464ZM383.365 119.464H383.519V119.31H383.365V119.464ZM383.365 126.942V127.096H383.519V126.942H383.365ZM379.375 126.942V126.788H379.221V126.942H379.375ZM379.375 136V136.154H379.53V136H379.375ZM374.561 136L374.407 135.994L374.4 136.154H374.561V136ZM335.661 136V136.154H335.822L335.815 135.994L335.661 136ZM330.696 136L330.542 135.994L330.535 136.154H330.696V136ZM291.796 136V136.154H291.957L291.95 135.994L291.796 136ZM286.831 136L286.677 135.994L286.671 136.154H286.831V136ZM247.931 136V136.154H248.092L248.086 135.994L247.931 136ZM244.986 136H244.832V136.154H244.986V136ZM244.986 119.464H245.14V119.31H244.986V119.464ZM239.648 119.464V119.31H239.493V119.464H239.648ZM239.648 136V136.154H239.802V136H239.648ZM194.048 136H193.894V136.154H194.048V136ZM194.048 119.464H194.202V119.31H194.048V119.464ZM184.72 119.464V119.31H184.566V119.464H184.72ZM184.72 126.942H184.566V127.006L184.611 127.051L184.72 126.942ZM195.725 119.676V119.522H195.571V119.676H195.725ZM237.74 119.676H237.894V119.522H237.74V119.676ZM195.725 134.285H195.571V134.439H195.725V134.285ZM237.74 134.285V134.439H237.894V134.285H237.74ZM172.443 131.895H189.519V131.587H172.443V131.895ZM176.061 126.847L172.322 131.646L172.565 131.835L176.304 127.037L176.061 126.847ZM176.028 111.736V126.942H176.336V111.736H176.028ZM379.375 111.581H176.182V111.89H379.375V111.581ZM379.53 119.464V111.736H379.221V119.464H379.53ZM383.365 119.31H379.375V119.618H383.365V119.31ZM383.519 126.942V119.464H383.211V126.942H383.519ZM379.375 127.096H383.365V126.788H379.375V127.096ZM379.53 136V126.942H379.221V136H379.53ZM374.561 136.154H379.375V135.846H374.561V136.154ZM374.422 135.21C374.422 135.472 374.417 135.734 374.407 135.994L374.715 136.006C374.725 135.742 374.731 135.477 374.731 135.21H374.422ZM355.111 115.898C365.776 115.898 374.422 124.544 374.422 135.21H374.731C374.731 124.374 365.947 115.59 355.111 115.59V115.898ZM335.8 135.21C335.8 124.544 344.446 115.898 355.111 115.898V115.59C344.275 115.59 335.491 124.374 335.491 135.21H335.8ZM335.815 135.994C335.805 135.734 335.8 135.472 335.8 135.21H335.491C335.491 135.477 335.497 135.742 335.507 136.006L335.815 135.994ZM330.696 136.154H335.661V135.846H330.696V136.154ZM330.558 135.21C330.558 135.472 330.552 135.734 330.542 135.994L330.85 136.006C330.861 135.742 330.866 135.477 330.866 135.21H330.558ZM311.246 115.898C321.912 115.898 330.558 124.544 330.558 135.21H330.866C330.866 124.374 322.082 115.59 311.246 115.59V115.898ZM291.935 135.21C291.935 124.544 300.581 115.898 311.246 115.898V115.59C300.41 115.59 291.626 124.374 291.626 135.21H291.935ZM291.95 135.994C291.94 135.734 291.935 135.472 291.935 135.21H291.626C291.626 135.477 291.632 135.742 291.642 136.006L291.95 135.994ZM286.831 136.154H291.796V135.846H286.831V136.154ZM286.693 135.21C286.693 135.472 286.687 135.734 286.677 135.994L286.985 136.006C286.996 135.742 287.001 135.477 287.001 135.21H286.693ZM267.381 115.898C278.047 115.898 286.693 124.544 286.693 135.21H287.001C287.001 124.374 278.217 115.59 267.381 115.59V115.898ZM248.07 135.21C248.07 124.544 256.716 115.898 267.381 115.898V115.59C256.546 115.59 247.762 124.374 247.762 135.21H248.07ZM248.086 135.994C248.075 135.734 248.07 135.472 248.07 135.21H247.762C247.762 135.477 247.767 135.742 247.777 136.006L248.086 135.994ZM244.986 136.154H247.931V135.846H244.986V136.154ZM244.832 119.464V136H245.14V119.464H244.832ZM239.648 119.618H244.986V119.31H239.648V119.618ZM239.802 136V119.464H239.493V136H239.802ZM194.048 136.154H239.648V135.846H194.048V136.154ZM193.894 119.464V136H194.202V119.464H193.894ZM184.72 119.618H194.048V119.31H184.72V119.618ZM184.874 126.942V119.464H184.566V126.942H184.874ZM189.628 131.632L184.829 126.833L184.611 127.051L189.41 131.85L189.628 131.632ZM195.725 119.83H237.74V119.522H195.725V119.83ZM195.879 134.285V119.676H195.571V134.285H195.879ZM237.74 134.131H195.725V134.439H237.74V134.131ZM237.586 119.676V134.285H237.894V119.676H237.586Z" fill="black"/>
<mask id="path-62-inside-1" fill="white">
<path fill-rule="evenodd" clip-rule="evenodd" d="M230.495 119.676H202.246V119.804C198.681 120.233 195.917 123.3 195.917 127.019C195.917 130.738 198.681 133.805 202.246 134.234V134.285H203.104H230.476M230.495 119.676V119.753ZM230.495 119.753C234.455 119.763 237.662 123.013 237.662 127.019C237.662 131.025 234.455 134.274 230.495 134.285"/>
</mask>
<path fill-rule="evenodd" clip-rule="evenodd" d="M230.495 119.676H202.246V119.804C198.681 120.233 195.917 123.3 195.917 127.019C195.917 130.738 198.681 133.805 202.246 134.234V134.285H203.104H230.476M230.495 119.676V119.753ZM230.495 119.753C234.455 119.763 237.662 123.013 237.662 127.019C237.662 131.025 234.455 134.274 230.495 134.285" fill="#B8B8B8"/>
<path d="M230.495 119.676H230.572L230.418 119.676L230.495 119.676ZM230.553 134.285L230.572 119.676L230.418 119.676L230.399 134.285L230.553 134.285ZM230.418 119.676V119.753H230.572V119.676H230.418ZM230.572 134.285V119.753H230.418V134.285H230.572ZM202.246 119.676V119.522H202.092V119.676H202.246ZM230.495 119.676H230.649V119.522H230.495V119.676ZM202.246 119.804L202.264 119.957L202.4 119.941V119.804H202.246ZM202.246 134.234H202.4V134.097L202.264 134.08L202.246 134.234ZM202.246 134.285H202.092V134.439H202.246V134.285ZM230.495 119.753H230.341V119.907L230.495 119.907L230.495 119.753ZM202.246 119.83H230.495V119.522H202.246V119.83ZM202.4 119.804V119.676H202.092V119.804H202.4ZM202.228 119.651C198.585 120.089 195.763 123.222 195.763 127.019H196.072C196.072 123.377 198.778 120.377 202.264 119.957L202.228 119.651ZM195.763 127.019C195.763 130.816 198.585 133.949 202.228 134.387L202.264 134.08C198.778 133.661 196.072 130.661 196.072 127.019H195.763ZM202.4 134.285V134.234H202.092V134.285H202.4ZM203.104 134.131H202.246V134.439H203.104V134.131ZM230.476 134.131H203.104V134.439H230.476V134.131ZM230.341 119.676V119.753H230.649V119.676H230.341ZM237.817 127.019C237.817 122.929 234.542 119.61 230.496 119.599L230.495 119.907C234.368 119.917 237.508 123.096 237.508 127.019H237.817ZM230.496 134.439C234.542 134.428 237.817 131.109 237.817 127.019H237.508C237.508 130.942 234.368 134.12 230.495 134.131L230.496 134.439Z" fill="black" mask="url(#path-62-inside-1)"/>
<ellipse opacity="0.5" rx="177.965" ry="2.48619" transform="matrix(-1 0 0 1 205.4 152.575)" fill="#403F45" fill-opacity="0.72"/>
<rect x="1.94462" y="1.94462" width="402.111" height="219.716" stroke="#5C5450" stroke-width="2.11075"/>
<defs>
<radialGradient id="paint0_radial" cx="0" cy="0" r="1" gradientUnits="userSpaceOnUse" gradientTransform="translate(57.335 135.391) scale(17.2955)">
<stop offset="0.7777" stop-color="#1A1A1A"/>
<stop offset="0.8882" stop-color="#333333"/>
<stop offset="1"/>
</radialGradient>
<radialGradient id="paint1_radial" cx="0" cy="0" r="1" gradientUnits="userSpaceOnUse" gradientTransform="translate(57.2775 135.334) scale(12.986)">
<stop stop-color="#8D8C8C"/>
<stop offset="0.0810056" stop-color="#898989"/>
<stop offset="0.1659" stop-color="#808080"/>
<stop offset="0.2687" stop-color="#868686"/>
<stop offset="0.3295" stop-color="#A4A4A4"/>
<stop offset="0.3447" stop-color="#ACACAC"/>
<stop offset="0.5274" stop-color="#B3B3B3"/>
<stop offset="0.5715" stop-color="#A4A4A4"/>
<stop offset="0.6558" stop-color="#7D7D7D"/>
<stop offset="0.7012" stop-color="#666666"/>
<stop offset="0.7387" stop-color="#6F6F70"/>
<stop offset="0.8018" stop-color="#88898A"/>
<stop offset="0.8676" stop-color="#A8AAAC"/>
<stop offset="0.927" stop-color="#7E8486"/>
<stop offset="1" stop-color="#465053"/>
</radialGradient>
<radialGradient id="paint2_radial" cx="0" cy="0" r="1" gradientUnits="userSpaceOnUse" gradientTransform="translate(57.1878 129.756) rotate(2.29628) scale(1.05122)">
<stop offset="0.00561773" stop-color="#534741"/>
<stop offset="0.1684" stop-color="#5C5450"/>
<stop offset="0.4792" stop-color="#737577"/>
<stop offset="0.6742" stop-color="#838C92"/>
<stop offset="0.9793" stop-color="#333333"/>
<stop offset="0.9852" stop-color="#3E4042"/>
<stop offset="0.9965" stop-color="#5B6469"/>
<stop offset="1" stop-color="#657076"/>
</radialGradient>
<radialGradient id="paint3_radial" cx="0" cy="0" r="1" gradientUnits="userSpaceOnUse" gradientTransform="translate(57.1878 141.019) rotate(2.29627) scale(1.05122)">
<stop offset="0.00561773" stop-color="#534741"/>
<stop offset="0.1684" stop-color="#5C5450"/>
<stop offset="0.4792" stop-color="#737577"/>
<stop offset="0.6742" stop-color="#838C92"/>
<stop offset="0.9793" stop-color="#333333"/>
<stop offset="0.9852" stop-color="#3E4042"/>
<stop offset="0.9965" stop-color="#5B6469"/>
<stop offset="1" stop-color="#657076"/>
</radialGradient>
<radialGradient id="paint4_radial" cx="0" cy="0" r="1" gradientUnits="userSpaceOnUse" gradientTransform="translate(53.1274 131.413) rotate(-42.7023) scale(1.05124)">
<stop offset="0.00561773" stop-color="#534741"/>
<stop offset="0.1684" stop-color="#5C5450"/>
<stop offset="0.4792" stop-color="#737577"/>
<stop offset="0.6742" stop-color="#838C92"/>
<stop offset="0.9793" stop-color="#333333"/>
<stop offset="0.9852" stop-color="#3E4042"/>
<stop offset="0.9965" stop-color="#5B6469"/>
<stop offset="1" stop-color="#657076"/>
</radialGradient>
<radialGradient id="paint5_radial" cx="0" cy="0" r="1" gradientUnits="userSpaceOnUse" gradientTransform="translate(61.0905 139.377) rotate(-42.7022) scale(1.05124)">
<stop offset="0.00561773" stop-color="#534741"/>
<stop offset="0.1684" stop-color="#5C5450"/>
<stop offset="0.4792" stop-color="#737577"/>
<stop offset="0.6742" stop-color="#838C92"/>
<stop offset="0.9793" stop-color="#333333"/>
<stop offset="0.9852" stop-color="#3E4042"/>
<stop offset="0.9965" stop-color="#5B6469"/>
<stop offset="1" stop-color="#657076"/>
</radialGradient>
<radialGradient id="paint6_radial" cx="0" cy="0" r="1" gradientUnits="userSpaceOnUse" gradientTransform="translate(51.4776 135.395) rotate(-87.7037) scale(1.05122)">
<stop offset="0.00561773" stop-color="#534741"/>
<stop offset="0.1684" stop-color="#5C5450"/>
<stop offset="0.4792" stop-color="#737577"/>
<stop offset="0.6742" stop-color="#838C92"/>
<stop offset="0.9793" stop-color="#333333"/>
<stop offset="0.9852" stop-color="#3E4042"/>
<stop offset="0.9965" stop-color="#5B6469"/>
<stop offset="1" stop-color="#657076"/>
</radialGradient>
<radialGradient id="paint7_radial" cx="0" cy="0" r="1" gradientUnits="userSpaceOnUse" gradientTransform="translate(62.7399 135.395) rotate(-87.7037) scale(1.05123)">
<stop offset="0.00561773" stop-color="#534741"/>
<stop offset="0.1684" stop-color="#5C5450"/>
<stop offset="0.4792" stop-color="#737577"/>
<stop offset="0.6742" stop-color="#838C92"/>
<stop offset="0.9793" stop-color="#333333"/>
<stop offset="0.9852" stop-color="#3E4042"/>
<stop offset="0.9965" stop-color="#5B6469"/>
<stop offset="1" stop-color="#657076"/>
</radialGradient>
<radialGradient id="paint8_radial" cx="0" cy="0" r="1" gradientUnits="userSpaceOnUse" gradientTransform="translate(53.127 139.376) rotate(-132.702) scale(1.05124)">
<stop offset="0.00561773" stop-color="#534741"/>
<stop offset="0.1684" stop-color="#5C5450"/>
<stop offset="0.4792" stop-color="#737577"/>
<stop offset="0.6742" stop-color="#838C92"/>
<stop offset="0.9793" stop-color="#333333"/>
<stop offset="0.9852" stop-color="#3E4042"/>
<stop offset="0.9965" stop-color="#5B6469"/>
<stop offset="1" stop-color="#657076"/>
</radialGradient>
<radialGradient id="paint9_radial" cx="0" cy="0" r="1" gradientUnits="userSpaceOnUse" gradientTransform="translate(61.091 131.413) rotate(-132.702) scale(1.05124)">
<stop offset="0.00561773" stop-color="#534741"/>
<stop offset="0.1684" stop-color="#5C5450"/>
<stop offset="0.4792" stop-color="#737577"/>
<stop offset="0.6742" stop-color="#838C92"/>
<stop offset="0.9793" stop-color="#333333"/>
<stop offset="0.9852" stop-color="#3E4042"/>
<stop offset="0.9965" stop-color="#5B6469"/>
<stop offset="1" stop-color="#657076"/>
</radialGradient>
<radialGradient id="paint10_radial" cx="0" cy="0" r="1" gradientUnits="userSpaceOnUse" gradientTransform="translate(137.317 135.391) scale(17.2955)">
<stop offset="0.7777" stop-color="#1A1A1A"/>
<stop offset="0.8882" stop-color="#333333"/>
<stop offset="1"/>
</radialGradient>
<radialGradient id="paint11_radial" cx="0" cy="0" r="1" gradientUnits="userSpaceOnUse" gradientTransform="translate(137.259 135.334) scale(12.986)">
<stop stop-color="#8D8C8C"/>
<stop offset="0.0810056" stop-color="#898989"/>
<stop offset="0.1659" stop-color="#808080"/>
<stop offset="0.2687" stop-color="#868686"/>
<stop offset="0.3295" stop-color="#A4A4A4"/>
<stop offset="0.3447" stop-color="#ACACAC"/>
<stop offset="0.5274" stop-color="#B3B3B3"/>
<stop offset="0.5715" stop-color="#A4A4A4"/>
<stop offset="0.6558" stop-color="#7D7D7D"/>
<stop offset="0.7012" stop-color="#666666"/>
<stop offset="0.7387" stop-color="#6F6F70"/>
<stop offset="0.8018" stop-color="#88898A"/>
<stop offset="0.8676" stop-color="#A8AAAC"/>
<stop offset="0.927" stop-color="#7E8486"/>
<stop offset="1" stop-color="#465053"/>
</radialGradient>
<radialGradient id="paint12_radial" cx="0" cy="0" r="1" gradientUnits="userSpaceOnUse" gradientTransform="translate(137.17 129.756) rotate(2.29629) scale(1.05122)">
<stop offset="0.00561773" stop-color="#534741"/>
<stop offset="0.1684" stop-color="#5C5450"/>
<stop offset="0.4792" stop-color="#737577"/>
<stop offset="0.6742" stop-color="#838C92"/>
<stop offset="0.9793" stop-color="#333333"/>
<stop offset="0.9852" stop-color="#3E4042"/>
<stop offset="0.9965" stop-color="#5B6469"/>
<stop offset="1" stop-color="#657076"/>
</radialGradient>
<radialGradient id="paint13_radial" cx="0" cy="0" r="1" gradientUnits="userSpaceOnUse" gradientTransform="translate(137.17 141.019) rotate(2.29628) scale(1.05122)">
<stop offset="0.00561773" stop-color="#534741"/>
<stop offset="0.1684" stop-color="#5C5450"/>
<stop offset="0.4792" stop-color="#737577"/>
<stop offset="0.6742" stop-color="#838C92"/>
<stop offset="0.9793" stop-color="#333333"/>
<stop offset="0.9852" stop-color="#3E4042"/>
<stop offset="0.9965" stop-color="#5B6469"/>
<stop offset="1" stop-color="#657076"/>
</radialGradient>
<radialGradient id="paint14_radial" cx="0" cy="0" r="1" gradientUnits="userSpaceOnUse" gradientTransform="translate(133.109 131.413) rotate(-42.7023) scale(1.05124)">
<stop offset="0.00561773" stop-color="#534741"/>
<stop offset="0.1684" stop-color="#5C5450"/>
<stop offset="0.4792" stop-color="#737577"/>
<stop offset="0.6742" stop-color="#838C92"/>
<stop offset="0.9793" stop-color="#333333"/>
<stop offset="0.9852" stop-color="#3E4042"/>
<stop offset="0.9965" stop-color="#5B6469"/>
<stop offset="1" stop-color="#657076"/>
</radialGradient>
<radialGradient id="paint15_radial" cx="0" cy="0" r="1" gradientUnits="userSpaceOnUse" gradientTransform="translate(141.073 139.377) rotate(-42.7022) scale(1.05124)">
<stop offset="0.00561773" stop-color="#534741"/>
<stop offset="0.1684" stop-color="#5C5450"/>
<stop offset="0.4792" stop-color="#737577"/>
<stop offset="0.6742" stop-color="#838C92"/>
<stop offset="0.9793" stop-color="#333333"/>
<stop offset="0.9852" stop-color="#3E4042"/>
<stop offset="0.9965" stop-color="#5B6469"/>
<stop offset="1" stop-color="#657076"/>
</radialGradient>
<radialGradient id="paint16_radial" cx="0" cy="0" r="1" gradientUnits="userSpaceOnUse" gradientTransform="translate(131.46 135.395) rotate(-87.7037) scale(1.05122)">
<stop offset="0.00561773" stop-color="#534741"/>
<stop offset="0.1684" stop-color="#5C5450"/>
<stop offset="0.4792" stop-color="#737577"/>
<stop offset="0.6742" stop-color="#838C92"/>
<stop offset="0.9793" stop-color="#333333"/>
<stop offset="0.9852" stop-color="#3E4042"/>
<stop offset="0.9965" stop-color="#5B6469"/>
<stop offset="1" stop-color="#657076"/>
</radialGradient>
<radialGradient id="paint17_radial" cx="0" cy="0" r="1" gradientUnits="userSpaceOnUse" gradientTransform="translate(142.722 135.395) rotate(-87.7037) scale(1.05123)">
<stop offset="0.00561773" stop-color="#534741"/>
<stop offset="0.1684" stop-color="#5C5450"/>
<stop offset="0.4792" stop-color="#737577"/>
<stop offset="0.6742" stop-color="#838C92"/>
<stop offset="0.9793" stop-color="#333333"/>
<stop offset="0.9852" stop-color="#3E4042"/>
<stop offset="0.9965" stop-color="#5B6469"/>
<stop offset="1" stop-color="#657076"/>
</radialGradient>
<radialGradient id="paint18_radial" cx="0" cy="0" r="1" gradientUnits="userSpaceOnUse" gradientTransform="translate(133.109 139.376) rotate(-132.702) scale(1.05124)">
<stop offset="0.00561773" stop-color="#534741"/>
<stop offset="0.1684" stop-color="#5C5450"/>
<stop offset="0.4792" stop-color="#737577"/>
<stop offset="0.6742" stop-color="#838C92"/>
<stop offset="0.9793" stop-color="#333333"/>
<stop offset="0.9852" stop-color="#3E4042"/>
<stop offset="0.9965" stop-color="#5B6469"/>
<stop offset="1" stop-color="#657076"/>
</radialGradient>
<radialGradient id="paint19_radial" cx="0" cy="0" r="1" gradientUnits="userSpaceOnUse" gradientTransform="translate(141.073 131.413) rotate(-132.702) scale(1.05124)">
<stop offset="0.00561773" stop-color="#534741"/>
<stop offset="0.1684" stop-color="#5C5450"/>
<stop offset="0.4792" stop-color="#737577"/>
<stop offset="0.6742" stop-color="#838C92"/>
<stop offset="0.9793" stop-color="#333333"/>
<stop offset="0.9852" stop-color="#3E4042"/>
<stop offset="0.9965" stop-color="#5B6469"/>
<stop offset="1" stop-color="#657076"/>
</radialGradient>
<radialGradient id="paint20_radial" cx="0" cy="0" r="1" gradientUnits="userSpaceOnUse" gradientTransform="translate(267.447 135.391) scale(17.2955)">
<stop offset="0.7777" stop-color="#1A1A1A"/>
<stop offset="0.8882" stop-color="#333333"/>
<stop offset="1"/>
</radialGradient>
<radialGradient id="paint21_radial" cx="0" cy="0" r="1" gradientUnits="userSpaceOnUse" gradientTransform="translate(267.389 135.334) scale(12.986)">
<stop stop-color="#8D8C8C"/>
<stop offset="0.0810056" stop-color="#898989"/>
<stop offset="0.1659" stop-color="#808080"/>
<stop offset="0.2687" stop-color="#868686"/>
<stop offset="0.3295" stop-color="#A4A4A4"/>
<stop offset="0.3447" stop-color="#ACACAC"/>
<stop offset="0.5274" stop-color="#B3B3B3"/>
<stop offset="0.5715" stop-color="#A4A4A4"/>
<stop offset="0.6558" stop-color="#7D7D7D"/>
<stop offset="0.7012" stop-color="#666666"/>
<stop offset="0.7387" stop-color="#6F6F70"/>
<stop offset="0.8018" stop-color="#88898A"/>
<stop offset="0.8676" stop-color="#A8AAAC"/>
<stop offset="0.927" stop-color="#7E8486"/>
<stop offset="1" stop-color="#465053"/>
</radialGradient>
<radialGradient id="paint22_radial" cx="0" cy="0" r="1" gradientUnits="userSpaceOnUse" gradientTransform="translate(267.3 129.756) rotate(2.29629) scale(1.05122)">
<stop offset="0.00561773" stop-color="#534741"/>
<stop offset="0.1684" stop-color="#5C5450"/>
<stop offset="0.4792" stop-color="#737577"/>
<stop offset="0.6742" stop-color="#838C92"/>
<stop offset="0.9793" stop-color="#333333"/>
<stop offset="0.9852" stop-color="#3E4042"/>
<stop offset="0.9965" stop-color="#5B6469"/>
<stop offset="1" stop-color="#657076"/>
</radialGradient>
<radialGradient id="paint23_radial" cx="0" cy="0" r="1" gradientUnits="userSpaceOnUse" gradientTransform="translate(267.3 141.019) rotate(2.29628) scale(1.05122)">
<stop offset="0.00561773" stop-color="#534741"/>
<stop offset="0.1684" stop-color="#5C5450"/>
<stop offset="0.4792" stop-color="#737577"/>
<stop offset="0.6742" stop-color="#838C92"/>
<stop offset="0.9793" stop-color="#333333"/>
<stop offset="0.9852" stop-color="#3E4042"/>
<stop offset="0.9965" stop-color="#5B6469"/>
<stop offset="1" stop-color="#657076"/>
</radialGradient>
<radialGradient id="paint24_radial" cx="0" cy="0" r="1" gradientUnits="userSpaceOnUse" gradientTransform="translate(263.239 131.413) rotate(-42.7023) scale(1.05124)">
<stop offset="0.00561773" stop-color="#534741"/>
<stop offset="0.1684" stop-color="#5C5450"/>
<stop offset="0.4792" stop-color="#737577"/>
<stop offset="0.6742" stop-color="#838C92"/>
<stop offset="0.9793" stop-color="#333333"/>
<stop offset="0.9852" stop-color="#3E4042"/>
<stop offset="0.9965" stop-color="#5B6469"/>
<stop offset="1" stop-color="#657076"/>
</radialGradient>
<radialGradient id="paint25_radial" cx="0" cy="0" r="1" gradientUnits="userSpaceOnUse" gradientTransform="translate(271.203 139.377) rotate(-42.7023) scale(1.05124)">
<stop offset="0.00561773" stop-color="#534741"/>
<stop offset="0.1684" stop-color="#5C5450"/>
<stop offset="0.4792" stop-color="#737577"/>
<stop offset="0.6742" stop-color="#838C92"/>
<stop offset="0.9793" stop-color="#333333"/>
<stop offset="0.9852" stop-color="#3E4042"/>
<stop offset="0.9965" stop-color="#5B6469"/>
<stop offset="1" stop-color="#657076"/>
</radialGradient>
<radialGradient id="paint26_radial" cx="0" cy="0" r="1" gradientUnits="userSpaceOnUse" gradientTransform="translate(261.59 135.395) rotate(-87.7037) scale(1.05122)">
<stop offset="0.00561773" stop-color="#534741"/>
<stop offset="0.1684" stop-color="#5C5450"/>
<stop offset="0.4792" stop-color="#737577"/>
<stop offset="0.6742" stop-color="#838C92"/>
<stop offset="0.9793" stop-color="#333333"/>
<stop offset="0.9852" stop-color="#3E4042"/>
<stop offset="0.9965" stop-color="#5B6469"/>
<stop offset="1" stop-color="#657076"/>
</radialGradient>
<radialGradient id="paint27_radial" cx="0" cy="0" r="1" gradientUnits="userSpaceOnUse" gradientTransform="translate(272.852 135.395) rotate(-87.7037) scale(1.05123)">
<stop offset="0.00561773" stop-color="#534741"/>
<stop offset="0.1684" stop-color="#5C5450"/>
<stop offset="0.4792" stop-color="#737577"/>
<stop offset="0.6742" stop-color="#838C92"/>
<stop offset="0.9793" stop-color="#333333"/>
<stop offset="0.9852" stop-color="#3E4042"/>
<stop offset="0.9965" stop-color="#5B6469"/>
<stop offset="1" stop-color="#657076"/>
</radialGradient>
<radialGradient id="paint28_radial" cx="0" cy="0" r="1" gradientUnits="userSpaceOnUse" gradientTransform="translate(263.239 139.376) rotate(-132.702) scale(1.05124)">
<stop offset="0.00561773" stop-color="#534741"/>
<stop offset="0.1684" stop-color="#5C5450"/>
<stop offset="0.4792" stop-color="#737577"/>
<stop offset="0.6742" stop-color="#838C92"/>
<stop offset="0.9793" stop-color="#333333"/>
<stop offset="0.9852" stop-color="#3E4042"/>
<stop offset="0.9965" stop-color="#5B6469"/>
<stop offset="1" stop-color="#657076"/>
</radialGradient>
<radialGradient id="paint29_radial" cx="0" cy="0" r="1" gradientUnits="userSpaceOnUse" gradientTransform="translate(271.203 131.413) rotate(-132.702) scale(1.05124)">
<stop offset="0.00561773" stop-color="#534741"/>
<stop offset="0.1684" stop-color="#5C5450"/>
<stop offset="0.4792" stop-color="#737577"/>
<stop offset="0.6742" stop-color="#838C92"/>
<stop offset="0.9793" stop-color="#333333"/>
<stop offset="0.9852" stop-color="#3E4042"/>
<stop offset="0.9965" stop-color="#5B6469"/>
<stop offset="1" stop-color="#657076"/>
</radialGradient>
<radialGradient id="paint30_radial" cx="0" cy="0" r="1" gradientUnits="userSpaceOnUse" gradientTransform="translate(311.35 135.391) scale(17.2955)">
<stop offset="0.7777" stop-color="#1A1A1A"/>
<stop offset="0.8882" stop-color="#333333"/>
<stop offset="1"/>
</radialGradient>
<radialGradient id="paint31_radial" cx="0" cy="0" r="1" gradientUnits="userSpaceOnUse" gradientTransform="translate(311.293 135.334) scale(12.986)">
<stop stop-color="#8D8C8C"/>
<stop offset="0.0810056" stop-color="#898989"/>
<stop offset="0.1659" stop-color="#808080"/>
<stop offset="0.2687" stop-color="#868686"/>
<stop offset="0.3295" stop-color="#A4A4A4"/>
<stop offset="0.3447" stop-color="#ACACAC"/>
<stop offset="0.5274" stop-color="#B3B3B3"/>
<stop offset="0.5715" stop-color="#A4A4A4"/>
<stop offset="0.6558" stop-color="#7D7D7D"/>
<stop offset="0.7012" stop-color="#666666"/>
<stop offset="0.7387" stop-color="#6F6F70"/>
<stop offset="0.8018" stop-color="#88898A"/>
<stop offset="0.8676" stop-color="#A8AAAC"/>
<stop offset="0.927" stop-color="#7E8486"/>
<stop offset="1" stop-color="#465053"/>
</radialGradient>
<radialGradient id="paint32_radial" cx="0" cy="0" r="1" gradientUnits="userSpaceOnUse" gradientTransform="translate(311.203 129.756) rotate(2.29627) scale(1.05123)">
<stop offset="0.00561773" stop-color="#534741"/>
<stop offset="0.1684" stop-color="#5C5450"/>
<stop offset="0.4792" stop-color="#737577"/>
<stop offset="0.6742" stop-color="#838C92"/>
<stop offset="0.9793" stop-color="#333333"/>
<stop offset="0.9852" stop-color="#3E4042"/>
<stop offset="0.9965" stop-color="#5B6469"/>
<stop offset="1" stop-color="#657076"/>
</radialGradient>
<radialGradient id="paint33_radial" cx="0" cy="0" r="1" gradientUnits="userSpaceOnUse" gradientTransform="translate(311.203 141.019) rotate(2.29626) scale(1.05123)">
<stop offset="0.00561773" stop-color="#534741"/>
<stop offset="0.1684" stop-color="#5C5450"/>
<stop offset="0.4792" stop-color="#737577"/>
<stop offset="0.6742" stop-color="#838C92"/>
<stop offset="0.9793" stop-color="#333333"/>
<stop offset="0.9852" stop-color="#3E4042"/>
<stop offset="0.9965" stop-color="#5B6469"/>
<stop offset="1" stop-color="#657076"/>
</radialGradient>
<radialGradient id="paint34_radial" cx="0" cy="0" r="1" gradientUnits="userSpaceOnUse" gradientTransform="translate(307.143 131.413) rotate(-42.7023) scale(1.05124)">
<stop offset="0.00561773" stop-color="#534741"/>
<stop offset="0.1684" stop-color="#5C5450"/>
<stop offset="0.4792" stop-color="#737577"/>
<stop offset="0.6742" stop-color="#838C92"/>
<stop offset="0.9793" stop-color="#333333"/>
<stop offset="0.9852" stop-color="#3E4042"/>
<stop offset="0.9965" stop-color="#5B6469"/>
<stop offset="1" stop-color="#657076"/>
</radialGradient>
<radialGradient id="paint35_radial" cx="0" cy="0" r="1" gradientUnits="userSpaceOnUse" gradientTransform="translate(315.106 139.377) rotate(-42.7023) scale(1.05124)">
<stop offset="0.00561773" stop-color="#534741"/>
<stop offset="0.1684" stop-color="#5C5450"/>
<stop offset="0.4792" stop-color="#737577"/>
<stop offset="0.6742" stop-color="#838C92"/>
<stop offset="0.9793" stop-color="#333333"/>
<stop offset="0.9852" stop-color="#3E4042"/>
<stop offset="0.9965" stop-color="#5B6469"/>
<stop offset="1" stop-color="#657076"/>
</radialGradient>
<radialGradient id="paint36_radial" cx="0" cy="0" r="1" gradientUnits="userSpaceOnUse" gradientTransform="translate(305.493 135.395) rotate(-87.7037) scale(1.05122)">
<stop offset="0.00561773" stop-color="#534741"/>
<stop offset="0.1684" stop-color="#5C5450"/>
<stop offset="0.4792" stop-color="#737577"/>
<stop offset="0.6742" stop-color="#838C92"/>
<stop offset="0.9793" stop-color="#333333"/>
<stop offset="0.9852" stop-color="#3E4042"/>
<stop offset="0.9965" stop-color="#5B6469"/>
<stop offset="1" stop-color="#657076"/>
</radialGradient>
<radialGradient id="paint37_radial" cx="0" cy="0" r="1" gradientUnits="userSpaceOnUse" gradientTransform="translate(316.755 135.395) rotate(-87.7037) scale(1.05123)">
<stop offset="0.00561773" stop-color="#534741"/>
<stop offset="0.1684" stop-color="#5C5450"/>
<stop offset="0.4792" stop-color="#737577"/>
<stop offset="0.6742" stop-color="#838C92"/>
<stop offset="0.9793" stop-color="#333333"/>
<stop offset="0.9852" stop-color="#3E4042"/>
<stop offset="0.9965" stop-color="#5B6469"/>
<stop offset="1" stop-color="#657076"/>
</radialGradient>
<radialGradient id="paint38_radial" cx="0" cy="0" r="1" gradientUnits="userSpaceOnUse" gradientTransform="translate(307.143 139.376) rotate(-132.702) scale(1.05123)">
<stop offset="0.00561773" stop-color="#534741"/>
<stop offset="0.1684" stop-color="#5C5450"/>
<stop offset="0.4792" stop-color="#737577"/>
<stop offset="0.6742" stop-color="#838C92"/>
<stop offset="0.9793" stop-color="#333333"/>
<stop offset="0.9852" stop-color="#3E4042"/>
<stop offset="0.9965" stop-color="#5B6469"/>
<stop offset="1" stop-color="#657076"/>
</radialGradient>
<radialGradient id="paint39_radial" cx="0" cy="0" r="1" gradientUnits="userSpaceOnUse" gradientTransform="translate(315.107 131.413) rotate(-132.702) scale(1.05124)">
<stop offset="0.00561773" stop-color="#534741"/>
<stop offset="0.1684" stop-color="#5C5450"/>
<stop offset="0.4792" stop-color="#737577"/>
<stop offset="0.6742" stop-color="#838C92"/>
<stop offset="0.9793" stop-color="#333333"/>
<stop offset="0.9852" stop-color="#3E4042"/>
<stop offset="0.9965" stop-color="#5B6469"/>
<stop offset="1" stop-color="#657076"/>
</radialGradient>
<radialGradient id="paint40_radial" cx="0" cy="0" r="1" gradientUnits="userSpaceOnUse" gradientTransform="translate(355.331 135.391) scale(17.2955)">
<stop offset="0.7777" stop-color="#1A1A1A"/>
<stop offset="0.8882" stop-color="#333333"/>
<stop offset="1"/>
</radialGradient>
<radialGradient id="paint41_radial" cx="0" cy="0" r="1" gradientUnits="userSpaceOnUse" gradientTransform="translate(355.274 135.334) scale(12.986)">
<stop stop-color="#8D8C8C"/>
<stop offset="0.0810056" stop-color="#898989"/>
<stop offset="0.1659" stop-color="#808080"/>
<stop offset="0.2687" stop-color="#868686"/>
<stop offset="0.3295" stop-color="#A4A4A4"/>
<stop offset="0.3447" stop-color="#ACACAC"/>
<stop offset="0.5274" stop-color="#B3B3B3"/>
<stop offset="0.5715" stop-color="#A4A4A4"/>
<stop offset="0.6558" stop-color="#7D7D7D"/>
<stop offset="0.7012" stop-color="#666666"/>
<stop offset="0.7387" stop-color="#6F6F70"/>
<stop offset="0.8018" stop-color="#88898A"/>
<stop offset="0.8676" stop-color="#A8AAAC"/>
<stop offset="0.927" stop-color="#7E8486"/>
<stop offset="1" stop-color="#465053"/>
</radialGradient>
<radialGradient id="paint42_radial" cx="0" cy="0" r="1" gradientUnits="userSpaceOnUse" gradientTransform="translate(355.184 129.756) rotate(2.29628) scale(1.05122)">
<stop offset="0.00561773" stop-color="#534741"/>
<stop offset="0.1684" stop-color="#5C5450"/>
<stop offset="0.4792" stop-color="#737577"/>
<stop offset="0.6742" stop-color="#838C92"/>
<stop offset="0.9793" stop-color="#333333"/>
<stop offset="0.9852" stop-color="#3E4042"/>
<stop offset="0.9965" stop-color="#5B6469"/>
<stop offset="1" stop-color="#657076"/>
</radialGradient>
<radialGradient id="paint43_radial" cx="0" cy="0" r="1" gradientUnits="userSpaceOnUse" gradientTransform="translate(355.184 141.019) rotate(2.29628) scale(1.05122)">
<stop offset="0.00561773" stop-color="#534741"/>
<stop offset="0.1684" stop-color="#5C5450"/>
<stop offset="0.4792" stop-color="#737577"/>
<stop offset="0.6742" stop-color="#838C92"/>
<stop offset="0.9793" stop-color="#333333"/>
<stop offset="0.9852" stop-color="#3E4042"/>
<stop offset="0.9965" stop-color="#5B6469"/>
<stop offset="1" stop-color="#657076"/>
</radialGradient>
<radialGradient id="paint44_radial" cx="0" cy="0" r="1" gradientUnits="userSpaceOnUse" gradientTransform="translate(351.123 131.413) rotate(-42.7023) scale(1.05124)">
<stop offset="0.00561773" stop-color="#534741"/>
<stop offset="0.1684" stop-color="#5C5450"/>
<stop offset="0.4792" stop-color="#737577"/>
<stop offset="0.6742" stop-color="#838C92"/>
<stop offset="0.9793" stop-color="#333333"/>
<stop offset="0.9852" stop-color="#3E4042"/>
<stop offset="0.9965" stop-color="#5B6469"/>
<stop offset="1" stop-color="#657076"/>
</radialGradient>
<radialGradient id="paint45_radial" cx="0" cy="0" r="1" gradientUnits="userSpaceOnUse" gradientTransform="translate(359.087 139.377) rotate(-42.7027) scale(1.05123)">
<stop offset="0.00561773" stop-color="#534741"/>
<stop offset="0.1684" stop-color="#5C5450"/>
<stop offset="0.4792" stop-color="#737577"/>
<stop offset="0.6742" stop-color="#838C92"/>
<stop offset="0.9793" stop-color="#333333"/>
<stop offset="0.9852" stop-color="#3E4042"/>
<stop offset="0.9965" stop-color="#5B6469"/>
<stop offset="1" stop-color="#657076"/>
</radialGradient>
<radialGradient id="paint46_radial" cx="0" cy="0" r="1" gradientUnits="userSpaceOnUse" gradientTransform="translate(349.474 135.395) rotate(-87.7037) scale(1.05122)">
<stop offset="0.00561773" stop-color="#534741"/>
<stop offset="0.1684" stop-color="#5C5450"/>
<stop offset="0.4792" stop-color="#737577"/>
<stop offset="0.6742" stop-color="#838C92"/>
<stop offset="0.9793" stop-color="#333333"/>
<stop offset="0.9852" stop-color="#3E4042"/>
<stop offset="0.9965" stop-color="#5B6469"/>
<stop offset="1" stop-color="#657076"/>
</radialGradient>
<radialGradient id="paint47_radial" cx="0" cy="0" r="1" gradientUnits="userSpaceOnUse" gradientTransform="translate(360.735 135.395) rotate(-87.7037) scale(1.05123)">
<stop offset="0.00561773" stop-color="#534741"/>
<stop offset="0.1684" stop-color="#5C5450"/>
<stop offset="0.4792" stop-color="#737577"/>
<stop offset="0.6742" stop-color="#838C92"/>
<stop offset="0.9793" stop-color="#333333"/>
<stop offset="0.9852" stop-color="#3E4042"/>
<stop offset="0.9965" stop-color="#5B6469"/>
<stop offset="1" stop-color="#657076"/>
</radialGradient>
<radialGradient id="paint48_radial" cx="0" cy="0" r="1" gradientUnits="userSpaceOnUse" gradientTransform="translate(351.123 139.376) rotate(-132.702) scale(1.05124)">
<stop offset="0.00561773" stop-color="#534741"/>
<stop offset="0.1684" stop-color="#5C5450"/>
<stop offset="0.4792" stop-color="#737577"/>
<stop offset="0.6742" stop-color="#838C92"/>
<stop offset="0.9793" stop-color="#333333"/>
<stop offset="0.9852" stop-color="#3E4042"/>
<stop offset="0.9965" stop-color="#5B6469"/>
<stop offset="1" stop-color="#657076"/>
</radialGradient>
<radialGradient id="paint49_radial" cx="0" cy="0" r="1" gradientUnits="userSpaceOnUse" gradientTransform="translate(359.087 131.413) rotate(-132.702) scale(1.05124)">
<stop offset="0.00561773" stop-color="#534741"/>
<stop offset="0.1684" stop-color="#5C5450"/>
<stop offset="0.4792" stop-color="#737577"/>
<stop offset="0.6742" stop-color="#838C92"/>
<stop offset="0.9793" stop-color="#333333"/>
<stop offset="0.9852" stop-color="#3E4042"/>
<stop offset="0.9965" stop-color="#5B6469"/>
<stop offset="1" stop-color="#657076"/>
</radialGradient>
</defs>
</svg>
