<svg width="1250" height="225" viewBox="0 0 1250 225" fill="none" xmlns="http://www.w3.org/2000/svg">
<path d="M36.5216 52.3384C34.2938 52.3384 32.1365 52 30.0497 51.3232C27.9911 50.6182 26.3696 49.7158 25.1852 48.616L26.7503 45.3166C27.8783 46.3318 29.3165 47.1637 31.0649 47.8123C32.8415 48.4327 34.6604 48.7429 36.5216 48.7429C38.975 48.7429 40.808 48.334 42.0206 47.5162C43.2332 46.6702 43.8395 45.5563 43.8395 44.1745C43.8395 43.1593 43.5011 42.3415 42.8243 41.7211C42.1757 41.0725 41.3579 40.579 40.3709 40.2406C39.4121 39.9022 38.0444 39.5215 36.2678 39.0985C34.04 38.5627 32.2352 38.0269 30.8534 37.4911C29.4998 36.9553 28.3295 36.1375 27.3425 35.0377C26.3837 33.9097 25.9043 32.401 25.9043 30.5116C25.9043 28.9324 26.3132 27.5083 27.131 26.2393C27.977 24.9703 29.246 23.9551 30.938 23.1937C32.63 22.4323 34.7309 22.0516 37.2407 22.0516C38.9891 22.0516 40.7093 22.2772 42.4013 22.7284C44.0933 23.1796 45.5456 23.8282 46.7582 24.6742L45.3623 28.0582C44.1215 27.2686 42.7961 26.6764 41.3861 26.2816C39.9761 25.8586 38.5943 25.6471 37.2407 25.6471C34.8437 25.6471 33.0389 26.0842 31.8263 26.9584C30.6419 27.8326 30.0497 28.9606 30.0497 30.3424C30.0497 31.3576 30.3881 32.1895 31.0649 32.8381C31.7417 33.4585 32.5736 33.952 33.5606 34.3186C34.5758 34.657 35.9435 35.0236 37.6637 35.4184C39.8915 35.9542 41.6822 36.49 43.0358 37.0258C44.3894 37.5616 45.5456 38.3794 46.5044 39.4792C47.4914 40.579 47.9849 42.0595 47.9849 43.9207C47.9849 45.4717 47.5619 46.8958 46.7159 48.193C45.8699 49.462 44.5868 50.4772 42.8666 51.2386C41.1464 51.9718 39.0314 52.3384 36.5216 52.3384ZM73.1997 40.9174C73.1997 41.2276 73.1715 41.6365 73.1151 42.1441H54.9261C55.1799 44.1181 56.04 45.7114 57.5064 46.924C59.001 48.1084 60.8481 48.7006 63.0477 48.7006C65.7267 48.7006 67.884 47.7982 69.5196 45.9934L71.7615 48.616C70.7463 49.8004 69.4773 50.7028 67.9545 51.3232C66.4599 51.9436 64.782 52.2538 62.9208 52.2538C60.552 52.2538 58.4511 51.7744 56.6181 50.8156C54.7851 49.8286 53.361 48.4609 52.3458 46.7125C51.3588 44.9641 50.8653 42.9901 50.8653 40.7905C50.8653 38.6191 51.3447 36.6592 52.3035 34.9108C53.2905 33.1624 54.63 31.8088 56.322 30.85C58.0422 29.863 59.9739 29.3695 62.1171 29.3695C64.2603 29.3695 66.1638 29.863 67.8276 30.85C69.5196 31.8088 70.8309 33.1624 71.7615 34.9108C72.7203 36.6592 73.1997 38.6614 73.1997 40.9174ZM62.1171 32.7958C60.1713 32.7958 58.5357 33.388 57.2103 34.5724C55.9131 35.7568 55.1517 37.3078 54.9261 39.2254H69.3081C69.0825 37.336 68.307 35.7991 66.9816 34.6147C65.6844 33.4021 64.0629 32.7958 62.1171 32.7958ZM98.4657 40.9174C98.4657 41.2276 98.4375 41.6365 98.3811 42.1441H80.1921C80.4459 44.1181 81.306 45.7114 82.7724 46.924C84.267 48.1084 86.1141 48.7006 88.3137 48.7006C90.9927 48.7006 93.15 47.7982 94.7856 45.9934L97.0275 48.616C96.0123 49.8004 94.7433 50.7028 93.2205 51.3232C91.7259 51.9436 90.048 52.2538 88.1868 52.2538C85.818 52.2538 83.7171 51.7744 81.8841 50.8156C80.0511 49.8286 78.627 48.4609 77.6118 46.7125C76.6248 44.9641 76.1313 42.9901 76.1313 40.7905C76.1313 38.6191 76.6107 36.6592 77.5695 34.9108C78.5565 33.1624 79.896 31.8088 81.588 30.85C83.3082 29.863 85.2399 29.3695 87.3831 29.3695C89.5263 29.3695 91.4298 29.863 93.0936 30.85C94.7856 31.8088 96.0969 33.1624 97.0275 34.9108C97.9863 36.6592 98.4657 38.6614 98.4657 40.9174ZM87.3831 32.7958C85.4373 32.7958 83.8017 33.388 82.4763 34.5724C81.1791 35.7568 80.4177 37.3078 80.1921 39.2254H94.5741C94.3485 37.336 93.573 35.7991 92.2476 34.6147C90.9504 33.4021 89.3289 32.7958 87.3831 32.7958ZM142.24 29.3695C145.06 29.3695 147.288 30.1873 148.924 31.8229C150.587 33.4585 151.419 35.8837 151.419 39.0985V52H147.359V39.5638C147.359 37.3924 146.851 35.7568 145.836 34.657C144.849 33.5572 143.425 33.0073 141.563 33.0073C139.505 33.0073 137.869 33.6559 136.657 34.9531C135.444 36.2221 134.838 38.0551 134.838 40.4521V52H130.777V39.5638C130.777 37.3924 130.269 35.7568 129.254 34.657C128.267 33.5572 126.843 33.0073 124.982 33.0073C122.923 33.0073 121.288 33.6559 120.075 34.9531C118.862 36.2221 118.256 38.0551 118.256 40.4521V52H114.195V29.581H118.087V32.9227C118.905 31.7665 119.976 30.8923 121.302 30.3001C122.627 29.6797 124.136 29.3695 125.828 29.3695C127.576 29.3695 129.127 29.722 130.481 30.427C131.834 31.132 132.878 32.1613 133.611 33.5149C134.457 32.2177 135.627 31.2025 137.122 30.4693C138.645 29.7361 140.351 29.3695 142.24 29.3695ZM167.983 52.2538C165.755 52.2538 163.753 51.7603 161.976 50.7733C160.2 49.7863 158.804 48.4327 157.788 46.7125C156.801 44.9641 156.308 42.9901 156.308 40.7905C156.308 38.5909 156.801 36.631 157.788 34.9108C158.804 33.1624 160.2 31.8088 161.976 30.85C163.753 29.863 165.755 29.3695 167.983 29.3695C170.211 29.3695 172.199 29.863 173.947 30.85C175.724 31.8088 177.105 33.1624 178.092 34.9108C179.108 36.631 179.615 38.5909 179.615 40.7905C179.615 42.9901 179.108 44.9641 178.092 46.7125C177.105 48.4327 175.724 49.7863 173.947 50.7733C172.199 51.7603 170.211 52.2538 167.983 52.2538ZM167.983 48.7006C169.421 48.7006 170.704 48.3763 171.832 47.7277C172.988 47.0509 173.891 46.1203 174.539 44.9359C175.188 43.7233 175.512 42.3415 175.512 40.7905C175.512 39.2395 175.188 37.8718 174.539 36.6874C173.891 35.4748 172.988 34.5442 171.832 33.8956C170.704 33.247 169.421 32.9227 167.983 32.9227C166.545 32.9227 165.247 33.247 164.091 33.8956C162.963 34.5442 162.061 35.4748 161.384 36.6874C160.735 37.8718 160.411 39.2395 160.411 40.7905C160.411 42.3415 160.735 43.7233 161.384 44.9359C162.061 46.1203 162.963 47.0509 164.091 47.7277C165.247 48.3763 166.545 48.7006 167.983 48.7006ZM188.488 33.3457C189.193 32.0485 190.237 31.0615 191.619 30.3847C193 29.7079 194.678 29.3695 196.652 29.3695V33.3034C196.427 33.2752 196.116 33.2611 195.722 33.2611C193.522 33.2611 191.788 33.9238 190.519 35.2492C189.278 36.5464 188.658 38.4076 188.658 40.8328V52H184.597V29.581H188.488V33.3457ZM221.078 40.9174C221.078 41.2276 221.05 41.6365 220.993 42.1441H202.804C203.058 44.1181 203.918 45.7114 205.385 46.924C206.879 48.1084 208.726 48.7006 210.926 48.7006C213.605 48.7006 215.762 47.7982 217.398 45.9934L219.64 48.616C218.624 49.8004 217.355 50.7028 215.833 51.3232C214.338 51.9436 212.66 52.2538 210.799 52.2538C208.43 52.2538 206.329 51.7744 204.496 50.8156C202.663 49.8286 201.239 48.4609 200.224 46.7125C199.237 44.9641 198.743 42.9901 198.743 40.7905C198.743 38.6191 199.223 36.6592 200.182 34.9108C201.169 33.1624 202.508 31.8088 204.2 30.85C205.92 29.863 207.852 29.3695 209.995 29.3695C212.138 29.3695 214.042 29.863 215.706 30.85C217.398 31.8088 218.709 33.1624 219.64 34.9108C220.598 36.6592 221.078 38.6614 221.078 40.9174ZM209.995 32.7958C208.049 32.7958 206.414 33.388 205.088 34.5724C203.791 35.7568 203.03 37.3078 202.804 39.2254H217.186C216.961 37.336 216.185 35.7991 214.86 34.6147C213.563 33.4021 211.941 32.7958 209.995 32.7958ZM227.055 52.2538C226.265 52.2538 225.589 51.9859 225.025 51.4501C224.461 50.8861 224.179 50.1811 224.179 49.3351C224.179 48.5173 224.461 47.8405 225.025 47.3047C225.589 46.7407 226.265 46.4587 227.055 46.4587C227.845 46.4587 228.507 46.7266 229.043 47.2624C229.579 47.7982 229.847 48.4891 229.847 49.3351C229.847 50.1811 229.565 50.8861 229.001 51.4501C228.465 51.9859 227.816 52.2538 227.055 52.2538ZM236.004 52.2538C235.215 52.2538 234.538 51.9859 233.974 51.4501C233.41 50.8861 233.128 50.1811 233.128 49.3351C233.128 48.5173 233.41 47.8405 233.974 47.3047C234.538 46.7407 235.215 46.4587 236.004 46.4587C236.794 46.4587 237.456 46.7266 237.992 47.2624C238.528 47.7982 238.796 48.4891 238.796 49.3351C238.796 50.1811 238.514 50.8861 237.95 51.4501C237.414 51.9859 236.766 52.2538 236.004 52.2538Z" fill="black"/>
<path d="M784.737 147.39L774.838 177H770.397L762.318 153.354L754.238 177H749.712L739.814 147.39H744.171L752.166 171.459L760.499 147.39H764.39L772.554 171.586L780.718 147.39H784.737ZM795.155 154.369C798.257 154.369 800.625 155.131 802.261 156.654C803.925 158.176 804.757 160.447 804.757 163.464V177H800.907V174.039C800.231 175.082 799.258 175.886 797.989 176.45C796.748 176.986 795.267 177.254 793.547 177.254C791.037 177.254 789.021 176.648 787.498 175.435C786.004 174.222 785.256 172.629 785.256 170.655C785.256 168.681 785.975 167.102 787.414 165.917C788.852 164.705 791.136 164.098 794.266 164.098H800.696V163.295C800.696 161.546 800.188 160.207 799.173 159.276C798.158 158.346 796.663 157.88 794.689 157.88C793.364 157.88 792.067 158.106 790.798 158.557C789.529 158.98 788.457 159.558 787.583 160.291L785.891 157.246C787.047 156.315 788.429 155.61 790.036 155.131C791.644 154.623 793.35 154.369 795.155 154.369ZM794.224 174.124C795.775 174.124 797.114 173.785 798.242 173.108C799.37 172.403 800.188 171.416 800.696 170.147V167.017H794.435C790.995 167.017 789.275 168.173 789.275 170.486C789.275 171.614 789.712 172.502 790.586 173.151C791.46 173.799 792.673 174.124 794.224 174.124ZM824.242 175.689C823.65 176.196 822.917 176.591 822.043 176.873C821.169 177.127 820.266 177.254 819.336 177.254C817.08 177.254 815.331 176.648 814.09 175.435C812.85 174.222 812.229 172.488 812.229 170.232V157.923H808.422V154.581H812.229V149.674H816.29V154.581H822.72V157.923H816.29V170.063C816.29 171.275 816.586 172.206 817.178 172.855C817.799 173.503 818.673 173.827 819.801 173.827C821.042 173.827 822.099 173.475 822.973 172.77L824.242 175.689ZM848.036 165.917C848.036 166.228 848.007 166.636 847.951 167.144H829.762C830.016 169.118 830.876 170.711 832.342 171.924C833.837 173.108 835.684 173.701 837.884 173.701C840.563 173.701 842.72 172.798 844.355 170.993L846.597 173.616C845.582 174.8 844.313 175.703 842.79 176.323C841.296 176.944 839.618 177.254 837.757 177.254C835.388 177.254 833.287 176.774 831.454 175.816C829.621 174.829 828.197 173.461 827.182 171.713C826.195 169.964 825.701 167.99 825.701 165.79C825.701 163.619 826.181 161.659 827.139 159.911C828.126 158.162 829.466 156.809 831.158 155.85C832.878 154.863 834.81 154.369 836.953 154.369C839.096 154.369 841 154.863 842.663 155.85C844.355 156.809 845.667 158.162 846.597 159.911C847.556 161.659 848.036 163.661 848.036 165.917ZM836.953 157.796C835.007 157.796 833.372 158.388 832.046 159.572C830.749 160.757 829.988 162.308 829.762 164.225H844.144C843.918 162.336 843.143 160.799 841.817 159.615C840.52 158.402 838.899 157.796 836.953 157.796ZM856.931 158.346C857.636 157.048 858.68 156.061 860.062 155.385C861.443 154.708 863.121 154.369 865.095 154.369V158.303C864.87 158.275 864.56 158.261 864.165 158.261C861.965 158.261 860.231 158.924 858.962 160.249C857.721 161.546 857.101 163.408 857.101 165.833V177H853.04V154.581H856.931V158.346Z" fill="#737577"/>
<path d="M861.682 93.3524L766.223 83.6329L698.952 76.7833C698.183 76.707 697.712 77.5851 698.198 78.1813C698.22 78.2085 728.796 115.758 736.116 124.749C737.124 125.987 738.537 126.743 740.132 126.785C757.388 127.24 855.373 126.818 871.4 126.905C872.657 126.912 873.803 126.527 874.746 125.695C876.711 123.962 880.413 120.492 886.619 114.673C904.59 97.8269 903.818 98.8657 903.569 98.1241C903.313 97.3598 906.169 97.882 861.682 93.3524Z" fill="#2F80ED"/>
<path d="M776.939 60.6159L773.894 72.7128C773.001 76.2611 775.465 79.7756 779.105 80.1462L853.279 87.6986C856.026 87.9784 858.908 84.8478 859.592 82.1723C860.349 79.2061 858.209 77.5594 855.24 76.8122L781.072 58.1449C779.25 57.6882 777.397 58.7947 776.939 60.6159Z" fill="#2F80ED"/>
<path d="M851.284 73.3869C856.18 74.6496 861.188 71.4609 862.072 66.4406C862.15 65.9996 862.355 65.3899 861.925 65.2793L795.438 48.1294C792.905 47.4761 790.426 49.3605 789.902 52.3383L789.378 55.3135C789.178 56.4505 789.886 57.5503 791.004 57.8386L851.284 73.3869Z" fill="#2F80ED"/>
<path d="M1082.37 169.597H1066.63L1063.38 177H1059.02L1072.43 147.39H1076.62L1090.07 177H1085.63L1082.37 169.597ZM1080.89 166.213L1074.5 151.705L1068.11 166.213H1080.89ZM1093.26 154.581H1097.32V177H1093.26V154.581ZM1095.29 150.266C1094.5 150.266 1093.84 150.013 1093.3 149.505C1092.79 148.997 1092.54 148.377 1092.54 147.644C1092.54 146.911 1092.79 146.29 1093.3 145.783C1093.84 145.247 1094.5 144.979 1095.29 144.979C1096.08 144.979 1096.73 145.233 1097.23 145.74C1097.77 146.22 1098.04 146.826 1098.04 147.559C1098.04 148.321 1097.77 148.969 1097.23 149.505C1096.73 150.013 1096.08 150.266 1095.29 150.266ZM1108.33 158.346C1109.03 157.048 1110.08 156.061 1111.46 155.385C1112.84 154.708 1114.52 154.369 1116.49 154.369V158.303C1116.27 158.275 1115.96 158.261 1115.56 158.261C1113.36 158.261 1111.63 158.924 1110.36 160.249C1109.12 161.546 1108.5 163.408 1108.5 165.833V177H1104.44V154.581H1108.33V158.346Z" fill="#737577"/>
<path d="M1097.53 79.3616L1112.82 63.5635C1113.78 62.5742 1113.92 61.2521 1113.41 60.2833C1112.66 58.8683 1116.51 60.0929 1050.44 45.702C1047.96 45.1613 1046.14 48.4696 1048.14 49.8797L1093.85 79.9215C1094.88 80.5992 1096.47 80.4582 1097.53 79.3616Z" fill="#2F80ED"/>
<path d="M1129.96 82.8545L1112.12 95.7348C1110.89 96.6288 1110.52 98.1748 1111.05 99.2887L1134.45 148.647C1135.56 150.824 1139.1 149.491 1138.92 146.964C1133.92 79.7206 1134.59 83.676 1133.3 82.7377C1132.41 82.0959 1131.07 82.048 1129.96 82.8545Z" fill="#2F80ED"/>
<path d="M1078.62 121.495C1078.38 120.025 1078.98 118.54 1080.17 117.652L1146.44 68.4617C1154.06 62.8069 1155.62 54.7721 1153.85 49.7006C1150.62 40.4601 1137.57 40.6791 1129.51 48.8885L1071.68 107.83C1070.64 108.893 1069.08 109.279 1067.67 108.828C1065.68 108.192 1065.51 108.14 1057.32 105.527C1057.01 105.428 1056.67 105.351 1056.35 105.387C1054.06 105.638 1052.63 108.595 1054.31 110.075C1060.87 115.831 1060.12 115.174 1063.19 117.869C1063.77 118.378 1064.3 119.669 1063.54 119.796C1063.35 119.826 1063.16 119.58 1062.86 119.326C1062.45 118.971 1061.8 119.587 1061.69 120.125C1061.58 120.641 1061.98 120.809 1062.49 120.914L1063.54 121.13C1063.54 121.13 1063.54 121.13 1063.54 121.13C1063.54 121.131 1063.54 121.131 1063.54 121.131C1063.36 121.572 1063.48 122.604 1063.97 123.162C1064.4 123.66 1065.02 123.854 1065.78 123.878C1067.36 123.928 1068.93 124.454 1069.79 125.781C1070.66 127.125 1071.27 128.067 1075.52 134.597C1076.74 136.48 1079.85 135.476 1080.43 133.231C1080.51 132.914 1080.48 132.583 1080.43 132.26L1078.96 123.481L1078.62 121.495Z" fill="#2F80ED"/>
<path d="M434.758 147.39H438.988V173.32H455.02V177H434.758V147.39ZM466.935 154.369C470.037 154.369 472.406 155.131 474.041 156.654C475.705 158.176 476.537 160.447 476.537 163.464V177H472.688V174.039C472.011 175.082 471.038 175.886 469.769 176.45C468.528 176.986 467.048 177.254 465.328 177.254C462.818 177.254 460.802 176.648 459.279 175.435C457.784 174.222 457.037 172.629 457.037 170.655C457.037 168.681 457.756 167.102 459.194 165.917C460.632 164.705 462.917 164.098 466.047 164.098H472.476V163.295C472.476 161.546 471.969 160.207 470.954 159.276C469.938 158.346 468.444 157.88 466.47 157.88C465.144 157.88 463.847 158.106 462.578 158.557C461.309 158.98 460.238 159.558 459.363 160.291L457.671 157.246C458.828 156.315 460.209 155.61 461.817 155.131C463.424 154.623 465.13 154.369 466.935 154.369ZM466.004 174.124C467.555 174.124 468.895 173.785 470.023 173.108C471.151 172.403 471.969 171.416 472.476 170.147V167.017H466.216C462.776 167.017 461.055 168.173 461.055 170.486C461.055 171.614 461.492 172.502 462.367 173.151C463.241 173.799 464.453 174.124 466.004 174.124ZM495.388 154.369C498.237 154.369 500.493 155.201 502.156 156.865C503.848 158.501 504.694 160.912 504.694 164.098V177H500.634V164.564C500.634 162.392 500.112 160.757 499.069 159.657C498.025 158.557 496.531 158.007 494.585 158.007C492.385 158.007 490.651 158.656 489.382 159.953C488.113 161.222 487.478 163.055 487.478 165.452V177H483.418V154.581H487.309V157.965C488.127 156.809 489.227 155.92 490.609 155.3C492.019 154.68 493.612 154.369 495.388 154.369ZM532.849 145.613V177H528.957V173.447C528.055 174.688 526.913 175.632 525.531 176.281C524.149 176.929 522.627 177.254 520.963 177.254C518.791 177.254 516.846 176.774 515.125 175.816C513.405 174.857 512.052 173.517 511.065 171.797C510.106 170.049 509.626 168.046 509.626 165.79C509.626 163.534 510.106 161.546 511.065 159.826C512.052 158.106 513.405 156.766 515.125 155.808C516.846 154.849 518.791 154.369 520.963 154.369C522.57 154.369 524.051 154.68 525.404 155.3C526.758 155.892 527.886 156.781 528.788 157.965V145.613H532.849ZM521.301 173.701C522.711 173.701 523.994 173.376 525.15 172.728C526.307 172.051 527.209 171.12 527.858 169.936C528.506 168.723 528.831 167.341 528.831 165.79C528.831 164.239 528.506 162.872 527.858 161.687C527.209 160.475 526.307 159.544 525.15 158.896C523.994 158.247 522.711 157.923 521.301 157.923C519.863 157.923 518.566 158.247 517.41 158.896C516.282 159.544 515.379 160.475 514.702 161.687C514.054 162.872 513.729 164.239 513.729 165.79C513.729 167.341 514.054 168.723 514.702 169.936C515.379 171.12 516.282 172.051 517.41 172.728C518.566 173.376 519.863 173.701 521.301 173.701Z" fill="#737577"/>
<path d="M459.875 109.894C460.537 113.019 463.32 115.333 466.587 115.333H482.447C489.654 115.333 495.438 108.945 501.117 104.509C503.775 102.434 507.116 101.195 510.742 101.195C518.798 101.195 525.451 107.307 526.313 115.137C526.325 115.248 526.418 115.333 526.529 115.333C526.641 115.333 526.734 115.248 526.746 115.137C527.608 107.307 534.261 101.195 542.317 101.195C547.547 101.195 552.186 103.772 555.033 107.722C557.147 110.655 561.445 112.088 561.445 108.472V57.8618C561.445 54.078 558.367 51 554.583 51H466.587C462.852 51 459.811 54.0002 459.732 57.7162C459.726 58.0974 459.629 108.731 459.875 109.894Z" fill="#2F80ED"/>
<path d="M400.6 115.333H407.847C412.995 115.333 417.079 111.061 420.308 107.051C423.181 103.483 427.584 101.195 432.512 101.195C439.154 101.195 444.843 105.35 447.118 111.197C447.996 113.452 453.001 115.364 455.42 115.344C458.514 115.319 456.514 112.385 456.253 109.303C456.214 108.835 456.197 108.356 456.196 107.862C456.196 98.4467 456.195 81.1088 456.197 69.486C456.198 63.9597 451.718 59.4825 446.192 59.4825H433.022C427.127 59.4825 421.625 63.0372 418.663 68.7591L412.966 79.7659C411.248 83.0851 407.823 85.1692 404.085 85.1692H400.6C397.512 85.1692 395 88.0441 395 91.578V108.925C395 112.458 397.512 115.333 400.6 115.333ZM421.403 79.5842L425.558 69.3358C426.051 68.1183 427.234 67.3216 428.548 67.3216H444.118C445.9 67.3216 447.345 68.7662 447.345 70.5478V80.7962C447.345 82.5781 445.9 84.0224 444.118 84.0224H424.393C422.104 84.0227 420.543 81.7054 421.403 79.5842Z" fill="#2F80ED"/>
<path d="M444.65 116.862C444.65 110.169 439.205 104.724 432.512 104.724C425.82 104.724 420.374 110.169 420.374 116.862C420.374 123.555 425.82 129 432.512 129C439.205 129 444.65 123.555 444.65 116.862Z" fill="#2F80ED"/>
<path d="M522.88 116.862C522.88 110.169 517.435 104.724 510.742 104.724C504.049 104.724 498.604 110.169 498.604 116.862C498.604 123.555 504.049 129 510.742 129C517.435 129 522.88 123.555 522.88 116.862Z" fill="#2F80ED"/>
<path d="M554.455 116.862C554.455 110.169 549.01 104.724 542.317 104.724C535.624 104.724 530.179 110.169 530.179 116.862C530.179 123.555 535.624 129 542.317 129C549.01 129 554.455 123.555 554.455 116.862Z" fill="#2F80ED"/>
<path d="M2.00018 2V0H0.000183105V2H2.00018ZM1248 2H1250V0H1248V2ZM1248 223V225H1250V223H1248ZM2.00018 223H0.000183105V225H2.00018V223ZM2.00018 4H1248V0H2.00018V4ZM1246 2V223H1250V2H1246ZM1248 221H2.00018V225H1248V221ZM4.00018 223V2H0.000183105V223H4.00018Z" fill="#5C5450"/>
</svg>
