<svg width="50" height="50" viewBox="0 0 50 50" fill="none" xmlns="http://www.w3.org/2000/svg">
<path d="M9.10938 34.4219C14.6406 32.1719 19.9375 31.0469 25 31.0469C30.0625 31.0469 35.3125 32.1719 40.75 34.4219C46.2812 36.5781 49.0469 39.4375 49.0469 43V49.0469H0.953125V43C0.953125 39.4375 3.67188 36.5781 9.10938 34.4219ZM33.4375 21.4844C31.0938 23.8281 28.2812 25 25 25C21.7188 25 18.9062 23.8281 16.5625 21.4844C14.2188 19.1406 13.0469 16.3281 13.0469 13.0469C13.0469 9.76563 14.2188 6.95313 16.5625 4.60938C18.9062 2.17188 21.7188 0.953125 25 0.953125C28.2812 0.953125 31.0938 2.17188 33.4375 4.60938C35.7812 6.95313 36.9531 9.76563 36.9531 13.0469C36.9531 16.3281 35.7812 19.1406 33.4375 21.4844Z" fill="#5B6469"/>
</svg>
