<svg width="44" height="44" viewBox="0 0 44 44" fill="none" xmlns="http://www.w3.org/2000/svg">
<path d="M7.875 30.625C12.7917 28.625 17.5 27.625 22 27.625C26.5 27.625 31.1667 28.625 36 30.625C40.9167 32.5417 43.375 35.0833 43.375 38.25V43.625H0.625V38.25C0.625 35.0833 3.04167 32.5417 7.875 30.625ZM29.5 19.125C27.4167 21.2083 24.9167 22.25 22 22.25C19.0833 22.25 16.5833 21.2083 14.5 19.125C12.4167 17.0417 11.375 14.5417 11.375 11.625C11.375 8.70833 12.4167 6.20833 14.5 4.125C16.5833 1.95833 19.0833 0.875 22 0.875C24.9167 0.875 27.4167 1.95833 29.5 4.125C31.5833 6.20833 32.625 8.70833 32.625 11.625C32.625 14.5417 31.5833 17.0417 29.5 19.125Z" fill="#56B45A"/>
</svg>
