<svg width="8979" height="1143" xmlns="http://www.w3.org/2000/svg" xmlns:xlink="http://www.w3.org/1999/xlink"><defs><path d="M1883.24 358.189c13.75 18.864 21.68 41.338 22.82 64.654L1920.02 709h-176.69c-18.1-80.21-89.79-140.12-175.48-140.12-92.3 0-168.36 69.52-178.69 159.06H583.924c-10.323-89.54-86.389-159.06-178.691-159.06-92.303 0-168.368 69.52-178.692 159.06H96.5887v-89H.0194092V527.22H1227.02V.826h343.92c32.56 0 63.17 15.566 82.36 41.885l229.94 315.478zM1558.63 38.135c28.04 0 54.37 13.46 70.8 36.186l185.94 257.276h-521.41V38.135h264.67z" id="a"/></defs><g transform="translate(0 1)" fill="none" fill-rule="evenodd"><path d="M1883.24 550.189c13.75 18.864 21.68 41.338 22.82 64.654L1920.02 901h-176.69c-18.1-80.21-89.79-140.12-175.48-140.12-92.3 0-168.36 69.52-178.69 159.06H583.924c-10.323-89.54-86.389-159.06-178.691-159.06-92.303 0-168.368 69.52-178.692 159.06H96.5887v-89H.0194092V719.22H1227.02V192.826h343.92c32.56 0 63.17 15.566 82.36 41.885l229.94 315.478zm-324.61-320.054c28.04 0 54.37 13.46 70.8 36.186l185.94 257.276h-521.41V230.135h264.67z" fill="#FFF"/><g transform="translate(0 192)"><mask id="b" fill="#fff"><use xlink:href="#a"/></mask><path d="M1906.06 422.843l-3.63.177 3.63-.177zm-22.82-64.654l2.94-2.144-2.94 2.144zM1920.02 709l3.63-.17.19 3.81h-3.82V709zm-176.69 0v3.64h-2.91l-.64-2.84 3.55-.8zm-354.17 18.94l3.62.41-.37 3.23h-3.25v-3.64zm-805.236 0v3.64h-3.244l-.372-3.23 3.616-.41zm-357.383 0l3.616.41-.371 3.23h-3.245v-3.64zm-129.9523 0v3.64h-3.6398v-3.64h3.6398zm0-89v-3.64h3.6403v3.64h-3.6403zm-96.5692908 0v3.64H-3.62043v-3.64H.0194092zm0-111.72H-3.62043v-3.64H.0194092v3.64zm1227.0005908 0h3.64v3.64h-3.64v-3.64zm0-526.394h-3.64v-3.64h3.64v3.64zm426.28 41.885l-2.95 2.144 2.95-2.144zm-23.87 31.61l2.95-2.132-2.95 2.132zm185.94 257.276l2.95-2.132 4.17 5.772h-7.12v-3.64zm-521.41 0v3.64h-3.64v-3.64h3.64zm0-293.462h-3.64v-3.64h3.64v3.64zm608.47 384.885c-1.11-22.606-8.8-44.397-22.13-62.687l5.88-4.288c14.17 19.438 22.35 42.596 23.52 66.621l-7.27.354zm13.95 286.16l-13.95-286.16 7.27-.354 13.95 286.164-7.27.35zm-173.05-3.82h176.69v7.28h-176.69v-7.28zm-175.48-140.12c87.43 0 160.56 61.12 179.03 142.96l-7.1 1.6c-17.74-78.59-87.98-137.28-171.93-137.28v-7.28zm-182.3 162.28c10.53-91.35 88.13-162.28 182.3-162.28v7.28c-90.43 0-164.96 68.11-175.07 155.83l-7.23-.83zm-801.626-3.22h805.236v7.28H583.924v-7.28zM405.233 565.24c94.173 0 171.774 70.93 182.307 162.28l-7.232.83c-10.114-87.72-84.643-155.83-175.075-155.83v-7.28zM222.925 727.52c10.533-91.35 88.135-162.28 182.308-162.28v7.28c-90.433 0-164.962 68.11-175.076 155.83l-7.232-.83zM96.5887 724.3H226.541v7.28H96.5887v-7.28zm3.6403-85.36v89h-7.2801v-89h7.2801zM.0194092 635.3H96.5887v7.28H.0194092v-7.28zM3.65925 527.22v111.72h-7.27968V527.22h7.27968zM1181.58 530.86H.0194092v-7.28H1181.58v7.28zm45.44 0h-45.44v-7.28h45.44v7.28zM1230.66.826V527.22h-7.28V.826h7.28zm340.28 3.64h-343.92v-7.28h343.92v7.28zm79.41 40.389c-18.49-25.379-48.01-40.389-79.41-40.389v-7.28c33.73 0 65.43 16.122 85.3 43.381l-5.89 4.288zm229.95 315.478L1650.35 44.855l5.89-4.288 229.94 315.478-5.88 4.288zm-253.82-283.88c-15.74-21.779-40.98-34.678-67.85-34.678v-7.28c29.2 0 56.64 14.021 73.75 37.694l-5.9 4.264zm185.94 257.276L1626.48 76.453l5.9-4.264 185.94 257.276-5.9 4.264zm-518.46-5.772h521.41v7.28h-521.41v-7.28zm3.64-289.822v293.462h-7.28V38.135h7.28zm261.03 3.64h-264.67v-7.28h264.67v7.28z" fill="#000" fill-rule="nonzero" mask="url(#b)"/></g><path stroke="#000" stroke-width="1.81992" fill="#B8B8B8" d="M1933.72 780.42h-81.5v119.37h81.5z"/><path d="M1567.91 1104.61c-90.46 0-163.79-73.34-163.79-163.8 0-90.46 73.33-163.79 163.79-163.79s163.8 73.33 163.8 163.79-73.34 163.8-163.8 163.8zm0-53.69c-60.81 0-110.1-49.3-110.1-110.11s49.29-110.1 110.1-110.1c60.81 0 110.11 49.29 110.11 110.1 0 60.81-49.3 110.11-110.11 110.11zM405.387 1106.43c-90.46 0-163.793-73.34-163.793-163.8 0-90.46 73.333-163.79 163.793-163.79 90.46 0 163.793 73.33 163.793 163.79s-73.333 163.8-163.793 163.8zm0-53.69c-60.81 0-110.105-49.3-110.105-110.11s49.295-110.1 110.105-110.1c60.809 0 110.105 49.29 110.105 110.1 0 60.81-49.296 110.11-110.105 110.11z" fill="#333"/><circle fill="#B8B8B8" transform="matrix(-1 0 0 1 3135.82 0)" cx="1567.91" cy="940.81" r="110.105"/><circle fill="#B8B8B8" transform="matrix(-1 0 0 1 810.884 0)" cx="405.442" cy="942.63" r="110.105"/><path d="M1226.17.825H2.276c-.25134 0-.45508.204-.45508.455v717.5H1226.63V1.28c0-.251-.21-.455-.46-.455z" stroke="#000" stroke-width="3.63984" fill="#2F80ED"/><path fill="#D3B875" d="M210 201.347l477.033 89.781V655L210 521.623z"/><path fill="#B78C59" d="M687.033 291.128l278.843-122.586V507.38L687.033 655z"/><path d="M713.59 531.189c0-2.784 1.65-5.304 4.203-6.417l60.745-26.481c1.377-.601 2.918.409 2.918 1.911v74.363c0 2.602-1.442 4.989-3.746 6.198l-61.066 32.058c-1.388.729-3.054-.278-3.054-1.846v-79.786z" fill="#FFF"/><path fill="#F2CF8B" d="M493.269 108.544l472.606 59.998-278.842 122.586L210 201.347z"/><path fill-opacity=".62" fill="#6F5D3A" d="M391.961 235.591l67.866 12.804v343.154l-67.866-18.992z"/><path fill-opacity=".62" fill="#6F5D3A" d="M693.918 134.011l53.604 6.475-287.695 107.91-67.866-12.802z"/><path fill-opacity=".62" fill="#6F5D3A" d="M353.602 154.296l40.818-13.381 461.295 75.969-55.08 24.172z"/><path d="M727.123 537.999l45.874-19.925m-45.874 27.651l45.874-20.332m-45.874 28.871l45.874-20.332m-45.874 28.871l45.874-20.738m-18.159 20.738l18.159-8.539m-18.159 15.859l18.159-8.946m-18.159 16.672l18.159-9.353" stroke-opacity=".7" stroke="#585050" stroke-width="2.78023"/><path d="M855.715 216.885l-55.08 24.172v96.915l8.852 11.426v-9.928l7.377 5.612 2.459-5.612v-3.885c0-3.453 2.95-10.359 4.426-13.38l2.459 13.38v9.497c1.803-4.461 5.704-12.604 6.885-9.497 1.18 3.108 2.459 7.626 2.95 9.497l7.377-5.612v-17.265l5.41-15.971 6.885 23.266V216.885z" fill-opacity=".62" fill="#6F5D3A"/><path d="M2624.73 453.679c0 66.617-22.8 117.93-68.42 153.94-45.31 35.709-110.27 53.564-194.9 53.564h-77.42V920h-76.52V261.929h170.6c164.44 0 246.66 63.917 246.66 191.75zm-340.74 141.787h68.87c67.82 0 116.88-10.953 147.19-32.859 30.31-21.906 45.46-57.015 45.46-105.327 0-43.512-14.25-75.92-42.76-97.226-28.51-21.305-72.92-31.958-133.23-31.958h-85.53v267.37zM3055.04 920l-14.85-70.22h-3.6c-24.61 30.91-49.21 51.92-73.82 63.02-24.31 10.8-54.76 16.2-91.37 16.2-48.92 0-87.33-12.6-115.23-37.81-27.61-25.2-41.41-61.06-41.41-107.58 0-99.621 79.67-151.835 239.01-156.636l83.72-2.701v-30.608c0-38.71-8.4-67.217-25.21-85.522-16.5-18.605-43.06-27.907-79.67-27.907-41.11 0-87.62 12.603-139.53 37.809l-22.96-57.164c24.31-13.204 50.86-23.556 79.67-31.058 29.11-7.502 58.22-11.253 87.32-11.253 58.82 0 102.33 13.053 130.54 39.16 28.5 26.107 42.76 67.967 42.76 125.582V920h-55.37zm-168.79-52.66c46.51 0 82.97-12.76 109.38-38.26 26.71-25.51 40.06-61.22 40.06-107.13v-44.563l-74.72 3.151c-59.42 2.1-102.33 11.403-128.73 27.902-26.11 16.21-39.16 41.57-39.16 76.07 0 27.01 8.1 47.57 24.3 61.67 16.51 14.1 39.46 21.16 68.87 21.16zm575.7 61.66c-71.42 0-126.78-21.9-166.09-65.71-39.01-44.12-58.52-106.38-58.52-186.803 0-82.522 19.81-146.288 59.42-191.3 39.91-45.012 96.62-67.518 170.14-67.518 23.71 0 47.41 2.551 71.12 7.652 23.71 5.102 42.31 11.103 55.81 18.005l-22.95 63.467c-16.51-6.602-34.51-12.004-54.02-16.205-19.5-4.501-36.76-6.751-51.76-6.751-100.23 0-150.34 63.916-150.34 191.749 0 60.614 12.15 107.124 36.46 139.534 24.61 32.41 60.92 48.62 108.93 48.62 41.11 0 83.27-8.86 126.48-26.56v66.17c-33.01 17.1-74.57 25.65-124.68 25.65zm315.98-261.516c12.91-18.304 32.56-42.311 58.97-72.018l159.34-168.794h88.67l-199.85 210.204L4098.87 920h-90.48L3834.2 686.839l-56.27 48.611V920h-73.82V219.618h73.82v371.346c0 16.505-1.2 42.011-3.6 76.52h3.6zm839.02-213.805c0 66.617-22.81 117.93-68.42 153.94-45.31 35.709-110.28 53.564-194.9 53.564h-77.42V920h-76.52V261.929h170.6c164.44 0 246.66 63.917 246.66 191.75zm-340.74 141.787h68.87c67.82 0 116.88-10.953 147.19-32.859 30.31-21.906 45.46-57.015 45.46-105.327 0-43.512-14.25-75.92-42.76-97.226-28.51-21.305-72.92-31.958-133.24-31.958h-85.52v267.37zM4818.6 920h-74.72V426.672h74.72V920zm-81.02-627.013c0-17.104 4.2-29.558 12.6-37.36 8.41-8.102 18.91-12.153 31.51-12.153 12.01 0 22.36 4.051 31.06 12.153s13.05 20.556 13.05 37.36-4.35 29.408-13.05 37.81c-8.7 8.102-19.05 12.153-31.06 12.153-12.6 0-23.1-4.051-31.51-12.153-8.4-8.402-12.6-21.006-12.6-37.81zM5174.19 929c-71.41 0-126.78-21.9-166.09-65.71-39.01-44.12-58.51-106.38-58.51-186.803 0-82.522 19.8-146.288 59.41-191.3 39.91-45.012 96.63-67.518 170.15-67.518 23.7 0 47.41 2.551 71.11 7.652 23.71 5.102 42.32 11.103 55.82 18.005l-22.96 63.467c-16.5-6.602-34.51-12.004-54.01-16.205-19.51-4.501-36.76-6.751-51.76-6.751-100.23 0-150.34 63.916-150.34 191.749 0 60.614 12.15 107.124 36.46 139.534 24.6 32.41 60.91 48.62 108.92 48.62 41.12 0 83.28-8.86 126.49-26.56v66.17c-33.01 17.1-74.57 25.65-124.69 25.65zm315.99-261.516c12.9-18.304 32.56-42.311 58.96-72.018l159.34-168.794h88.68L5597.3 636.876 5811.11 920h-90.47l-174.2-233.161-56.26 48.611V920h-73.82V219.618h73.82v371.346c0 16.505-1.2 42.011-3.6 76.52h3.6zm480.72-240.812V746.7c0 40.22 9.15 70.22 27.46 90.03 18.3 19.8 46.96 29.71 85.97 29.71 51.61 0 89.27-14.11 112.98-42.31 24.01-28.21 36.01-74.27 36.01-138.191V426.672h74.72V920h-61.67l-10.8-66.17h-4.05c-15.3 24.31-36.61 42.91-63.92 55.82-27 12.9-57.91 19.35-92.72 19.35-60.02 0-105.03-14.25-135.04-42.76-29.7-28.51-44.56-74.12-44.56-136.83V426.672h75.62zM6696.49 929c-32.11 0-61.52-5.85-88.22-17.55-26.41-12.01-48.61-30.31-66.62-54.92h-5.4c3.6 28.81 5.4 56.12 5.4 81.92v203.01h-74.72V426.672h60.77l10.35 67.517h3.6c19.21-27.007 41.56-46.512 67.07-58.515 25.5-12.003 54.76-18.005 87.77-18.005 65.42 0 115.83 22.356 151.24 67.068 35.71 44.711 53.56 107.428 53.56 188.149 0 81.024-18.15 144.034-54.46 189.044-36.01 44.72-86.12 67.07-150.34 67.07zm-10.8-447.864c-50.42 0-86.87 13.954-109.38 41.861-22.51 27.907-34.06 72.319-34.66 133.234v16.655c0 69.314 11.55 118.984 34.66 148.984 23.11 29.71 60.17 44.57 111.18 44.57 42.61 0 75.92-17.26 99.92-51.77 24.31-34.51 36.46-82.07 36.46-142.684 0-61.516-12.15-108.629-36.46-141.337-24-33.009-57.91-49.513-101.72-49.513zm335.78 391.154c0-20.11 4.51-35.26 13.51-45.46 9.3-10.51 22.5-15.76 39.61-15.76 17.4 0 30.91 5.25 40.51 15.76 9.9 10.2 14.85 25.35 14.85 45.46 0 19.5-4.95 34.51-14.85 45.01-9.9 10.5-23.41 15.75-40.51 15.75-15.31 0-28.06-4.65-38.26-13.95-9.9-9.6-14.86-25.21-14.86-46.81zM7475.19 929c-71.42 0-126.78-21.9-166.09-65.71-39.01-44.12-58.52-106.38-58.52-186.803 0-82.522 19.81-146.288 59.42-191.3 39.91-45.012 96.63-67.518 170.14-67.518 23.71 0 47.42 2.551 71.12 7.652 23.71 5.102 42.31 11.103 55.82 18.005l-22.96 63.467c-16.5-6.602-34.51-12.004-54.01-16.205-19.51-4.501-36.76-6.751-51.77-6.751-100.22 0-150.34 63.916-150.34 191.749 0 60.614 12.16 107.124 36.46 139.534 24.61 32.41 60.92 48.62 108.93 48.62 41.11 0 83.27-8.86 126.49-26.56v66.17c-33.01 17.1-74.57 25.65-124.69 25.65zm667.98-256.114c0 80.424-20.26 143.284-60.77 188.594-40.51 45.02-96.47 67.52-167.89 67.52-44.11 0-83.27-10.35-117.48-31.06-34.21-20.7-60.62-50.41-79.22-89.12-18.61-38.71-27.91-84.02-27.91-135.934 0-80.421 20.1-142.987 60.31-187.699 40.21-45.012 96.03-67.518 167.45-67.518 69.02 0 123.78 22.956 164.29 68.868 40.81 45.912 61.22 108.028 61.22 186.349zm-375.85 0c0 63.014 12.6 111.024 37.81 144.034 25.21 33.01 62.26 49.52 111.18 49.52 48.91 0 85.97-16.36 111.18-49.07 25.5-33.01 38.26-81.17 38.26-144.484 0-62.717-12.76-110.279-38.26-142.687-25.21-32.709-62.57-49.063-112.08-49.063-48.92 0-85.82 16.054-110.73 48.162-24.91 32.109-37.36 79.971-37.36 143.588zM8903.41 920V599.067c0-39.311-8.4-68.718-25.2-88.223-16.81-19.806-42.91-29.708-78.32-29.708-46.51 0-80.87 13.353-103.08 40.06-22.21 26.707-33.31 67.818-33.31 123.332V920h-74.72V599.067c0-39.311-8.4-68.718-25.2-88.223-16.81-19.806-43.07-29.708-78.77-29.708-46.82 0-81.18 14.104-103.08 42.311-21.61 27.907-32.41 73.819-32.41 137.736V920h-74.72V426.672h60.77l12.15 67.517h3.6c14.1-24.006 33.91-42.761 59.42-56.264 25.8-13.504 54.61-20.256 86.42-20.256 77.12 0 127.53 27.908 151.24 83.722h3.6c14.7-25.807 36.01-46.212 63.92-61.216 27.9-15.004 59.71-22.506 95.42-22.506 55.81 0 97.53 14.404 125.13 43.212 27.91 28.507 41.86 74.269 41.86 137.285V920h-74.72z" fill="#2F80ED" fill-rule="nonzero"/></g></svg>