<svg width="406" height="223" viewBox="0 0 406 223" fill="none" xmlns="http://www.w3.org/2000/svg">
<path d="M59.9465 171.455C63.9941 171.455 67.1785 172.422 69.5 174.356C71.8214 176.291 72.9821 178.954 72.9821 182.347C72.9821 185.74 71.8214 188.404 69.5 190.338C67.1785 192.273 63.9941 193.24 59.9465 193.24H52.2233V202.704H47.7591V171.455H59.9465ZM59.8125 189.356C62.6399 189.356 64.7976 188.761 66.2857 187.57C67.7738 186.35 68.5178 184.609 68.5178 182.347C68.5178 180.085 67.7738 178.359 66.2857 177.169C64.7976 175.949 62.6399 175.338 59.8125 175.338H52.2233V189.356H59.8125ZM77.8537 179.044H82.1394V202.704H77.8537V179.044ZM79.9965 174.49C79.1632 174.49 78.4638 174.222 77.8983 173.687C77.3626 173.151 77.0948 172.496 77.0948 171.722C77.0948 170.949 77.3626 170.294 77.8983 169.758C78.4638 169.193 79.1632 168.91 79.9965 168.91C80.8298 168.91 81.5144 169.178 82.0501 169.713C82.6155 170.219 82.8983 170.859 82.8983 171.633C82.8983 172.437 82.6155 173.121 82.0501 173.687C81.5144 174.222 80.8298 174.49 79.9965 174.49ZM99.9649 202.972C97.5542 202.972 95.3965 202.451 93.4918 201.41C91.6168 200.368 90.1436 198.939 89.0722 197.124C88.0008 195.279 87.4651 193.195 87.4651 190.874C87.4651 188.553 88.0008 186.484 89.0722 184.669C90.1436 182.823 91.6168 181.395 93.4918 180.383C95.3965 179.341 97.5542 178.821 99.9649 178.821C102.108 178.821 104.013 179.252 105.679 180.115C107.376 180.978 108.685 182.228 109.608 183.865L106.349 185.963C105.605 184.832 104.682 183.984 103.581 183.419C102.48 182.853 101.26 182.57 99.9203 182.57C98.3727 182.57 96.9739 182.913 95.7239 183.597C94.5037 184.282 93.5364 185.264 92.8221 186.544C92.1376 187.794 91.7954 189.237 91.7954 190.874C91.7954 192.541 92.1376 194.014 92.8221 195.294C93.5364 196.544 94.5037 197.511 95.7239 198.195C96.9739 198.88 98.3727 199.222 99.9203 199.222C101.26 199.222 102.48 198.939 103.581 198.374C104.682 197.808 105.605 196.96 106.349 195.829L109.608 197.883C108.685 199.52 107.376 200.785 105.679 201.677C104.013 202.541 102.108 202.972 99.9649 202.972ZM123.378 191.678L118.467 196.231V202.704H114.181V169.58H118.467V190.829L131.369 179.044H136.547L126.592 188.82L137.529 202.704H132.262L123.378 191.678ZM162.638 179.044V202.704H158.576V199.133C157.713 200.353 156.567 201.305 155.138 201.99C153.74 202.645 152.207 202.972 150.54 202.972C147.386 202.972 144.9 202.109 143.085 200.383C141.27 198.627 140.362 196.052 140.362 192.66V179.044H144.647V192.169C144.647 194.46 145.198 196.201 146.299 197.392C147.4 198.552 148.978 199.133 151.031 199.133C153.293 199.133 155.079 198.448 156.388 197.079C157.698 195.71 158.353 193.776 158.353 191.276V179.044H162.638ZM182.672 178.821C184.964 178.821 187.017 179.326 188.833 180.338C190.648 181.35 192.062 182.764 193.074 184.579C194.115 186.395 194.636 188.493 194.636 190.874C194.636 193.255 194.115 195.368 193.074 197.213C192.062 199.029 190.648 200.442 188.833 201.454C187.017 202.466 184.964 202.972 182.672 202.972C180.976 202.972 179.413 202.645 177.985 201.99C176.586 201.335 175.395 200.383 174.413 199.133V211.365H170.128V179.044H174.235V182.794C175.187 181.484 176.392 180.502 177.851 179.847C179.309 179.163 180.916 178.821 182.672 178.821ZM182.315 199.222C183.833 199.222 185.187 198.88 186.377 198.195C187.598 197.481 188.55 196.499 189.234 195.249C189.949 193.969 190.306 192.511 190.306 190.874C190.306 189.237 189.949 187.794 189.234 186.544C188.55 185.264 187.598 184.282 186.377 183.597C185.187 182.913 183.833 182.57 182.315 182.57C180.827 182.57 179.473 182.928 178.252 183.642C177.062 184.326 176.11 185.294 175.395 186.544C174.711 187.794 174.369 189.237 174.369 190.874C174.369 192.511 174.711 193.969 175.395 195.249C176.08 196.499 177.032 197.481 178.252 198.195C179.473 198.88 180.827 199.222 182.315 199.222ZM213.92 208.847C212.717 206.905 211.788 204.678 211.134 202.166C210.48 199.633 210.153 196.921 210.153 194.029C210.153 191.137 210.48 188.425 211.134 185.892C211.788 183.338 212.717 181.111 213.92 179.212H216.802C215.535 181.428 214.606 183.75 214.015 186.177C213.424 188.604 213.129 191.222 213.129 194.029C213.129 196.836 213.424 199.454 214.015 201.881C214.606 204.308 215.535 206.63 216.802 208.847H213.92ZM234.434 199.95V202.704H218.509V200.551L227.532 191.844C228.63 190.789 229.368 189.881 229.748 189.122C230.128 188.341 230.318 187.56 230.318 186.779C230.318 185.618 229.907 184.721 229.083 184.087C228.281 183.433 227.12 183.106 225.601 183.106C223.152 183.106 221.263 183.908 219.933 185.512L217.78 183.644C218.646 182.589 219.775 181.766 221.168 181.175C222.582 180.584 224.155 180.288 225.886 180.288C228.207 180.288 230.054 180.847 231.426 181.966C232.798 183.064 233.484 184.562 233.484 186.462C233.484 187.644 233.231 188.763 232.724 189.818C232.218 190.873 231.257 192.077 229.843 193.427L223.068 199.95H234.434ZM238.993 198.557C239.584 198.557 240.069 198.768 240.449 199.19C240.85 199.591 241.051 200.097 241.051 200.71C241.051 201.026 241.009 201.332 240.924 201.628C240.861 201.923 240.724 202.377 240.513 202.989L239.025 207.39H237.03L238.201 202.673C237.8 202.525 237.473 202.282 237.22 201.944C236.988 201.586 236.872 201.174 236.872 200.71C236.872 200.076 237.072 199.559 237.473 199.158C237.874 198.757 238.381 198.557 238.993 198.557ZM252.364 189.85C254.538 190.061 256.195 190.736 257.335 191.876C258.475 192.995 259.045 194.43 259.045 196.182C259.045 197.448 258.728 198.599 258.095 199.633C257.462 200.646 256.512 201.459 255.246 202.071C254 202.662 252.47 202.958 250.655 202.958C249.072 202.958 247.552 202.725 246.095 202.261C244.639 201.775 243.446 201.111 242.518 200.266L243.974 197.765C244.734 198.483 245.705 199.063 246.887 199.506C248.069 199.929 249.325 200.14 250.655 200.14C252.301 200.14 253.578 199.791 254.486 199.095C255.414 198.398 255.879 197.438 255.879 196.214C255.879 194.989 255.425 194.04 254.517 193.364C253.61 192.689 252.238 192.351 250.401 192.351H248.628V190.135L254.201 183.296H243.531V180.541H258.158V182.694L252.364 189.85ZM263.644 198.557C264.235 198.557 264.721 198.768 265.101 199.19C265.502 199.591 265.702 200.097 265.702 200.71C265.702 201.026 265.66 201.332 265.576 201.628C265.512 201.923 265.375 202.377 265.164 202.989L263.676 207.39H261.681L262.853 202.673C262.452 202.525 262.124 202.282 261.871 201.944C261.639 201.586 261.523 201.174 261.523 200.71C261.523 200.076 261.723 199.559 262.124 199.158C262.525 198.757 263.032 198.557 263.644 198.557ZM287.225 197.258H283.014V202.704H279.943V197.258H267.626V195.042L278.961 180.541H282.381L271.521 194.536H280.038V189.723H283.014V194.536H287.225V197.258ZM302.881 183.296H295.282V180.541H313.614V183.296H306.016V202.704H302.881V183.296ZM321.6 202.894C319.933 202.894 318.434 202.525 317.104 201.786C315.775 201.047 314.73 200.034 313.97 198.747C313.231 197.438 312.862 195.96 312.862 194.314C312.862 192.668 313.231 191.201 313.97 189.913C314.73 188.604 315.775 187.591 317.104 186.874C318.434 186.135 319.933 185.765 321.6 185.765C323.268 185.765 324.756 186.135 326.064 186.874C327.394 187.591 328.429 188.604 329.167 189.913C329.927 191.201 330.307 192.668 330.307 194.314C330.307 195.96 329.927 197.438 329.167 198.747C328.429 200.034 327.394 201.047 326.064 201.786C324.756 202.525 323.268 202.894 321.6 202.894ZM321.6 200.235C322.677 200.235 323.637 199.992 324.481 199.506C325.347 199 326.022 198.303 326.508 197.417C326.993 196.509 327.236 195.475 327.236 194.314C327.236 193.153 326.993 192.129 326.508 191.243C326.022 190.335 325.347 189.639 324.481 189.153C323.637 188.668 322.677 188.425 321.6 188.425C320.524 188.425 319.553 188.668 318.687 189.153C317.843 189.639 317.168 190.335 316.661 191.243C316.176 192.129 315.933 193.153 315.933 194.314C315.933 195.475 316.176 196.509 316.661 197.417C317.168 198.303 317.843 199 318.687 199.506C319.553 199.992 320.524 200.235 321.6 200.235ZM342.996 185.765C345.128 185.765 346.816 186.388 348.062 187.633C349.328 188.858 349.961 190.662 349.961 193.048V202.704H346.922V193.396C346.922 191.771 346.531 190.546 345.75 189.723C344.969 188.9 343.851 188.488 342.394 188.488C340.748 188.488 339.45 188.974 338.5 189.945C337.55 190.895 337.075 192.267 337.075 194.061V202.704H334.036V185.924H336.949V188.457C337.561 187.591 338.384 186.926 339.418 186.462C340.473 185.998 341.666 185.765 342.996 185.765ZM353.243 208.847C354.51 206.63 355.439 204.308 356.03 201.881C356.642 199.454 356.948 196.836 356.948 194.029C356.948 191.222 356.642 188.604 356.03 186.177C355.439 183.75 354.51 181.428 353.243 179.212H356.125C357.349 181.111 358.288 183.328 358.943 185.86C359.597 188.393 359.924 191.116 359.924 194.029C359.924 196.921 359.597 199.633 358.943 202.166C358.288 204.699 357.349 206.926 356.125 208.847H353.243Z" fill="#737577"/>
<ellipse opacity="0.5" cx="197.323" cy="150.423" rx="123.263" ry="3.3739" fill="#403F45" fill-opacity="0.72"/>
<path d="M69.5888 119.028H78.6866C78.7824 119.028 78.8601 119.106 78.8601 119.202V132.108C78.8601 132.204 78.7824 132.282 78.6866 132.282H69.5888C69.4929 132.282 69.4152 132.204 69.4152 132.108V119.202C69.4152 119.106 69.4929 119.028 69.5888 119.028Z" fill="#B8B8B8" stroke="black" stroke-width="0.347052"/>
<mask id="path-5-inside-1" fill="white">
<path fill-rule="evenodd" clip-rule="evenodd" d="M95.1932 48.797C95.5583 48.2232 96.195 47.8724 96.8751 47.8724H148.022C149.124 47.8724 150.017 48.7658 150.017 49.8679V111.262H141.537V56.1674C141.537 55.0653 140.644 54.1719 139.542 54.1719H96.4101C95.6701 54.1719 94.9877 54.587 94.6429 55.2418C85.2736 73.0334 80.6187 83.0858 79.0207 95.1189L79.0207 119.046C78.9578 118.982 78.8705 118.943 78.7739 118.943H71.5264V103.086C71.5264 102.894 71.5551 102.699 71.6096 102.515C78.9757 77.6705 84.3348 65.8618 95.1932 48.797ZM79.121 132.436H107.814L107.814 132.326C107.814 120.758 117.155 111.368 128.719 111.262V111.262H128.916H141.451V56.1674C141.451 55.1132 140.596 54.2586 139.542 54.2586H96.4101C95.7026 54.2586 95.0496 54.6557 94.7197 55.2822C85.3514 73.0717 80.7039 83.1113 79.1075 95.1246L79.1075 119.194C79.1163 119.224 79.121 119.256 79.121 119.29V132.436ZM97.8192 56.515C97.1623 56.5271 96.5521 56.8609 96.1961 57.413C90.0182 66.9931 86.0794 76.9815 84.7399 82.5518L82.1195 90.7895C81.6371 92.306 83.037 93.7495 84.5677 93.3137L139.447 77.688C139.634 77.6349 139.762 77.4646 139.762 77.2708V57.7792C139.762 56.6628 138.847 55.7636 137.73 55.784L97.8192 56.515Z"/>
</mask>
<path fill-rule="evenodd" clip-rule="evenodd" d="M95.1932 48.797C95.5583 48.2232 96.195 47.8724 96.8751 47.8724H148.022C149.124 47.8724 150.017 48.7658 150.017 49.8679V111.262H141.537V56.1674C141.537 55.0653 140.644 54.1719 139.542 54.1719H96.4101C95.6701 54.1719 94.9877 54.587 94.6429 55.2418C85.2736 73.0334 80.6187 83.0858 79.0207 95.1189L79.0207 119.046C78.9578 118.982 78.8705 118.943 78.7739 118.943H71.5264V103.086C71.5264 102.894 71.5551 102.699 71.6096 102.515C78.9757 77.6705 84.3348 65.8618 95.1932 48.797ZM79.121 132.436H107.814L107.814 132.326C107.814 120.758 117.155 111.368 128.719 111.262V111.262H128.916H141.451V56.1674C141.451 55.1132 140.596 54.2586 139.542 54.2586H96.4101C95.7026 54.2586 95.0496 54.6557 94.7197 55.2822C85.3514 73.0717 80.7039 83.1113 79.1075 95.1246L79.1075 119.194C79.1163 119.224 79.121 119.256 79.121 119.29V132.436ZM97.8192 56.515C97.1623 56.5271 96.5521 56.8609 96.1961 57.413C90.0182 66.9931 86.0794 76.9815 84.7399 82.5518L82.1195 90.7895C81.6371 92.306 83.037 93.7495 84.5677 93.3137L139.447 77.688C139.634 77.6349 139.762 77.4646 139.762 77.2708V57.7792C139.762 56.6628 138.847 55.7636 137.73 55.784L97.8192 56.515Z" fill="#FFF3DC"/>
<path d="M95.1932 48.797L95.486 48.9833L95.486 48.9833L95.1932 48.797ZM150.017 111.262V111.609H150.364V111.262H150.017ZM141.537 111.262H141.19V111.609H141.537V111.262ZM94.6429 55.2418L94.95 55.4035L94.95 55.4035L94.6429 55.2418ZM79.0207 95.1189L78.6767 95.0732L78.6737 95.096L78.6737 95.1189L79.0207 95.1189ZM79.0207 119.046L78.7739 119.29L79.3678 119.89L79.3678 119.046L79.0207 119.046ZM71.5264 118.943H71.1793V119.29H71.5264V118.943ZM71.6096 102.515L71.9424 102.614L71.9424 102.614L71.6096 102.515ZM79.121 132.436H78.7739V132.783H79.121V132.436ZM107.814 132.436V132.783H108.162L108.161 132.435L107.814 132.436ZM107.814 132.326H107.467L107.467 132.327L107.814 132.326ZM128.719 111.262L128.722 111.61L129.066 111.606V111.262H128.719ZM128.719 111.262V110.915H128.371V111.262H128.719ZM141.451 111.262V111.609H141.798V111.262H141.451ZM94.7197 55.2822L95.0268 55.4439L95.0268 55.4439L94.7197 55.2822ZM79.1075 95.1246L78.7634 95.0789L78.7604 95.1017L78.7604 95.1246L79.1075 95.1246ZM79.1075 119.194L78.7604 119.194L78.7604 119.243L78.774 119.29L79.1075 119.194ZM96.1961 57.413L96.4877 57.6011L96.4877 57.6011L96.1961 57.413ZM97.8192 56.515L97.8128 56.168L97.8128 56.168L97.8192 56.515ZM84.7399 82.5518L85.0706 82.657L85.0744 82.6451L85.0773 82.633L84.7399 82.5518ZM82.1195 90.7895L81.7888 90.6843L81.7888 90.6843L82.1195 90.7895ZM84.5677 93.3137L84.6627 93.6474L84.6627 93.6474L84.5677 93.3137ZM139.447 77.688L139.542 78.0218L139.542 78.0218L139.447 77.688ZM137.73 55.784L137.724 55.437L137.724 55.437L137.73 55.784ZM96.8751 47.5253C96.0759 47.5253 95.329 47.9372 94.9004 48.6107L95.486 48.9833C95.7877 48.5092 96.3141 48.2194 96.8751 48.2194V47.5253ZM148.022 47.5253H96.8751V48.2194H148.022V47.5253ZM150.364 49.8679C150.364 48.5741 149.316 47.5253 148.022 47.5253V48.2194C148.932 48.2194 149.67 48.9575 149.67 49.8679H150.364ZM150.364 111.262V49.8679H149.67V111.262H150.364ZM141.537 111.609H150.017V110.915H141.537V111.609ZM141.19 56.1674V111.262H141.884V56.1674H141.19ZM139.542 54.5189C140.452 54.5189 141.19 55.257 141.19 56.1674H141.884C141.884 54.8736 140.836 53.8248 139.542 53.8248V54.5189ZM96.4101 54.5189H139.542V53.8248H96.4101V54.5189ZM94.95 55.4035C95.2353 54.8618 95.8 54.5189 96.4101 54.5189V53.8248C95.5403 53.8248 94.7402 54.3123 94.3358 55.0801L94.95 55.4035ZM79.3647 95.1646C80.9536 83.2003 85.5791 73.198 94.95 55.4035L94.3358 55.0801C84.9681 72.8687 80.2838 82.9714 78.6767 95.0732L79.3647 95.1646ZM79.3678 119.046L79.3678 95.1189L78.6737 95.1189L78.6737 119.046L79.3678 119.046ZM78.7739 119.29L78.7739 119.29L79.2675 118.802C79.1421 118.675 78.9669 118.596 78.7739 118.596V119.29ZM71.5264 119.29H78.7739V118.596H71.5264V119.29ZM71.1793 103.086V118.943H71.8734V103.086H71.1793ZM71.2769 102.417C71.2131 102.632 71.1793 102.86 71.1793 103.086H71.8734C71.8734 102.928 71.8972 102.766 71.9424 102.614L71.2769 102.417ZM94.9004 48.6107C84.0219 65.7071 78.6506 77.5463 71.2769 102.417L71.9424 102.614C79.3009 77.7947 84.6477 66.0166 95.486 48.9833L94.9004 48.6107ZM79.121 132.783H107.814V132.089H79.121V132.783ZM108.161 132.435L108.161 132.325L107.467 132.327L107.467 132.437L108.161 132.435ZM108.161 132.326C108.161 120.949 117.348 111.713 128.722 111.61L128.715 110.915C116.962 111.023 107.467 120.567 107.467 132.326H108.161ZM129.066 111.262V111.262H128.371V111.262H129.066ZM128.719 111.609H128.916V110.915H128.719V111.609ZM128.916 111.609H141.451V110.915H128.916V111.609ZM141.798 111.262V56.1674H141.104V111.262H141.798ZM141.798 56.1674C141.798 54.9216 140.788 53.9116 139.542 53.9116V54.6057C140.404 54.6057 141.104 55.3049 141.104 56.1674H141.798ZM139.542 53.9116H96.4101V54.6057H139.542V53.9116ZM96.4101 53.9116C95.5727 53.9116 94.8021 54.381 94.4126 55.1205L95.0268 55.4439C95.2972 54.9305 95.8325 54.6057 96.4101 54.6057V53.9116ZM94.4126 55.1205C85.0459 72.9071 80.369 82.9968 78.7634 95.0789L79.4515 95.1704C81.0388 83.2257 85.657 73.2364 95.0268 55.4439L94.4126 55.1205ZM78.7604 95.1246L78.7604 119.194L79.4545 119.194L79.4545 95.1246L78.7604 95.1246ZM78.774 119.29L78.7739 119.29H79.468C79.468 119.224 79.4587 119.159 79.441 119.098L78.774 119.29ZM78.7739 119.29V132.436H79.468V119.29H78.7739ZM96.4877 57.6011C96.7799 57.148 97.2821 56.872 97.8255 56.862L97.8128 56.168C97.0425 56.1821 96.3243 56.5738 95.9044 57.225L96.4877 57.6011ZM85.0773 82.633C86.4067 77.1044 90.3288 67.1519 96.4877 57.6011L95.9044 57.225C89.7076 66.8344 85.752 76.8585 84.4025 82.4707L85.0773 82.633ZM82.4503 90.8947L85.0706 82.657L84.4092 82.4466L81.7888 90.6843L82.4503 90.8947ZM84.4726 92.9799C83.2082 93.3399 82.0517 92.1475 82.4503 90.8947L81.7888 90.6843C81.2225 92.4646 82.8659 94.159 84.6627 93.6474L84.4726 92.9799ZM139.352 77.3542L84.4726 92.9799L84.6627 93.6474L139.542 78.0218L139.352 77.3542ZM139.415 77.2708C139.415 77.3096 139.39 77.3436 139.352 77.3542L139.542 78.0218C139.878 77.9263 140.11 77.6197 140.11 77.2708H139.415ZM139.415 57.7792V77.2708H140.11V57.7792H139.415ZM137.737 56.131C138.659 56.1141 139.415 56.857 139.415 57.7792H140.11C140.11 56.4687 139.034 55.413 137.724 55.437L137.737 56.131ZM97.8255 56.862L137.737 56.131L137.724 55.437L97.8128 56.168L97.8255 56.862Z" fill="black" mask="url(#path-5-inside-1)"/>
<mask id="path-7-inside-2" fill="white">
<path fill-rule="evenodd" clip-rule="evenodd" d="M155.229 48.2661H150.101V120.317H155.229V48.2661ZM175.345 116.505H155.229V120.317H165.681L175.345 116.505Z"/>
</mask>
<path fill-rule="evenodd" clip-rule="evenodd" d="M155.229 48.2661H150.101V120.317H155.229V48.2661ZM175.345 116.505H155.229V120.317H165.681L175.345 116.505Z" fill="#FFF3DC"/>
<path d="M150.101 48.2661V47.919H149.754V48.2661H150.101ZM155.229 48.2661H155.576V47.919H155.229V48.2661ZM150.101 120.317H149.754V120.664H150.101V120.317ZM155.229 120.317V120.664H155.576V120.317H155.229ZM155.229 116.505V116.158H154.882V116.505H155.229ZM175.345 116.505L175.472 116.828L175.345 116.158V116.505ZM155.229 120.317H154.882V120.664H155.229V120.317ZM165.681 120.317V120.664H165.747L165.808 120.64L165.681 120.317ZM150.101 48.6131H155.229V47.919H150.101V48.6131ZM150.448 120.317V48.2661H149.754V120.317H150.448ZM155.229 119.97H150.101V120.664H155.229V119.97ZM154.882 48.2661V120.317H155.576V48.2661H154.882ZM155.229 116.852H175.345V116.158H155.229V116.852ZM155.576 120.317V116.505H154.882V120.317H155.576ZM165.681 119.97H155.229V120.664H165.681V119.97ZM175.217 116.182L165.554 119.994L165.808 120.64L175.472 116.828L175.217 116.182Z" fill="black" mask="url(#path-7-inside-2)"/>
<path d="M138.997 111.3L143.268 111.3C146.68 117.905 149.695 120.066 151.978 128.622C154.261 137.178 150.813 130.161 150.813 130.161C147.268 121.749 144.429 117.537 138.997 111.3Z" fill="black"/>
<path d="M128.426 113.415C138.196 113.415 146.111 121.321 146.111 131.081C146.111 140.84 138.196 148.746 128.426 148.746C118.657 148.746 110.742 140.84 110.742 131.081C110.742 121.321 118.68 113.415 128.426 113.415ZM128.426 144.312C135.754 144.312 141.672 138.377 141.672 131.081C141.672 123.784 135.73 117.849 128.426 117.849C121.123 117.849 115.181 123.784 115.181 131.081C115.181 138.377 121.123 144.312 128.426 144.312Z" fill="url(#paint0_radial)"/>
<path d="M128.497 144.265C121.169 144.265 115.228 138.331 115.228 131.01C115.228 123.69 121.169 117.755 128.497 117.755C135.825 117.755 141.766 123.69 141.766 131.01C141.766 138.331 135.825 144.265 128.497 144.265Z" fill="url(#paint1_radial)"/>
<path d="M127.98 124.347L129.131 124.3L129.742 125.262L129.202 126.295L128.051 126.342L127.44 125.356L127.98 124.347Z" fill="url(#paint2_radial)"/>
<path d="M127.98 135.843L129.131 135.796L129.742 136.758L129.202 137.79L128.051 137.837L127.44 136.852L127.98 135.843Z" fill="url(#paint3_radial)"/>
<path d="M132.983 125.896L133.828 126.67L133.593 127.796L132.489 128.125L131.644 127.35L131.902 126.224L132.983 125.896Z" fill="url(#paint4_radial)"/>
<path d="M124.857 134.013L125.702 134.787L125.444 135.914L124.34 136.265L123.495 135.468L123.753 134.365L124.857 134.013Z" fill="url(#paint5_radial)"/>
<path d="M135.402 130.471L135.449 131.597L134.462 132.23L133.453 131.691L133.406 130.541L134.368 129.931L135.402 130.471Z" fill="url(#paint6_radial)"/>
<path d="M123.894 130.471L123.941 131.597L122.955 132.23L121.945 131.691L121.898 130.541L122.861 129.931L123.894 130.471Z" fill="url(#paint7_radial)"/>
<path d="M133.852 135.397L133.077 136.242L131.949 135.984L131.62 134.881L132.395 134.037L133.523 134.295L133.852 135.397Z" fill="url(#paint8_radial)"/>
<path d="M125.726 127.257L124.951 128.101L123.823 127.843L123.471 126.764L124.269 125.919L125.373 126.154L125.726 127.257Z" fill="url(#paint9_radial)"/>
<path d="M272.216 116.187C281.986 116.187 289.901 124.093 289.901 133.853C289.901 143.613 281.986 151.519 272.216 151.519C262.447 151.519 254.532 143.613 254.532 133.853C254.532 124.093 262.47 116.187 272.216 116.187ZM272.216 147.085C279.544 147.085 285.462 141.149 285.462 133.853C285.462 126.557 279.52 120.621 272.216 120.621C264.913 120.621 258.971 126.557 258.971 133.853C258.971 141.149 264.913 147.085 272.216 147.085Z" fill="url(#paint10_radial)"/>
<path d="M272.287 147.038C264.959 147.038 259.018 141.103 259.018 133.783C259.018 126.462 264.959 120.527 272.287 120.527C279.615 120.527 285.556 126.462 285.556 133.783C285.556 141.103 279.615 147.038 272.287 147.038Z" fill="url(#paint11_radial)"/>
<path d="M271.77 127.12L272.921 127.073L273.532 128.035L272.992 129.067L271.841 129.114L271.23 128.129L271.77 127.12Z" fill="url(#paint12_radial)"/>
<path d="M271.77 138.616L272.921 138.569L273.532 139.53L272.992 140.563L271.841 140.61L271.23 139.624L271.77 138.616Z" fill="url(#paint13_radial)"/>
<path d="M276.773 128.668L277.618 129.442L277.383 130.569L276.28 130.897L275.434 130.123L275.692 128.997L276.773 128.668Z" fill="url(#paint14_radial)"/>
<path d="M268.647 136.786L269.492 137.56L269.234 138.686L268.13 139.038L267.285 138.24L267.543 137.138L268.647 136.786Z" fill="url(#paint15_radial)"/>
<path d="M279.191 133.243L279.238 134.369L278.252 135.003L277.242 134.463L277.195 133.313L278.158 132.703L279.191 133.243Z" fill="url(#paint16_radial)"/>
<path d="M267.683 133.243L267.73 134.369L266.744 135.003L265.734 134.463L265.687 133.313L266.65 132.703L267.683 133.243Z" fill="url(#paint17_radial)"/>
<path d="M277.641 138.17L276.866 139.014L275.739 138.756L275.41 137.654L276.185 136.809L277.312 137.067L277.641 138.17Z" fill="url(#paint18_radial)"/>
<path d="M269.515 130.029L268.74 130.874L267.613 130.615L267.261 129.536L268.059 128.692L269.163 128.926L269.515 130.029Z" fill="url(#paint19_radial)"/>
<mask id="path-30-inside-3" fill="white">
<path fill-rule="evenodd" clip-rule="evenodd" d="M198.916 116.553H200.888V126.396H222.582V116.553H224.554V126.396H246.247V116.553H248.22V128.365H246.247L224.554 128.365V128.365H222.582V128.365H200.888V128.365H198.916V128.365H177.223V128.365H175.25V116.554H177.223V126.396H198.916V116.553Z"/>
</mask>
<path fill-rule="evenodd" clip-rule="evenodd" d="M198.916 116.553H200.888V126.396H222.582V116.553H224.554V126.396H246.247V116.553H248.22V128.365H246.247L224.554 128.365V128.365H222.582V128.365H200.888V128.365H198.916V128.365H177.223V128.365H175.25V116.554H177.223V126.396H198.916V116.553Z" fill="#B8B8B8"/>
<path d="M200.888 116.553H201.235V116.206H200.888V116.553ZM198.916 116.553V116.206H198.569V116.553H198.916ZM200.888 126.396H200.541V126.743H200.888V126.396ZM222.582 126.396V126.743H222.929V126.396H222.582ZM222.582 116.553V116.206H222.235V116.553H222.582ZM224.554 116.553H224.901V116.206H224.554V116.553ZM224.554 126.396H224.207V126.743H224.554V126.396ZM246.247 126.396V126.743H246.594V126.396H246.247ZM246.247 116.553V116.206H245.9V116.553H246.247ZM248.22 116.553H248.567V116.206H248.22V116.553ZM248.22 128.365V128.712H248.567V128.365H248.22ZM246.247 128.365L246.247 128.712H246.247V128.365ZM224.554 128.365L224.554 128.018L224.207 128.018V128.365H224.554ZM224.554 128.365V128.712H224.901V128.365H224.554ZM222.582 128.365H222.235V128.712H222.582V128.365ZM222.582 128.365H222.929V128.018H222.582V128.365ZM200.888 128.365V128.018H200.541V128.365H200.888ZM200.888 128.365V128.712H201.235V128.365H200.888ZM198.916 128.365H198.569V128.712H198.916V128.365ZM198.916 128.365H199.263V128.018H198.916V128.365ZM177.223 128.365V128.018H176.876V128.365H177.223ZM177.223 128.365V128.712H177.57V128.365H177.223ZM175.25 128.365H174.903V128.712H175.25V128.365ZM175.25 116.554V116.207H174.903V116.554H175.25ZM177.223 116.554H177.57V116.207H177.223V116.554ZM177.223 126.396H176.876V126.743H177.223V126.396ZM198.916 126.396V126.743H199.263V126.396H198.916ZM200.888 116.206H198.916V116.9H200.888V116.206ZM201.235 126.396V116.553H200.541V126.396H201.235ZM200.888 126.743H222.582V126.049H200.888V126.743ZM222.929 126.396V116.553H222.235V126.396H222.929ZM222.582 116.9H224.554V116.206H222.582V116.9ZM224.207 116.553V126.396H224.901V116.553H224.207ZM224.554 126.743H246.247V126.049H224.554V126.743ZM245.9 116.553V126.396H246.594V116.553H245.9ZM248.22 116.206H246.247V116.9H248.22V116.206ZM248.567 128.365V116.553H247.872V128.365H248.567ZM246.247 128.712H248.22V128.018H246.247V128.712ZM246.247 128.018L224.554 128.018L224.554 128.712L246.247 128.712L246.247 128.018ZM224.207 128.365V128.365H224.901V128.365H224.207ZM224.554 128.018H222.582V128.712H224.554V128.018ZM222.929 128.365V128.365H222.235V128.365H222.929ZM222.582 128.018H200.888V128.712H222.582V128.018ZM201.235 128.365V128.365H200.541V128.365H201.235ZM198.916 128.712H200.888V128.018H198.916V128.712ZM198.569 128.365V128.365H199.263V128.365H198.569ZM198.916 128.018H177.223V128.712H198.916V128.018ZM177.57 128.365V128.365H176.876V128.365H177.57ZM175.25 128.712H177.223V128.018H175.25V128.712ZM174.903 116.554V128.365H175.598V116.554H174.903ZM177.223 116.207H175.25V116.901H177.223V116.207ZM177.57 126.396V116.554H176.876V126.396H177.57ZM177.223 126.743H198.916V126.049H177.223V126.743ZM198.569 116.553V126.396H199.263V116.553H198.569Z" fill="black" mask="url(#path-30-inside-3)"/>
<mask id="path-32-inside-4" fill="white">
<path fill-rule="evenodd" clip-rule="evenodd" d="M321.156 116.54H319.184V126.383H297.491V116.54H295.519V128.352H297.491V128.351H319.184V128.351H321.156V128.351H330C330.003 128.351 330.005 128.351 330.007 128.351H334.393C334.489 128.351 334.567 128.274 334.567 128.178V120.65C334.567 120.555 334.489 120.477 334.393 120.477H330.007C329.911 120.477 329.834 120.555 329.834 120.65V126.383H321.156V116.54Z"/>
</mask>
<path fill-rule="evenodd" clip-rule="evenodd" d="M321.156 116.54H319.184V126.383H297.491V116.54H295.519V128.352H297.491V128.351H319.184V128.351H321.156V128.351H330C330.003 128.351 330.005 128.351 330.007 128.351H334.393C334.489 128.351 334.567 128.274 334.567 128.178V120.65C334.567 120.555 334.489 120.477 334.393 120.477H330.007C329.911 120.477 329.834 120.555 329.834 120.65V126.383H321.156V116.54Z" fill="#B8B8B8"/>
<path d="M319.184 116.54V116.193H318.837V116.54H319.184ZM321.156 116.54H321.503V116.193H321.156V116.54ZM319.184 126.383V126.73H319.531V126.383H319.184ZM297.491 126.383H297.144V126.73H297.491V126.383ZM297.491 116.54H297.838V116.193H297.491V116.54ZM295.519 116.54V116.193H295.172V116.54H295.519ZM295.519 128.352H295.172V128.699H295.519V128.352ZM297.491 128.352V128.699H297.838V128.352H297.491ZM297.491 128.351V128.004H297.144V128.351H297.491ZM319.184 128.351H319.531V128.004H319.184V128.351ZM319.184 128.351H318.837V128.698H319.184V128.351ZM321.156 128.351V128.698H321.503V128.351H321.156ZM321.156 128.351V128.004H320.809V128.351H321.156ZM330 128.351L330.014 128.004H330V128.351ZM329.834 126.383V126.73H330.181V126.383H329.834ZM321.156 126.383H320.809V126.73H321.156V126.383ZM319.184 116.887H321.156V116.193H319.184V116.887ZM319.531 126.383V116.54H318.837V126.383H319.531ZM297.491 126.73H319.184V126.036H297.491V126.73ZM297.144 116.54V126.383H297.838V116.54H297.144ZM295.519 116.887H297.491V116.193H295.519V116.887ZM295.866 128.352V116.54H295.172V128.352H295.866ZM297.491 128.005H295.519V128.699H297.491V128.005ZM297.144 128.351V128.352H297.838V128.351H297.144ZM319.184 128.004H297.491V128.698H319.184V128.004ZM319.531 128.351V128.351H318.837V128.351H319.531ZM321.156 128.004H319.184V128.698H321.156V128.004ZM320.809 128.351V128.351H321.503V128.351H320.809ZM330 128.004H321.156V128.698H330V128.004ZM330.007 128.004C330.009 128.004 330.011 128.004 330.014 128.004L329.987 128.698C329.994 128.698 330 128.698 330.007 128.698V128.004ZM334.393 128.004H330.007V128.698H334.393V128.004ZM334.22 128.178C334.22 128.082 334.297 128.004 334.393 128.004V128.698C334.681 128.698 334.914 128.465 334.914 128.178H334.22ZM334.22 120.65V128.178H334.914V120.65H334.22ZM334.393 120.824C334.297 120.824 334.22 120.746 334.22 120.65H334.914C334.914 120.363 334.681 120.13 334.393 120.13V120.824ZM330.007 120.824H334.393V120.13H330.007V120.824ZM330.181 120.65C330.181 120.746 330.103 120.824 330.007 120.824V120.13C329.72 120.13 329.486 120.363 329.486 120.65H330.181ZM330.181 126.383V120.65H329.486V126.383H330.181ZM321.156 126.73H329.834V126.036H321.156V126.73ZM320.809 116.54V126.383H321.503V116.54H320.809Z" fill="black" mask="url(#path-32-inside-4)"/>
<rect x="155.276" y="96.6525" width="175.173" height="19.7327" rx="0.260289" fill="#FFF3DC" stroke="black" stroke-width="0.347052"/>
<path d="M166.813 101.89L171.117 109.057C171.152 109.115 171.111 109.188 171.043 109.188H162.434C162.366 109.188 162.324 109.115 162.359 109.057L166.664 101.89C166.698 101.834 166.779 101.834 166.813 101.89Z" fill="#FF0000" stroke="black" stroke-width="0.173526"/>
<path d="M319.061 101.89L323.366 109.057C323.401 109.115 323.359 109.188 323.292 109.188H314.682C314.615 109.188 314.573 109.115 314.608 109.057L318.912 101.89C318.946 101.834 319.028 101.834 319.061 101.89Z" fill="#FF0000" stroke="black" stroke-width="0.173526"/>
<path d="M284.042 116.496L288.144 116.496C290.127 120.863 292.478 121.983 293.131 127.987C293.785 133.99 291.837 129.323 291.837 129.323C290.029 123.631 287.896 120.261 284.042 116.496Z" fill="black"/>
<path d="M260.516 116.496L256.414 116.496C254.431 120.863 252.08 121.983 251.426 127.987C250.773 133.99 252.721 129.323 252.721 129.323C254.529 123.631 256.661 120.261 260.516 116.496Z" fill="black"/>
<path d="M85.8552 86.8099C85.5247 90.4077 84.3755 91.093 81.5944 91.3051" stroke="black" stroke-width="0.0867631"/>
<path d="M87.119 76.6695C87.1295 76.6289 87.1675 76.6006 87.2094 76.6022L88.208 76.6387C88.2601 76.6406 88.2974 76.6871 88.2878 76.7381L85.5395 91.3456C85.5269 91.4122 85.4459 91.4418 85.3953 91.3983L83.7294 89.9652C83.7053 89.9444 83.6953 89.9118 83.7034 89.8804L87.119 76.6695Z" fill="black"/>
<g filter="url(#filter0_d)">
<rect x="-0.867631" y="0.867631" width="173.787" height="49.9639" transform="matrix(-1 0 0 1 328.905 44.5004)" stroke="#2F80ED" stroke-width="1.73526"/>
<rect x="-0.867631" y="0.867631" width="173.787" height="10.7861" transform="matrix(-1 0 0 1 328.905 44.5004)" stroke="#2F80ED" stroke-width="1.73526"/>
<rect x="-0.867631" y="0.867631" width="173.787" height="10.7861" transform="matrix(-1 0 0 1 328.905 83.6782)" stroke="#2F80ED" stroke-width="1.73526"/>
<path d="M319.517 45.3923L319.517 95.3377L329.773 95.3377L329.773 45.3923L319.517 45.3923Z" stroke="#2F80ED" stroke-width="1.73526"/>
<rect x="0.867631" y="0.867631" width="49.9639" height="10.4654" transform="matrix(4.11296e-08 1 1 -4.64552e-08 155.118 44.5004)" stroke="#2F80ED" stroke-width="1.73526"/>
<path d="M155.789 70.3752L160.695 83.4834L166.066 70.127L161.166 56.7156L155.789 70.3752Z" fill="#2F80ED"/>
<path d="M319.503 70.6812L324.409 83.7895L329.78 70.433L324.88 57.0217L319.503 70.6812Z" fill="#2F80ED"/>
<rect x="0.867631" y="0.867631" width="49.9639" height="21.0791" transform="matrix(4.27973e-08 1 1 -4.4645e-08 166.109 44.6674)" stroke="#2F80ED" stroke-width="1.73526"/>
<path d="M177.381 45.8545L167.199 51.0672L177.381 56.2798L187.795 51.0672L177.381 45.8545Z" fill="#2F80ED"/>
<path d="M177.381 84.9211L167.199 90.1337L177.381 95.3463L187.795 90.1337L177.381 84.9211Z" fill="#2F80ED"/>
<line y1="-0.867631" x2="35.1418" y2="-0.867631" transform="matrix(-0.612409 0.790541 0.77778 0.628536 188.339 57.0217)" stroke="#2F80ED" stroke-width="1.73526"/>
<line y1="-0.867631" x2="35.1418" y2="-0.867631" transform="matrix(0.612409 0.790541 -0.77778 0.628537 166.817 57.0217)" stroke="#2F80ED" stroke-width="1.73526"/>
<path d="M188.304 56.78L184.253 56.78L188.299 60.9729L188.304 56.78Z" fill="#2F80ED"/>
<path d="M188.252 83.9757L184.201 83.9756L188.247 79.7827L188.252 83.9757Z" fill="#2F80ED"/>
<path d="M166.796 56.7568L170.848 56.7568L166.801 60.9497L166.796 56.7568Z" fill="#2F80ED"/>
<path d="M166.744 83.9989L170.795 83.9989L166.749 79.806L166.744 83.9989Z" fill="#2F80ED"/>
<path fill-rule="evenodd" clip-rule="evenodd" d="M179.895 70.8879C180.418 70.524 180.766 69.8813 180.766 69.1492C180.766 68.0144 179.931 67.0945 178.901 67.0945C178.326 67.0945 177.812 67.3811 177.47 67.8317C177.128 67.3811 176.614 67.0945 176.04 67.0945C175.01 67.0945 174.175 68.0144 174.175 69.1493C174.175 69.8813 174.523 70.524 175.046 70.8879L177.47 73.383L179.895 70.8879Z" fill="#2F80ED"/>
<rect x="0.867631" y="0.867631" width="49.9639" height="21.0791" transform="matrix(4.27973e-08 1 1 -4.4645e-08 187.903 44.6674)" stroke="#2F80ED" stroke-width="1.73526"/>
<path d="M199.175 45.8545L188.993 51.0671L199.175 56.2797L209.589 51.0671L199.175 45.8545Z" fill="#2F80ED"/>
<path d="M199.175 84.9211L188.993 90.1337L199.175 95.3463L209.589 90.1337L199.175 84.9211Z" fill="#2F80ED"/>
<line y1="-0.867631" x2="35.1418" y2="-0.867631" transform="matrix(-0.612409 0.790541 0.77778 0.628536 210.134 57.0217)" stroke="#2F80ED" stroke-width="1.73526"/>
<line y1="-0.867631" x2="35.1418" y2="-0.867631" transform="matrix(0.612409 0.790541 -0.77778 0.628536 188.611 57.0217)" stroke="#2F80ED" stroke-width="1.73526"/>
<path d="M210.099 56.78L206.047 56.78L210.094 60.9729L210.099 56.78Z" fill="#2F80ED"/>
<path d="M210.046 83.9757L205.995 83.9756L210.042 79.7827L210.046 83.9757Z" fill="#2F80ED"/>
<path d="M188.59 56.7567L192.642 56.7567L188.595 60.9496L188.59 56.7567Z" fill="#2F80ED"/>
<path d="M188.538 83.9989L192.589 83.9989L188.543 79.806L188.538 83.9989Z" fill="#2F80ED"/>
<path fill-rule="evenodd" clip-rule="evenodd" d="M201.689 70.8885C202.212 70.5247 202.56 69.8817 202.56 69.1492C202.56 68.0144 201.725 67.0944 200.696 67.0944C200.121 67.0944 199.607 67.3811 199.265 67.8319C198.923 67.3811 198.409 67.0944 197.834 67.0944C196.804 67.0944 195.969 68.0144 195.969 69.1492C195.969 69.8813 196.317 70.524 196.84 70.8879L199.265 73.3829L201.689 70.8885Z" fill="#2F80ED"/>
<rect x="0.867631" y="0.867631" width="49.9639" height="21.079" transform="matrix(4.27973e-08 1 1 -4.4645e-08 209.698 44.6674)" stroke="#2F80ED" stroke-width="1.73526"/>
<path d="M220.97 45.8545L210.788 51.0672L220.97 56.2798L231.384 51.0672L220.97 45.8545Z" fill="#2F80ED"/>
<path d="M220.97 84.9211L210.788 90.1337L220.97 95.3463L231.384 90.1337L220.97 84.9211Z" fill="#2F80ED"/>
<line y1="-0.867631" x2="35.1418" y2="-0.867631" transform="matrix(-0.612409 0.790541 0.77778 0.628537 231.929 57.0217)" stroke="#2F80ED" stroke-width="1.73526"/>
<line y1="-0.867631" x2="35.1418" y2="-0.867631" transform="matrix(0.612409 0.790541 -0.77778 0.628537 210.406 57.0217)" stroke="#2F80ED" stroke-width="1.73526"/>
<path d="M231.893 56.78L227.842 56.78L231.889 60.9729L231.893 56.78Z" fill="#2F80ED"/>
<path d="M231.841 83.9757L227.79 83.9756L231.837 79.7827L231.841 83.9757Z" fill="#2F80ED"/>
<path d="M210.386 56.7568L214.437 56.7568L210.391 60.9497L210.386 56.7568Z" fill="#2F80ED"/>
<path d="M210.334 83.9989L214.385 83.9989L210.338 79.806L210.334 83.9989Z" fill="#2F80ED"/>
<path fill-rule="evenodd" clip-rule="evenodd" d="M223.485 70.8879C224.008 70.524 224.355 69.8813 224.355 69.1492C224.355 68.0144 223.52 67.0945 222.491 67.0945C221.916 67.0945 221.402 67.3811 221.06 67.8318C220.718 67.3811 220.204 67.0945 219.629 67.0945C218.599 67.0945 217.765 68.0144 217.765 69.1492C217.765 69.8814 218.112 70.5241 218.635 70.888L221.06 73.383L223.485 70.8879Z" fill="#2F80ED"/>
<rect x="0.867631" y="0.867631" width="49.9639" height="21.079" transform="matrix(4.27973e-08 1 1 -4.4645e-08 231.492 44.6674)" stroke="#2F80ED" stroke-width="1.73526"/>
<path d="M242.764 45.8545L232.582 51.0671L242.764 56.2797L253.178 51.0671L242.764 45.8545Z" fill="#2F80ED"/>
<path d="M242.764 84.9211L232.582 90.1337L242.764 95.3463L253.178 90.1337L242.764 84.9211Z" fill="#2F80ED"/>
<line y1="-0.867631" x2="35.1418" y2="-0.867631" transform="matrix(-0.612409 0.790541 0.77778 0.628536 253.723 57.0217)" stroke="#2F80ED" stroke-width="1.73526"/>
<line y1="-0.867631" x2="35.1418" y2="-0.867631" transform="matrix(0.612409 0.790541 -0.77778 0.628537 232.201 57.0217)" stroke="#2F80ED" stroke-width="1.73526"/>
<path d="M253.688 56.78L249.637 56.78L253.683 60.9729L253.688 56.78Z" fill="#2F80ED"/>
<path d="M253.636 83.9757L249.584 83.9756L253.631 79.7827L253.636 83.9757Z" fill="#2F80ED"/>
<path d="M232.18 56.7567L236.231 56.7567L232.184 60.9496L232.18 56.7567Z" fill="#2F80ED"/>
<path d="M232.128 83.9989L236.179 83.9989L232.132 79.806L232.128 83.9989Z" fill="#2F80ED"/>
<path fill-rule="evenodd" clip-rule="evenodd" d="M245.278 70.8885C245.802 70.5247 246.149 69.8817 246.149 69.1492C246.149 68.0144 245.315 67.0944 244.285 67.0944C243.71 67.0944 243.196 67.3811 242.854 67.8319C242.512 67.3812 241.998 67.0944 241.423 67.0944C240.393 67.0944 239.559 68.0144 239.559 69.1492C239.559 69.8813 239.906 70.5241 240.429 70.888L242.854 73.3829L245.278 70.8885Z" fill="#2F80ED"/>
<rect x="0.867631" y="0.867631" width="49.9639" height="21.0791" transform="matrix(4.27973e-08 1 1 -4.4645e-08 253.287 44.6674)" stroke="#2F80ED" stroke-width="1.73526"/>
<path d="M264.559 45.8545L254.377 51.0671L264.559 56.2797L274.973 51.0671L264.559 45.8545Z" fill="#2F80ED"/>
<path d="M264.559 84.9211L254.377 90.1337L264.559 95.3463L274.973 90.1337L264.559 84.9211Z" fill="#2F80ED"/>
<line y1="-0.867631" x2="35.1418" y2="-0.867631" transform="matrix(-0.612409 0.790541 0.77778 0.628537 275.518 57.0217)" stroke="#2F80ED" stroke-width="1.73526"/>
<line y1="-0.867631" x2="35.1418" y2="-0.867631" transform="matrix(0.612409 0.790541 -0.77778 0.628536 253.995 57.0217)" stroke="#2F80ED" stroke-width="1.73526"/>
<path d="M275.482 56.78L271.431 56.78L275.478 60.9729L275.482 56.78Z" fill="#2F80ED"/>
<path d="M275.43 83.9757L271.379 83.9756L275.425 79.7827L275.43 83.9757Z" fill="#2F80ED"/>
<path d="M253.975 56.7567L258.026 56.7567L253.979 60.9496L253.975 56.7567Z" fill="#2F80ED"/>
<path d="M253.922 83.9989L257.974 83.9989L253.927 79.806L253.922 83.9989Z" fill="#2F80ED"/>
<path fill-rule="evenodd" clip-rule="evenodd" d="M267.073 70.8881C267.596 70.5242 267.944 69.8814 267.944 69.1492C267.944 68.0144 267.109 67.0944 266.079 67.0944C265.505 67.0944 264.991 67.3811 264.649 67.8318C264.307 67.3811 263.793 67.0944 263.218 67.0944C262.188 67.0944 261.353 68.0144 261.353 69.1492C261.353 69.8813 261.701 70.524 262.224 70.888L264.649 73.3829L267.073 70.8881Z" fill="#2F80ED"/>
<rect x="0.867631" y="0.867631" width="49.9639" height="21.079" transform="matrix(4.27973e-08 1 1 -4.4645e-08 275.082 44.6674)" stroke="#2F80ED" stroke-width="1.73526"/>
<path d="M286.353 45.8545L276.171 51.0672L286.353 56.2798L296.767 51.0672L286.353 45.8545Z" fill="#2F80ED"/>
<path d="M286.353 84.9211L276.171 90.1337L286.353 95.3463L296.767 90.1337L286.353 84.9211Z" fill="#2F80ED"/>
<line y1="-0.867631" x2="35.1418" y2="-0.867631" transform="matrix(-0.612409 0.790541 0.77778 0.628537 297.312 57.0217)" stroke="#2F80ED" stroke-width="1.73526"/>
<line y1="-0.867631" x2="35.1418" y2="-0.867631" transform="matrix(0.612409 0.790541 -0.77778 0.628537 275.79 57.0217)" stroke="#2F80ED" stroke-width="1.73526"/>
<path d="M297.277 56.78L293.226 56.78L297.272 60.9729L297.277 56.78Z" fill="#2F80ED"/>
<path d="M297.225 83.9757L293.173 83.9756L297.22 79.7827L297.225 83.9757Z" fill="#2F80ED"/>
<path d="M275.769 56.7568L279.82 56.7568L275.774 60.9497L275.769 56.7568Z" fill="#2F80ED"/>
<path d="M275.717 83.9989L279.768 83.9989L275.722 79.806L275.717 83.9989Z" fill="#2F80ED"/>
<path fill-rule="evenodd" clip-rule="evenodd" d="M288.868 70.8877C289.391 70.5237 289.738 69.8812 289.738 69.1492C289.738 68.0144 288.904 67.0945 287.874 67.0945C287.299 67.0945 286.785 67.3811 286.443 67.8317C286.101 67.3811 285.587 67.0945 285.012 67.0945C283.983 67.0945 283.148 68.0144 283.148 69.1492C283.148 69.8814 283.495 70.5241 284.018 70.888L286.443 73.383L288.868 70.8877Z" fill="#2F80ED"/>
<rect x="0.867631" y="0.867631" width="49.9639" height="21.0791" transform="matrix(4.27973e-08 1 1 -4.4645e-08 296.876 44.6674)" stroke="#2F80ED" stroke-width="1.73526"/>
<path d="M308.148 45.8545L297.966 51.0671L308.148 56.2797L318.562 51.0671L308.148 45.8545Z" fill="#2F80ED"/>
<path d="M308.148 84.9211L297.966 90.1337L308.148 95.3463L318.562 90.1337L308.148 84.9211Z" fill="#2F80ED"/>
<line y1="-0.867631" x2="35.1418" y2="-0.867631" transform="matrix(-0.612409 0.790541 0.77778 0.628537 319.107 57.0217)" stroke="#2F80ED" stroke-width="1.73526"/>
<line y1="-0.867631" x2="35.1418" y2="-0.867631" transform="matrix(0.612409 0.790541 -0.77778 0.628536 297.584 57.0217)" stroke="#2F80ED" stroke-width="1.73526"/>
<path d="M319.072 56.78L315.02 56.78L319.067 60.9729L319.072 56.78Z" fill="#2F80ED"/>
<path d="M319.019 83.9757L314.968 83.9756L319.015 79.7827L319.019 83.9757Z" fill="#2F80ED"/>
<path d="M297.564 56.7567L301.615 56.7567L297.569 60.9496L297.564 56.7567Z" fill="#2F80ED"/>
<path d="M297.512 83.9989L301.563 83.9989L297.516 79.806L297.512 83.9989Z" fill="#2F80ED"/>
<path fill-rule="evenodd" clip-rule="evenodd" d="M310.663 70.8879C311.186 70.524 311.533 69.8813 311.533 69.1492C311.533 68.0144 310.698 67.0944 309.669 67.0944C309.094 67.0944 308.58 67.3811 308.238 67.8317C307.896 67.3811 307.382 67.0944 306.807 67.0944C305.777 67.0944 304.943 68.0144 304.943 69.1492C304.943 69.8814 305.29 70.5241 305.813 70.888L308.238 73.3829L310.663 70.8879Z" fill="#2F80ED"/>
<path d="M329.985 45.0477L329.985 39.2676M155.798 45.0477L155.798 39.2676" stroke="#2F80ED" stroke-width="2.16908"/>
</g>
<rect x="1.94462" y="1.94462" width="402.111" height="219.716" stroke="#5C5450" stroke-width="2.11075"/>
<defs>
<filter id="filter0_d" x="153.846" y="38.4" width="178.091" height="58.8342" filterUnits="userSpaceOnUse" color-interpolation-filters="sRGB">
<feFlood flood-opacity="0" result="BackgroundImageFix"/>
<feColorMatrix in="SourceAlpha" type="matrix" values="0 0 0 0 0 0 0 0 0 0 0 0 0 0 0 0 0 0 127 0"/>
<feOffset/>
<feGaussianBlur stdDeviation="0.433816"/>
<feColorMatrix type="matrix" values="0 0 0 0 0 0 0 0 0 0 0 0 0 0 0 0 0 0 1 0"/>
<feBlend mode="normal" in2="BackgroundImageFix" result="effect1_dropShadow"/>
<feBlend mode="normal" in="SourceGraphic" in2="effect1_dropShadow" result="shape"/>
</filter>
<radialGradient id="paint0_radial" cx="0" cy="0" r="1" gradientUnits="userSpaceOnUse" gradientTransform="translate(128.438 131.069) rotate(180) scale(17.6726 17.6541)">
<stop offset="0.7777" stop-color="#1A1A1A"/>
<stop offset="0.8882" stop-color="#333333"/>
<stop offset="1"/>
</radialGradient>
<radialGradient id="paint1_radial" cx="0" cy="0" r="1" gradientUnits="userSpaceOnUse" gradientTransform="translate(128.497 131.01) rotate(180) scale(13.2692 13.2552)">
<stop stop-color="#8D8C8C"/>
<stop offset="0.0810056" stop-color="#898989"/>
<stop offset="0.1659" stop-color="#808080"/>
<stop offset="0.2687" stop-color="#868686"/>
<stop offset="0.3295" stop-color="#A4A4A4"/>
<stop offset="0.3447" stop-color="#ACACAC"/>
<stop offset="0.5274" stop-color="#B3B3B3"/>
<stop offset="0.5715" stop-color="#A4A4A4"/>
<stop offset="0.6558" stop-color="#7D7D7D"/>
<stop offset="0.7012" stop-color="#666666"/>
<stop offset="0.7387" stop-color="#6F6F70"/>
<stop offset="0.8018" stop-color="#88898A"/>
<stop offset="0.8676" stop-color="#A8AAAC"/>
<stop offset="0.927" stop-color="#7E8486"/>
<stop offset="1" stop-color="#465053"/>
</radialGradient>
<radialGradient id="paint2_radial" cx="0" cy="0" r="1" gradientUnits="userSpaceOnUse" gradientTransform="translate(128.588 125.317) rotate(177.706) scale(1.07416 1.07302)">
<stop offset="0.00561773" stop-color="#534741"/>
<stop offset="0.1684" stop-color="#5C5450"/>
<stop offset="0.4792" stop-color="#737577"/>
<stop offset="0.6742" stop-color="#838C92"/>
<stop offset="0.9793" stop-color="#333333"/>
<stop offset="0.9852" stop-color="#3E4042"/>
<stop offset="0.9965" stop-color="#5B6469"/>
<stop offset="1" stop-color="#657076"/>
</radialGradient>
<radialGradient id="paint3_radial" cx="0" cy="0" r="1" gradientUnits="userSpaceOnUse" gradientTransform="translate(128.588 136.813) rotate(177.706) scale(1.07416 1.07302)">
<stop offset="0.00561773" stop-color="#534741"/>
<stop offset="0.1684" stop-color="#5C5450"/>
<stop offset="0.4792" stop-color="#737577"/>
<stop offset="0.6742" stop-color="#838C92"/>
<stop offset="0.9793" stop-color="#333333"/>
<stop offset="0.9852" stop-color="#3E4042"/>
<stop offset="0.9965" stop-color="#5B6469"/>
<stop offset="1" stop-color="#657076"/>
</radialGradient>
<radialGradient id="paint4_radial" cx="0" cy="0" r="1" gradientUnits="userSpaceOnUse" gradientTransform="translate(132.738 127.009) rotate(-137.328) scale(1.07365)">
<stop offset="0.00561773" stop-color="#534741"/>
<stop offset="0.1684" stop-color="#5C5450"/>
<stop offset="0.4792" stop-color="#737577"/>
<stop offset="0.6742" stop-color="#838C92"/>
<stop offset="0.9793" stop-color="#333333"/>
<stop offset="0.9852" stop-color="#3E4042"/>
<stop offset="0.9965" stop-color="#5B6469"/>
<stop offset="1" stop-color="#657076"/>
</radialGradient>
<radialGradient id="paint5_radial" cx="0" cy="0" r="1" gradientUnits="userSpaceOnUse" gradientTransform="translate(124.6 135.138) rotate(-137.328) scale(1.07364)">
<stop offset="0.00561773" stop-color="#534741"/>
<stop offset="0.1684" stop-color="#5C5450"/>
<stop offset="0.4792" stop-color="#737577"/>
<stop offset="0.6742" stop-color="#838C92"/>
<stop offset="0.9793" stop-color="#333333"/>
<stop offset="0.9852" stop-color="#3E4042"/>
<stop offset="0.9965" stop-color="#5B6469"/>
<stop offset="1" stop-color="#657076"/>
</radialGradient>
<radialGradient id="paint6_radial" cx="0" cy="0" r="1" gradientUnits="userSpaceOnUse" gradientTransform="translate(134.423 131.073) rotate(-92.2987) scale(1.07302 1.07413)">
<stop offset="0.00561773" stop-color="#534741"/>
<stop offset="0.1684" stop-color="#5C5450"/>
<stop offset="0.4792" stop-color="#737577"/>
<stop offset="0.6742" stop-color="#838C92"/>
<stop offset="0.9793" stop-color="#333333"/>
<stop offset="0.9852" stop-color="#3E4042"/>
<stop offset="0.9965" stop-color="#5B6469"/>
<stop offset="1" stop-color="#657076"/>
</radialGradient>
<radialGradient id="paint7_radial" cx="0" cy="0" r="1" gradientUnits="userSpaceOnUse" gradientTransform="translate(122.916 131.073) rotate(-92.2987) scale(1.07302 1.07413)">
<stop offset="0.00561773" stop-color="#534741"/>
<stop offset="0.1684" stop-color="#5C5450"/>
<stop offset="0.4792" stop-color="#737577"/>
<stop offset="0.6742" stop-color="#838C92"/>
<stop offset="0.9793" stop-color="#333333"/>
<stop offset="0.9852" stop-color="#3E4042"/>
<stop offset="0.9965" stop-color="#5B6469"/>
<stop offset="1" stop-color="#657076"/>
</radialGradient>
<radialGradient id="paint8_radial" cx="0" cy="0" r="1" gradientUnits="userSpaceOnUse" gradientTransform="translate(132.737 135.137) rotate(-47.2676) scale(1.07355)">
<stop offset="0.00561773" stop-color="#534741"/>
<stop offset="0.1684" stop-color="#5C5450"/>
<stop offset="0.4792" stop-color="#737577"/>
<stop offset="0.6742" stop-color="#838C92"/>
<stop offset="0.9793" stop-color="#333333"/>
<stop offset="0.9852" stop-color="#3E4042"/>
<stop offset="0.9965" stop-color="#5B6469"/>
<stop offset="1" stop-color="#657076"/>
</radialGradient>
<radialGradient id="paint9_radial" cx="0" cy="0" r="1" gradientUnits="userSpaceOnUse" gradientTransform="translate(124.6 127.008) rotate(-47.2676) scale(1.07355)">
<stop offset="0.00561773" stop-color="#534741"/>
<stop offset="0.1684" stop-color="#5C5450"/>
<stop offset="0.4792" stop-color="#737577"/>
<stop offset="0.6742" stop-color="#838C92"/>
<stop offset="0.9793" stop-color="#333333"/>
<stop offset="0.9852" stop-color="#3E4042"/>
<stop offset="0.9965" stop-color="#5B6469"/>
<stop offset="1" stop-color="#657076"/>
</radialGradient>
<radialGradient id="paint10_radial" cx="0" cy="0" r="1" gradientUnits="userSpaceOnUse" gradientTransform="translate(272.228 133.841) rotate(180) scale(17.6726 17.6541)">
<stop offset="0.7777" stop-color="#1A1A1A"/>
<stop offset="0.8882" stop-color="#333333"/>
<stop offset="1"/>
</radialGradient>
<radialGradient id="paint11_radial" cx="0" cy="0" r="1" gradientUnits="userSpaceOnUse" gradientTransform="translate(272.287 133.783) rotate(180) scale(13.2692 13.2552)">
<stop stop-color="#8D8C8C"/>
<stop offset="0.0810056" stop-color="#898989"/>
<stop offset="0.1659" stop-color="#808080"/>
<stop offset="0.2687" stop-color="#868686"/>
<stop offset="0.3295" stop-color="#A4A4A4"/>
<stop offset="0.3447" stop-color="#ACACAC"/>
<stop offset="0.5274" stop-color="#B3B3B3"/>
<stop offset="0.5715" stop-color="#A4A4A4"/>
<stop offset="0.6558" stop-color="#7D7D7D"/>
<stop offset="0.7012" stop-color="#666666"/>
<stop offset="0.7387" stop-color="#6F6F70"/>
<stop offset="0.8018" stop-color="#88898A"/>
<stop offset="0.8676" stop-color="#A8AAAC"/>
<stop offset="0.927" stop-color="#7E8486"/>
<stop offset="1" stop-color="#465053"/>
</radialGradient>
<radialGradient id="paint12_radial" cx="0" cy="0" r="1" gradientUnits="userSpaceOnUse" gradientTransform="translate(272.378 128.09) rotate(177.706) scale(1.07414 1.07302)">
<stop offset="0.00561773" stop-color="#534741"/>
<stop offset="0.1684" stop-color="#5C5450"/>
<stop offset="0.4792" stop-color="#737577"/>
<stop offset="0.6742" stop-color="#838C92"/>
<stop offset="0.9793" stop-color="#333333"/>
<stop offset="0.9852" stop-color="#3E4042"/>
<stop offset="0.9965" stop-color="#5B6469"/>
<stop offset="1" stop-color="#657076"/>
</radialGradient>
<radialGradient id="paint13_radial" cx="0" cy="0" r="1" gradientUnits="userSpaceOnUse" gradientTransform="translate(272.378 139.586) rotate(177.706) scale(1.07414 1.07302)">
<stop offset="0.00561773" stop-color="#534741"/>
<stop offset="0.1684" stop-color="#5C5450"/>
<stop offset="0.4792" stop-color="#737577"/>
<stop offset="0.6742" stop-color="#838C92"/>
<stop offset="0.9793" stop-color="#333333"/>
<stop offset="0.9852" stop-color="#3E4042"/>
<stop offset="0.9965" stop-color="#5B6469"/>
<stop offset="1" stop-color="#657076"/>
</radialGradient>
<radialGradient id="paint14_radial" cx="0" cy="0" r="1" gradientUnits="userSpaceOnUse" gradientTransform="translate(276.528 129.781) rotate(-137.328) scale(1.07364)">
<stop offset="0.00561773" stop-color="#534741"/>
<stop offset="0.1684" stop-color="#5C5450"/>
<stop offset="0.4792" stop-color="#737577"/>
<stop offset="0.6742" stop-color="#838C92"/>
<stop offset="0.9793" stop-color="#333333"/>
<stop offset="0.9852" stop-color="#3E4042"/>
<stop offset="0.9965" stop-color="#5B6469"/>
<stop offset="1" stop-color="#657076"/>
</radialGradient>
<radialGradient id="paint15_radial" cx="0" cy="0" r="1" gradientUnits="userSpaceOnUse" gradientTransform="translate(268.39 137.91) rotate(-137.328) scale(1.07365)">
<stop offset="0.00561773" stop-color="#534741"/>
<stop offset="0.1684" stop-color="#5C5450"/>
<stop offset="0.4792" stop-color="#737577"/>
<stop offset="0.6742" stop-color="#838C92"/>
<stop offset="0.9793" stop-color="#333333"/>
<stop offset="0.9852" stop-color="#3E4042"/>
<stop offset="0.9965" stop-color="#5B6469"/>
<stop offset="1" stop-color="#657076"/>
</radialGradient>
<radialGradient id="paint16_radial" cx="0" cy="0" r="1" gradientUnits="userSpaceOnUse" gradientTransform="translate(278.213 133.845) rotate(-92.2987) scale(1.07302 1.07415)">
<stop offset="0.00561773" stop-color="#534741"/>
<stop offset="0.1684" stop-color="#5C5450"/>
<stop offset="0.4792" stop-color="#737577"/>
<stop offset="0.6742" stop-color="#838C92"/>
<stop offset="0.9793" stop-color="#333333"/>
<stop offset="0.9852" stop-color="#3E4042"/>
<stop offset="0.9965" stop-color="#5B6469"/>
<stop offset="1" stop-color="#657076"/>
</radialGradient>
<radialGradient id="paint17_radial" cx="0" cy="0" r="1" gradientUnits="userSpaceOnUse" gradientTransform="translate(266.705 133.845) rotate(-92.2987) scale(1.07302 1.07414)">
<stop offset="0.00561773" stop-color="#534741"/>
<stop offset="0.1684" stop-color="#5C5450"/>
<stop offset="0.4792" stop-color="#737577"/>
<stop offset="0.6742" stop-color="#838C92"/>
<stop offset="0.9793" stop-color="#333333"/>
<stop offset="0.9852" stop-color="#3E4042"/>
<stop offset="0.9965" stop-color="#5B6469"/>
<stop offset="1" stop-color="#657076"/>
</radialGradient>
<radialGradient id="paint18_radial" cx="0" cy="0" r="1" gradientUnits="userSpaceOnUse" gradientTransform="translate(276.527 137.909) rotate(-47.2677) scale(1.07356)">
<stop offset="0.00561773" stop-color="#534741"/>
<stop offset="0.1684" stop-color="#5C5450"/>
<stop offset="0.4792" stop-color="#737577"/>
<stop offset="0.6742" stop-color="#838C92"/>
<stop offset="0.9793" stop-color="#333333"/>
<stop offset="0.9852" stop-color="#3E4042"/>
<stop offset="0.9965" stop-color="#5B6469"/>
<stop offset="1" stop-color="#657076"/>
</radialGradient>
<radialGradient id="paint19_radial" cx="0" cy="0" r="1" gradientUnits="userSpaceOnUse" gradientTransform="translate(268.389 129.78) rotate(-47.2676) scale(1.07355)">
<stop offset="0.00561773" stop-color="#534741"/>
<stop offset="0.1684" stop-color="#5C5450"/>
<stop offset="0.4792" stop-color="#737577"/>
<stop offset="0.6742" stop-color="#838C92"/>
<stop offset="0.9793" stop-color="#333333"/>
<stop offset="0.9852" stop-color="#3E4042"/>
<stop offset="0.9965" stop-color="#5B6469"/>
<stop offset="1" stop-color="#657076"/>
</radialGradient>
</defs>
</svg>
