<svg width="406" height="223" viewBox="0 0 406 223" fill="none" xmlns="http://www.w3.org/2000/svg">
<path d="M103.524 171.455L93.0776 202.704H88.3901L79.8634 177.749L71.3367 202.704H66.5599L56.1136 171.455H60.7118L69.1492 196.856L77.9438 171.455H82.0509L90.6669 196.99L99.2829 171.455H103.524ZM114.519 178.821C117.793 178.821 120.293 179.624 122.019 181.231C123.775 182.838 124.653 185.234 124.653 188.419V202.704H120.59V199.579C119.876 200.68 118.849 201.529 117.51 202.124C116.2 202.689 114.638 202.972 112.822 202.972C110.174 202.972 108.046 202.332 106.439 201.053C104.861 199.773 104.073 198.091 104.073 196.008C104.073 193.925 104.831 192.258 106.349 191.008C107.867 189.728 110.278 189.088 113.581 189.088H120.367V188.24C120.367 186.395 119.831 184.981 118.76 183.999C117.688 183.017 116.111 182.526 114.028 182.526C112.629 182.526 111.26 182.764 109.921 183.24C108.581 183.687 107.45 184.297 106.528 185.071L104.742 181.856C105.962 180.874 107.421 180.13 109.117 179.624C110.814 179.088 112.614 178.821 114.519 178.821ZM113.537 199.669C115.174 199.669 116.587 199.311 117.778 198.597C118.968 197.853 119.831 196.811 120.367 195.472V192.169H113.76C110.129 192.169 108.314 193.389 108.314 195.829C108.314 197.02 108.775 197.957 109.697 198.642C110.62 199.326 111.9 199.669 113.537 199.669ZM145.218 201.32C144.593 201.856 143.819 202.273 142.896 202.57C141.973 202.838 141.021 202.972 140.039 202.972C137.658 202.972 135.813 202.332 134.503 201.053C133.194 199.773 132.539 197.942 132.539 195.561V182.571H128.521V179.044H132.539V173.865H136.825V179.044H143.61V182.571H136.825V195.383C136.825 196.663 137.137 197.645 137.762 198.329C138.417 199.014 139.34 199.356 140.53 199.356C141.84 199.356 142.956 198.984 143.878 198.24L145.218 201.32ZM170.328 191.008C170.328 191.335 170.298 191.767 170.239 192.303H151.043C151.311 194.386 152.218 196.067 153.766 197.347C155.343 198.597 157.293 199.222 159.614 199.222C162.441 199.222 164.718 198.27 166.444 196.365L168.81 199.133C167.739 200.383 166.4 201.335 164.793 201.99C163.215 202.645 161.444 202.972 159.48 202.972C156.98 202.972 154.763 202.466 152.828 201.454C150.894 200.413 149.391 198.969 148.319 197.124C147.278 195.279 146.757 193.195 146.757 190.874C146.757 188.582 147.263 186.514 148.275 184.669C149.316 182.824 150.73 181.395 152.516 180.383C154.331 179.341 156.37 178.821 158.632 178.821C160.894 178.821 162.903 179.341 164.659 180.383C166.444 181.395 167.828 182.824 168.81 184.669C169.822 186.514 170.328 188.627 170.328 191.008ZM158.632 182.437C156.578 182.437 154.852 183.062 153.453 184.312C152.084 185.562 151.281 187.198 151.043 189.222H166.221C165.983 187.228 165.165 185.606 163.766 184.356C162.397 183.076 160.685 182.437 158.632 182.437ZM179.717 183.017C180.461 181.648 181.562 180.606 183.02 179.892C184.479 179.178 186.249 178.821 188.333 178.821V182.972C188.095 182.943 187.767 182.928 187.351 182.928C185.029 182.928 183.199 183.627 181.86 185.026C180.55 186.395 179.895 188.359 179.895 190.919V202.704H175.61V179.044H179.717V183.017ZM211.4 175.338H200.686V171.455H226.534V175.338H215.82V202.704H211.4V175.338ZM237.453 178.821C240.727 178.821 243.227 179.624 244.953 181.231C246.709 182.838 247.587 185.234 247.587 188.419V202.704H243.524V199.579C242.81 200.68 241.783 201.529 240.444 202.124C239.135 202.689 237.572 202.972 235.757 202.972C233.108 202.972 230.98 202.332 229.373 201.053C227.795 199.773 227.007 198.091 227.007 196.008C227.007 193.925 227.766 192.258 229.283 191.008C230.801 189.728 233.212 189.088 236.516 189.088H243.301V188.24C243.301 186.395 242.765 184.981 241.694 183.999C240.623 183.017 239.045 182.526 236.962 182.526C235.563 182.526 234.194 182.764 232.855 183.24C231.516 183.687 230.385 184.297 229.462 185.071L227.676 181.856C228.897 180.874 230.355 180.13 232.051 179.624C233.748 179.088 235.548 178.821 237.453 178.821ZM236.471 199.669C238.108 199.669 239.521 199.311 240.712 198.597C241.902 197.853 242.765 196.811 243.301 195.472V192.169H236.694C233.063 192.169 231.248 193.389 231.248 195.829C231.248 197.02 231.709 197.957 232.632 198.642C233.554 199.326 234.834 199.669 236.471 199.669ZM267.482 178.821C270.488 178.821 272.869 179.699 274.625 181.454C276.411 183.181 277.303 185.725 277.303 189.088V202.704H273.018V189.579C273.018 187.288 272.467 185.562 271.366 184.401C270.265 183.24 268.687 182.66 266.634 182.66C264.312 182.66 262.482 183.344 261.143 184.713C259.804 186.053 259.134 187.987 259.134 190.517V202.704H254.848V179.044H258.955V182.615C259.818 181.395 260.979 180.457 262.437 179.803C263.925 179.148 265.607 178.821 267.482 178.821ZM293.761 191.678L288.851 196.231V202.704H284.565V169.58H288.851V190.829L301.752 179.044H306.931L296.976 188.82L307.913 202.704H302.645L293.761 191.678ZM331.786 191.008C331.786 191.335 331.756 191.767 331.696 192.303H312.5C312.768 194.386 313.676 196.067 315.223 197.347C316.801 198.597 318.75 199.222 321.071 199.222C323.899 199.222 326.176 198.27 327.902 196.365L330.268 199.133C329.196 200.383 327.857 201.335 326.25 201.99C324.673 202.645 322.902 202.972 320.937 202.972C318.438 202.972 316.22 202.466 314.286 201.454C312.351 200.413 310.848 198.969 309.777 197.124C308.735 195.279 308.214 193.195 308.214 190.874C308.214 188.582 308.72 186.514 309.732 184.669C310.774 182.824 312.188 181.395 313.973 180.383C315.789 179.341 317.827 178.821 320.089 178.821C322.351 178.821 324.36 179.341 326.116 180.383C327.902 181.395 329.286 182.824 330.268 184.669C331.28 186.514 331.786 188.627 331.786 191.008ZM320.089 182.437C318.036 182.437 316.31 183.062 314.911 184.312C313.542 185.562 312.738 187.198 312.5 189.222H327.679C327.44 187.228 326.622 185.606 325.223 184.356C323.854 183.076 322.143 182.437 320.089 182.437ZM341.174 183.017C341.918 181.648 343.019 180.606 344.478 179.892C345.936 179.178 347.707 178.821 349.79 178.821V182.972C349.552 182.943 349.225 182.928 348.808 182.928C346.487 182.928 344.656 183.627 343.317 185.026C342.007 186.395 341.353 188.359 341.353 190.919V202.704H337.067V179.044H341.174V183.017Z" fill="#838C92"/>
<circle cx="257.724" cy="117.881" r="9.49118" fill="url(#paint0_radial)" fill-opacity="0.62" stroke="black" stroke-width="0.150654"/>
<ellipse opacity="0.5" rx="118.213" ry="3.23905" transform="matrix(-1 0 0 1 221.944 149.995)" fill="#403F45" fill-opacity="0.72"/>
<path d="M344.576 119.789H335.587C335.532 119.789 335.487 119.834 335.487 119.89V132.545C335.487 132.6 335.532 132.645 335.587 132.645H344.576C344.631 132.645 344.676 132.6 344.676 132.545V119.89C344.676 119.834 344.631 119.789 344.576 119.789Z" fill="#B8B8B8" stroke="black" stroke-width="0.200872"/>
<mask id="path-6-inside-1" fill="white">
<path fill-rule="evenodd" clip-rule="evenodd" d="M319.665 52.08C319.454 51.7479 319.084 51.5432 318.691 51.5432H268.466C267.828 51.5432 267.311 52.0603 267.311 52.6982V112.399H275.444V58.746C275.444 58.1081 275.961 57.5909 276.599 57.5909H319.179C319.607 57.5909 320.004 57.8337 320.203 58.2128C329.331 75.5466 333.854 85.2583 335.399 96.9015L335.399 119.803C335.429 119.784 335.465 119.773 335.503 119.773H342.586V104.439C342.586 104.329 342.569 104.216 342.538 104.11C335.407 80.0142 330.245 68.6775 319.665 52.08ZM335.302 132.76H307.785C307.785 132.714 307.785 132.668 307.785 132.621C307.785 121.516 298.827 112.501 287.737 112.4V112.399H287.548H275.494V58.746C275.494 58.1358 275.988 57.6412 276.599 57.6412H319.179C319.588 57.6412 319.968 57.8733 320.159 58.2362C329.286 75.5689 333.805 85.2731 335.348 96.9048L335.348 119.846C335.32 119.881 335.302 119.926 335.302 119.974V132.76ZM317.769 59.8478L289.738 59.3338V83.6703L331.439 95.5559C332.324 95.8084 333.135 94.9732 332.856 94.0953L329.914 84.8367C328.614 79.424 324.76 69.6663 318.71 60.3677C318.503 60.0488 318.15 59.8547 317.769 59.8478ZM286.323 59.2712V82.697L277.328 80.1331C277.22 80.1024 277.146 80.0038 277.146 79.8916V60.2793C277.146 59.6331 277.676 59.1127 278.322 59.1245L286.323 59.2712Z"/>
</mask>
<path fill-rule="evenodd" clip-rule="evenodd" d="M319.665 52.08C319.454 51.7479 319.084 51.5432 318.691 51.5432H268.466C267.828 51.5432 267.311 52.0603 267.311 52.6982V112.399H275.444V58.746C275.444 58.1081 275.961 57.5909 276.599 57.5909H319.179C319.607 57.5909 320.004 57.8337 320.203 58.2128C329.331 75.5466 333.854 85.2583 335.399 96.9015L335.399 119.803C335.429 119.784 335.465 119.773 335.503 119.773H342.586V104.439C342.586 104.329 342.569 104.216 342.538 104.11C335.407 80.0142 330.245 68.6775 319.665 52.08ZM335.302 132.76H307.785C307.785 132.714 307.785 132.668 307.785 132.621C307.785 121.516 298.827 112.501 287.737 112.4V112.399H287.548H275.494V58.746C275.494 58.1358 275.988 57.6412 276.599 57.6412H319.179C319.588 57.6412 319.968 57.8733 320.159 58.2362C329.286 75.5689 333.805 85.2731 335.348 96.9048L335.348 119.846C335.32 119.881 335.302 119.926 335.302 119.974V132.76ZM317.769 59.8478L289.738 59.3338V83.6703L331.439 95.5559C332.324 95.8084 333.135 94.9732 332.856 94.0953L329.914 84.8367C328.614 79.424 324.76 69.6663 318.71 60.3677C318.503 60.0488 318.15 59.8547 317.769 59.8478ZM286.323 59.2712V82.697L277.328 80.1331C277.22 80.1024 277.146 80.0038 277.146 79.8916V60.2793C277.146 59.6331 277.676 59.1127 278.322 59.1245L286.323 59.2712Z" fill="#FFF3DC"/>
<path d="M319.665 52.08L319.496 52.188L319.496 52.188L319.665 52.08ZM267.311 112.399V112.6H267.11V112.399H267.311ZM275.444 112.399H275.644V112.6H275.444V112.399ZM320.203 58.2128L320.381 58.1192L320.381 58.1192L320.203 58.2128ZM335.399 96.9015L335.598 96.8751L335.6 96.8882L335.6 96.9015L335.399 96.9015ZM335.399 119.803L335.503 119.974L335.198 120.161L335.198 119.803L335.399 119.803ZM342.586 119.773H342.787V119.974H342.586V119.773ZM342.538 104.11L342.345 104.167L342.345 104.167L342.538 104.11ZM335.302 132.76H335.503V132.961H335.302V132.76ZM307.785 132.76V132.961H307.583L307.584 132.759L307.785 132.76ZM287.737 112.4L287.735 112.601L287.536 112.599V112.4H287.737ZM287.737 112.399V112.198H287.938V112.399H287.737ZM275.494 112.399V112.6H275.293V112.399H275.494ZM320.159 58.2362L320.336 58.1426L320.336 58.1426L320.159 58.2362ZM335.348 96.9048L335.548 96.8784L335.549 96.8915L335.549 96.9048L335.348 96.9048ZM335.348 119.846L335.549 119.846L335.549 119.919L335.503 119.974L335.348 119.846ZM289.738 59.3338H289.537V59.1292L289.742 59.133L289.738 59.3338ZM317.769 59.8478L317.773 59.6469L317.773 59.6469L317.769 59.8478ZM289.738 83.6703L289.683 83.8634L289.537 83.8219V83.6703H289.738ZM331.439 95.5559L331.494 95.3627L331.494 95.3627L331.439 95.5559ZM332.856 94.0953L333.047 94.0345L333.047 94.0345L332.856 94.0953ZM329.914 84.8367L329.722 84.8975L329.72 84.8906L329.719 84.8836L329.914 84.8367ZM318.71 60.3677L318.542 60.4772L318.542 60.4772L318.71 60.3677ZM286.323 82.697H286.524V82.9631L286.268 82.8901L286.323 82.697ZM286.323 59.2712L286.327 59.0704L286.524 59.074V59.2712H286.323ZM277.328 80.1331L277.273 80.3263L277.273 80.3263L277.328 80.1331ZM278.322 59.1245L278.318 59.3253L278.318 59.3253L278.322 59.1245ZM318.691 51.3423C319.154 51.3423 319.587 51.5827 319.835 51.9721L319.496 52.188C319.321 51.9132 319.015 51.7441 318.691 51.7441V51.3423ZM268.466 51.3423H318.691V51.7441H268.466V51.3423ZM267.11 52.6982C267.11 51.9494 267.717 51.3423 268.466 51.3423V51.7441C267.939 51.7441 267.512 52.1713 267.512 52.6982H267.11ZM267.11 112.399V52.6982H267.512V112.399H267.11ZM275.444 112.6H267.311V112.198H275.444V112.6ZM275.644 58.746V112.399H275.243V58.746H275.644ZM276.599 57.7918C276.072 57.7918 275.644 58.219 275.644 58.746H275.243C275.243 57.9971 275.85 57.3901 276.599 57.3901V57.7918ZM319.179 57.7918H276.599V57.3901H319.179V57.7918ZM320.025 58.3064C319.86 57.9922 319.532 57.7918 319.179 57.7918V57.3901C319.683 57.3901 320.147 57.6751 320.381 58.1192L320.025 58.3064ZM335.2 96.9279C333.66 85.3247 329.155 75.6423 320.025 58.3064L320.381 58.1192C329.508 75.4509 334.048 85.1919 335.598 96.8751L335.2 96.9279ZM335.198 119.803L335.198 96.9015L335.6 96.9015L335.599 119.803L335.198 119.803ZM335.503 119.974L335.503 119.974L335.294 119.631C335.355 119.594 335.427 119.572 335.503 119.572V119.974ZM342.586 119.974H335.503V119.572H342.586V119.974ZM342.787 104.439V119.773H342.385V104.439H342.787ZM342.73 104.053C342.767 104.177 342.787 104.309 342.787 104.439H342.385C342.385 104.348 342.371 104.255 342.345 104.167L342.73 104.053ZM319.835 51.9721C330.426 68.5878 335.595 79.9422 342.73 104.053L342.345 104.167C335.219 80.0862 330.064 68.7672 319.496 52.188L319.835 51.9721ZM335.302 132.961H307.785V132.559H335.302V132.961ZM307.584 132.759C307.584 132.713 307.584 132.667 307.584 132.621H307.986C307.986 132.668 307.986 132.715 307.986 132.761L307.584 132.759ZM307.584 132.621C307.584 121.626 298.715 112.701 287.735 112.601L287.739 112.199C298.939 112.301 307.986 121.405 307.986 132.621H307.584ZM287.536 112.4V112.399H287.938V112.4H287.536ZM287.737 112.6H287.548V112.198H287.737V112.6ZM287.548 112.6H275.494V112.198H287.548V112.6ZM275.293 112.399V58.746H275.695V112.399H275.293ZM275.293 58.746C275.293 58.0249 275.877 57.4403 276.599 57.4403V57.842C276.099 57.842 275.695 58.2467 275.695 58.746H275.293ZM276.599 57.4403H319.179V57.842H276.599V57.4403ZM319.179 57.4403C319.664 57.4403 320.111 57.7147 320.336 58.1426L319.981 58.3298C319.824 58.0319 319.513 57.842 319.179 57.842V57.4403ZM320.336 58.1426C329.463 75.4732 333.999 85.2067 335.548 96.8784L335.149 96.9312C333.611 85.3395 329.11 75.6646 319.981 58.3298L320.336 58.1426ZM335.549 96.9048L335.549 119.846L335.148 119.846L335.148 96.9048L335.549 96.9048ZM335.503 119.974L335.503 119.974H335.102C335.102 119.877 335.136 119.788 335.194 119.718L335.503 119.974ZM335.503 119.974V132.76H335.102V119.974H335.503ZM289.742 59.133L317.773 59.6469L317.766 60.0486L289.734 59.5347L289.742 59.133ZM289.537 83.6703V59.3338H289.939V83.6703H289.537ZM331.384 95.7491L289.683 83.8634L289.793 83.4771L331.494 95.3627L331.384 95.7491ZM333.047 94.0345C333.375 95.065 332.423 96.0455 331.384 95.7491L331.494 95.3627C332.225 95.5713 332.895 94.8814 332.665 94.1562L333.047 94.0345ZM330.105 84.7758L333.047 94.0345L332.665 94.1562L329.722 84.8975L330.105 84.7758ZM318.879 60.2582C324.939 69.574 328.803 79.3527 330.109 84.7898L329.719 84.8836C328.424 79.4953 324.58 69.7586 318.542 60.4772L318.879 60.2582ZM317.773 59.6469C318.219 59.6551 318.635 59.8829 318.879 60.2582L318.542 60.4772C318.371 60.2148 318.08 60.0544 317.766 60.0486L317.773 59.6469ZM286.122 82.697V59.2712H286.524V82.697H286.122ZM277.383 79.9399L286.378 82.5038L286.268 82.8901L277.273 80.3263L277.383 79.9399ZM277.347 79.8916C277.347 79.9141 277.362 79.9338 277.383 79.9399L277.273 80.3263C277.079 80.271 276.945 80.0935 276.945 79.8916H277.347ZM277.347 60.2793V79.8916H276.945V60.2793H277.347ZM278.318 59.3253C277.785 59.3156 277.347 59.7455 277.347 60.2793H276.945C276.945 59.5208 277.567 58.9098 278.326 58.9237L278.318 59.3253ZM286.32 59.4721L278.318 59.3253L278.326 58.9237L286.327 59.0704L286.32 59.4721Z" fill="black" mask="url(#path-6-inside-1)"/>
<path d="M277.88 112.436L273.783 112.436C270.512 118.777 267.62 120.851 265.431 129.065C263.241 137.279 266.548 130.543 266.548 130.543C269.947 122.467 272.67 118.424 277.88 112.436Z" fill="black"/>
<path d="M288.017 114.466C278.647 114.466 271.057 122.056 271.057 131.426C271.057 140.796 278.647 148.386 288.017 148.386C297.386 148.386 304.977 140.796 304.977 131.426C304.977 122.056 297.364 114.466 288.017 114.466ZM288.017 144.129C280.99 144.129 275.314 138.431 275.314 131.426C275.314 124.421 281.012 118.723 288.017 118.723C295.022 118.723 300.72 124.421 300.72 131.426C300.72 138.431 295.022 144.129 288.017 144.129Z" fill="url(#paint1_radial)"/>
<path d="M287.949 144.084C294.977 144.084 300.675 138.386 300.675 131.358C300.675 124.33 294.977 118.633 287.949 118.633C280.921 118.633 275.224 124.33 275.224 131.358C275.224 138.386 280.921 144.084 287.949 144.084Z" fill="url(#paint2_radial)"/>
<path d="M288.445 124.962L287.341 124.917L286.755 125.84L287.273 126.831L288.377 126.876L288.963 125.93L288.445 124.962Z" fill="url(#paint3_radial)"/>
<path d="M288.445 135.998L287.341 135.953L286.755 136.877L287.273 137.868L288.377 137.913L288.963 136.967L288.445 135.998Z" fill="url(#paint4_radial)"/>
<path d="M283.647 126.448L282.836 127.192L283.062 128.273L284.12 128.588L284.931 127.845L284.683 126.764L283.647 126.448Z" fill="url(#paint5_radial)"/>
<path d="M291.44 134.241L290.629 134.985L290.877 136.066L291.936 136.404L292.747 135.638L292.499 134.579L291.44 134.241Z" fill="url(#paint6_radial)"/>
<path d="M281.327 130.84L281.282 131.921L282.228 132.53L283.197 132.011L283.242 130.908L282.318 130.322L281.327 130.84Z" fill="url(#paint7_radial)"/>
<path d="M292.364 130.84L292.319 131.921L293.265 132.53L294.233 132.011L294.278 130.908L293.355 130.322L292.364 130.84Z" fill="url(#paint8_radial)"/>
<path d="M282.814 135.57L283.557 136.381L284.638 136.133L284.954 135.075L284.21 134.264L283.129 134.512L282.814 135.57Z" fill="url(#paint9_radial)"/>
<path d="M290.607 127.755L291.35 128.566L292.431 128.318L292.769 127.282L292.003 126.471L290.945 126.696L290.607 127.755Z" fill="url(#paint10_radial)"/>
<path d="M150.118 117.128C140.749 117.128 133.159 124.718 133.159 134.088C133.159 143.457 140.749 151.047 150.118 151.047C159.488 151.047 167.078 143.457 167.078 134.088C167.078 124.718 159.466 117.128 150.118 117.128ZM150.118 146.79C143.091 146.79 137.416 141.092 137.416 134.088C137.416 127.083 143.114 121.385 150.118 121.385C157.123 121.385 162.821 127.083 162.821 134.088C162.821 141.092 157.123 146.79 150.118 146.79Z" fill="url(#paint11_radial)"/>
<path d="M150.051 146.745C157.079 146.745 162.777 141.048 162.777 134.02C162.777 126.992 157.079 121.294 150.051 121.294C143.023 121.294 137.326 126.992 137.326 134.02C137.326 141.048 143.023 146.745 150.051 146.745Z" fill="url(#paint12_radial)"/>
<path d="M150.547 127.623L149.443 127.578L148.857 128.502L149.375 129.493L150.479 129.538L151.065 128.592L150.547 127.623Z" fill="url(#paint13_radial)"/>
<path d="M150.547 138.66L149.443 138.615L148.857 139.538L149.375 140.529L150.479 140.574L151.065 139.628L150.547 138.66Z" fill="url(#paint14_radial)"/>
<path d="M145.749 129.11L144.938 129.853L145.164 130.934L146.222 131.25L147.033 130.506L146.785 129.425L145.749 129.11Z" fill="url(#paint15_radial)"/>
<path d="M153.542 136.903L152.731 137.646L152.979 138.727L154.038 139.065L154.849 138.299L154.601 137.241L153.542 136.903Z" fill="url(#paint16_radial)"/>
<path d="M143.429 133.502L143.384 134.583L144.33 135.191L145.299 134.673L145.344 133.569L144.42 132.984L143.429 133.502Z" fill="url(#paint17_radial)"/>
<path d="M154.465 133.502L154.42 134.583L155.366 135.191L156.335 134.673L156.38 133.569L155.456 132.984L154.465 133.502Z" fill="url(#paint18_radial)"/>
<path d="M144.916 138.232L145.659 139.043L146.74 138.795L147.055 137.736L146.312 136.925L145.231 137.173L144.916 138.232Z" fill="url(#paint19_radial)"/>
<path d="M152.708 130.416L153.452 131.227L154.533 130.979L154.871 129.943L154.105 129.132L153.046 129.358L152.708 130.416Z" fill="url(#paint20_radial)"/>
<path d="M110.346 117.153C100.976 117.153 93.3862 124.743 93.3862 134.113C93.3862 143.482 100.976 151.072 110.346 151.072C119.716 151.072 127.306 143.482 127.306 134.113C127.306 124.743 119.693 117.153 110.346 117.153ZM110.346 146.816C103.319 146.816 97.6431 141.117 97.6431 134.113C97.6431 127.108 103.341 121.41 110.346 121.41C117.351 121.41 123.049 127.108 123.049 134.113C123.049 141.117 117.351 146.816 110.346 146.816Z" fill="url(#paint21_radial)"/>
<path d="M110.278 146.77C117.306 146.77 123.004 141.073 123.004 134.045C123.004 127.017 117.306 121.32 110.278 121.32C103.25 121.32 97.5527 127.017 97.5527 134.045C97.5527 141.073 103.25 146.77 110.278 146.77Z" fill="url(#paint22_radial)"/>
<path d="M110.774 127.648L109.67 127.603L109.084 128.527L109.603 129.518L110.706 129.563L111.292 128.617L110.774 127.648Z" fill="url(#paint23_radial)"/>
<path d="M110.774 138.685L109.67 138.64L109.084 139.563L109.603 140.554L110.706 140.599L111.292 139.653L110.774 138.685Z" fill="url(#paint24_radial)"/>
<path d="M105.977 129.135L105.166 129.878L105.391 130.959L106.45 131.275L107.261 130.531L107.013 129.45L105.977 129.135Z" fill="url(#paint25_radial)"/>
<path d="M113.77 136.928L112.959 137.671L113.207 138.752L114.265 139.09L115.076 138.325L114.828 137.266L113.77 136.928Z" fill="url(#paint26_radial)"/>
<path d="M103.656 133.527L103.611 134.608L104.557 135.216L105.526 134.698L105.571 133.595L104.647 133.009L103.656 133.527Z" fill="url(#paint27_radial)"/>
<path d="M114.693 133.527L114.647 134.608L115.593 135.216L116.562 134.698L116.607 133.595L115.684 133.009L114.693 133.527Z" fill="url(#paint28_radial)"/>
<path d="M105.143 138.257L105.886 139.068L106.967 138.82L107.283 137.761L106.539 136.951L105.458 137.198L105.143 138.257Z" fill="url(#paint29_radial)"/>
<path d="M112.936 130.441L113.679 131.252L114.76 131.004L115.098 129.968L114.332 129.157L113.274 129.383L112.936 130.441Z" fill="url(#paint30_radial)"/>
<mask id="path-39-inside-2" fill="white">
<path fill-rule="evenodd" clip-rule="evenodd" d="M255.238 110.223V108.314H67.6243V110.223L99.6131 110.223L99.6131 112.884L99.6131 112.948L87.7617 127.616L89.2328 128.804L100.555 114.793H158.537L171.546 127.801L172.883 126.464L159.473 113.053V112.884H159.272V110.223H173.132L173.132 129.356L173.132 131.214H175.04H197.438H199.496H221.793H223.852V131.214H246.099V131.214H248.158V110.223H255.238ZM129.794 110.223L101.471 110.223V112.884L129.794 112.884V110.223ZM157.414 110.223L131.652 110.223V112.884H157.414V110.223ZM197.438 110.223H175.04V118.961H197.438V110.223ZM199.496 118.961V110.223H221.793V118.961H199.496ZM221.793 120.869H199.496V129.356H221.793V120.869ZM223.852 118.961V110.223H246.099V118.961H223.852ZM246.099 120.869H223.852V129.356H246.099V120.869ZM197.438 120.869H175.04V129.356H197.438V120.869Z"/>
</mask>
<path fill-rule="evenodd" clip-rule="evenodd" d="M255.238 110.223V108.314H67.6243V110.223L99.6131 110.223L99.6131 112.884L99.6131 112.948L87.7617 127.616L89.2328 128.804L100.555 114.793H158.537L171.546 127.801L172.883 126.464L159.473 113.053V112.884H159.272V110.223H173.132L173.132 129.356L173.132 131.214H175.04H197.438H199.496H221.793H223.852V131.214H246.099V131.214H248.158V110.223H255.238ZM129.794 110.223L101.471 110.223V112.884L129.794 112.884V110.223ZM157.414 110.223L131.652 110.223V112.884H157.414V110.223ZM197.438 110.223H175.04V118.961H197.438V110.223ZM199.496 118.961V110.223H221.793V118.961H199.496ZM221.793 120.869H199.496V129.356H221.793V120.869ZM223.852 118.961V110.223H246.099V118.961H223.852ZM246.099 120.869H223.852V129.356H246.099V120.869ZM197.438 120.869H175.04V129.356H197.438V120.869Z" fill="#B8B8B8"/>
<path d="M255.238 108.314V108.114H255.439V108.314H255.238ZM255.238 110.223H255.439V110.424H255.238V110.223ZM67.6243 108.314H67.4234V108.114H67.6243V108.314ZM67.6243 110.223L67.6243 110.424L67.4234 110.424V110.223H67.6243ZM99.6131 110.223L99.6131 110.022L99.814 110.022L99.814 110.223L99.6131 110.223ZM99.6131 112.884L99.4122 112.884L99.4122 112.884L99.6131 112.884ZM99.6131 112.948L99.814 112.948L99.814 113.019L99.7693 113.075L99.6131 112.948ZM87.7617 127.616L87.6354 127.772L87.4792 127.646L87.6054 127.489L87.7617 127.616ZM89.2328 128.804L89.389 128.93L89.2628 129.087L89.1065 128.96L89.2328 128.804ZM100.555 114.793L100.398 114.666L100.459 114.592H100.555V114.793ZM158.537 114.793V114.592H158.62L158.679 114.65L158.537 114.793ZM171.546 127.801L171.688 127.943L171.546 128.085L171.404 127.943L171.546 127.801ZM172.883 126.464L173.025 126.322L173.167 126.464L173.025 126.606L172.883 126.464ZM159.473 113.053L159.331 113.195L159.272 113.137V113.053H159.473ZM159.473 112.884V112.683H159.674V112.884H159.473ZM159.272 112.884V113.085H159.071V112.884H159.272ZM159.272 110.223H159.071V110.022H159.272V110.223ZM173.132 110.223V110.022H173.333L173.333 110.223L173.132 110.223ZM173.132 129.356L173.333 129.356L173.333 129.356L173.132 129.356ZM173.132 131.214V131.415H172.931L172.931 131.214L173.132 131.214ZM223.852 131.214H224.053V131.415H223.852V131.214ZM223.852 131.214H223.651V131.013H223.852V131.214ZM246.099 131.214V131.013H246.299V131.214H246.099ZM246.099 131.214V131.415H245.898V131.214H246.099ZM248.158 131.214H248.358V131.415H248.158V131.214ZM248.158 110.223H247.957V110.022H248.158V110.223ZM101.471 110.223H101.27V110.022L101.471 110.022L101.471 110.223ZM129.794 110.223L129.794 110.022L129.995 110.022V110.223H129.794ZM101.471 112.884L101.471 113.085L101.27 113.085V112.884H101.471ZM129.794 112.884H129.995V113.085L129.794 113.085L129.794 112.884ZM131.652 110.223H131.451V110.022L131.652 110.022L131.652 110.223ZM157.414 110.223L157.414 110.022L157.615 110.022V110.223H157.414ZM131.652 112.884V113.085H131.451V112.884H131.652ZM157.414 112.884H157.615V113.085H157.414V112.884ZM175.04 110.223H174.839V110.022H175.04V110.223ZM197.438 110.223V110.022H197.638V110.223H197.438ZM175.04 118.961V119.162H174.839V118.961H175.04ZM197.438 118.961H197.638V119.162H197.438V118.961ZM199.496 118.961V119.162H199.296V118.961H199.496ZM199.496 110.223H199.296V110.022H199.496V110.223ZM221.793 110.223V110.022H221.994V110.223H221.793ZM221.793 118.961H221.994V119.162H221.793V118.961ZM199.496 120.869H199.296V120.668H199.496V120.869ZM221.793 120.869V120.668H221.994V120.869H221.793ZM199.496 129.356V129.557H199.296V129.356H199.496ZM221.793 129.356H221.994V129.557H221.793V129.356ZM223.852 118.961V119.162H223.651V118.961H223.852ZM223.852 110.223H223.651V110.022H223.852V110.223ZM246.099 110.223V110.022H246.299V110.223H246.099ZM246.099 118.961H246.299V119.162H246.099V118.961ZM223.852 120.869H223.651V120.668H223.852V120.869ZM246.099 120.869V120.668H246.299V120.869H246.099ZM223.852 129.356V129.557H223.651V129.356H223.852ZM246.099 129.356H246.299V129.557H246.099V129.356ZM175.04 120.869H174.839V120.668H175.04V120.869ZM197.438 120.869V120.668H197.638V120.869H197.438ZM175.04 129.356V129.557H174.839V129.356H175.04ZM197.438 129.356H197.638V129.557H197.438V129.356ZM255.439 108.314V110.223H255.037V108.314H255.439ZM67.6243 108.114H255.238V108.515H67.6243V108.114ZM67.4234 110.223V108.314H67.8252V110.223H67.4234ZM99.6131 110.424L67.6243 110.424L67.6243 110.022L99.6131 110.022L99.6131 110.424ZM99.4122 112.884L99.4122 110.223L99.814 110.223L99.8139 112.884L99.4122 112.884ZM99.4122 112.948L99.4122 112.884L99.8139 112.884L99.814 112.948L99.4122 112.948ZM87.6054 127.489L99.4569 112.822L99.7693 113.075L87.9179 127.742L87.6054 127.489ZM89.1065 128.96L87.6354 127.772L87.8879 127.459L89.359 128.648L89.1065 128.96ZM100.711 114.919L89.389 128.93L89.0765 128.678L100.398 114.666L100.711 114.919ZM158.537 114.993H100.555V114.592H158.537V114.993ZM171.404 127.943L158.395 114.935L158.679 114.65L171.688 127.659L171.404 127.943ZM173.025 126.606L171.688 127.943L171.404 127.659L172.741 126.322L173.025 126.606ZM159.615 112.911L173.025 126.322L172.741 126.606L159.331 113.195L159.615 112.911ZM159.674 112.884V113.053H159.272V112.884H159.674ZM159.272 112.683H159.473V113.085H159.272V112.683ZM159.473 110.223V112.884H159.071V110.223H159.473ZM173.132 110.424H159.272V110.022H173.132V110.424ZM172.931 129.356L172.931 110.223L173.333 110.223L173.333 129.356L172.931 129.356ZM172.931 131.214L172.931 129.356L173.333 129.356L173.333 131.214L172.931 131.214ZM175.04 131.415H173.132V131.013H175.04V131.415ZM197.438 131.415H175.04V131.013H197.438V131.415ZM199.496 131.415H197.438V131.013H199.496V131.415ZM221.793 131.415H199.496V131.013H221.793V131.415ZM223.852 131.415H221.793V131.013H223.852V131.415ZM224.053 131.214V131.214H223.651V131.214H224.053ZM246.099 131.415H223.852V131.013H246.099V131.415ZM245.898 131.214V131.214H246.299V131.214H245.898ZM248.158 131.415H246.099V131.013H248.158V131.415ZM248.358 110.223V131.214H247.957V110.223H248.358ZM255.238 110.424H248.158V110.022H255.238V110.424ZM101.471 110.022L129.794 110.022L129.794 110.424L101.471 110.424L101.471 110.022ZM101.27 112.884V110.223H101.672V112.884H101.27ZM129.794 113.085L101.471 113.085L101.471 112.683L129.794 112.683L129.794 113.085ZM129.995 110.223V112.884H129.593V110.223H129.995ZM131.652 110.022L157.414 110.022L157.414 110.424L131.652 110.424L131.652 110.022ZM131.451 112.884V110.223H131.853V112.884H131.451ZM157.414 113.085H131.652V112.683H157.414V113.085ZM157.615 110.223V112.884H157.213V110.223H157.615ZM175.04 110.022H197.438V110.424H175.04V110.022ZM174.839 118.961V110.223H175.241V118.961H174.839ZM197.438 119.162H175.04V118.76H197.438V119.162ZM197.638 110.223V118.961H197.237V110.223H197.638ZM199.296 118.961V110.223H199.697V118.961H199.296ZM199.496 110.022H221.793V110.424H199.496V110.022ZM221.994 110.223V118.961H221.592V110.223H221.994ZM221.793 119.162H199.496V118.76H221.793V119.162ZM199.496 120.668H221.793V121.07H199.496V120.668ZM199.296 129.356V120.869H199.697V129.356H199.296ZM221.793 129.557H199.496V129.155H221.793V129.557ZM221.994 120.869V129.356H221.592V120.869H221.994ZM223.651 118.961V110.223H224.053V118.961H223.651ZM223.852 110.022H246.099V110.424H223.852V110.022ZM246.299 110.223V118.961H245.898V110.223H246.299ZM246.099 119.162H223.852V118.76H246.099V119.162ZM223.852 120.668H246.099V121.07H223.852V120.668ZM223.651 129.356V120.869H224.053V129.356H223.651ZM246.099 129.557H223.852V129.155H246.099V129.557ZM246.299 120.869V129.356H245.898V120.869H246.299ZM175.04 120.668H197.438V121.07H175.04V120.668ZM174.839 129.356V120.869H175.241V129.356H174.839ZM197.438 129.557H175.04V129.155H197.438V129.557ZM197.638 120.869V129.356H197.237V120.869H197.638Z" fill="black" mask="url(#path-39-inside-2)"/>
<path d="M183.954 53.8281C180.712 53.8281 177.78 53.3262 175.663 52.5183C174.604 52.1142 173.754 51.6354 173.171 51.1089C172.588 50.5824 172.279 50.0162 172.279 49.434C172.279 48.8518 172.588 48.2856 173.171 47.7591C173.754 47.2326 174.604 46.7539 175.663 46.3498C177.78 45.5418 180.712 45.0399 183.954 45.0399C187.197 45.0399 190.129 45.5418 192.246 46.3498C193.304 46.7539 194.154 47.2326 194.738 47.7591C195.321 48.2856 195.63 48.8518 195.63 49.434C195.63 50.0162 195.321 50.5824 194.738 51.1089C194.154 51.6354 193.304 52.1142 192.246 52.5183C190.129 53.3262 187.197 53.8281 183.954 53.8281Z" fill="#2F80ED" stroke="black" stroke-width="0.200872"/>
<rect x="-0.100436" y="0.100436" width="197.155" height="2.05893" transform="matrix(-1 0 0 1 264.78 55.3346)" fill="#2F80ED" stroke="black" stroke-width="0.200872"/>
<rect x="-0.100436" y="0.100436" width="197.155" height="2.05893" transform="matrix(-1 0 0 1 264.78 106.055)" fill="#2F80ED" stroke="black" stroke-width="0.200872"/>
<rect x="-0.100436" y="0.100436" width="190.426" height="3.61569" transform="matrix(-1 0 0 1 261.616 51.6687)" fill="#2F80ED" stroke="black" stroke-width="0.200872"/>
<rect x="-0.100436" y="0.100436" width="190.426" height="3.61569" transform="matrix(-1 0 0 1 261.616 102.389)" fill="#2F80ED" stroke="black" stroke-width="0.200872"/>
<rect x="-0.100436" y="0.100436" width="197.155" height="1.9585" transform="matrix(-1 0 0 1 264.78 49.4089)" fill="#2F80ED" stroke="black" stroke-width="0.200872"/>
<rect x="-0.100436" y="0.100436" width="197.155" height="1.9585" transform="matrix(-1 0 0 1 264.78 100.129)" fill="#2F80ED" stroke="black" stroke-width="0.200872"/>
<path d="M328.844 88.9245C329.161 92.3786 330.263 93.0365 332.93 93.2401" stroke="black" stroke-width="0.0502179"/>
<path d="M327.625 79.1627C327.619 79.1393 327.597 79.1229 327.573 79.1238L326.55 79.1612C326.52 79.1623 326.499 79.1892 326.504 79.2188L329.158 93.3369C329.165 93.3754 329.212 93.3926 329.241 93.3674L330.898 91.9408C330.912 91.9288 330.917 91.9099 330.913 91.8918L327.625 79.1627Z" fill="black"/>
<mask id="path-50-inside-3" fill="white">
<path fill-rule="evenodd" clip-rule="evenodd" d="M259.934 100.129C263.997 100.129 267.291 90.6073 267.291 78.8617C267.291 67.1161 263.997 57.5944 259.934 57.5944C259.69 57.5944 259.449 57.6288 259.211 57.6959H70.5303C70.293 57.6292 70.0523 57.595 69.8089 57.595C65.7459 57.595 62.4521 67.1167 62.4521 78.8622C62.4521 90.6078 65.7459 100.13 69.8089 100.13C69.9821 100.13 70.1538 100.112 70.324 100.078H259.422C259.591 100.112 259.762 100.129 259.934 100.129Z"/>
</mask>
<path fill-rule="evenodd" clip-rule="evenodd" d="M259.934 100.129C263.997 100.129 267.291 90.6073 267.291 78.8617C267.291 67.1161 263.997 57.5944 259.934 57.5944C259.69 57.5944 259.449 57.6288 259.211 57.6959H70.5303C70.293 57.6292 70.0523 57.595 69.8089 57.595C65.7459 57.595 62.4521 67.1167 62.4521 78.8622C62.4521 90.6078 65.7459 100.13 69.8089 100.13C69.9821 100.13 70.1538 100.112 70.324 100.078H259.422C259.591 100.112 259.762 100.129 259.934 100.129Z" fill="#2F80ED"/>
<path d="M259.211 57.6959V57.8968H259.238L259.265 57.8893L259.211 57.6959ZM70.5303 57.6959L70.4759 57.8893L70.5026 57.8968H70.5303V57.6959ZM70.324 100.078V99.8773H70.3041L70.2846 99.8812L70.324 100.078ZM259.422 100.078L259.461 99.8812L259.441 99.8773H259.422V100.078ZM267.09 78.8617C267.09 84.7183 266.268 90.0119 264.946 93.8343C264.285 95.7464 263.502 97.2795 262.642 98.3305C261.781 99.383 260.865 99.9281 259.934 99.9281V100.33C261.034 100.33 262.054 99.6847 262.953 98.5848C263.854 97.4835 264.656 95.9021 265.326 93.9656C266.666 90.0907 267.492 84.7507 267.492 78.8617H267.09ZM259.934 57.7953C260.865 57.7953 261.781 58.3403 262.642 59.3929C263.502 60.4439 264.285 61.977 264.946 63.8891C266.268 67.7115 267.09 73.0051 267.09 78.8617H267.492C267.492 72.9727 266.666 67.6326 265.326 63.7578C264.656 61.8213 263.854 60.2399 262.953 59.1385C262.054 58.0387 261.034 57.3935 259.934 57.3935V57.7953ZM259.265 57.8893C259.486 57.8269 259.709 57.7953 259.934 57.7953V57.3935C259.671 57.3935 259.411 57.4306 259.156 57.5026L259.265 57.8893ZM70.5303 57.8968H259.211V57.4951H70.5303V57.8968ZM69.8089 57.7958C70.0333 57.7958 70.2557 57.8273 70.4759 57.8893L70.5848 57.5026C70.3303 57.431 70.0714 57.3941 69.8089 57.3941V57.7958ZM62.653 78.8622C62.653 73.0057 63.4745 67.7121 64.7967 63.8897C65.4582 61.9775 66.2412 60.4445 67.1008 59.3934C67.9616 58.3409 68.8779 57.7958 69.8089 57.7958V57.3941C68.7084 57.3941 67.6893 58.0393 66.7898 59.1391C65.8891 60.2404 65.0869 61.8219 64.4171 63.7583C63.0767 67.6332 62.2513 72.9732 62.2513 78.8622H62.653ZM69.8089 99.9286C68.8779 99.9286 67.9616 99.3836 67.1008 98.3311C66.2412 97.28 65.4582 95.747 64.7967 93.8348C63.4745 90.0124 62.653 84.7188 62.653 78.8622H62.2513C62.2513 84.7513 63.0767 90.0913 64.4171 93.9661C65.0869 95.9026 65.8891 97.4841 66.7898 98.5854C67.6893 99.6852 68.7084 100.33 69.8089 100.33V99.9286ZM70.2846 99.8812C70.1272 99.9127 69.9686 99.9286 69.8089 99.9286V100.33C69.9955 100.33 70.1805 100.312 70.3634 100.275L70.2846 99.8812ZM259.422 99.8773H70.324V100.279H259.422V99.8773ZM259.934 99.9281C259.775 99.9281 259.617 99.9123 259.461 99.8812L259.383 100.275C259.564 100.311 259.748 100.33 259.934 100.33V99.9281Z" fill="black" mask="url(#path-50-inside-3)"/>
<path d="M257.691 74.637L253.446 81.7121C253.426 81.7456 253.45 81.7882 253.489 81.7882H261.979C262.018 81.7882 262.042 81.7456 262.022 81.7121L257.777 74.637C257.757 74.6045 257.71 74.6045 257.691 74.637Z" fill="#FF0000" stroke="black" stroke-width="0.100436"/>
<g filter="url(#filter0_d)">
<path d="M101.947 76.9517C103.828 76.9517 105.306 77.4199 106.381 78.3562C107.464 79.2845 108.005 80.5588 108.005 82.1792C108.005 84.0275 107.415 85.4769 106.234 86.5273C105.062 87.5777 103.441 88.1029 101.373 88.1029C99.3619 88.1029 97.827 87.7812 96.7685 87.138V85.1838C97.3385 85.5502 98.0469 85.8392 98.8937 86.0509C99.7405 86.2545 100.575 86.3563 101.398 86.3563C102.831 86.3563 103.942 86.0184 104.732 85.3425C105.53 84.6667 105.929 83.6896 105.929 82.4112C105.929 79.9196 104.402 78.6738 101.349 78.6738C100.575 78.6738 99.541 78.7919 98.2463 79.028L97.196 78.3562L97.8677 70.002H106.747V71.8707H99.6021L99.1502 77.2326C100.087 77.0453 101.019 76.9517 101.947 76.9517ZM113.733 84.9517L113.917 85.2326C113.705 86.0469 113.4 86.9914 113.001 88.0662C112.602 89.1492 112.186 90.1548 111.755 91.083H110.228C110.448 90.2362 110.688 89.1899 110.949 87.9441C111.217 86.6983 111.405 85.7008 111.511 84.9517H113.733ZM128.647 78.9059C128.647 81.9919 128.158 84.2962 127.181 85.8189C126.212 87.3415 124.726 88.1029 122.723 88.1029C120.801 88.1029 119.34 87.3252 118.338 85.77C117.337 84.2067 116.836 81.9186 116.836 78.9059C116.836 75.7954 117.32 73.487 118.289 71.9806C119.258 70.4743 120.736 69.7211 122.723 69.7211C124.661 69.7211 126.13 70.5068 127.132 72.0784C128.142 73.6499 128.647 75.9257 128.647 78.9059ZM118.888 78.9059C118.888 81.5033 119.193 83.3965 119.804 84.5853C120.414 85.766 121.387 86.3563 122.723 86.3563C124.074 86.3563 125.052 85.7578 125.654 84.5609C126.265 83.3558 126.57 81.4708 126.57 78.9059C126.57 76.341 126.265 74.4641 125.654 73.2753C125.052 72.0784 124.074 71.4799 122.723 71.4799C121.387 71.4799 120.414 72.0702 119.804 73.2509C119.193 74.4234 118.888 76.3084 118.888 78.9059ZM142.961 78.9059C142.961 81.9919 142.473 84.2962 141.495 85.8189C140.526 87.3415 139.04 88.1029 137.037 88.1029C135.116 88.1029 133.654 87.3252 132.653 85.77C131.651 84.2067 131.15 81.9186 131.15 78.9059C131.15 75.7954 131.635 73.487 132.604 71.9806C133.573 70.4743 135.051 69.7211 137.037 69.7211C138.975 69.7211 140.445 70.5068 141.447 72.0784C142.456 73.6499 142.961 75.9257 142.961 78.9059ZM133.202 78.9059C133.202 81.5033 133.508 83.3965 134.118 84.5853C134.729 85.766 135.702 86.3563 137.037 86.3563C138.389 86.3563 139.366 85.7578 139.969 84.5609C140.579 83.3558 140.885 81.4708 140.885 78.9059C140.885 76.341 140.579 74.4641 139.969 73.2753C139.366 72.0784 138.389 71.4799 137.037 71.4799C135.702 71.4799 134.729 72.0702 134.118 73.2509C133.508 74.4234 133.202 76.3084 133.202 78.9059ZM157.276 78.9059C157.276 81.9919 156.787 84.2962 155.81 85.8189C154.841 87.3415 153.355 88.1029 151.352 88.1029C149.43 88.1029 147.969 87.3252 146.967 85.77C145.966 84.2067 145.465 81.9186 145.465 78.9059C145.465 75.7954 145.949 73.487 146.918 71.9806C147.887 70.4743 149.365 69.7211 151.352 69.7211C153.29 69.7211 154.76 70.5068 155.761 72.0784C156.771 73.6499 157.276 75.9257 157.276 78.9059ZM147.517 78.9059C147.517 81.5033 147.822 83.3965 148.433 84.5853C149.044 85.766 150.017 86.3563 151.352 86.3563C152.704 86.3563 153.681 85.7578 154.283 84.5609C154.894 83.3558 155.199 81.4708 155.199 78.9059C155.199 76.341 154.894 74.4641 154.283 73.2753C153.681 72.0784 152.704 71.4799 151.352 71.4799C150.017 71.4799 149.044 72.0702 148.433 73.2509C147.822 74.4234 147.517 76.3084 147.517 78.9059ZM175.34 78.5028H181.41V87.1868C180.466 87.4881 179.505 87.7161 178.528 87.8708C177.551 88.0255 176.419 88.1029 175.132 88.1029C172.429 88.1029 170.324 87.3008 168.818 85.6967C167.311 84.0845 166.558 81.829 166.558 78.9303C166.558 77.0738 166.929 75.4494 167.67 74.057C168.419 72.6565 169.494 71.5898 170.894 70.857C172.295 70.116 173.935 69.7455 175.816 69.7455C177.722 69.7455 179.497 70.0956 181.141 70.7959L180.335 72.628C178.723 71.944 177.172 71.602 175.682 71.602C173.508 71.602 171.81 72.2493 170.589 73.544C169.367 74.8387 168.757 76.6341 168.757 78.9303C168.757 81.3405 169.343 83.1685 170.515 84.4143C171.696 85.6601 173.426 86.283 175.706 86.283C176.944 86.283 178.153 86.1405 179.334 85.8555V80.3593H175.34V78.5028ZM193.636 87.8586L193.233 85.9532H193.135C192.468 86.7919 191.8 87.3619 191.132 87.6632C190.473 87.9563 189.646 88.1029 188.653 88.1029C187.326 88.1029 186.283 87.7609 185.526 87.0769C184.777 86.3929 184.403 85.4199 184.403 84.1578C184.403 81.4545 186.564 80.0377 190.888 79.9074L193.16 79.8341V79.0036C193.16 77.9532 192.932 77.1796 192.476 76.683C192.028 76.1781 191.307 75.9257 190.314 75.9257C189.198 75.9257 187.936 76.2677 186.528 76.9517L185.905 75.4005C186.564 75.0422 187.285 74.7613 188.067 74.5578C188.856 74.3542 189.646 74.2524 190.436 74.2524C192.032 74.2524 193.213 74.6066 193.978 75.315C194.752 76.0234 195.138 77.1593 195.138 78.7227V87.8586H193.636ZM189.056 86.4296C190.318 86.4296 191.307 86.0835 192.024 85.3914C192.749 84.6993 193.111 83.7303 193.111 82.4845V81.2753L191.083 81.3608C189.471 81.4178 188.307 81.6703 187.59 82.1181C186.882 82.5578 186.528 83.2458 186.528 84.1822C186.528 84.9151 186.748 85.4728 187.187 85.8555C187.635 86.2382 188.258 86.4296 189.056 86.4296ZM201.355 87.8586H199.328V68.8539H201.355V87.8586ZM207.682 87.8586H205.655V68.8539H207.682V87.8586ZM223.536 81.1532C223.536 83.3354 222.986 85.0413 221.887 86.2708C220.787 87.4922 219.269 88.1029 217.331 88.1029C216.134 88.1029 215.071 87.8219 214.143 87.2601C213.215 86.6983 212.498 85.8922 211.993 84.8418C211.489 83.7914 211.236 82.5619 211.236 81.1532C211.236 78.971 211.782 77.2733 212.873 76.06C213.964 74.8387 215.478 74.228 217.416 74.228C219.289 74.228 220.775 74.8509 221.874 76.0967C222.982 77.3425 223.536 79.028 223.536 81.1532ZM213.337 81.1532C213.337 82.8631 213.679 84.1659 214.363 85.0616C215.047 85.9573 216.053 86.4051 217.38 86.4051C218.707 86.4051 219.713 85.9614 220.397 85.0738C221.089 84.1782 221.435 82.8713 221.435 81.1532C221.435 79.4514 221.089 78.1608 220.397 77.2814C219.713 76.3939 218.699 75.9501 217.355 75.9501C216.028 75.9501 215.027 76.3858 214.351 77.257C213.675 78.1283 213.337 79.427 213.337 81.1532ZM236.262 87.8586V79.199C236.262 78.1079 236.014 77.2936 235.517 76.7562C235.021 76.2188 234.243 75.9501 233.184 75.9501C231.784 75.9501 230.758 76.3288 230.107 77.086C229.455 77.8433 229.129 79.0931 229.129 80.8356V87.8586H227.102V74.4723H228.751L229.081 76.3043H229.178C229.594 75.6448 230.176 75.1359 230.925 74.7776C231.674 74.4112 232.509 74.228 233.429 74.228C235.041 74.228 236.254 74.6188 237.068 75.4005C237.883 76.174 238.29 77.4158 238.29 79.1257V87.8586H236.262Z" fill="#FCFCFC"/>
</g>
<path d="M73.9436 74.637L69.6986 81.7121C69.6785 81.7455 69.7026 81.7881 69.7416 81.7881H78.2317C78.2708 81.7881 78.2949 81.7455 78.2748 81.7121L74.0297 74.637C74.0102 74.6045 73.9631 74.6045 73.9436 74.637Z" fill="#FF0000" stroke="black" stroke-width="0.100436"/>
<mask id="path-55-inside-4" fill="white">
<path fill-rule="evenodd" clip-rule="evenodd" d="M85.9541 110.122H84.096V120.609H64.9016V114.959C64.9016 114.904 64.8567 114.859 64.8012 114.859H62.1004C62.045 114.859 62 114.904 62 114.959V122.426C62 122.481 62.045 122.526 62.1004 122.526H64.8012C64.8027 122.526 64.8043 122.526 64.8058 122.526H84.096V122.526H85.9541V110.122Z"/>
</mask>
<path fill-rule="evenodd" clip-rule="evenodd" d="M85.9541 110.122H84.096V120.609H64.9016V114.959C64.9016 114.904 64.8567 114.859 64.8012 114.859H62.1004C62.045 114.859 62 114.904 62 114.959V122.426C62 122.481 62.045 122.526 62.1004 122.526H64.8012C64.8027 122.526 64.8043 122.526 64.8058 122.526H84.096V122.526H85.9541V110.122Z" fill="#B8B8B8"/>
<path d="M84.096 110.122H83.8952V109.921H84.096V110.122ZM85.9541 110.122V109.921H86.155V110.122H85.9541ZM84.096 120.609H84.2969V120.81H84.096V120.609ZM64.9016 120.609V120.81H64.7008V120.609H64.9016ZM64.8058 122.526L64.7968 122.325H64.8058V122.526ZM84.096 122.526V122.325H84.2969V122.526H84.096ZM84.096 122.526V122.727H83.8952V122.526H84.096ZM85.9541 122.526H86.155V122.727H85.9541V122.526ZM84.096 109.921H85.9541V110.323H84.096V109.921ZM83.8952 120.609V110.122H84.2969V120.609H83.8952ZM64.9016 120.408H84.096V120.81H64.9016V120.408ZM64.7008 120.609V114.959H65.1025V120.609H64.7008ZM64.7008 114.959C64.7008 115.015 64.7457 115.06 64.8012 115.06V114.658C64.9676 114.658 65.1025 114.793 65.1025 114.959H64.7008ZM64.8012 115.06H62.1004V114.658H64.8012V115.06ZM62.1004 115.06C62.1559 115.06 62.2009 115.015 62.2009 114.959H61.7991C61.7991 114.793 61.934 114.658 62.1004 114.658V115.06ZM62.2009 114.959V122.426H61.7991V114.959H62.2009ZM62.2009 122.426C62.2009 122.37 62.1559 122.325 62.1004 122.325V122.727C61.934 122.727 61.7991 122.592 61.7991 122.426H62.2009ZM62.1004 122.325H64.8012V122.727H62.1004V122.325ZM64.8012 122.325C64.7997 122.325 64.7983 122.325 64.7968 122.325L64.8147 122.727C64.8103 122.727 64.8057 122.727 64.8012 122.727V122.325ZM84.096 122.727H64.8058V122.325H84.096V122.727ZM83.8952 122.526V122.526H84.2969V122.526H83.8952ZM85.9541 122.727H84.096V122.325H85.9541V122.727ZM86.155 110.122V122.526H85.7532V110.122H86.155Z" fill="black" mask="url(#path-55-inside-4)"/>
<rect x="1.94462" y="1.94462" width="402.111" height="219.716" stroke="#5C5450" stroke-width="2.11075"/>
<defs>
<filter id="filter0_d" x="96.7686" y="68.8539" width="142.385" height="23.0932" filterUnits="userSpaceOnUse" color-interpolation-filters="sRGB">
<feFlood flood-opacity="0" result="BackgroundImageFix"/>
<feColorMatrix in="SourceAlpha" type="matrix" values="0 0 0 0 0 0 0 0 0 0 0 0 0 0 0 0 0 0 127 0"/>
<feOffset dx="0.682196" dy="0.682196"/>
<feGaussianBlur stdDeviation="0.0909595"/>
<feColorMatrix type="matrix" values="0 0 0 0 0 0 0 0 0 0 0 0 0 0 0 0 0 0 0.17 0"/>
<feBlend mode="normal" in2="BackgroundImageFix" result="effect1_dropShadow"/>
<feBlend mode="normal" in="SourceGraphic" in2="effect1_dropShadow" result="shape"/>
</filter>
<radialGradient id="paint0_radial" cx="0" cy="0" r="1" gradientUnits="userSpaceOnUse" gradientTransform="translate(257.724 117.881) rotate(90) scale(9.56651)">
<stop stop-color="#333333"/>
<stop offset="0.40625" stop-color="#5B6469"/>
<stop offset="1"/>
</radialGradient>
<radialGradient id="paint1_radial" cx="0" cy="0" r="1" gradientUnits="userSpaceOnUse" gradientTransform="translate(288.006 131.415) scale(16.9485)">
<stop offset="0.7777" stop-color="#1A1A1A"/>
<stop offset="0.8882" stop-color="#333333"/>
<stop offset="1"/>
</radialGradient>
<radialGradient id="paint2_radial" cx="0" cy="0" r="1" gradientUnits="userSpaceOnUse" gradientTransform="translate(287.949 131.358) scale(12.7255)">
<stop stop-color="#8D8C8C"/>
<stop offset="0.0810056" stop-color="#898989"/>
<stop offset="0.1659" stop-color="#808080"/>
<stop offset="0.2687" stop-color="#868686"/>
<stop offset="0.3295" stop-color="#A4A4A4"/>
<stop offset="0.3447" stop-color="#ACACAC"/>
<stop offset="0.5274" stop-color="#B3B3B3"/>
<stop offset="0.5715" stop-color="#A4A4A4"/>
<stop offset="0.6558" stop-color="#7D7D7D"/>
<stop offset="0.7012" stop-color="#666666"/>
<stop offset="0.7387" stop-color="#6F6F70"/>
<stop offset="0.8018" stop-color="#88898A"/>
<stop offset="0.8676" stop-color="#A8AAAC"/>
<stop offset="0.927" stop-color="#7E8486"/>
<stop offset="1" stop-color="#465053"/>
</radialGradient>
<radialGradient id="paint3_radial" cx="0" cy="0" r="1" gradientUnits="userSpaceOnUse" gradientTransform="translate(287.861 125.893) rotate(2.29628) scale(1.03014)">
<stop offset="0.00561773" stop-color="#534741"/>
<stop offset="0.1684" stop-color="#5C5450"/>
<stop offset="0.4792" stop-color="#737577"/>
<stop offset="0.6742" stop-color="#838C92"/>
<stop offset="0.9793" stop-color="#333333"/>
<stop offset="0.9852" stop-color="#3E4042"/>
<stop offset="0.9965" stop-color="#5B6469"/>
<stop offset="1" stop-color="#657076"/>
</radialGradient>
<radialGradient id="paint4_radial" cx="0" cy="0" r="1" gradientUnits="userSpaceOnUse" gradientTransform="translate(287.861 136.929) rotate(2.29628) scale(1.03014)">
<stop offset="0.00561773" stop-color="#534741"/>
<stop offset="0.1684" stop-color="#5C5450"/>
<stop offset="0.4792" stop-color="#737577"/>
<stop offset="0.6742" stop-color="#838C92"/>
<stop offset="0.9793" stop-color="#333333"/>
<stop offset="0.9852" stop-color="#3E4042"/>
<stop offset="0.9965" stop-color="#5B6469"/>
<stop offset="1" stop-color="#657076"/>
</radialGradient>
<radialGradient id="paint5_radial" cx="0" cy="0" r="1" gradientUnits="userSpaceOnUse" gradientTransform="translate(283.882 127.517) rotate(-42.7022) scale(1.03015)">
<stop offset="0.00561773" stop-color="#534741"/>
<stop offset="0.1684" stop-color="#5C5450"/>
<stop offset="0.4792" stop-color="#737577"/>
<stop offset="0.6742" stop-color="#838C92"/>
<stop offset="0.9793" stop-color="#333333"/>
<stop offset="0.9852" stop-color="#3E4042"/>
<stop offset="0.9965" stop-color="#5B6469"/>
<stop offset="1" stop-color="#657076"/>
</radialGradient>
<radialGradient id="paint6_radial" cx="0" cy="0" r="1" gradientUnits="userSpaceOnUse" gradientTransform="translate(291.686 135.321) rotate(-42.7022) scale(1.03015)">
<stop offset="0.00561773" stop-color="#534741"/>
<stop offset="0.1684" stop-color="#5C5450"/>
<stop offset="0.4792" stop-color="#737577"/>
<stop offset="0.6742" stop-color="#838C92"/>
<stop offset="0.9793" stop-color="#333333"/>
<stop offset="0.9852" stop-color="#3E4042"/>
<stop offset="0.9965" stop-color="#5B6469"/>
<stop offset="1" stop-color="#657076"/>
</radialGradient>
<radialGradient id="paint7_radial" cx="0" cy="0" r="1" gradientUnits="userSpaceOnUse" gradientTransform="translate(282.266 131.418) rotate(-87.7037) scale(1.03014)">
<stop offset="0.00561773" stop-color="#534741"/>
<stop offset="0.1684" stop-color="#5C5450"/>
<stop offset="0.4792" stop-color="#737577"/>
<stop offset="0.6742" stop-color="#838C92"/>
<stop offset="0.9793" stop-color="#333333"/>
<stop offset="0.9852" stop-color="#3E4042"/>
<stop offset="0.9965" stop-color="#5B6469"/>
<stop offset="1" stop-color="#657076"/>
</radialGradient>
<radialGradient id="paint8_radial" cx="0" cy="0" r="1" gradientUnits="userSpaceOnUse" gradientTransform="translate(293.302 131.418) rotate(-87.7037) scale(1.03014)">
<stop offset="0.00561773" stop-color="#534741"/>
<stop offset="0.1684" stop-color="#5C5450"/>
<stop offset="0.4792" stop-color="#737577"/>
<stop offset="0.6742" stop-color="#838C92"/>
<stop offset="0.9793" stop-color="#333333"/>
<stop offset="0.9852" stop-color="#3E4042"/>
<stop offset="0.9965" stop-color="#5B6469"/>
<stop offset="1" stop-color="#657076"/>
</radialGradient>
<radialGradient id="paint9_radial" cx="0" cy="0" r="1" gradientUnits="userSpaceOnUse" gradientTransform="translate(283.882 135.32) rotate(-132.702) scale(1.03015)">
<stop offset="0.00561773" stop-color="#534741"/>
<stop offset="0.1684" stop-color="#5C5450"/>
<stop offset="0.4792" stop-color="#737577"/>
<stop offset="0.6742" stop-color="#838C92"/>
<stop offset="0.9793" stop-color="#333333"/>
<stop offset="0.9852" stop-color="#3E4042"/>
<stop offset="0.9965" stop-color="#5B6469"/>
<stop offset="1" stop-color="#657076"/>
</radialGradient>
<radialGradient id="paint10_radial" cx="0" cy="0" r="1" gradientUnits="userSpaceOnUse" gradientTransform="translate(291.687 127.516) rotate(-132.702) scale(1.03015)">
<stop offset="0.00561773" stop-color="#534741"/>
<stop offset="0.1684" stop-color="#5C5450"/>
<stop offset="0.4792" stop-color="#737577"/>
<stop offset="0.6742" stop-color="#838C92"/>
<stop offset="0.9793" stop-color="#333333"/>
<stop offset="0.9852" stop-color="#3E4042"/>
<stop offset="0.9965" stop-color="#5B6469"/>
<stop offset="1" stop-color="#657076"/>
</radialGradient>
<radialGradient id="paint11_radial" cx="0" cy="0" r="1" gradientUnits="userSpaceOnUse" gradientTransform="translate(150.107 134.076) scale(16.9485)">
<stop offset="0.7777" stop-color="#1A1A1A"/>
<stop offset="0.8882" stop-color="#333333"/>
<stop offset="1"/>
</radialGradient>
<radialGradient id="paint12_radial" cx="0" cy="0" r="1" gradientUnits="userSpaceOnUse" gradientTransform="translate(150.051 134.02) scale(12.7255)">
<stop stop-color="#8D8C8C"/>
<stop offset="0.0810056" stop-color="#898989"/>
<stop offset="0.1659" stop-color="#808080"/>
<stop offset="0.2687" stop-color="#868686"/>
<stop offset="0.3295" stop-color="#A4A4A4"/>
<stop offset="0.3447" stop-color="#ACACAC"/>
<stop offset="0.5274" stop-color="#B3B3B3"/>
<stop offset="0.5715" stop-color="#A4A4A4"/>
<stop offset="0.6558" stop-color="#7D7D7D"/>
<stop offset="0.7012" stop-color="#666666"/>
<stop offset="0.7387" stop-color="#6F6F70"/>
<stop offset="0.8018" stop-color="#88898A"/>
<stop offset="0.8676" stop-color="#A8AAAC"/>
<stop offset="0.927" stop-color="#7E8486"/>
<stop offset="1" stop-color="#465053"/>
</radialGradient>
<radialGradient id="paint13_radial" cx="0" cy="0" r="1" gradientUnits="userSpaceOnUse" gradientTransform="translate(149.963 128.555) rotate(2.29626) scale(1.03014)">
<stop offset="0.00561773" stop-color="#534741"/>
<stop offset="0.1684" stop-color="#5C5450"/>
<stop offset="0.4792" stop-color="#737577"/>
<stop offset="0.6742" stop-color="#838C92"/>
<stop offset="0.9793" stop-color="#333333"/>
<stop offset="0.9852" stop-color="#3E4042"/>
<stop offset="0.9965" stop-color="#5B6469"/>
<stop offset="1" stop-color="#657076"/>
</radialGradient>
<radialGradient id="paint14_radial" cx="0" cy="0" r="1" gradientUnits="userSpaceOnUse" gradientTransform="translate(149.963 139.591) rotate(2.29627) scale(1.03014)">
<stop offset="0.00561773" stop-color="#534741"/>
<stop offset="0.1684" stop-color="#5C5450"/>
<stop offset="0.4792" stop-color="#737577"/>
<stop offset="0.6742" stop-color="#838C92"/>
<stop offset="0.9793" stop-color="#333333"/>
<stop offset="0.9852" stop-color="#3E4042"/>
<stop offset="0.9965" stop-color="#5B6469"/>
<stop offset="1" stop-color="#657076"/>
</radialGradient>
<radialGradient id="paint15_radial" cx="0" cy="0" r="1" gradientUnits="userSpaceOnUse" gradientTransform="translate(145.984 130.178) rotate(-42.7024) scale(1.03015)">
<stop offset="0.00561773" stop-color="#534741"/>
<stop offset="0.1684" stop-color="#5C5450"/>
<stop offset="0.4792" stop-color="#737577"/>
<stop offset="0.6742" stop-color="#838C92"/>
<stop offset="0.9793" stop-color="#333333"/>
<stop offset="0.9852" stop-color="#3E4042"/>
<stop offset="0.9965" stop-color="#5B6469"/>
<stop offset="1" stop-color="#657076"/>
</radialGradient>
<radialGradient id="paint16_radial" cx="0" cy="0" r="1" gradientUnits="userSpaceOnUse" gradientTransform="translate(153.788 137.983) rotate(-42.7021) scale(1.03015)">
<stop offset="0.00561773" stop-color="#534741"/>
<stop offset="0.1684" stop-color="#5C5450"/>
<stop offset="0.4792" stop-color="#737577"/>
<stop offset="0.6742" stop-color="#838C92"/>
<stop offset="0.9793" stop-color="#333333"/>
<stop offset="0.9852" stop-color="#3E4042"/>
<stop offset="0.9965" stop-color="#5B6469"/>
<stop offset="1" stop-color="#657076"/>
</radialGradient>
<radialGradient id="paint17_radial" cx="0" cy="0" r="1" gradientUnits="userSpaceOnUse" gradientTransform="translate(144.368 134.08) rotate(-87.7037) scale(1.03014)">
<stop offset="0.00561773" stop-color="#534741"/>
<stop offset="0.1684" stop-color="#5C5450"/>
<stop offset="0.4792" stop-color="#737577"/>
<stop offset="0.6742" stop-color="#838C92"/>
<stop offset="0.9793" stop-color="#333333"/>
<stop offset="0.9852" stop-color="#3E4042"/>
<stop offset="0.9965" stop-color="#5B6469"/>
<stop offset="1" stop-color="#657076"/>
</radialGradient>
<radialGradient id="paint18_radial" cx="0" cy="0" r="1" gradientUnits="userSpaceOnUse" gradientTransform="translate(155.404 134.08) rotate(-87.7037) scale(1.03014)">
<stop offset="0.00561773" stop-color="#534741"/>
<stop offset="0.1684" stop-color="#5C5450"/>
<stop offset="0.4792" stop-color="#737577"/>
<stop offset="0.6742" stop-color="#838C92"/>
<stop offset="0.9793" stop-color="#333333"/>
<stop offset="0.9852" stop-color="#3E4042"/>
<stop offset="0.9965" stop-color="#5B6469"/>
<stop offset="1" stop-color="#657076"/>
</radialGradient>
<radialGradient id="paint19_radial" cx="0" cy="0" r="1" gradientUnits="userSpaceOnUse" gradientTransform="translate(145.984 137.981) rotate(-132.702) scale(1.03015)">
<stop offset="0.00561773" stop-color="#534741"/>
<stop offset="0.1684" stop-color="#5C5450"/>
<stop offset="0.4792" stop-color="#737577"/>
<stop offset="0.6742" stop-color="#838C92"/>
<stop offset="0.9793" stop-color="#333333"/>
<stop offset="0.9852" stop-color="#3E4042"/>
<stop offset="0.9965" stop-color="#5B6469"/>
<stop offset="1" stop-color="#657076"/>
</radialGradient>
<radialGradient id="paint20_radial" cx="0" cy="0" r="1" gradientUnits="userSpaceOnUse" gradientTransform="translate(153.788 130.178) rotate(-132.702) scale(1.03015)">
<stop offset="0.00561773" stop-color="#534741"/>
<stop offset="0.1684" stop-color="#5C5450"/>
<stop offset="0.4792" stop-color="#737577"/>
<stop offset="0.6742" stop-color="#838C92"/>
<stop offset="0.9793" stop-color="#333333"/>
<stop offset="0.9852" stop-color="#3E4042"/>
<stop offset="0.9965" stop-color="#5B6469"/>
<stop offset="1" stop-color="#657076"/>
</radialGradient>
<radialGradient id="paint21_radial" cx="0" cy="0" r="1" gradientUnits="userSpaceOnUse" gradientTransform="translate(110.335 134.101) scale(16.9485)">
<stop offset="0.7777" stop-color="#1A1A1A"/>
<stop offset="0.8882" stop-color="#333333"/>
<stop offset="1"/>
</radialGradient>
<radialGradient id="paint22_radial" cx="0" cy="0" r="1" gradientUnits="userSpaceOnUse" gradientTransform="translate(110.278 134.045) scale(12.7255)">
<stop stop-color="#8D8C8C"/>
<stop offset="0.0810056" stop-color="#898989"/>
<stop offset="0.1659" stop-color="#808080"/>
<stop offset="0.2687" stop-color="#868686"/>
<stop offset="0.3295" stop-color="#A4A4A4"/>
<stop offset="0.3447" stop-color="#ACACAC"/>
<stop offset="0.5274" stop-color="#B3B3B3"/>
<stop offset="0.5715" stop-color="#A4A4A4"/>
<stop offset="0.6558" stop-color="#7D7D7D"/>
<stop offset="0.7012" stop-color="#666666"/>
<stop offset="0.7387" stop-color="#6F6F70"/>
<stop offset="0.8018" stop-color="#88898A"/>
<stop offset="0.8676" stop-color="#A8AAAC"/>
<stop offset="0.927" stop-color="#7E8486"/>
<stop offset="1" stop-color="#465053"/>
</radialGradient>
<radialGradient id="paint23_radial" cx="0" cy="0" r="1" gradientUnits="userSpaceOnUse" gradientTransform="translate(110.191 128.58) rotate(2.29629) scale(1.03013)">
<stop offset="0.00561773" stop-color="#534741"/>
<stop offset="0.1684" stop-color="#5C5450"/>
<stop offset="0.4792" stop-color="#737577"/>
<stop offset="0.6742" stop-color="#838C92"/>
<stop offset="0.9793" stop-color="#333333"/>
<stop offset="0.9852" stop-color="#3E4042"/>
<stop offset="0.9965" stop-color="#5B6469"/>
<stop offset="1" stop-color="#657076"/>
</radialGradient>
<radialGradient id="paint24_radial" cx="0" cy="0" r="1" gradientUnits="userSpaceOnUse" gradientTransform="translate(110.191 139.616) rotate(2.29629) scale(1.03013)">
<stop offset="0.00561773" stop-color="#534741"/>
<stop offset="0.1684" stop-color="#5C5450"/>
<stop offset="0.4792" stop-color="#737577"/>
<stop offset="0.6742" stop-color="#838C92"/>
<stop offset="0.9793" stop-color="#333333"/>
<stop offset="0.9852" stop-color="#3E4042"/>
<stop offset="0.9965" stop-color="#5B6469"/>
<stop offset="1" stop-color="#657076"/>
</radialGradient>
<radialGradient id="paint25_radial" cx="0" cy="0" r="1" gradientUnits="userSpaceOnUse" gradientTransform="translate(106.212 130.204) rotate(-42.7024) scale(1.03015)">
<stop offset="0.00561773" stop-color="#534741"/>
<stop offset="0.1684" stop-color="#5C5450"/>
<stop offset="0.4792" stop-color="#737577"/>
<stop offset="0.6742" stop-color="#838C92"/>
<stop offset="0.9793" stop-color="#333333"/>
<stop offset="0.9852" stop-color="#3E4042"/>
<stop offset="0.9965" stop-color="#5B6469"/>
<stop offset="1" stop-color="#657076"/>
</radialGradient>
<radialGradient id="paint26_radial" cx="0" cy="0" r="1" gradientUnits="userSpaceOnUse" gradientTransform="translate(114.016 138.008) rotate(-42.7022) scale(1.03015)">
<stop offset="0.00561773" stop-color="#534741"/>
<stop offset="0.1684" stop-color="#5C5450"/>
<stop offset="0.4792" stop-color="#737577"/>
<stop offset="0.6742" stop-color="#838C92"/>
<stop offset="0.9793" stop-color="#333333"/>
<stop offset="0.9852" stop-color="#3E4042"/>
<stop offset="0.9965" stop-color="#5B6469"/>
<stop offset="1" stop-color="#657076"/>
</radialGradient>
<radialGradient id="paint27_radial" cx="0" cy="0" r="1" gradientUnits="userSpaceOnUse" gradientTransform="translate(104.595 134.105) rotate(-87.7037) scale(1.03014)">
<stop offset="0.00561773" stop-color="#534741"/>
<stop offset="0.1684" stop-color="#5C5450"/>
<stop offset="0.4792" stop-color="#737577"/>
<stop offset="0.6742" stop-color="#838C92"/>
<stop offset="0.9793" stop-color="#333333"/>
<stop offset="0.9852" stop-color="#3E4042"/>
<stop offset="0.9965" stop-color="#5B6469"/>
<stop offset="1" stop-color="#657076"/>
</radialGradient>
<radialGradient id="paint28_radial" cx="0" cy="0" r="1" gradientUnits="userSpaceOnUse" gradientTransform="translate(115.631 134.105) rotate(-87.7037) scale(1.03013)">
<stop offset="0.00561773" stop-color="#534741"/>
<stop offset="0.1684" stop-color="#5C5450"/>
<stop offset="0.4792" stop-color="#737577"/>
<stop offset="0.6742" stop-color="#838C92"/>
<stop offset="0.9793" stop-color="#333333"/>
<stop offset="0.9852" stop-color="#3E4042"/>
<stop offset="0.9965" stop-color="#5B6469"/>
<stop offset="1" stop-color="#657076"/>
</radialGradient>
<radialGradient id="paint29_radial" cx="0" cy="0" r="1" gradientUnits="userSpaceOnUse" gradientTransform="translate(106.212 138.006) rotate(-132.702) scale(1.03015)">
<stop offset="0.00561773" stop-color="#534741"/>
<stop offset="0.1684" stop-color="#5C5450"/>
<stop offset="0.4792" stop-color="#737577"/>
<stop offset="0.6742" stop-color="#838C92"/>
<stop offset="0.9793" stop-color="#333333"/>
<stop offset="0.9852" stop-color="#3E4042"/>
<stop offset="0.9965" stop-color="#5B6469"/>
<stop offset="1" stop-color="#657076"/>
</radialGradient>
<radialGradient id="paint30_radial" cx="0" cy="0" r="1" gradientUnits="userSpaceOnUse" gradientTransform="translate(114.016 130.203) rotate(-132.703) scale(1.03015)">
<stop offset="0.00561773" stop-color="#534741"/>
<stop offset="0.1684" stop-color="#5C5450"/>
<stop offset="0.4792" stop-color="#737577"/>
<stop offset="0.6742" stop-color="#838C92"/>
<stop offset="0.9793" stop-color="#333333"/>
<stop offset="0.9852" stop-color="#3E4042"/>
<stop offset="0.9965" stop-color="#5B6469"/>
<stop offset="1" stop-color="#657076"/>
</radialGradient>
</defs>
</svg>
