<svg width="409" height="176" viewBox="0 0 409 176" fill="none" xmlns="http://www.w3.org/2000/svg">
<ellipse opacity="0.5" cx="195.343" cy="170.82" rx="187.977" ry="5.14519" fill="#403F45" fill-opacity="0.72"/>
<path d="M0.183464 123.008C0.183464 122.917 0.257078 122.843 0.347885 122.843H14.6229C14.7137 122.843 14.7874 122.917 14.7874 123.008V143.09C14.7874 143.181 14.7137 143.255 14.6229 143.255H0.347885C0.257078 143.255 0.183464 143.181 0.183464 143.09V123.008Z" fill="#B8B8B8" stroke="black" stroke-width="0.328842"/>
<mask id="path-3-inside-1" fill="white">
<path fill-rule="evenodd" clip-rule="evenodd" d="M39.9343 15.3083C40.2809 14.765 40.8854 14.4303 41.5298 14.4303H121.311C122.355 14.4303 123.202 15.2769 123.202 16.3212V111.099H110.27V25.9279C110.27 24.8836 109.423 24.0371 108.379 24.0371H40.756C40.0548 24.0371 39.4065 24.4339 39.0795 25.0542C24.5746 52.5703 17.3872 67.9928 14.9319 86.4813L14.9319 122.864C14.881 122.831 14.8207 122.813 14.756 122.813H3.5033V98.4635C3.5033 98.2819 3.53062 98.0973 3.58222 97.9231C14.9168 59.6657 23.1234 41.6575 39.9343 15.3083ZM15.0848 143.44H58.8422C58.8417 143.367 58.8415 143.294 58.8415 143.222C58.8415 125.581 73.0869 111.261 90.721 111.1V111.099H91.0218H110.188V25.9279C110.188 24.9291 109.378 24.1193 108.379 24.1193H40.756C40.0858 24.1193 39.4652 24.4988 39.1523 25.0925C24.6483 52.6069 17.4679 68.017 15.0141 86.4868L15.0141 122.938C15.0584 122.994 15.0848 123.065 15.0848 123.142V143.44ZM42.9936 27.6215C42.3712 27.6329 41.793 27.9502 41.4534 28.4719C31.8429 43.2353 25.72 58.7232 23.6536 67.3165L19.0069 81.9243C18.5498 83.3613 19.8763 84.729 21.3266 84.316L107.265 59.8474C107.441 59.7971 107.563 59.6357 107.563 59.4521V28.3646C107.563 27.3068 106.695 26.4547 105.638 26.4741L42.9936 27.6215Z"/>
</mask>
<path fill-rule="evenodd" clip-rule="evenodd" d="M39.9343 15.3083C40.2809 14.765 40.8854 14.4303 41.5298 14.4303H121.311C122.355 14.4303 123.202 15.2769 123.202 16.3212V111.099H110.27V25.9279C110.27 24.8836 109.423 24.0371 108.379 24.0371H40.756C40.0548 24.0371 39.4065 24.4339 39.0795 25.0542C24.5746 52.5703 17.3872 67.9928 14.9319 86.4813L14.9319 122.864C14.881 122.831 14.8207 122.813 14.756 122.813H3.5033V98.4635C3.5033 98.2819 3.53062 98.0973 3.58222 97.9231C14.9168 59.6657 23.1234 41.6575 39.9343 15.3083ZM15.0848 143.44H58.8422C58.8417 143.367 58.8415 143.294 58.8415 143.222C58.8415 125.581 73.0869 111.261 90.721 111.1V111.099H91.0218H110.188V25.9279C110.188 24.9291 109.378 24.1193 108.379 24.1193H40.756C40.0858 24.1193 39.4652 24.4988 39.1523 25.0925C24.6483 52.6069 17.4679 68.017 15.0141 86.4868L15.0141 122.938C15.0584 122.994 15.0848 123.065 15.0848 123.142V143.44ZM42.9936 27.6215C42.3712 27.6329 41.793 27.9502 41.4534 28.4719C31.8429 43.2353 25.72 58.7232 23.6536 67.3165L19.0069 81.9243C18.5498 83.3613 19.8763 84.729 21.3266 84.316L107.265 59.8474C107.441 59.7971 107.563 59.6357 107.563 59.4521V28.3646C107.563 27.3068 106.695 26.4547 105.638 26.4741L42.9936 27.6215Z" fill="#FFF3DC"/>
<path d="M39.9343 15.3083L39.657 15.1314V15.1314L39.9343 15.3083ZM123.202 111.099V111.428H123.531V111.099H123.202ZM110.27 111.099H109.941V111.428H110.27V111.099ZM39.0795 25.0542L39.3704 25.2075L39.0795 25.0542ZM14.9319 86.4813L14.6059 86.438L14.603 86.4596V86.4813H14.9319ZM14.9319 122.864L14.7557 123.141L15.2607 123.462V122.864H14.9319ZM3.5033 122.813H3.17445V123.142H3.5033V122.813ZM3.58222 97.9231L3.89752 98.0165H3.89752L3.58222 97.9231ZM15.0848 143.44H14.756V143.768H15.0848V143.44ZM58.8422 143.44V143.768H59.1733L59.1711 143.437L58.8422 143.44ZM90.721 111.1L90.7241 111.429L91.0499 111.426V111.1H90.721ZM90.721 111.099V110.77H90.3922V111.099H90.721ZM110.188 111.099V111.428H110.516V111.099H110.188ZM39.1523 25.0925L38.8614 24.9392L38.8614 24.9392L39.1523 25.0925ZM15.0141 86.4868L14.6881 86.4434L14.6852 86.465V86.4868H15.0141ZM15.0141 122.938H14.6853V123.052L14.7561 123.142L15.0141 122.938ZM41.4534 28.4719L41.1778 28.2925V28.2925L41.4534 28.4719ZM42.9936 27.6215L42.9996 27.9502L42.9936 27.6215ZM23.6536 67.3165L23.967 67.4162L23.9706 67.4049L23.9733 67.3934L23.6536 67.3165ZM19.0069 81.9243L19.3203 82.024L19.0069 81.9243ZM21.3266 84.316L21.4166 84.6323L21.3266 84.316ZM107.265 59.8474L107.355 60.1637H107.355L107.265 59.8474ZM105.638 26.4741L105.644 26.8029L105.638 26.4741ZM41.5298 14.1015C40.7719 14.1015 40.0634 14.4945 39.657 15.1314L40.2115 15.4852C40.4983 15.0356 40.9988 14.7592 41.5298 14.7592V14.1015ZM121.311 14.1015H41.5298V14.7592H121.311V14.1015ZM123.531 16.3212C123.531 15.0953 122.537 14.1015 121.311 14.1015V14.7592C122.174 14.7592 122.873 15.4585 122.873 16.3212H123.531ZM123.531 111.099V16.3212H122.873V111.099H123.531ZM110.27 111.428H123.202V110.77H110.27V111.428ZM109.941 25.9279V111.099H110.599V25.9279H109.941ZM108.379 24.3659C109.242 24.3659 109.941 25.0653 109.941 25.9279H110.599C110.599 24.702 109.605 23.7082 108.379 23.7082V24.3659ZM40.756 24.3659H108.379V23.7082H40.756V24.3659ZM39.3704 25.2075C39.6414 24.6936 40.1787 24.3659 40.756 24.3659V23.7082C39.931 23.7082 39.1716 24.1743 38.7886 24.9008L39.3704 25.2075ZM15.2579 86.5246C17.7045 68.1016 24.8637 52.7271 39.3704 25.2075L38.7886 24.9008C24.2855 52.4136 17.0699 67.884 14.6059 86.438L15.2579 86.5246ZM15.2607 122.864L15.2607 86.4813H14.603L14.603 122.864H15.2607ZM14.756 123.142L14.7557 123.141L15.108 122.586C15.006 122.521 14.8849 122.484 14.756 122.484V123.142ZM3.5033 123.142H14.756V122.484H3.5033V123.142ZM3.17445 98.4635V122.813H3.83214V98.4635H3.17445ZM3.26693 97.8297C3.20653 98.0335 3.17445 98.2496 3.17445 98.4635H3.83214C3.83214 98.3142 3.85471 98.161 3.89752 98.0165L3.26693 97.8297ZM39.657 15.1314C22.8271 41.5105 14.6087 59.5477 3.26693 97.8297L3.89752 98.0165C15.2248 59.7837 23.4197 41.8045 40.2115 15.4852L39.657 15.1314ZM15.0848 143.768H58.8422V143.111H15.0848V143.768ZM59.1711 143.437C59.1706 143.365 59.1703 143.294 59.1703 143.222H58.5127C58.5127 143.295 58.5129 143.368 58.5134 143.442L59.1711 143.437ZM59.1703 143.222C59.1703 125.762 73.2696 111.589 90.7241 111.429L90.718 110.771C72.9041 110.934 58.5127 125.4 58.5127 143.222H59.1703ZM91.0499 111.1V111.099H90.3922V111.1H91.0499ZM90.721 111.428H91.0218V110.77H90.721V111.428ZM91.0218 111.428H110.188V110.77H91.0218V111.428ZM110.516 111.099V25.9279H109.859V111.099H110.516ZM110.516 25.9279C110.516 24.7474 109.559 23.7905 108.379 23.7905V24.4481C109.196 24.4481 109.859 25.1107 109.859 25.9279H110.516ZM108.379 23.7905H40.756V24.4481H108.379V23.7905ZM40.756 23.7905C39.962 23.7905 39.2304 24.2392 38.8614 24.9392L39.4431 25.2459C39.7001 24.7585 40.2096 24.4481 40.756 24.4481V23.7905ZM38.8614 24.9392C24.3592 52.4501 17.1506 67.9082 14.6881 86.4434L15.3401 86.5301C17.7852 68.1258 24.9374 52.7636 39.4432 25.2459L38.8614 24.9392ZM14.6852 86.4868L14.6853 122.938H15.3429L15.3429 86.4868H14.6852ZM14.7561 123.142L14.756 123.142H15.4137C15.4137 122.988 15.3606 122.846 15.2721 122.734L14.7561 123.142ZM14.756 123.142V143.44H15.4137V123.142H14.756ZM41.729 28.6513C42.0085 28.2219 42.4852 27.9597 42.9996 27.9502L42.9876 27.2927C42.2572 27.306 41.5775 27.6784 41.1778 28.2925L41.729 28.6513ZM23.9733 67.3934C26.0301 58.84 32.1369 43.3865 41.729 28.6513L41.1778 28.2925C31.5489 43.0842 25.4099 58.6064 23.3339 67.2396L23.9733 67.3934ZM19.3203 82.024L23.967 67.4162L23.3402 67.2168L18.6936 81.8246L19.3203 82.024ZM21.2365 83.9998C20.0385 84.3409 18.9427 83.2111 19.3203 82.024L18.6936 81.8246C18.157 83.5115 19.7141 85.1171 21.4166 84.6323L21.2365 83.9998ZM107.174 59.5311L21.2365 83.9998L21.4166 84.6323L107.355 60.1637L107.174 59.5311ZM107.234 59.4521C107.234 59.4888 107.21 59.5211 107.174 59.5311L107.355 60.1637C107.673 60.0731 107.892 59.7827 107.892 59.4521H107.234ZM107.234 28.3646V59.4521H107.892V28.3646H107.234ZM105.644 26.8029C106.517 26.7869 107.234 27.4907 107.234 28.3646H107.892C107.892 27.1228 106.873 26.1226 105.632 26.1453L105.644 26.8029ZM42.9996 27.9502L105.644 26.8029L105.632 26.1453L42.9876 27.2927L42.9996 27.9502Z" fill="black" mask="url(#path-3-inside-1)"/>
<mask id="path-5-inside-2" fill="white">
<path fill-rule="evenodd" clip-rule="evenodd" d="M131.149 15.0307H123.33V124.909H131.149V15.0307ZM161.826 119.095H131.149V124.909H147.089L161.826 119.095Z"/>
</mask>
<path fill-rule="evenodd" clip-rule="evenodd" d="M131.149 15.0307H123.33V124.909H131.149V15.0307ZM161.826 119.095H131.149V124.909H147.089L161.826 119.095Z" fill="#FFF3DC"/>
<path d="M123.33 15.0307V14.7019H123.001V15.0307H123.33ZM131.149 15.0307H131.478V14.7019H131.149V15.0307ZM123.33 124.909H123.001V125.237H123.33V124.909ZM131.149 124.909V125.237H131.478V124.909H131.149ZM131.149 119.095V118.766H130.82V119.095H131.149ZM161.826 119.095L161.946 119.401L161.826 118.766V119.095ZM131.149 124.909H130.82V125.237H131.149V124.909ZM147.089 124.909V125.237H147.151L147.21 125.215L147.089 124.909ZM123.33 15.3596H131.149V14.7019H123.33V15.3596ZM123.658 124.909V15.0307H123.001V124.909H123.658ZM131.149 124.58H123.33V125.237H131.149V124.58ZM130.82 15.0307V124.909H131.478V15.0307H130.82ZM131.149 119.424H161.826V118.766H131.149V119.424ZM131.478 124.909V119.095H130.82V124.909H131.478ZM147.089 124.58H131.149V125.237H147.089V124.58ZM161.705 118.789L146.968 124.603L147.21 125.215L161.946 119.401L161.705 118.789Z" fill="black" mask="url(#path-5-inside-2)"/>
<path d="M106.395 111.158L112.909 111.158C118.112 121.231 122.71 124.525 126.192 137.573C129.673 150.621 124.415 139.921 124.415 139.921C119.01 127.092 114.68 120.669 106.395 111.158Z" fill="black"/>
<path d="M90.2763 114.383C105.175 114.383 117.245 126.44 117.245 141.323C117.245 156.206 105.175 168.263 90.2763 168.263C75.3773 168.263 63.3076 156.206 63.3076 141.323C63.3076 126.44 75.4131 114.383 90.2763 114.383ZM90.2763 161.501C101.451 161.501 110.476 152.45 110.476 141.323C110.476 130.196 101.415 121.145 90.2763 121.145C79.1378 121.145 70.0766 130.196 70.0766 141.323C70.0766 152.45 79.1378 161.501 90.2763 161.501Z" fill="url(#paint0_radial)"/>
<path d="M90.3838 161.43C79.208 161.43 70.1483 152.38 70.1483 141.216C70.1483 130.052 79.208 121.001 90.3838 121.001C101.56 121.001 110.619 130.052 110.619 141.216C110.619 152.38 101.56 161.43 90.3838 161.43Z" fill="url(#paint1_radial)"/>
<path d="M89.5958 131.055L91.3508 130.983L92.282 132.45L91.4582 134.024L89.7033 134.096L88.7721 132.593L89.5958 131.055Z" fill="url(#paint2_radial)"/>
<path d="M89.5958 148.586L91.3508 148.514L92.282 149.981L91.4582 151.555L89.7033 151.627L88.7721 150.124L89.5958 148.586Z" fill="url(#paint3_radial)"/>
<path d="M97.2244 133.416L98.5138 134.597L98.1556 136.314L96.4723 136.815L95.183 135.634L95.5769 133.917L97.2244 133.416Z" fill="url(#paint4_radial)"/>
<path d="M84.8325 145.795L86.1218 146.976L85.7279 148.693L84.0446 149.23L82.7552 148.013L83.1492 146.332L84.8325 145.795Z" fill="url(#paint5_radial)"/>
<path d="M100.913 140.393L100.985 142.11L99.4808 143.076L97.9407 142.253L97.8691 140.5L99.3375 139.57L100.913 140.393Z" fill="url(#paint6_radial)"/>
<path d="M83.364 140.393L83.4357 142.11L81.9314 143.076L80.3914 142.253L80.3198 140.5L81.7882 139.57L83.364 140.393Z" fill="url(#paint7_radial)"/>
<path d="M98.5496 147.906L97.3677 149.194L95.6486 148.8L95.1472 147.119L96.329 145.831L98.0482 146.224L98.5496 147.906Z" fill="url(#paint8_radial)"/>
<path d="M86.1576 135.491L84.9757 136.779L83.2566 136.386L82.7194 134.74L83.9371 133.452L85.6204 133.81L86.1576 135.491Z" fill="url(#paint9_radial)"/>
<path d="M309.556 118.61C324.455 118.61 336.525 130.667 336.525 145.551C336.525 160.434 324.455 172.491 309.556 172.491C294.657 172.491 282.587 160.434 282.587 145.551C282.587 130.667 294.693 118.61 309.556 118.61ZM309.556 165.729C320.73 165.729 329.756 156.678 329.756 145.551C329.756 134.424 320.694 125.372 309.556 125.372C298.417 125.372 289.356 134.424 289.356 145.551C289.356 156.678 298.417 165.729 309.556 165.729Z" fill="url(#paint10_radial)"/>
<path d="M309.663 165.658C298.488 165.658 289.428 156.608 289.428 145.444C289.428 134.279 298.488 125.229 309.663 125.229C320.839 125.229 329.899 134.279 329.899 145.444C329.899 156.608 320.839 165.658 309.663 165.658Z" fill="url(#paint11_radial)"/>
<path d="M308.876 135.283L310.63 135.211L311.562 136.678L310.738 138.252L308.983 138.324L308.052 136.821L308.876 135.283Z" fill="url(#paint12_radial)"/>
<path d="M308.876 152.814L310.63 152.742L311.562 154.209L310.738 155.783L308.983 155.855L308.052 154.352L308.876 152.814Z" fill="url(#paint13_radial)"/>
<path d="M316.504 137.644L317.793 138.825L317.435 140.542L315.752 141.043L314.463 139.862L314.857 138.145L316.504 137.644Z" fill="url(#paint14_radial)"/>
<path d="M304.112 150.023L305.401 151.204L305.007 152.921L303.324 153.458L302.035 152.241L302.429 150.56L304.112 150.023Z" fill="url(#paint15_radial)"/>
<path d="M320.193 144.621L320.265 146.338L318.76 147.304L317.22 146.481L317.149 144.728L318.617 143.798L320.193 144.621Z" fill="url(#paint16_radial)"/>
<path d="M302.644 144.621L302.715 146.338L301.211 147.304L299.671 146.481L299.599 144.728L301.068 143.798L302.644 144.621Z" fill="url(#paint17_radial)"/>
<path d="M317.829 152.134L316.647 153.422L314.928 153.028L314.427 151.347L315.609 150.059L317.328 150.452L317.829 152.134Z" fill="url(#paint18_radial)"/>
<path d="M305.437 139.719L304.255 141.007L302.536 140.614L301.999 138.968L303.217 137.68L304.9 138.038L305.437 139.719Z" fill="url(#paint19_radial)"/>
<mask id="path-28-inside-3" fill="white">
<path fill-rule="evenodd" clip-rule="evenodd" d="M197.773 119.169H200.781V134.179H233.863V119.169H236.871V134.179H269.953V119.169H272.961V137.182H269.953V137.182H236.871V137.182H233.863V137.182H200.781V137.182H197.773V137.182H164.69V137.182H161.683V119.169H164.69V134.179H197.773V119.169Z"/>
</mask>
<path fill-rule="evenodd" clip-rule="evenodd" d="M197.773 119.169H200.781V134.179H233.863V119.169H236.871V134.179H269.953V119.169H272.961V137.182H269.953V137.182H236.871V137.182H233.863V137.182H200.781V137.182H197.773V137.182H164.69V137.182H161.683V119.169H164.69V134.179H197.773V119.169Z" fill="#B8B8B8"/>
<path d="M200.781 119.169H201.109V118.84H200.781V119.169ZM197.773 119.169V118.84H197.444V119.169H197.773ZM200.781 134.179H200.452V134.508H200.781V134.179ZM233.863 134.179V134.508H234.192V134.179H233.863ZM233.863 119.169V118.84H233.534V119.169H233.863ZM236.871 119.169H237.2V118.84H236.871V119.169ZM236.871 134.179H236.542V134.508H236.871V134.179ZM269.953 134.179V134.508H270.282V134.179H269.953ZM269.953 119.169V118.84H269.624V119.169H269.953ZM272.961 119.169H273.29V118.84H272.961V119.169ZM272.961 137.182V137.51H273.29V137.182H272.961ZM269.953 137.182H269.624V137.51H269.953V137.182ZM269.953 137.182H270.282V136.853H269.953V137.182ZM236.871 137.182V136.853H236.542V137.182H236.871ZM236.871 137.182V137.51H237.2V137.182H236.871ZM233.863 137.182H233.534V137.51H233.863V137.182ZM233.863 137.182H234.192V136.853H233.863V137.182ZM200.781 137.182V136.853H200.452V137.182H200.781ZM200.781 137.182V137.51H201.109V137.182H200.781ZM197.773 137.182H197.444V137.51H197.773V137.182ZM197.773 137.182H198.102V136.853H197.773V137.182ZM164.69 137.182V136.853H164.362V137.182H164.69ZM164.69 137.182V137.511H165.019V137.182H164.69ZM161.683 137.182H161.354V137.511H161.683V137.182ZM161.683 119.169V118.84H161.354V119.169H161.683ZM164.69 119.169H165.019V118.84H164.69V119.169ZM164.69 134.179H164.362V134.508H164.69V134.179ZM197.773 134.179V134.508H198.102V134.179H197.773ZM200.781 118.84H197.773V119.498H200.781V118.84ZM201.109 134.179V119.169H200.452V134.179H201.109ZM200.781 134.508H233.863V133.851H200.781V134.508ZM234.192 134.179V119.169H233.534V134.179H234.192ZM233.863 119.498H236.871V118.84H233.863V119.498ZM236.542 119.169V134.179H237.2V119.169H236.542ZM236.871 134.508H269.953V133.851H236.871V134.508ZM269.624 119.169V134.179H270.282V119.169H269.624ZM272.961 118.84H269.953V119.498H272.961V118.84ZM273.29 137.182V119.169H272.632V137.182H273.29ZM269.953 137.51H272.961V136.853H269.953V137.51ZM269.624 137.182V137.182H270.282V137.182H269.624ZM269.953 136.853H236.871V137.51H269.953V136.853ZM236.542 137.182V137.182H237.2V137.182H236.542ZM236.871 136.853H233.863V137.51H236.871V136.853ZM234.192 137.182V137.182H233.534V137.182H234.192ZM233.863 136.853H200.781V137.51H233.863V136.853ZM201.109 137.182V137.182H200.452V137.182H201.109ZM197.773 137.51H200.781V136.853H197.773V137.51ZM197.444 137.182V137.182H198.102V137.182H197.444ZM197.773 136.853H164.69V137.51H197.773V136.853ZM165.019 137.182V137.182H164.362V137.182H165.019ZM161.683 137.511H164.69V136.853H161.683V137.511ZM161.354 119.169V137.182H162.012V119.169H161.354ZM164.69 118.84H161.683V119.498H164.69V118.84ZM165.019 134.179V119.169H164.362V134.179H165.019ZM164.69 134.508H197.773V133.851H164.69V134.508ZM197.444 119.169V134.179H198.102V119.169H197.444Z" fill="black" mask="url(#path-28-inside-3)"/>
<mask id="path-30-inside-4" fill="white">
<path fill-rule="evenodd" clip-rule="evenodd" d="M384.189 119.148H381.182V134.159H348.099V119.148H345.092V137.161H348.099V137.161H381.182V137.161H384.189V137.161H397.58C397.582 137.161 397.584 137.161 397.587 137.161H404.476C404.567 137.161 404.64 137.087 404.64 136.996V125.317C404.64 125.226 404.567 125.152 404.476 125.152H397.587C397.496 125.152 397.422 125.226 397.422 125.317V134.159H384.189V119.148Z"/>
</mask>
<path fill-rule="evenodd" clip-rule="evenodd" d="M384.189 119.148H381.182V134.159H348.099V119.148H345.092V137.161H348.099V137.161H381.182V137.161H384.189V137.161H397.58C397.582 137.161 397.584 137.161 397.587 137.161H404.476C404.567 137.161 404.64 137.087 404.64 136.996V125.317C404.64 125.226 404.567 125.152 404.476 125.152H397.587C397.496 125.152 397.422 125.226 397.422 125.317V134.159H384.189V119.148Z" fill="#B8B8B8"/>
<path d="M381.182 119.148V118.819H380.853V119.148H381.182ZM384.189 119.148H384.518V118.819H384.189V119.148ZM381.182 134.159V134.487H381.511V134.159H381.182ZM348.099 134.159H347.77V134.487H348.099V134.159ZM348.099 119.148H348.428V118.82H348.099V119.148ZM345.092 119.148V118.82H344.763V119.148H345.092ZM345.092 137.161H344.763V137.49H345.092V137.161ZM348.099 137.161V137.49H348.428V137.161H348.099ZM348.099 137.161V136.832H347.77V137.161H348.099ZM381.182 137.161H381.511V136.832H381.182V137.161ZM381.182 137.161H380.853V137.49H381.182V137.161ZM384.189 137.161V137.49H384.518V137.161H384.189ZM384.189 137.161V136.832H383.86V137.161H384.189ZM397.58 137.161L397.593 136.832H397.58V137.161ZM397.422 134.159V134.487H397.751V134.159H397.422ZM384.189 134.159H383.86V134.487H384.189V134.159ZM381.182 119.477H384.189V118.819H381.182V119.477ZM381.511 134.159V119.148H380.853V134.159H381.511ZM348.099 134.487H381.182V133.83H348.099V134.487ZM347.77 119.148V134.159H348.428V119.148H347.77ZM345.092 119.477H348.099V118.82H345.092V119.477ZM345.421 137.161V119.148H344.763V137.161H345.421ZM348.099 136.832H345.092V137.49H348.099V136.832ZM347.77 137.161V137.161H348.428V137.161H347.77ZM381.182 136.832H348.099V137.49H381.182V136.832ZM381.511 137.161V137.161H380.853V137.161H381.511ZM384.189 136.832H381.182V137.49H384.189V136.832ZM383.86 137.161V137.161H384.518V137.161H383.86ZM397.58 136.832H384.189V137.49H397.58V136.832ZM397.587 136.832C397.589 136.832 397.591 136.832 397.593 136.832L397.566 137.489C397.573 137.49 397.58 137.49 397.587 137.49V136.832ZM404.476 136.832H397.587V137.49H404.476V136.832ZM404.311 136.996C404.311 136.906 404.385 136.832 404.476 136.832V137.49C404.748 137.49 404.969 137.269 404.969 136.996H404.311ZM404.311 125.317V136.996H404.969V125.317H404.311ZM404.476 125.481C404.385 125.481 404.311 125.408 404.311 125.317H404.969C404.969 125.044 404.748 124.823 404.476 124.823V125.481ZM397.587 125.481H404.476V124.823H397.587V125.481ZM397.751 125.317C397.751 125.408 397.677 125.481 397.587 125.481V124.823C397.314 124.823 397.093 125.044 397.093 125.317H397.751ZM397.751 134.159V125.317H397.093V134.159H397.751ZM384.189 134.487H397.422V133.83H384.189V134.487ZM383.86 119.148V134.159H384.518V119.148H383.86Z" fill="black" mask="url(#path-30-inside-4)"/>
<rect x="131.122" y="88.7199" width="267.339" height="30.2928" rx="0.246632" fill="#FFF3DC" stroke="black" stroke-width="0.328842"/>
<path d="M148.631 96.638C148.663 96.5848 148.74 96.5848 148.772 96.638L155.514 107.863C155.547 107.917 155.507 107.987 155.443 107.987H141.96C141.896 107.987 141.856 107.917 141.889 107.863L148.631 96.638Z" fill="#FF0000" stroke="black" stroke-width="0.164421"/>
<path d="M380.811 96.638C380.842 96.5848 380.92 96.5848 380.951 96.638L387.693 107.863C387.726 107.917 387.687 107.987 387.623 107.987H374.139C374.075 107.987 374.036 107.917 374.069 107.863L380.811 96.638Z" fill="#FF0000" stroke="black" stroke-width="0.164421"/>
<path d="M327.59 119.081L333.846 119.081C336.869 125.741 340.455 127.45 341.452 136.605C342.448 145.76 339.477 138.642 339.477 138.642C336.72 129.962 333.468 124.823 327.59 119.081Z" fill="black"/>
<path d="M291.712 119.081L285.456 119.081C282.433 125.741 278.847 127.45 277.85 136.605C276.854 145.76 279.825 138.642 279.825 138.642C282.582 129.962 285.834 124.823 291.712 119.081Z" fill="black"/>
<path d="M25.3542 73.81C24.8502 79.2967 23.0976 80.3418 18.8565 80.6653" stroke="black" stroke-width="0.0822105"/>
<path d="M27.2922 58.3056C27.3021 58.2671 27.3382 58.2403 27.3779 58.2418L28.999 58.3011C29.0484 58.3029 29.0837 58.347 29.0746 58.3953L24.8565 80.8148C24.8446 80.8779 24.7678 80.906 24.7199 80.8647L22.09 78.6024C22.0672 78.5827 22.0576 78.5518 22.0653 78.5221L27.2922 58.3056Z" fill="black"/>
<g filter="url(#filter0_d)">
<rect x="-0.822105" y="0.822105" width="266.027" height="77.197" transform="matrix(-1 0 0 1 397.007 9.28805)" stroke="#2F80ED" stroke-width="1.64421"/>
<rect x="-0.822105" y="0.822105" width="266.027" height="17.4508" transform="matrix(-1 0 0 1 397.007 9.28805)" stroke="#2F80ED" stroke-width="1.64421"/>
<rect x="-0.822105" y="0.822105" width="266.027" height="17.4508" transform="matrix(-1 0 0 1 397.007 69.0343)" stroke="#2F80ED" stroke-width="1.64421"/>
<path d="M381.187 10.1471L381.187 87.316L397.829 87.316L397.829 10.1471L381.187 10.1471Z" stroke="#2F80ED" stroke-width="1.64421"/>
<rect x="0.822106" y="0.822105" width="77.197" height="16.9618" transform="matrix(4.11296e-08 1 1 -4.64552e-08 130.98 9.28805)" stroke="#2F80ED" stroke-width="1.64421"/>
<path d="M132.004 48.7472L139.485 68.7372L147.676 48.3686L140.203 27.9163L132.004 48.7472Z" fill="#2F80ED"/>
<path d="M381.668 49.2139L389.149 69.204L397.34 48.8354L389.867 28.3831L381.668 49.2139Z" fill="#2F80ED"/>
<rect x="0.822106" y="0.822105" width="77.197" height="33.1476" transform="matrix(4.27973e-08 1 1 -4.4645e-08 147.741 9.54264)" stroke="#2F80ED" stroke-width="1.64421"/>
<path d="M164.93 11.353L149.402 19.3023L164.93 27.2515L180.811 19.3023L164.93 11.353Z" fill="#2F80ED"/>
<path d="M164.93 70.9295L149.402 78.8788L164.93 86.828L180.811 78.8788L164.93 70.9295Z" fill="#2F80ED"/>
<line y1="-0.822105" x2="53.5912" y2="-0.822105" transform="matrix(-0.612409 0.790541 0.77778 0.628536 181.642 28.3831)" stroke="#2F80ED" stroke-width="1.64421"/>
<line y1="-0.822105" x2="53.5912" y2="-0.822105" transform="matrix(0.612409 0.790541 -0.77778 0.628537 148.821 28.3831)" stroke="#2F80ED" stroke-width="1.64421"/>
<path d="M181.589 28.0144L175.411 28.0144L181.581 34.4086L181.589 28.0144Z" fill="#2F80ED"/>
<path d="M181.509 69.4878L175.331 69.4878L181.502 63.0936L181.509 69.4878Z" fill="#2F80ED"/>
<path d="M148.789 27.9789L154.967 27.9789L148.796 34.3731L148.789 27.9789Z" fill="#2F80ED"/>
<path d="M148.709 69.5232L154.888 69.5232L148.717 63.129L148.709 69.5232Z" fill="#2F80ED"/>
<path fill-rule="evenodd" clip-rule="evenodd" d="M168.764 49.5293C169.562 48.9744 170.092 47.9941 170.092 46.8774C170.092 45.1469 168.819 43.7439 167.249 43.7439C166.372 43.7439 165.589 44.1811 165.067 44.8684C164.545 44.1811 163.762 43.7439 162.885 43.7439C161.315 43.7439 160.042 45.1469 160.042 46.8774C160.042 47.9939 160.572 48.974 161.369 49.529L165.067 53.3339L168.764 49.5293Z" fill="#2F80ED"/>
<rect x="0.822106" y="0.822105" width="77.197" height="33.1476" transform="matrix(4.27973e-08 1 1 -4.4645e-08 180.977 9.54264)" stroke="#2F80ED" stroke-width="1.64421"/>
<path d="M198.167 11.353L182.639 19.3023L198.167 27.2515L214.048 19.3023L198.167 11.353Z" fill="#2F80ED"/>
<path d="M198.167 70.9295L182.639 78.8788L198.167 86.828L214.048 78.8788L198.167 70.9295Z" fill="#2F80ED"/>
<line y1="-0.822105" x2="53.5912" y2="-0.822105" transform="matrix(-0.612409 0.790541 0.77778 0.628536 214.879 28.3831)" stroke="#2F80ED" stroke-width="1.64421"/>
<line y1="-0.822105" x2="53.5912" y2="-0.822105" transform="matrix(0.612409 0.790541 -0.77778 0.628536 182.057 28.3831)" stroke="#2F80ED" stroke-width="1.64421"/>
<path d="M214.825 28.0144L208.647 28.0144L214.818 34.4086L214.825 28.0144Z" fill="#2F80ED"/>
<path d="M214.746 69.4878L208.568 69.4878L214.738 63.0936L214.746 69.4878Z" fill="#2F80ED"/>
<path d="M182.026 27.9789L188.204 27.9789L182.033 34.3731L182.026 27.9789Z" fill="#2F80ED"/>
<path d="M181.946 69.5232L188.124 69.5232L181.953 63.129L181.946 69.5232Z" fill="#2F80ED"/>
<path fill-rule="evenodd" clip-rule="evenodd" d="M202.001 49.5293C202.799 48.9744 203.329 47.9941 203.329 46.8774C203.329 45.1469 202.056 43.7439 200.486 43.7439C199.609 43.7439 198.825 44.1811 198.304 44.8684C197.782 44.1811 196.998 43.7439 196.122 43.7439C194.551 43.7439 193.279 45.1469 193.279 46.8774C193.279 47.9939 193.808 48.974 194.606 49.529L198.304 53.3339L202.001 49.5293Z" fill="#2F80ED"/>
<rect x="0.822106" y="0.822105" width="77.197" height="33.1476" transform="matrix(4.27973e-08 1 1 -4.4645e-08 214.214 9.54264)" stroke="#2F80ED" stroke-width="1.64421"/>
<path d="M231.404 11.353L215.876 19.3023L231.404 27.2515L247.285 19.3023L231.404 11.353Z" fill="#2F80ED"/>
<path d="M231.404 70.9295L215.876 78.8788L231.404 86.828L247.285 78.8788L231.404 70.9295Z" fill="#2F80ED"/>
<line y1="-0.822105" x2="53.5912" y2="-0.822105" transform="matrix(-0.612409 0.790541 0.77778 0.628537 248.116 28.3831)" stroke="#2F80ED" stroke-width="1.64421"/>
<line y1="-0.822105" x2="53.5912" y2="-0.822105" transform="matrix(0.612409 0.790541 -0.77778 0.628537 215.295 28.3831)" stroke="#2F80ED" stroke-width="1.64421"/>
<path d="M248.062 28.0144L241.884 28.0144L248.055 34.4086L248.062 28.0144Z" fill="#2F80ED"/>
<path d="M247.983 69.4878L241.805 69.4878L247.976 63.0936L247.983 69.4878Z" fill="#2F80ED"/>
<path d="M215.263 27.9789L221.441 27.9789L215.27 34.3731L215.263 27.9789Z" fill="#2F80ED"/>
<path d="M215.183 69.5232L221.361 69.5232L215.19 63.129L215.183 69.5232Z" fill="#2F80ED"/>
<path fill-rule="evenodd" clip-rule="evenodd" d="M235.238 49.5292C236.036 48.9742 236.566 47.994 236.566 46.8774C236.566 45.1469 235.293 43.7439 233.723 43.7439C232.846 43.7439 232.062 44.1811 231.541 44.8684C231.019 44.1811 230.235 43.7439 229.359 43.7439C227.788 43.7439 226.516 45.1469 226.516 46.8774C226.516 47.9939 227.045 48.974 227.843 49.529L231.541 53.3339L235.238 49.5292Z" fill="#2F80ED"/>
<rect x="0.822106" y="0.822105" width="77.197" height="33.1476" transform="matrix(4.27973e-08 1 1 -4.4645e-08 247.451 9.54264)" stroke="#2F80ED" stroke-width="1.64421"/>
<path d="M264.641 11.353L249.113 19.3023L264.641 27.2515L280.522 19.3023L264.641 11.353Z" fill="#2F80ED"/>
<path d="M264.641 70.9295L249.113 78.8788L264.641 86.828L280.522 78.8788L264.641 70.9295Z" fill="#2F80ED"/>
<line y1="-0.822105" x2="53.5912" y2="-0.822105" transform="matrix(-0.612409 0.790541 0.77778 0.628537 281.353 28.3831)" stroke="#2F80ED" stroke-width="1.64421"/>
<line y1="-0.822105" x2="53.5912" y2="-0.822105" transform="matrix(0.612409 0.790541 -0.77778 0.628537 248.531 28.3831)" stroke="#2F80ED" stroke-width="1.64421"/>
<path d="M281.299 28.0144L275.121 28.0144L281.292 34.4086L281.299 28.0144Z" fill="#2F80ED"/>
<path d="M281.219 69.4878L275.041 69.4878L281.212 63.0936L281.219 69.4878Z" fill="#2F80ED"/>
<path d="M248.5 27.9789L254.678 27.9789L248.507 34.3731L248.5 27.9789Z" fill="#2F80ED"/>
<path d="M248.42 69.5232L254.598 69.5232L248.427 63.129L248.42 69.5232Z" fill="#2F80ED"/>
<path fill-rule="evenodd" clip-rule="evenodd" d="M268.475 49.5292C269.273 48.9742 269.803 47.994 269.803 46.8774C269.803 45.1469 268.53 43.7439 266.96 43.7439C266.083 43.7439 265.299 44.1811 264.778 44.8683C264.256 44.1811 263.472 43.7439 262.596 43.7439C261.025 43.7439 259.752 45.1469 259.752 46.8774C259.752 47.9939 260.282 48.974 261.08 49.529L264.778 53.3339L268.475 49.5292Z" fill="#2F80ED"/>
<rect x="0.822106" y="0.822105" width="77.197" height="33.1476" transform="matrix(4.27973e-08 1 1 -4.4645e-08 280.688 9.54264)" stroke="#2F80ED" stroke-width="1.64421"/>
<path d="M297.878 11.353L282.35 19.3023L297.878 27.2515L313.759 19.3023L297.878 11.353Z" fill="#2F80ED"/>
<path d="M297.878 70.9295L282.35 78.8788L297.878 86.828L313.759 78.8788L297.878 70.9295Z" fill="#2F80ED"/>
<line y1="-0.822105" x2="53.5912" y2="-0.822105" transform="matrix(-0.612409 0.790541 0.77778 0.628537 314.589 28.3831)" stroke="#2F80ED" stroke-width="1.64421"/>
<line y1="-0.822105" x2="53.5912" y2="-0.822105" transform="matrix(0.612409 0.790541 -0.77778 0.628536 281.768 28.3831)" stroke="#2F80ED" stroke-width="1.64421"/>
<path d="M314.536 28.0144L308.358 28.0144L314.529 34.4086L314.536 28.0144Z" fill="#2F80ED"/>
<path d="M314.456 69.4878L308.278 69.4878L314.449 63.0936L314.456 69.4878Z" fill="#2F80ED"/>
<path d="M281.737 27.9789L287.915 27.9789L281.744 34.3731L281.737 27.9789Z" fill="#2F80ED"/>
<path d="M281.657 69.5232L287.835 69.5232L281.664 63.129L281.657 69.5232Z" fill="#2F80ED"/>
<path fill-rule="evenodd" clip-rule="evenodd" d="M301.712 49.5292C302.51 48.9742 303.04 47.994 303.04 46.8774C303.04 45.1469 301.767 43.7439 300.196 43.7439C299.32 43.7439 298.536 44.1811 298.014 44.8683C297.493 44.1811 296.709 43.7439 295.832 43.7439C294.262 43.7439 292.989 45.1469 292.989 46.8774C292.989 47.9939 293.519 48.974 294.317 49.529L298.014 53.3339L301.712 49.5292Z" fill="#2F80ED"/>
<rect x="0.822106" y="0.822105" width="77.197" height="33.1476" transform="matrix(4.27973e-08 1 1 -4.4645e-08 313.925 9.54264)" stroke="#2F80ED" stroke-width="1.64421"/>
<path d="M331.115 11.3531L315.587 19.3023L331.115 27.2516L346.995 19.3023L331.115 11.3531Z" fill="#2F80ED"/>
<path d="M331.115 70.9295L315.587 78.8788L331.115 86.828L346.995 78.8788L331.115 70.9295Z" fill="#2F80ED"/>
<line y1="-0.822105" x2="53.5912" y2="-0.822105" transform="matrix(-0.612409 0.790541 0.77778 0.628536 347.826 28.3831)" stroke="#2F80ED" stroke-width="1.64421"/>
<line y1="-0.822105" x2="53.5912" y2="-0.822105" transform="matrix(0.612409 0.790541 -0.77778 0.628537 315.005 28.3831)" stroke="#2F80ED" stroke-width="1.64421"/>
<path d="M347.773 28.0144L341.595 28.0144L347.766 34.4086L347.773 28.0144Z" fill="#2F80ED"/>
<path d="M347.693 69.4878L341.515 69.4878L347.686 63.0936L347.693 69.4878Z" fill="#2F80ED"/>
<path d="M314.973 27.9789L321.151 27.9789L314.981 34.3731L314.973 27.9789Z" fill="#2F80ED"/>
<path d="M314.894 69.5232L321.072 69.5232L314.901 63.129L314.894 69.5232Z" fill="#2F80ED"/>
<path fill-rule="evenodd" clip-rule="evenodd" d="M334.949 49.5292C335.747 48.9743 336.276 47.9941 336.276 46.8774C336.276 45.1469 335.004 43.7439 333.433 43.7439C332.557 43.7439 331.773 44.1811 331.251 44.8683C330.73 44.1811 329.946 43.7439 329.069 43.7439C327.499 43.7439 326.226 45.1469 326.226 46.8774C326.226 47.9939 326.756 48.974 327.553 49.529L331.251 53.3339L334.949 49.5292Z" fill="#2F80ED"/>
<rect x="0.822106" y="0.822105" width="77.197" height="33.1476" transform="matrix(4.27973e-08 1 1 -4.4645e-08 347.162 9.54264)" stroke="#2F80ED" stroke-width="1.64421"/>
<path d="M364.351 11.353L348.823 19.3023L364.351 27.2515L380.232 19.3023L364.351 11.353Z" fill="#2F80ED"/>
<path d="M364.351 70.9295L348.823 78.8788L364.351 86.828L380.232 78.8788L364.351 70.9295Z" fill="#2F80ED"/>
<line y1="-0.822105" x2="53.5912" y2="-0.822105" transform="matrix(-0.612409 0.790541 0.77778 0.628537 381.063 28.3831)" stroke="#2F80ED" stroke-width="1.64421"/>
<line y1="-0.822105" x2="53.5912" y2="-0.822105" transform="matrix(0.612409 0.790541 -0.77778 0.628536 348.242 28.3831)" stroke="#2F80ED" stroke-width="1.64421"/>
<path d="M381.01 28.0144L374.832 28.0144L381.003 34.4086L381.01 28.0144Z" fill="#2F80ED"/>
<path d="M380.93 69.4878L374.752 69.4878L380.923 63.0936L380.93 69.4878Z" fill="#2F80ED"/>
<path d="M348.21 27.9789L354.388 27.9789L348.217 34.3731L348.21 27.9789Z" fill="#2F80ED"/>
<path d="M348.13 69.5232L354.309 69.5232L348.138 63.129L348.13 69.5232Z" fill="#2F80ED"/>
<path fill-rule="evenodd" clip-rule="evenodd" d="M368.186 49.5292C368.983 48.9742 369.513 47.994 369.513 46.8774C369.513 45.1469 368.24 43.7439 366.67 43.7439C365.793 43.7439 365.01 44.1811 364.488 44.8684C363.966 44.1811 363.183 43.7439 362.306 43.7439C360.736 43.7439 359.463 45.1469 359.463 46.8774C359.463 47.994 359.993 48.9741 360.79 49.5291L364.488 53.3339L368.186 49.5292Z" fill="#2F80ED"/>
<path d="M397.653 10.1227L397.653 1.30811M132.018 10.1227L132.018 1.3081" stroke="#2F80ED" stroke-width="2.05526"/>
</g>
<defs>
<filter id="filter0_d" x="130.158" y="0.485991" width="269.345" height="88.72" filterUnits="userSpaceOnUse" color-interpolation-filters="sRGB">
<feFlood flood-opacity="0" result="BackgroundImageFix"/>
<feColorMatrix in="SourceAlpha" type="matrix" values="0 0 0 0 0 0 0 0 0 0 0 0 0 0 0 0 0 0 127 0"/>
<feOffset/>
<feGaussianBlur stdDeviation="0.411053"/>
<feColorMatrix type="matrix" values="0 0 0 0 0 0 0 0 0 0 0 0 0 0 0 0 0 0 1 0"/>
<feBlend mode="normal" in2="BackgroundImageFix" result="effect1_dropShadow"/>
<feBlend mode="normal" in="SourceGraphic" in2="effect1_dropShadow" result="shape"/>
</filter>
<radialGradient id="paint0_radial" cx="0" cy="0" r="1" gradientUnits="userSpaceOnUse" gradientTransform="translate(90.2942 141.305) rotate(180) scale(26.9508 26.9225)">
<stop offset="0.7777" stop-color="#1A1A1A"/>
<stop offset="0.8882" stop-color="#333333"/>
<stop offset="1"/>
</radialGradient>
<radialGradient id="paint1_radial" cx="0" cy="0" r="1" gradientUnits="userSpaceOnUse" gradientTransform="translate(90.3838 141.216) rotate(180) scale(20.2355 20.2142)">
<stop stop-color="#8D8C8C"/>
<stop offset="0.0810056" stop-color="#898989"/>
<stop offset="0.1659" stop-color="#808080"/>
<stop offset="0.2687" stop-color="#868686"/>
<stop offset="0.3295" stop-color="#A4A4A4"/>
<stop offset="0.3447" stop-color="#ACACAC"/>
<stop offset="0.5274" stop-color="#B3B3B3"/>
<stop offset="0.5715" stop-color="#A4A4A4"/>
<stop offset="0.6558" stop-color="#7D7D7D"/>
<stop offset="0.7012" stop-color="#666666"/>
<stop offset="0.7387" stop-color="#6F6F70"/>
<stop offset="0.8018" stop-color="#88898A"/>
<stop offset="0.8676" stop-color="#A8AAAC"/>
<stop offset="0.927" stop-color="#7E8486"/>
<stop offset="1" stop-color="#465053"/>
</radialGradient>
<radialGradient id="paint2_radial" cx="0" cy="0" r="1" gradientUnits="userSpaceOnUse" gradientTransform="translate(90.5232 132.534) rotate(177.706) scale(1.63808 1.63636)">
<stop offset="0.00561773" stop-color="#534741"/>
<stop offset="0.1684" stop-color="#5C5450"/>
<stop offset="0.4792" stop-color="#737577"/>
<stop offset="0.6742" stop-color="#838C92"/>
<stop offset="0.9793" stop-color="#333333"/>
<stop offset="0.9852" stop-color="#3E4042"/>
<stop offset="0.9965" stop-color="#5B6469"/>
<stop offset="1" stop-color="#657076"/>
</radialGradient>
<radialGradient id="paint3_radial" cx="0" cy="0" r="1" gradientUnits="userSpaceOnUse" gradientTransform="translate(90.5232 150.065) rotate(177.706) scale(1.63808 1.63636)">
<stop offset="0.00561773" stop-color="#534741"/>
<stop offset="0.1684" stop-color="#5C5450"/>
<stop offset="0.4792" stop-color="#737577"/>
<stop offset="0.6742" stop-color="#838C92"/>
<stop offset="0.9793" stop-color="#333333"/>
<stop offset="0.9852" stop-color="#3E4042"/>
<stop offset="0.9965" stop-color="#5B6469"/>
<stop offset="1" stop-color="#657076"/>
</radialGradient>
<radialGradient id="paint4_radial" cx="0" cy="0" r="1" gradientUnits="userSpaceOnUse" gradientTransform="translate(96.8506 135.114) rotate(-137.328) scale(1.63732 1.63718)">
<stop offset="0.00561773" stop-color="#534741"/>
<stop offset="0.1684" stop-color="#5C5450"/>
<stop offset="0.4792" stop-color="#737577"/>
<stop offset="0.6742" stop-color="#838C92"/>
<stop offset="0.9793" stop-color="#333333"/>
<stop offset="0.9852" stop-color="#3E4042"/>
<stop offset="0.9965" stop-color="#5B6469"/>
<stop offset="1" stop-color="#657076"/>
</radialGradient>
<radialGradient id="paint5_radial" cx="0" cy="0" r="1" gradientUnits="userSpaceOnUse" gradientTransform="translate(84.4415 147.51) rotate(-137.328) scale(1.63731 1.63717)">
<stop offset="0.00561773" stop-color="#534741"/>
<stop offset="0.1684" stop-color="#5C5450"/>
<stop offset="0.4792" stop-color="#737577"/>
<stop offset="0.6742" stop-color="#838C92"/>
<stop offset="0.9793" stop-color="#333333"/>
<stop offset="0.9852" stop-color="#3E4042"/>
<stop offset="0.9965" stop-color="#5B6469"/>
<stop offset="1" stop-color="#657076"/>
</radialGradient>
<radialGradient id="paint6_radial" cx="0" cy="0" r="1" gradientUnits="userSpaceOnUse" gradientTransform="translate(99.4213 141.311) rotate(-92.2987) scale(1.63636 1.63807)">
<stop offset="0.00561773" stop-color="#534741"/>
<stop offset="0.1684" stop-color="#5C5450"/>
<stop offset="0.4792" stop-color="#737577"/>
<stop offset="0.6742" stop-color="#838C92"/>
<stop offset="0.9793" stop-color="#333333"/>
<stop offset="0.9852" stop-color="#3E4042"/>
<stop offset="0.9965" stop-color="#5B6469"/>
<stop offset="1" stop-color="#657076"/>
</radialGradient>
<radialGradient id="paint7_radial" cx="0" cy="0" r="1" gradientUnits="userSpaceOnUse" gradientTransform="translate(81.8719 141.311) rotate(-92.2987) scale(1.63636 1.63807)">
<stop offset="0.00561773" stop-color="#534741"/>
<stop offset="0.1684" stop-color="#5C5450"/>
<stop offset="0.4792" stop-color="#737577"/>
<stop offset="0.6742" stop-color="#838C92"/>
<stop offset="0.9793" stop-color="#333333"/>
<stop offset="0.9852" stop-color="#3E4042"/>
<stop offset="0.9965" stop-color="#5B6469"/>
<stop offset="1" stop-color="#657076"/>
</radialGradient>
<radialGradient id="paint8_radial" cx="0" cy="0" r="1" gradientUnits="userSpaceOnUse" gradientTransform="translate(96.8505 147.508) rotate(-47.2679) scale(1.63716 1.6373)">
<stop offset="0.00561773" stop-color="#534741"/>
<stop offset="0.1684" stop-color="#5C5450"/>
<stop offset="0.4792" stop-color="#737577"/>
<stop offset="0.6742" stop-color="#838C92"/>
<stop offset="0.9793" stop-color="#333333"/>
<stop offset="0.9852" stop-color="#3E4042"/>
<stop offset="0.9965" stop-color="#5B6469"/>
<stop offset="1" stop-color="#657076"/>
</radialGradient>
<radialGradient id="paint9_radial" cx="0" cy="0" r="1" gradientUnits="userSpaceOnUse" gradientTransform="translate(84.4407 135.112) rotate(-47.2678) scale(1.63717 1.6373)">
<stop offset="0.00561773" stop-color="#534741"/>
<stop offset="0.1684" stop-color="#5C5450"/>
<stop offset="0.4792" stop-color="#737577"/>
<stop offset="0.6742" stop-color="#838C92"/>
<stop offset="0.9793" stop-color="#333333"/>
<stop offset="0.9852" stop-color="#3E4042"/>
<stop offset="0.9965" stop-color="#5B6469"/>
<stop offset="1" stop-color="#657076"/>
</radialGradient>
<radialGradient id="paint10_radial" cx="0" cy="0" r="1" gradientUnits="userSpaceOnUse" gradientTransform="translate(309.574 145.533) rotate(180) scale(26.9508 26.9225)">
<stop offset="0.7777" stop-color="#1A1A1A"/>
<stop offset="0.8882" stop-color="#333333"/>
<stop offset="1"/>
</radialGradient>
<radialGradient id="paint11_radial" cx="0" cy="0" r="1" gradientUnits="userSpaceOnUse" gradientTransform="translate(309.663 145.444) rotate(180) scale(20.2355 20.2142)">
<stop stop-color="#8D8C8C"/>
<stop offset="0.0810056" stop-color="#898989"/>
<stop offset="0.1659" stop-color="#808080"/>
<stop offset="0.2687" stop-color="#868686"/>
<stop offset="0.3295" stop-color="#A4A4A4"/>
<stop offset="0.3447" stop-color="#ACACAC"/>
<stop offset="0.5274" stop-color="#B3B3B3"/>
<stop offset="0.5715" stop-color="#A4A4A4"/>
<stop offset="0.6558" stop-color="#7D7D7D"/>
<stop offset="0.7012" stop-color="#666666"/>
<stop offset="0.7387" stop-color="#6F6F70"/>
<stop offset="0.8018" stop-color="#88898A"/>
<stop offset="0.8676" stop-color="#A8AAAC"/>
<stop offset="0.927" stop-color="#7E8486"/>
<stop offset="1" stop-color="#465053"/>
</radialGradient>
<radialGradient id="paint12_radial" cx="0" cy="0" r="1" gradientUnits="userSpaceOnUse" gradientTransform="translate(309.803 136.762) rotate(177.706) scale(1.63807 1.63635)">
<stop offset="0.00561773" stop-color="#534741"/>
<stop offset="0.1684" stop-color="#5C5450"/>
<stop offset="0.4792" stop-color="#737577"/>
<stop offset="0.6742" stop-color="#838C92"/>
<stop offset="0.9793" stop-color="#333333"/>
<stop offset="0.9852" stop-color="#3E4042"/>
<stop offset="0.9965" stop-color="#5B6469"/>
<stop offset="1" stop-color="#657076"/>
</radialGradient>
<radialGradient id="paint13_radial" cx="0" cy="0" r="1" gradientUnits="userSpaceOnUse" gradientTransform="translate(309.803 154.293) rotate(177.706) scale(1.63807 1.63635)">
<stop offset="0.00561773" stop-color="#534741"/>
<stop offset="0.1684" stop-color="#5C5450"/>
<stop offset="0.4792" stop-color="#737577"/>
<stop offset="0.6742" stop-color="#838C92"/>
<stop offset="0.9793" stop-color="#333333"/>
<stop offset="0.9852" stop-color="#3E4042"/>
<stop offset="0.9965" stop-color="#5B6469"/>
<stop offset="1" stop-color="#657076"/>
</radialGradient>
<radialGradient id="paint14_radial" cx="0" cy="0" r="1" gradientUnits="userSpaceOnUse" gradientTransform="translate(316.13 139.341) rotate(-137.328) scale(1.63731 1.63717)">
<stop offset="0.00561773" stop-color="#534741"/>
<stop offset="0.1684" stop-color="#5C5450"/>
<stop offset="0.4792" stop-color="#737577"/>
<stop offset="0.6742" stop-color="#838C92"/>
<stop offset="0.9793" stop-color="#333333"/>
<stop offset="0.9852" stop-color="#3E4042"/>
<stop offset="0.9965" stop-color="#5B6469"/>
<stop offset="1" stop-color="#657076"/>
</radialGradient>
<radialGradient id="paint15_radial" cx="0" cy="0" r="1" gradientUnits="userSpaceOnUse" gradientTransform="translate(303.721 151.738) rotate(-137.328) scale(1.63731 1.63717)">
<stop offset="0.00561773" stop-color="#534741"/>
<stop offset="0.1684" stop-color="#5C5450"/>
<stop offset="0.4792" stop-color="#737577"/>
<stop offset="0.6742" stop-color="#838C92"/>
<stop offset="0.9793" stop-color="#333333"/>
<stop offset="0.9852" stop-color="#3E4042"/>
<stop offset="0.9965" stop-color="#5B6469"/>
<stop offset="1" stop-color="#657076"/>
</radialGradient>
<radialGradient id="paint16_radial" cx="0" cy="0" r="1" gradientUnits="userSpaceOnUse" gradientTransform="translate(318.701 145.539) rotate(-92.2987) scale(1.63636 1.63808)">
<stop offset="0.00561773" stop-color="#534741"/>
<stop offset="0.1684" stop-color="#5C5450"/>
<stop offset="0.4792" stop-color="#737577"/>
<stop offset="0.6742" stop-color="#838C92"/>
<stop offset="0.9793" stop-color="#333333"/>
<stop offset="0.9852" stop-color="#3E4042"/>
<stop offset="0.9965" stop-color="#5B6469"/>
<stop offset="1" stop-color="#657076"/>
</radialGradient>
<radialGradient id="paint17_radial" cx="0" cy="0" r="1" gradientUnits="userSpaceOnUse" gradientTransform="translate(301.152 145.539) rotate(-92.2987) scale(1.63636 1.63807)">
<stop offset="0.00561773" stop-color="#534741"/>
<stop offset="0.1684" stop-color="#5C5450"/>
<stop offset="0.4792" stop-color="#737577"/>
<stop offset="0.6742" stop-color="#838C92"/>
<stop offset="0.9793" stop-color="#333333"/>
<stop offset="0.9852" stop-color="#3E4042"/>
<stop offset="0.9965" stop-color="#5B6469"/>
<stop offset="1" stop-color="#657076"/>
</radialGradient>
<radialGradient id="paint18_radial" cx="0" cy="0" r="1" gradientUnits="userSpaceOnUse" gradientTransform="translate(316.13 151.736) rotate(-47.2677) scale(1.63717 1.63731)">
<stop offset="0.00561773" stop-color="#534741"/>
<stop offset="0.1684" stop-color="#5C5450"/>
<stop offset="0.4792" stop-color="#737577"/>
<stop offset="0.6742" stop-color="#838C92"/>
<stop offset="0.9793" stop-color="#333333"/>
<stop offset="0.9852" stop-color="#3E4042"/>
<stop offset="0.9965" stop-color="#5B6469"/>
<stop offset="1" stop-color="#657076"/>
</radialGradient>
<radialGradient id="paint19_radial" cx="0" cy="0" r="1" gradientUnits="userSpaceOnUse" gradientTransform="translate(303.72 139.34) rotate(-47.2677) scale(1.63717 1.63731)">
<stop offset="0.00561773" stop-color="#534741"/>
<stop offset="0.1684" stop-color="#5C5450"/>
<stop offset="0.4792" stop-color="#737577"/>
<stop offset="0.6742" stop-color="#838C92"/>
<stop offset="0.9793" stop-color="#333333"/>
<stop offset="0.9852" stop-color="#3E4042"/>
<stop offset="0.9965" stop-color="#5B6469"/>
<stop offset="1" stop-color="#657076"/>
</radialGradient>
</defs>
</svg>
