<svg width="486" height="174" viewBox="0 0 486 174" fill="none" xmlns="http://www.w3.org/2000/svg">
<path d="M485.14 121.076C485.14 120.94 485.03 120.831 484.895 120.831H470.729C470.593 120.831 470.484 120.94 470.484 121.076V141.009C470.484 141.144 470.593 141.254 470.729 141.254H484.895C485.03 141.254 485.14 141.144 485.14 141.009V121.076Z" fill="#B8B8B8" stroke="black" stroke-width="0.163463"/>
<mask id="path-2-inside-1" fill="white">
<path fill-rule="evenodd" clip-rule="evenodd" d="M445.61 14.1763C445.265 13.6362 444.664 13.3033 444.023 13.3033H364.851C363.813 13.3033 362.972 14.145 362.972 15.1832V109.255H375.806V24.7187C375.806 23.6805 376.647 22.8389 377.686 22.8389H444.791C445.488 22.8389 446.133 23.2334 446.458 23.8502C460.852 51.1612 467.985 66.469 470.422 84.8201L470.422 120.933C470.472 120.901 470.532 120.882 470.597 120.882H481.764V96.7138C481.764 96.5332 481.737 96.3497 481.685 96.1766C470.437 58.2039 462.292 40.3292 445.61 14.1763ZM470.27 141.356H426.844C426.844 141.284 426.845 141.212 426.845 141.14C426.845 123.63 412.707 109.416 395.207 109.256V109.255H394.908H375.888V24.7187C375.888 23.7257 376.693 22.9206 377.686 22.9206H444.791C445.457 22.9206 446.074 23.298 446.385 23.8883C460.779 51.1975 467.905 66.4931 470.34 84.8255L470.34 121.007C470.296 121.062 470.27 121.133 470.27 121.209V141.356ZM442.571 26.3966C443.189 26.408 443.764 26.7235 444.102 27.2422C453.639 41.8958 459.715 57.268 461.766 65.7973L466.376 80.2915C466.83 81.7201 465.511 83.0797 464.069 82.6692L378.789 58.3838C378.613 58.3338 378.492 58.1733 378.492 57.9907V27.1374C378.492 26.0857 379.355 25.2386 380.406 25.2579L442.571 26.3966Z"/>
</mask>
<path fill-rule="evenodd" clip-rule="evenodd" d="M445.61 14.1763C445.265 13.6362 444.664 13.3033 444.023 13.3033H364.851C363.813 13.3033 362.972 14.145 362.972 15.1832V109.255H375.806V24.7187C375.806 23.6805 376.647 22.8389 377.686 22.8389H444.791C445.488 22.8389 446.133 23.2334 446.458 23.8502C460.852 51.1612 467.985 66.469 470.422 84.8201L470.422 120.933C470.472 120.901 470.532 120.882 470.597 120.882H481.764V96.7138C481.764 96.5332 481.737 96.3497 481.685 96.1766C470.437 58.2039 462.292 40.3292 445.61 14.1763ZM470.27 141.356H426.844C426.844 141.284 426.845 141.212 426.845 141.14C426.845 123.63 412.707 109.416 395.207 109.256V109.255H394.908H375.888V24.7187C375.888 23.7257 376.693 22.9206 377.686 22.9206H444.791C445.457 22.9206 446.074 23.298 446.385 23.8883C460.779 51.1975 467.905 66.4931 470.34 84.8255L470.34 121.007C470.296 121.062 470.27 121.133 470.27 121.209V141.356ZM442.571 26.3966C443.189 26.408 443.764 26.7235 444.102 27.2422C453.639 41.8958 459.715 57.268 461.766 65.7973L466.376 80.2915C466.83 81.7201 465.511 83.0797 464.069 82.6692L378.789 58.3838C378.613 58.3338 378.492 58.1733 378.492 57.9907V27.1374C378.492 26.0857 379.355 25.2386 380.406 25.2579L442.571 26.3966Z" fill="#FFF3DC"/>
<path d="M445.61 14.1763L445.885 14.0005V14.0005L445.61 14.1763ZM362.972 109.255V109.582H362.645V109.255H362.972ZM375.806 109.255H376.133V109.582H375.806V109.255ZM446.458 23.8502L446.747 23.6977V23.6977L446.458 23.8502ZM470.422 84.8201L470.746 84.777L470.749 84.7984V84.8201H470.422ZM470.422 120.933L470.597 121.209L470.095 121.528V120.933H470.422ZM481.764 120.882H482.091V121.209H481.764V120.882ZM481.685 96.1766L481.999 96.0837H481.999L481.685 96.1766ZM426.844 141.356V141.683H426.515L426.517 141.354L426.844 141.356ZM470.27 141.356H470.597V141.683H470.27V141.356ZM395.207 109.256L395.204 109.583L394.88 109.58V109.256H395.207ZM395.207 109.255V108.928H395.533V109.255H395.207ZM375.888 109.255V109.582H375.561V109.255H375.888ZM446.385 23.8883L446.675 23.7358V23.7358L446.385 23.8883ZM470.34 84.8255L470.664 84.7824L470.667 84.8038V84.8255H470.34ZM470.34 121.007H470.667V121.12L470.597 121.209L470.34 121.007ZM444.102 27.2422L443.828 27.4205L444.102 27.2422ZM442.571 26.3966L442.577 26.0697L442.571 26.3966ZM461.766 65.7973L461.454 65.8964L461.451 65.8852L461.448 65.8737L461.766 65.7973ZM466.376 80.2915L466.687 80.1924L466.376 80.2915ZM464.069 82.6692L464.159 82.3547L464.069 82.6692ZM378.789 58.3838L378.878 58.0693L378.789 58.3838ZM380.406 25.2579L380.4 25.5847L380.406 25.2579ZM444.023 12.9764C444.777 12.9764 445.481 13.3672 445.885 14.0005L445.334 14.3521C445.049 13.9051 444.551 13.6303 444.023 13.6303V12.9764ZM364.851 12.9764H444.023V13.6303H364.851V12.9764ZM362.645 15.1832C362.645 13.9644 363.633 12.9764 364.851 12.9764V13.6303C363.994 13.6303 363.299 14.3255 363.299 15.1832H362.645ZM362.645 109.255V15.1832H363.299V109.255H362.645ZM375.806 109.582H362.972V108.928H375.806V109.582ZM376.133 24.7187V109.255H375.479V24.7187H376.133ZM377.686 23.1658C376.828 23.1658 376.133 23.8611 376.133 24.7187H375.479C375.479 23.5 376.467 22.512 377.686 22.512V23.1658ZM444.791 23.1658H377.686V22.512H444.791V23.1658ZM446.169 24.0026C445.899 23.4916 445.365 23.1658 444.791 23.1658V22.512C445.611 22.512 446.366 22.9753 446.747 23.6977L446.169 24.0026ZM470.098 84.8631C467.67 66.5772 460.565 51.317 446.169 24.0026L446.747 23.6977C461.14 51.0054 468.3 66.3609 470.746 84.777L470.098 84.8631ZM470.095 120.933L470.095 84.8201H470.749L470.749 120.933H470.095ZM470.597 121.209L470.597 121.209L470.246 120.657C470.348 120.592 470.468 120.555 470.597 120.555V121.209ZM481.764 121.209H470.597V120.555H481.764V121.209ZM482.091 96.7138V120.882H481.437V96.7138H482.091ZM481.999 96.0837C482.059 96.2864 482.091 96.5011 482.091 96.7138H481.437C481.437 96.5653 481.414 96.413 481.372 96.2694L481.999 96.0837ZM445.885 14.0005C462.587 40.1831 470.743 58.0866 481.999 96.0837L481.372 96.2694C470.131 58.3211 461.998 40.4753 445.334 14.3521L445.885 14.0005ZM426.844 141.029H470.27V141.683H426.844V141.029ZM427.172 141.14C427.172 141.212 427.171 141.285 427.171 141.358L426.517 141.354C426.517 141.282 426.518 141.211 426.518 141.14H427.172ZM395.209 108.929C412.889 109.091 427.172 123.45 427.172 141.14H426.518C426.518 123.81 412.525 109.742 395.204 109.583L395.209 108.929ZM395.533 109.255V109.256H394.88V109.255H395.533ZM394.908 108.928H395.207V109.582H394.908V108.928ZM375.888 108.928H394.908V109.582H375.888V108.928ZM376.215 24.7187V109.255H375.561V24.7187H376.215ZM377.686 23.2475C376.873 23.2475 376.215 23.9062 376.215 24.7187H375.561C375.561 23.5451 376.512 22.5937 377.686 22.5937V23.2475ZM444.791 23.2475H377.686V22.5937H444.791V23.2475ZM446.096 24.0407C445.841 23.5561 445.334 23.2475 444.791 23.2475V22.5937C445.58 22.5937 446.308 23.0398 446.675 23.7358L446.096 24.0407ZM470.016 84.8685C467.589 66.6012 460.492 51.3533 446.096 24.0407L446.675 23.7358C461.066 51.0416 468.22 66.3849 470.664 84.7824L470.016 84.8685ZM470.013 121.007L470.013 84.8255H470.667L470.667 121.007H470.013ZM470.597 121.209L470.597 121.209H469.943C469.943 121.057 469.995 120.916 470.083 120.804L470.597 121.209ZM470.597 121.209V141.356H469.943V121.209H470.597ZM443.828 27.4205C443.55 26.9936 443.076 26.7329 442.565 26.7235L442.577 26.0697C443.303 26.0831 443.979 26.4533 444.376 27.0639L443.828 27.4205ZM461.448 65.8737C459.407 57.3841 453.347 42.046 443.828 27.4205L444.376 27.0639C453.931 41.7455 460.024 57.1519 462.084 65.7209L461.448 65.8737ZM466.064 80.3905L461.454 65.8964L462.078 65.6982L466.687 80.1924L466.064 80.3905ZM464.159 82.3547C465.35 82.6939 466.44 81.5707 466.064 80.3905L466.687 80.1924C467.221 81.8695 465.673 83.4656 463.98 82.9836L464.159 82.3547ZM378.878 58.0693L464.159 82.3547L463.98 82.9836L378.699 58.6982L378.878 58.0693ZM378.819 57.9907C378.819 58.0272 378.843 58.0593 378.878 58.0693L378.699 58.6982C378.383 58.6082 378.165 58.3194 378.165 57.9907H378.819ZM378.819 27.1374V57.9907H378.165V27.1374H378.819ZM380.4 25.5847C379.532 25.5688 378.819 26.2686 378.819 27.1374H378.165C378.165 25.9028 379.178 24.9084 380.412 24.931L380.4 25.5847ZM442.565 26.7235L380.4 25.5847L380.412 24.931L442.577 26.0697L442.565 26.7235Z" fill="black" mask="url(#path-2-inside-1)"/>
<path d="M379.651 109.313L373.186 109.313C368.023 119.312 363.46 122.582 360.005 135.533C356.55 148.484 361.767 137.863 361.767 137.863C367.132 125.13 371.429 118.754 379.651 109.313Z" fill="black"/>
<mask id="path-5-inside-2" fill="white">
<path fill-rule="evenodd" clip-rule="evenodd" d="M339.982 109.74H343.757V117.324H343.763V121.634H343.757V135.602H342.976V135.631H201.484V131.265H204.072V109.74H207.847V117.324H339.982V109.74ZM339.982 121.634V131.265H207.847V121.634H339.982Z"/>
</mask>
<path fill-rule="evenodd" clip-rule="evenodd" d="M339.982 109.74H343.757V117.324H343.763V121.634H343.757V135.602H342.976V135.631H201.484V131.265H204.072V109.74H207.847V117.324H339.982V109.74ZM339.982 121.634V131.265H207.847V121.634H339.982Z" fill="#B8B8B8"/>
<path d="M343.757 109.74V109.413H344.084V109.74H343.757ZM339.982 109.74H339.655V109.413H339.982V109.74ZM343.757 117.324V117.65H343.43V117.324H343.757ZM343.763 117.324V116.997H344.09V117.324H343.763ZM343.763 121.634H344.09V121.961H343.763V121.634ZM343.757 121.634H343.43V121.307H343.757V121.634ZM343.757 135.602H344.084V135.928H343.757V135.602ZM342.976 135.602H342.649V135.275H342.976V135.602ZM342.976 135.631H343.303V135.958H342.976V135.631ZM201.484 135.631V135.958H201.157V135.631H201.484ZM201.484 131.265H201.157V130.938H201.484V131.265ZM204.072 131.265H204.399V131.592H204.072V131.265ZM204.072 109.74H203.745V109.413H204.072V109.74ZM207.847 109.74V109.413H208.174V109.74H207.847ZM207.847 117.324V117.65H207.52V117.324H207.847ZM339.982 117.324H340.309V117.65H339.982V117.324ZM339.982 121.634V121.307H340.309V121.634H339.982ZM339.982 131.265H340.309V131.592H339.982V131.265ZM207.847 131.265V131.592H207.52V131.265H207.847ZM207.847 121.634H207.52V121.307H207.847V121.634ZM343.757 110.067H339.982V109.413H343.757V110.067ZM343.43 117.324V109.74H344.084V117.324H343.43ZM343.763 117.65H343.757V116.997H343.763V117.65ZM343.437 121.634V117.324H344.09V121.634H343.437ZM343.757 121.307H343.763V121.961H343.757V121.307ZM343.43 135.602V121.634H344.084V135.602H343.43ZM342.976 135.275H343.757V135.928H342.976V135.275ZM342.649 135.631V135.602H343.303V135.631H342.649ZM201.484 135.304H342.976V135.958H201.484V135.304ZM201.811 131.265V135.631H201.157V131.265H201.811ZM204.072 131.592H201.484V130.938H204.072V131.592ZM204.399 109.74V131.265H203.745V109.74H204.399ZM207.847 110.067H204.072V109.413H207.847V110.067ZM207.52 117.324V109.74H208.174V117.324H207.52ZM339.982 117.65H207.847V116.997H339.982V117.65ZM340.309 109.74V117.324H339.655V109.74H340.309ZM340.309 121.634V131.265H339.655V121.634H340.309ZM339.982 131.592H207.847V130.938H339.982V131.592ZM207.52 131.265V121.634H208.174V131.265H207.52ZM207.847 121.307H339.982V121.961H207.847V121.307Z" fill="black" mask="url(#path-5-inside-2)"/>
<mask id="path-7-inside-3" fill="white">
<path fill-rule="evenodd" clip-rule="evenodd" d="M82.5826 109.898H86.1448V130.682H125.329V109.899H128.891V134.84H125.329V134.839H86.1448V134.839H82.5826V134.839H66.7548C66.7517 134.839 66.7485 134.839 66.7453 134.839H58.5229C58.4327 134.839 58.3595 134.766 58.3595 134.676V118.376C58.3595 118.285 58.4327 118.212 58.5229 118.212H66.7453C66.8356 118.212 66.9088 118.285 66.9088 118.376V130.682H82.5826V109.898Z"/>
</mask>
<path fill-rule="evenodd" clip-rule="evenodd" d="M82.5826 109.898H86.1448V130.682H125.329V109.899H128.891V134.84H125.329V134.839H86.1448V134.839H82.5826V134.839H66.7548C66.7517 134.839 66.7485 134.839 66.7453 134.839H58.5229C58.4327 134.839 58.3595 134.766 58.3595 134.676V118.376C58.3595 118.285 58.4327 118.212 58.5229 118.212H66.7453C66.8356 118.212 66.9088 118.285 66.9088 118.376V130.682H82.5826V109.898Z" fill="#B8B8B8"/>
<path d="M86.1448 109.898V109.571H86.4717V109.898H86.1448ZM82.5826 109.898H82.2557V109.571H82.5826V109.898ZM86.1448 130.682V131.009H85.8179V130.682H86.1448ZM125.329 130.682H125.656V131.009H125.329V130.682ZM125.329 109.899H125.002V109.572H125.329V109.899ZM128.891 109.899V109.572H129.218V109.899H128.891ZM128.891 134.84H129.218V135.167H128.891V134.84ZM125.329 134.84V135.167H125.002V134.84H125.329ZM125.329 134.839V134.512H125.656V134.839H125.329ZM86.1448 134.839H85.8179V134.512H86.1448V134.839ZM86.1448 134.839H86.4717V135.166H86.1448V134.839ZM82.5826 134.839V135.166H82.2557V134.839H82.5826ZM82.5826 134.839V134.512H82.9095V134.839H82.5826ZM66.7548 134.839L66.7362 134.513L66.7455 134.512H66.7548V134.839ZM66.9088 130.682V131.009H66.5819V130.682H66.9088ZM82.5826 130.682H82.9095V131.009H82.5826V130.682ZM86.1448 110.225H82.5826V109.571H86.1448V110.225ZM85.8179 130.682V109.898H86.4717V130.682H85.8179ZM125.329 131.009H86.1448V130.355H125.329V131.009ZM125.656 109.899V130.682H125.002V109.899H125.656ZM128.891 110.226H125.329V109.572H128.891V110.226ZM128.564 134.84V109.899H129.218V134.84H128.564ZM125.329 134.513H128.891V135.167H125.329V134.513ZM125.656 134.839V134.84H125.002V134.839H125.656ZM86.1448 134.512H125.329V135.166H86.1448V134.512ZM85.8179 134.839V134.839H86.4717V134.839H85.8179ZM82.5826 134.512H86.1448V135.166H82.5826V134.512ZM82.9095 134.839V134.839H82.2557V134.839H82.9095ZM66.7548 134.512H82.5826V135.166H66.7548V134.512ZM66.7453 134.513C66.7423 134.513 66.7393 134.513 66.7362 134.513L66.7733 135.166C66.764 135.166 66.7547 135.166 66.7453 135.166V134.513ZM58.5229 134.513H66.7453V135.166H58.5229V134.513ZM58.6864 134.676C58.6864 134.586 58.6132 134.513 58.5229 134.513V135.166C58.2521 135.166 58.0326 134.947 58.0326 134.676H58.6864ZM58.6864 118.376V134.676H58.0326V118.376H58.6864ZM58.5229 118.539C58.6132 118.539 58.6864 118.466 58.6864 118.376H58.0326C58.0326 118.105 58.2521 117.885 58.5229 117.885V118.539ZM66.7453 118.539H58.5229V117.885H66.7453V118.539ZM66.5819 118.376C66.5819 118.466 66.6551 118.539 66.7453 118.539V117.885C67.0162 117.885 67.2357 118.105 67.2357 118.376H66.5819ZM66.5819 130.682V118.376H67.2357V130.682H66.5819ZM82.5826 131.009H66.9088V130.355H82.5826V131.009ZM82.9095 109.898V130.682H82.2557V109.898H82.9095Z" fill="black" mask="url(#path-7-inside-3)"/>
<path d="M460.078 72.2427C460.578 77.6887 462.318 78.726 466.527 79.0471" stroke="black" stroke-width="0.0817316"/>
<path d="M458.155 56.8533C458.145 56.8151 458.109 56.7884 458.07 56.7899L456.461 56.8488C456.412 56.8505 456.377 56.8943 456.386 56.9424L460.572 79.1953C460.584 79.258 460.66 79.2859 460.708 79.2449L463.318 76.9995C463.34 76.98 463.35 76.9492 463.342 76.9197L458.155 56.8533Z" fill="black"/>
<path d="M343.697 13.3V108.79H52.7328C41.0673 108.79 12.8968 101.769 0.269714 98.2589H326.579L334.94 13.3H343.697Z" fill="#FFF3DC" stroke="black" stroke-width="0.326926"/>
<path fill-rule="evenodd" clip-rule="evenodd" d="M186.109 109.186H145.058V109.506L129.922 135.7L132.941 137.442L146.698 113.065H184.369L198.433 137.486L201.453 135.744L186.197 109.344L186.109 109.344V109.186Z" fill="black"/>
<rect x="149.806" y="23.7018" width="148.987" height="64.1443" stroke="white" stroke-width="0.0408658"/>
<path d="M165.8 115.351C150.559 115.351 138.212 127.507 138.212 142.513C138.212 157.519 150.559 169.675 165.8 169.675C181.041 169.675 193.388 157.519 193.388 142.513C193.388 127.507 181.004 115.351 165.8 115.351ZM165.8 162.858C154.369 162.858 145.137 153.731 145.137 142.513C145.137 131.295 154.406 122.168 165.8 122.168C177.194 122.168 186.463 131.295 186.463 142.513C186.463 153.731 177.194 162.858 165.8 162.858Z" fill="url(#paint0_radial)"/>
<path d="M165.69 162.785C177.122 162.785 186.39 153.661 186.39 142.405C186.39 131.149 177.122 122.024 165.69 122.024C154.258 122.024 144.99 131.149 144.99 142.405C144.99 153.661 154.258 162.785 165.69 162.785Z" fill="url(#paint1_radial)"/>
<path d="M166.496 132.16L164.701 132.088L163.748 133.567L164.591 135.154L166.386 135.226L167.339 133.711L166.496 132.16Z" fill="url(#paint2_radial)"/>
<path d="M166.496 149.836L164.701 149.763L163.748 151.242L164.591 152.83L166.386 152.902L167.339 151.387L166.496 149.836Z" fill="url(#paint3_radial)"/>
<path d="M158.692 134.541L157.374 135.732L157.74 137.463L159.462 137.968L160.781 136.778L160.378 135.046L158.692 134.541Z" fill="url(#paint4_radial)"/>
<path d="M171.369 147.022L170.05 148.212L170.453 149.944L172.175 150.485L173.494 149.258L173.091 147.563L171.369 147.022Z" fill="url(#paint5_radial)"/>
<path d="M154.919 141.575L154.846 143.307L156.384 144.281L157.96 143.451L158.033 141.683L156.531 140.746L154.919 141.575Z" fill="url(#paint6_radial)"/>
<path d="M172.871 141.575L172.798 143.307L174.336 144.28L175.912 143.451L175.985 141.683L174.483 140.745L172.871 141.575Z" fill="url(#paint7_radial)"/>
<path d="M157.337 149.15L158.546 150.449L160.304 150.052L160.817 148.357L159.608 147.058L157.85 147.455L157.337 149.15Z" fill="url(#paint8_radial)"/>
<path d="M170.013 136.633L171.222 137.932L172.981 137.535L173.53 135.876L172.285 134.577L170.563 134.938L170.013 136.633Z" fill="url(#paint9_radial)"/>
<path d="M394.758 113.527C379.517 113.527 367.17 125.86 367.17 141.085C367.17 156.31 379.517 168.644 394.758 168.644C409.999 168.644 422.345 156.31 422.345 141.085C422.345 125.86 409.962 113.527 394.758 113.527ZM394.758 161.727C383.327 161.727 374.094 152.468 374.094 141.085C374.094 129.703 383.364 120.444 394.758 120.444C406.152 120.444 415.421 129.703 415.421 141.085C415.421 152.468 406.152 161.727 394.758 161.727Z" fill="url(#paint10_radial)"/>
<path d="M394.648 161.654C406.08 161.654 415.348 152.396 415.348 140.976C415.348 129.555 406.08 120.297 394.648 120.297C383.216 120.297 373.948 129.555 373.948 140.976C373.948 152.396 383.216 161.654 394.648 161.654Z" fill="url(#paint11_radial)"/>
<path d="M395.454 130.582L393.659 130.508L392.706 132.009L393.549 133.619L395.344 133.692L396.296 132.155L395.454 130.582Z" fill="url(#paint12_radial)"/>
<path d="M395.454 148.515L393.659 148.442L392.706 149.942L393.549 151.553L395.344 151.626L396.296 150.089L395.454 148.515Z" fill="url(#paint13_radial)"/>
<path d="M387.65 132.997L386.331 134.205L386.698 135.962L388.42 136.474L389.739 135.266L389.336 133.51L387.65 132.997Z" fill="url(#paint14_radial)"/>
<path d="M400.327 145.66L399.008 146.868L399.411 148.625L401.133 149.174L402.452 147.929L402.049 146.209L400.327 145.66Z" fill="url(#paint15_radial)"/>
<path d="M383.876 140.134L383.803 141.891L385.342 142.879L386.917 142.037L386.991 140.244L385.489 139.292L383.876 140.134Z" fill="url(#paint16_radial)"/>
<path d="M401.829 140.134L401.755 141.891L403.294 142.879L404.87 142.037L404.943 140.244L403.441 139.292L401.829 140.134Z" fill="url(#paint17_radial)"/>
<path d="M386.295 147.82L387.504 149.137L389.262 148.735L389.775 147.014L388.566 145.697L386.807 146.099L386.295 147.82Z" fill="url(#paint18_radial)"/>
<path d="M398.971 135.12L400.18 136.437L401.939 136.035L402.488 134.351L401.242 133.034L399.521 133.4L398.971 135.12Z" fill="url(#paint19_radial)"/>
<mask id="path-34-inside-4" fill="white">
<path fill-rule="evenodd" clip-rule="evenodd" d="M287.701 52.9218L229.938 42.1024C229.938 42.1024 191.128 19.7876 177.138 19.7876H125.015C117.118 19.7876 82.1438 39.3976 82.1438 39.3976C82.1438 39.3976 57.0978 43.0041 57.0978 47.9629V71.4048H54.6158V83.0247C54.6158 83.7358 55.1244 84.3451 55.8241 84.4722L76.9541 88.31L77.8709 78.4745C78.3028 66.0318 88.5365 56.0773 101.098 56.0773C101.172 56.0773 101.247 56.0776 101.322 56.0783L101.323 56.0774L101.324 56.0784C112.932 56.1892 122.505 64.8012 124.104 75.9817L124.217 76.0804L125.015 90.3386L234.902 90.0213L234.501 80.8366C234.479 80.4951 234.464 80.1516 234.456 79.8062L234.448 79.6097L234.453 79.6046C234.451 79.5011 234.451 79.3975 234.451 79.2937C234.451 66.4716 244.856 56.0773 257.691 56.0773H257.694L257.917 55.852L258.135 56.0814C270.766 56.3178 280.932 66.6198 280.932 79.2937C280.932 79.539 280.929 79.7834 280.921 80.0269L280.952 80.0591L280.907 88.8498L294.935 88.3571C295.683 88.3308 296.276 87.7169 296.276 86.9685V66.8967L287.701 52.9218Z"/>
</mask>
<path fill-rule="evenodd" clip-rule="evenodd" d="M287.701 52.9218L229.938 42.1024C229.938 42.1024 191.128 19.7876 177.138 19.7876H125.015C117.118 19.7876 82.1438 39.3976 82.1438 39.3976C82.1438 39.3976 57.0978 43.0041 57.0978 47.9629V71.4048H54.6158V83.0247C54.6158 83.7358 55.1244 84.3451 55.8241 84.4722L76.9541 88.31L77.8709 78.4745C78.3028 66.0318 88.5365 56.0773 101.098 56.0773C101.172 56.0773 101.247 56.0776 101.322 56.0783L101.323 56.0774L101.324 56.0784C112.932 56.1892 122.505 64.8012 124.104 75.9817L124.217 76.0804L125.015 90.3386L234.902 90.0213L234.501 80.8366C234.479 80.4951 234.464 80.1516 234.456 79.8062L234.448 79.6097L234.453 79.6046C234.451 79.5011 234.451 79.3975 234.451 79.2937C234.451 66.4716 244.856 56.0773 257.691 56.0773H257.694L257.917 55.852L258.135 56.0814C270.766 56.3178 280.932 66.6198 280.932 79.2937C280.932 79.539 280.929 79.7834 280.921 80.0269L280.952 80.0591L280.907 88.8498L294.935 88.3571C295.683 88.3308 296.276 87.7169 296.276 86.9685V66.8967L287.701 52.9218Z" fill="#2F80ED"/>
<path d="M229.938 42.1024L229.817 42.7451L229.708 42.7247L229.612 42.6693L229.938 42.1024ZM287.701 52.9218L287.822 52.2791L288.107 52.3325L288.259 52.5798L287.701 52.9218ZM82.1438 39.3976L82.4636 39.9679L82.3574 40.0275L82.237 40.0448L82.1438 39.3976ZM57.0978 71.4048H57.7517V72.0586H57.0978V71.4048ZM54.6158 71.4048H53.9619V70.7509H54.6158V71.4048ZM55.8241 84.4722L55.9409 83.8289H55.9409L55.8241 84.4722ZM76.9541 88.31L77.6051 88.3707L77.5389 89.0807L76.8372 88.9533L76.9541 88.31ZM77.8709 78.4745L78.5243 78.4972L78.5237 78.5163L78.5219 78.5352L77.8709 78.4745ZM101.322 56.0783L101.748 56.5743L101.562 56.7345L101.316 56.7322L101.322 56.0783ZM101.323 56.0774L100.897 55.5815L101.328 55.2109L101.755 55.5866L101.323 56.0774ZM101.324 56.0784L101.318 56.7322L101.075 56.7299L100.892 56.5691L101.324 56.0784ZM124.104 75.9817L123.674 76.4741L123.491 76.3145L123.456 76.0743L124.104 75.9817ZM124.217 76.0804L124.647 75.588L124.854 75.7691L124.87 76.0438L124.217 76.0804ZM125.015 90.3386L125.017 90.9924L124.397 90.9942L124.362 90.3752L125.015 90.3386ZM234.902 90.0213L235.555 89.9928L235.585 90.6731L234.904 90.6751L234.902 90.0213ZM234.501 80.8366L235.154 80.7938L235.154 80.801L235.154 80.8081L234.501 80.8366ZM234.456 79.8062L235.109 79.7777L235.11 79.7848L235.11 79.792L234.456 79.8062ZM234.448 79.6097L233.794 79.6382L233.782 79.3532L233.982 79.1502L234.448 79.6097ZM234.453 79.6046L235.106 79.596L235.11 79.8696L234.918 80.0642L234.453 79.6046ZM257.694 56.0773L258.16 56.5368L257.968 56.7311H257.694V56.0773ZM257.917 55.852L257.452 55.3925L257.926 54.9127L258.391 55.4013L257.917 55.852ZM258.135 56.0814L258.123 56.7352L257.85 56.7301L257.662 56.5322L258.135 56.0814ZM280.921 80.0269L280.447 80.4776L280.259 80.2797L280.267 80.0066L280.921 80.0269ZM280.952 80.0591L281.425 79.6083L281.607 79.7991L281.605 80.0624L280.952 80.0591ZM280.907 88.8498L280.93 89.5032L280.25 89.5271L280.253 88.8464L280.907 88.8498ZM294.935 88.3571L294.912 87.7036H294.912L294.935 88.3571ZM296.276 66.8967L296.833 66.5548L296.93 66.7121V66.8967H296.276ZM230.058 41.4598L287.822 52.2791L287.581 53.5644L229.817 42.7451L230.058 41.4598ZM177.138 19.1337C180.764 19.1337 185.909 20.5684 191.519 22.6617C197.152 24.764 203.336 27.5634 209.07 30.3572C214.807 33.152 220.104 35.946 223.967 38.041C225.898 39.0886 227.472 39.9618 228.562 40.5732C229.108 40.879 229.533 41.1193 229.821 41.2833C229.966 41.3654 230.076 41.4283 230.15 41.4708C230.188 41.492 230.216 41.5082 230.235 41.519C230.244 41.5245 230.251 41.5286 230.256 41.5314C230.259 41.5327 230.26 41.5338 230.262 41.5345C230.262 41.5349 230.263 41.5351 230.263 41.5353C230.263 41.5355 230.264 41.5356 229.938 42.1024C229.612 42.6693 229.612 42.6692 229.611 42.6691C229.611 42.6689 229.611 42.6687 229.61 42.6684C229.609 42.6677 229.607 42.6667 229.605 42.6654C229.6 42.6628 229.594 42.6588 229.584 42.6535C229.566 42.6429 229.538 42.6271 229.501 42.6061C229.428 42.5641 229.319 42.5018 229.175 42.4203C228.889 42.2575 228.466 42.0184 227.923 41.714C226.837 41.1051 225.269 40.2349 223.343 39.1905C219.492 37.1015 214.212 34.3168 208.498 31.5328C202.781 28.7479 196.639 25.9686 191.061 23.8869C185.459 21.7961 180.507 20.4415 177.138 20.4415V19.1337ZM125.015 19.1337H177.138V20.4415H125.015V19.1337ZM82.1438 39.3976C81.824 38.8273 81.8242 38.8272 81.8245 38.827C81.8248 38.8269 81.8252 38.8267 81.8257 38.8263C81.8268 38.8257 81.8285 38.8248 81.8306 38.8236C81.8349 38.8212 81.8413 38.8176 81.8498 38.8128C81.8668 38.8033 81.8921 38.7892 81.9255 38.7705C81.9922 38.7333 82.0912 38.678 82.2206 38.6061C82.4793 38.4621 82.8595 38.251 83.3461 37.9825C84.3193 37.4455 85.718 36.6786 87.4211 35.7583C90.8267 33.918 95.4511 31.4636 100.324 29.0087C105.195 26.5547 110.322 24.0956 114.732 22.2486C116.937 21.3252 118.971 20.5509 120.71 20.0062C122.433 19.4668 123.923 19.1337 125.015 19.1337V20.4415C124.133 20.4415 122.803 20.7212 121.101 21.2542C119.416 21.782 117.422 22.5396 115.238 23.4548C110.869 25.2846 105.772 27.728 100.912 30.1765C96.0542 32.6241 91.4415 35.0722 88.0427 36.9088C86.3436 37.827 84.9482 38.5921 83.9779 39.1275C83.4928 39.3952 83.1139 39.6055 82.8565 39.7487C82.7277 39.8204 82.6294 39.8752 82.5633 39.9122C82.5302 39.9306 82.5052 39.9446 82.4885 39.954C82.4802 39.9586 82.4739 39.9622 82.4697 39.9645C82.4677 39.9657 82.4661 39.9665 82.4651 39.9671C82.4646 39.9674 82.4642 39.9676 82.4639 39.9677C82.4637 39.9679 82.4636 39.9679 82.1438 39.3976ZM56.444 47.9629C56.444 47.0537 57.0149 46.2886 57.7543 45.6697C58.5074 45.0394 59.5496 44.4625 60.7474 43.9343C63.1492 42.8752 66.3248 41.9487 69.4664 41.1853C72.6152 40.4202 75.7605 39.8117 78.1164 39.3948C79.295 39.1862 80.2773 39.0253 80.9655 38.9164C81.3096 38.862 81.5802 38.8206 81.7652 38.7928C81.8576 38.7788 81.9286 38.7683 81.9767 38.7612C82.0008 38.7577 82.0191 38.755 82.0315 38.7532C82.0376 38.7523 82.0424 38.7516 82.0455 38.7512C82.0471 38.7509 82.0484 38.7508 82.0492 38.7506C82.0496 38.7506 82.05 38.7505 82.0502 38.7505C82.0504 38.7505 82.0506 38.7504 82.1438 39.3976C82.237 40.0448 82.237 40.0448 82.2368 40.0448C82.2366 40.0448 82.2364 40.0449 82.2361 40.0449C82.2354 40.045 82.2344 40.0452 82.2329 40.0454C82.2301 40.0458 82.2257 40.0464 82.2198 40.0473C82.2081 40.049 82.1905 40.0516 82.1672 40.055C82.1205 40.0619 82.0509 40.0722 81.9599 40.0859C81.7779 40.1133 81.5105 40.1542 81.1697 40.2081C80.4882 40.3159 79.5138 40.4755 78.3443 40.6825C76.0041 41.0967 72.8879 41.6997 69.7752 42.4561C66.6553 43.2142 63.5694 44.1191 61.2751 45.1308C60.1248 45.6381 59.2103 46.1565 58.5937 46.6726C57.9634 47.2001 57.7517 47.6324 57.7517 47.9629H56.444ZM56.444 71.4048V47.9629H57.7517V71.4048H56.444ZM54.6158 70.7509H57.0978V72.0586H54.6158V70.7509ZM53.9619 83.0247V71.4048H55.2696V83.0247H53.9619ZM55.7072 85.1155C54.6966 84.932 53.9619 84.0518 53.9619 83.0247H55.2696C55.2696 83.4198 55.5522 83.7583 55.9409 83.8289L55.7072 85.1155ZM76.8372 88.9533L55.7072 85.1155L55.9409 83.8289L77.0709 87.6666L76.8372 88.9533ZM78.5219 78.5352L77.6051 88.3707L76.3031 88.2493L77.2198 78.4139L78.5219 78.5352ZM101.098 56.7311C88.8894 56.7311 78.9441 66.406 78.5243 78.4972L77.2174 78.4519C77.6616 65.6577 88.1836 55.4234 101.098 55.4234V56.7311ZM101.316 56.7322C101.243 56.7315 101.17 56.7311 101.098 56.7311V55.4234C101.175 55.4234 101.251 55.4238 101.328 55.4245L101.316 56.7322ZM101.749 56.5734L101.748 56.5743L100.896 55.5824L100.897 55.5815L101.749 56.5734ZM100.892 56.5691L100.891 56.5682L101.755 55.5866L101.756 55.5876L100.892 56.5691ZM123.456 76.0743C121.903 65.2097 112.599 56.8399 101.318 56.7322L101.33 55.4245C113.265 55.5385 123.107 64.3926 124.751 75.8892L123.456 76.0743ZM123.786 76.5728L123.674 76.4741L124.534 75.4894L124.647 75.588L123.786 76.5728ZM124.362 90.3752L123.564 76.117L124.87 76.0438L125.668 90.302L124.362 90.3752ZM234.904 90.6751L125.017 90.9924L125.013 89.6848L234.9 89.3674L234.904 90.6751ZM235.154 80.8081L235.555 89.9928L234.249 90.0498L233.848 80.8651L235.154 80.8081ZM235.11 79.792C235.117 80.1278 235.132 80.4618 235.154 80.7938L233.849 80.8795C233.826 80.5284 233.81 80.1753 233.802 79.8204L235.11 79.792ZM235.101 79.5812L235.109 79.7777L233.803 79.8347L233.794 79.6382L235.101 79.5812ZM234.918 80.0642L234.913 80.0693L233.982 79.1502L233.988 79.145L234.918 80.0642ZM235.104 79.2937C235.104 79.3947 235.105 79.4954 235.106 79.596L233.799 79.6132C233.797 79.5069 233.797 79.4004 233.797 79.2937H235.104ZM257.691 56.7311C245.216 56.7311 235.104 66.8334 235.104 79.2937H233.797C233.797 66.1099 244.495 55.4234 257.691 55.4234V56.7311ZM257.694 56.7311H257.691V55.4234H257.694V56.7311ZM258.382 56.3115L258.16 56.5368L257.229 55.6178L257.452 55.3925L258.382 56.3115ZM257.662 56.5322L257.443 56.3027L258.391 55.4013L258.609 55.6307L257.662 56.5322ZM280.278 79.2937C280.278 66.9774 270.399 56.9649 258.123 56.7352L258.148 55.4277C271.133 55.6707 281.586 66.2621 281.586 79.2937H280.278ZM280.267 80.0066C280.275 79.7699 280.278 79.5323 280.278 79.2937H281.586C281.586 79.5458 281.582 79.797 281.574 80.0472L280.267 80.0066ZM280.478 80.5098L280.447 80.4776L281.395 79.5761L281.425 79.6083L280.478 80.5098ZM280.253 88.8464L280.298 80.0557L281.605 80.0624L281.561 88.8531L280.253 88.8464ZM294.958 89.0105L280.93 89.5032L280.884 88.1963L294.912 87.7036L294.958 89.0105ZM296.93 86.9685C296.93 88.069 296.058 88.9719 294.958 89.0105L294.912 87.7036C295.308 87.6897 295.622 87.3647 295.622 86.9685H296.93ZM296.93 66.8967V86.9685H295.622V66.8967H296.93ZM288.259 52.5798L296.833 66.5548L295.718 67.2387L287.144 53.2637L288.259 52.5798Z" fill="black" mask="url(#path-34-inside-4)"/>
<path fill-rule="evenodd" clip-rule="evenodd" d="M101.098 97.9829C90.641 97.9829 82.1638 89.5145 82.1638 79.0685C82.1638 68.6225 90.641 60.1541 101.098 60.1541C111.555 60.1541 120.032 68.6225 120.032 79.0685C120.032 89.5145 111.555 97.9829 101.098 97.9829ZM101.098 91.7832C94.0686 91.7832 88.37 86.0905 88.37 79.0685C88.37 72.0465 94.0686 66.3538 101.098 66.3538C108.127 66.3538 113.826 72.0465 113.826 79.0685C113.826 86.0905 108.127 91.7832 101.098 91.7832Z" fill="#333333"/>
<path d="M101.098 91.797C94.0609 91.797 88.3562 86.0983 88.3562 79.0685C88.3562 72.0387 94.0609 66.3399 101.098 66.3399C108.135 66.3399 113.84 72.0387 113.84 79.0685C113.84 86.0983 108.135 91.797 101.098 91.797Z" fill="#B8B8B8"/>
<path fill-rule="evenodd" clip-rule="evenodd" d="M257.494 98.2208C247.037 98.2208 238.56 89.7524 238.56 79.3064C238.56 68.8604 247.037 60.392 257.494 60.392C267.951 60.392 276.429 68.8604 276.429 79.3064C276.429 89.7524 267.951 98.2208 257.494 98.2208ZM257.494 92.0211C250.465 92.0211 244.766 86.3284 244.766 79.3064C244.766 72.2844 250.465 66.5917 257.494 66.5917C264.524 66.5917 270.222 72.2844 270.222 79.3064C270.222 86.3284 264.524 92.0211 257.494 92.0211Z" fill="#333333"/>
<path d="M257.494 92.035C250.457 92.035 244.752 86.3362 244.752 79.3064C244.752 72.2766 250.457 66.5779 257.494 66.5779C264.531 66.5779 270.236 72.2766 270.236 79.3064C270.236 86.3362 264.531 92.035 257.494 92.035Z" fill="#B8B8B8"/>
<path d="M219.92 45.8329C217.666 44.1825 210.878 39.3249 202.864 34.6484C198.363 32.0219 193.48 29.4561 188.801 27.5478C184.116 25.6369 179.662 24.3973 176.01 24.3973H175.94H175.87H175.801H175.731H175.662H175.593H175.524H175.456H175.388H175.319H175.251H175.183H175.116H175.048H174.981H174.914H174.847H174.781H174.714H174.648H174.582H174.516H174.45H174.384H174.319H174.254H174.189H174.124H174.059H173.995H173.93H173.866H173.802H173.739H173.675H173.612H173.549H173.486H173.423H173.36H173.298H173.235H173.173H173.111H173.05H172.988H172.927H172.865H172.804H172.744H172.683H172.622H172.562H172.502H172.442H172.382H172.323H172.263H172.204H172.145H172.086H172.027H171.969H171.91H171.852H171.794H171.736H171.679H171.621H171.564H171.507H171.45H171.393H171.336H171.28H171.224H171.168H171.112H171.056H171H170.945H170.89H170.834H170.78H170.725H170.67H170.616H170.562H170.508H170.454H170.4H170.346H170.293H170.24H170.187H170.134H170.081H170.028H169.976H169.924H169.872H169.82H169.768H169.717H169.665H169.614H169.563H169.512H169.461H169.411H169.36H169.31H169.26H169.21H169.16H169.111H169.061H169.012H168.963H168.914H168.865H168.816H168.768H168.719H168.671H168.623H168.575H168.528H168.48H168.433H168.386H168.339H168.292H168.245H168.198H168.152H168.106H168.06H168.014H167.968H167.922H167.877H167.831H167.786H167.741H167.696H167.651H167.607H167.562H167.518H167.474H167.43H167.386H167.343H167.299H167.256H167.213H167.17H167.127H167.084H167.041H166.999H166.957H166.914H166.872H166.831H166.789H166.747H166.706H166.665H166.624H166.583H166.542H166.501H166.461H166.42H166.38H166.34H166.3H166.26H166.22H166.181H166.142H166.102H166.063H166.024H165.986H165.947H165.908H165.87H165.832H165.794H165.756H165.718H165.68H165.643H165.605H165.568H165.531H165.494H165.457H165.421H165.384H165.348H165.311H165.275H165.239H165.204H165.168H165.132H165.097H165.062H165.026H164.991H164.956H164.922H164.887H164.853H164.818H164.784H164.75H164.716H164.682H164.649H164.615H164.582H164.548H164.515H164.482H164.449H164.417H164.384H164.352H164.319H164.287H164.255H164.223H164.191H164.159H164.128H164.096H164.065H164.034H164.003H163.972H163.941H163.91H163.88H163.849H163.819H163.789H163.759H163.729H163.699H163.67H163.64H163.611H163.581H163.552H163.523H163.494H163.466H163.437H163.408H163.38H163.352H163.323H163.295H163.267H163.24H163.212H163.184H163.157H163.13H163.102H163.075H163.048H163.022H162.995H162.968H162.942H162.915H162.889H162.863H162.837H162.811H162.785H162.76H162.734H162.709H162.683H162.658H162.633H162.608H162.583H162.559H162.534H162.51H162.485H162.461H162.437H162.413H162.389H162.365H162.341H162.318H162.294H162.271H162.247H162.224H162.201H162.178H162.156H162.133H162.11H162.088H162.065H162.043H162.021H161.999H161.977H161.955H161.933H161.912H161.89H161.869H161.848H161.826H161.805H161.784H161.763H161.743H161.722H161.701H161.681H161.661H161.64H161.62H161.6H161.58H161.561H161.541H161.521H161.502H161.482H161.463H161.444H161.425H161.406H161.387H161.368H161.349H161.331H161.312H161.294H161.275H161.257H161.239H161.221H161.203H161.185H161.168H161.15H161.132H161.115H161.098H161.08H161.063H161.046H161.029H161.012H160.996H160.979H160.962H160.946H160.93H160.913H160.897H160.881H160.865H160.849H160.833H160.818H160.802H160.786H160.771H160.756H160.74H160.725H160.71H160.695H160.68H160.665H160.651H160.636H160.621H160.607H160.593H160.578H160.564H160.55H160.536H160.522H160.508H160.495H160.481H160.467H160.454H160.44H160.427H160.414H160.401H160.388H160.375H160.362H160.349H160.336H160.323H160.311H160.298H160.286H160.274H160.261H160.249H160.237H160.225H160.213H160.201H160.19H160.178H160.166H160.155H160.143H160.132H160.121H160.11H160.098H160.087H160.076H160.066H160.055H160.044H160.033H160.023H160.012H160.002H159.991H159.981H159.971H159.961H159.951H159.941H159.931H159.921H159.911H159.902H159.892H159.882H159.873H159.864H159.854H159.845H159.836H159.827H159.818H159.809H159.8H159.791H159.782H159.774H159.765H159.756H159.748H159.74H159.731H159.723H159.715H159.707H159.699H159.691H159.683H159.675H159.667H159.659H159.652H159.644H159.636H159.629H159.622H159.614H159.607H159.6H159.593H159.585H159.578H159.571H159.565H159.558H159.551H159.544H159.538H159.531H159.524H159.518H159.512H159.505H159.499H159.493H159.487H159.48H159.474L159.472 24.3973L162.941 45.6272C162.961 45.7458 163.063 45.8329 163.183 45.8329H219.92Z" fill="#F2F2F2" stroke="black" stroke-width="0.653853"/>
<path d="M152.496 23.9465L131.755 23.9465L131.677 23.9661C131.6 23.9853 131.488 24.0139 131.345 24.0511C131.058 24.1254 130.648 24.2341 130.157 24.371C129.173 24.6452 127.863 25.0321 126.554 25.4841C125.242 25.9371 123.946 26.4511 122.982 26.9771C122.499 27.2409 122.116 27.4993 121.857 27.7443C121.59 27.9971 121.506 28.1875 121.506 28.3154C121.506 30.2019 122.229 43.0789 122.377 45.6857C122.381 45.7663 122.447 45.8329 122.539 45.8329H155.108L152.496 23.9465Z" fill="#F2F2F2" stroke="black" stroke-width="0.653853"/>
<path d="M118.808 45.3804L118.164 29.517C117.203 29.9349 114.79 31.008 112.325 32.2936C111.037 32.9647 109.74 33.6914 108.63 34.4111C107.513 35.1348 106.608 35.8363 106.085 36.4531C104.861 37.8981 103.777 39.7585 103.536 41.3346C103.417 42.1165 103.51 42.7941 103.856 43.3208C104.2 43.8437 104.83 44.2728 105.9 44.4866C109.846 45.275 117.135 45.3694 118.808 45.3804Z" fill="#F2F2F2" stroke="black" stroke-width="0.653853"/>
<defs>
<radialGradient id="paint0_radial" cx="0" cy="0" r="1" gradientUnits="userSpaceOnUse" gradientTransform="translate(165.782 142.495) scale(27.5693 27.1441)">
<stop offset="0.7777" stop-color="#1A1A1A"/>
<stop offset="0.8882" stop-color="#333333"/>
<stop offset="1"/>
</radialGradient>
<radialGradient id="paint1_radial" cx="0" cy="0" r="1" gradientUnits="userSpaceOnUse" gradientTransform="translate(165.69 142.405) scale(20.6999 20.3806)">
<stop stop-color="#8D8C8C"/>
<stop offset="0.0810056" stop-color="#898989"/>
<stop offset="0.1659" stop-color="#808080"/>
<stop offset="0.2687" stop-color="#868686"/>
<stop offset="0.3295" stop-color="#A4A4A4"/>
<stop offset="0.3447" stop-color="#ACACAC"/>
<stop offset="0.5274" stop-color="#B3B3B3"/>
<stop offset="0.5715" stop-color="#A4A4A4"/>
<stop offset="0.6558" stop-color="#7D7D7D"/>
<stop offset="0.7012" stop-color="#666666"/>
<stop offset="0.7387" stop-color="#6F6F70"/>
<stop offset="0.8018" stop-color="#88898A"/>
<stop offset="0.8676" stop-color="#A8AAAC"/>
<stop offset="0.927" stop-color="#7E8486"/>
<stop offset="1" stop-color="#465053"/>
</radialGradient>
<radialGradient id="paint2_radial" cx="0" cy="0" r="1" gradientUnits="userSpaceOnUse" gradientTransform="translate(165.548 133.652) rotate(2.26091) scale(1.67563 1.64987)">
<stop offset="0.00561773" stop-color="#534741"/>
<stop offset="0.1684" stop-color="#5C5450"/>
<stop offset="0.4792" stop-color="#737577"/>
<stop offset="0.6742" stop-color="#838C92"/>
<stop offset="0.9793" stop-color="#333333"/>
<stop offset="0.9852" stop-color="#3E4042"/>
<stop offset="0.9965" stop-color="#5B6469"/>
<stop offset="1" stop-color="#657076"/>
</radialGradient>
<radialGradient id="paint3_radial" cx="0" cy="0" r="1" gradientUnits="userSpaceOnUse" gradientTransform="translate(165.547 151.327) rotate(2.2609) scale(1.67563 1.64987)">
<stop offset="0.00561773" stop-color="#534741"/>
<stop offset="0.1684" stop-color="#5C5450"/>
<stop offset="0.4792" stop-color="#737577"/>
<stop offset="0.6742" stop-color="#838C92"/>
<stop offset="0.9793" stop-color="#333333"/>
<stop offset="0.9852" stop-color="#3E4042"/>
<stop offset="0.9965" stop-color="#5B6469"/>
<stop offset="1" stop-color="#657076"/>
</radialGradient>
<radialGradient id="paint4_radial" cx="0" cy="0" r="1" gradientUnits="userSpaceOnUse" gradientTransform="translate(159.075 136.252) rotate(-42.2587) scale(1.66385 1.66158)">
<stop offset="0.00561773" stop-color="#534741"/>
<stop offset="0.1684" stop-color="#5C5450"/>
<stop offset="0.4792" stop-color="#737577"/>
<stop offset="0.6742" stop-color="#838C92"/>
<stop offset="0.9793" stop-color="#333333"/>
<stop offset="0.9852" stop-color="#3E4042"/>
<stop offset="0.9965" stop-color="#5B6469"/>
<stop offset="1" stop-color="#657076"/>
</radialGradient>
<radialGradient id="paint5_radial" cx="0" cy="0" r="1" gradientUnits="userSpaceOnUse" gradientTransform="translate(171.769 148.751) rotate(-42.2587) scale(1.66385 1.66158)">
<stop offset="0.00561773" stop-color="#534741"/>
<stop offset="0.1684" stop-color="#5C5450"/>
<stop offset="0.4792" stop-color="#737577"/>
<stop offset="0.6742" stop-color="#838C92"/>
<stop offset="0.9793" stop-color="#333333"/>
<stop offset="0.9852" stop-color="#3E4042"/>
<stop offset="0.9965" stop-color="#5B6469"/>
<stop offset="1" stop-color="#657076"/>
</radialGradient>
<radialGradient id="paint6_radial" cx="0" cy="0" r="1" gradientUnits="userSpaceOnUse" gradientTransform="translate(156.445 142.501) rotate(-87.6678) scale(1.64987 1.67563)">
<stop offset="0.00561773" stop-color="#534741"/>
<stop offset="0.1684" stop-color="#5C5450"/>
<stop offset="0.4792" stop-color="#737577"/>
<stop offset="0.6742" stop-color="#838C92"/>
<stop offset="0.9793" stop-color="#333333"/>
<stop offset="0.9852" stop-color="#3E4042"/>
<stop offset="0.9965" stop-color="#5B6469"/>
<stop offset="1" stop-color="#657076"/>
</radialGradient>
<radialGradient id="paint7_radial" cx="0" cy="0" r="1" gradientUnits="userSpaceOnUse" gradientTransform="translate(174.397 142.501) rotate(-87.6678) scale(1.64986 1.67563)">
<stop offset="0.00561773" stop-color="#534741"/>
<stop offset="0.1684" stop-color="#5C5450"/>
<stop offset="0.4792" stop-color="#737577"/>
<stop offset="0.6742" stop-color="#838C92"/>
<stop offset="0.9793" stop-color="#333333"/>
<stop offset="0.9852" stop-color="#3E4042"/>
<stop offset="0.9965" stop-color="#5B6469"/>
<stop offset="1" stop-color="#657076"/>
</radialGradient>
<radialGradient id="paint8_radial" cx="0" cy="0" r="1" gradientUnits="userSpaceOnUse" gradientTransform="translate(159.075 148.749) rotate(-133.146) scale(1.66179 1.66366)">
<stop offset="0.00561773" stop-color="#534741"/>
<stop offset="0.1684" stop-color="#5C5450"/>
<stop offset="0.4792" stop-color="#737577"/>
<stop offset="0.6742" stop-color="#838C92"/>
<stop offset="0.9793" stop-color="#333333"/>
<stop offset="0.9852" stop-color="#3E4042"/>
<stop offset="0.9965" stop-color="#5B6469"/>
<stop offset="1" stop-color="#657076"/>
</radialGradient>
<radialGradient id="paint9_radial" cx="0" cy="0" r="1" gradientUnits="userSpaceOnUse" gradientTransform="translate(171.77 136.251) rotate(-133.146) scale(1.66178 1.66365)">
<stop offset="0.00561773" stop-color="#534741"/>
<stop offset="0.1684" stop-color="#5C5450"/>
<stop offset="0.4792" stop-color="#737577"/>
<stop offset="0.6742" stop-color="#838C92"/>
<stop offset="0.9793" stop-color="#333333"/>
<stop offset="0.9852" stop-color="#3E4042"/>
<stop offset="0.9965" stop-color="#5B6469"/>
<stop offset="1" stop-color="#657076"/>
</radialGradient>
<radialGradient id="paint10_radial" cx="0" cy="0" r="1" gradientUnits="userSpaceOnUse" gradientTransform="translate(394.739 141.067) scale(27.5693 27.5404)">
<stop offset="0.7777" stop-color="#1A1A1A"/>
<stop offset="0.8882" stop-color="#333333"/>
<stop offset="1"/>
</radialGradient>
<radialGradient id="paint11_radial" cx="0" cy="0" r="1" gradientUnits="userSpaceOnUse" gradientTransform="translate(394.648 140.976) scale(20.6999 20.6782)">
<stop stop-color="#8D8C8C"/>
<stop offset="0.0810056" stop-color="#898989"/>
<stop offset="0.1659" stop-color="#808080"/>
<stop offset="0.2687" stop-color="#868686"/>
<stop offset="0.3295" stop-color="#A4A4A4"/>
<stop offset="0.3447" stop-color="#ACACAC"/>
<stop offset="0.5274" stop-color="#B3B3B3"/>
<stop offset="0.5715" stop-color="#A4A4A4"/>
<stop offset="0.6558" stop-color="#7D7D7D"/>
<stop offset="0.7012" stop-color="#666666"/>
<stop offset="0.7387" stop-color="#6F6F70"/>
<stop offset="0.8018" stop-color="#88898A"/>
<stop offset="0.8676" stop-color="#A8AAAC"/>
<stop offset="0.927" stop-color="#7E8486"/>
<stop offset="1" stop-color="#465053"/>
</radialGradient>
<radialGradient id="paint12_radial" cx="0" cy="0" r="1" gradientUnits="userSpaceOnUse" gradientTransform="translate(394.505 132.095) rotate(2.29387) scale(1.67567 1.67391)">
<stop offset="0.00561773" stop-color="#534741"/>
<stop offset="0.1684" stop-color="#5C5450"/>
<stop offset="0.4792" stop-color="#737577"/>
<stop offset="0.6742" stop-color="#838C92"/>
<stop offset="0.9793" stop-color="#333333"/>
<stop offset="0.9852" stop-color="#3E4042"/>
<stop offset="0.9965" stop-color="#5B6469"/>
<stop offset="1" stop-color="#657076"/>
</radialGradient>
<radialGradient id="paint13_radial" cx="0" cy="0" r="1" gradientUnits="userSpaceOnUse" gradientTransform="translate(394.505 150.028) rotate(2.29387) scale(1.67567 1.67391)">
<stop offset="0.00561773" stop-color="#534741"/>
<stop offset="0.1684" stop-color="#5C5450"/>
<stop offset="0.4792" stop-color="#737577"/>
<stop offset="0.6742" stop-color="#838C92"/>
<stop offset="0.9793" stop-color="#333333"/>
<stop offset="0.9852" stop-color="#3E4042"/>
<stop offset="0.9965" stop-color="#5B6469"/>
<stop offset="1" stop-color="#657076"/>
</radialGradient>
<radialGradient id="paint14_radial" cx="0" cy="0" r="1" gradientUnits="userSpaceOnUse" gradientTransform="translate(388.033 134.734) rotate(-42.6723) scale(1.67489 1.67475)">
<stop offset="0.00561773" stop-color="#534741"/>
<stop offset="0.1684" stop-color="#5C5450"/>
<stop offset="0.4792" stop-color="#737577"/>
<stop offset="0.6742" stop-color="#838C92"/>
<stop offset="0.9793" stop-color="#333333"/>
<stop offset="0.9852" stop-color="#3E4042"/>
<stop offset="0.9965" stop-color="#5B6469"/>
<stop offset="1" stop-color="#657076"/>
</radialGradient>
<radialGradient id="paint15_radial" cx="0" cy="0" r="1" gradientUnits="userSpaceOnUse" gradientTransform="translate(400.727 147.415) rotate(-42.6719) scale(1.6749 1.67475)">
<stop offset="0.00561773" stop-color="#534741"/>
<stop offset="0.1684" stop-color="#5C5450"/>
<stop offset="0.4792" stop-color="#737577"/>
<stop offset="0.6742" stop-color="#838C92"/>
<stop offset="0.9793" stop-color="#333333"/>
<stop offset="0.9852" stop-color="#3E4042"/>
<stop offset="0.9965" stop-color="#5B6469"/>
<stop offset="1" stop-color="#657076"/>
</radialGradient>
<radialGradient id="paint16_radial" cx="0" cy="0" r="1" gradientUnits="userSpaceOnUse" gradientTransform="translate(385.403 141.073) rotate(-87.7013) scale(1.67392 1.67568)">
<stop offset="0.00561773" stop-color="#534741"/>
<stop offset="0.1684" stop-color="#5C5450"/>
<stop offset="0.4792" stop-color="#737577"/>
<stop offset="0.6742" stop-color="#838C92"/>
<stop offset="0.9793" stop-color="#333333"/>
<stop offset="0.9852" stop-color="#3E4042"/>
<stop offset="0.9965" stop-color="#5B6469"/>
<stop offset="1" stop-color="#657076"/>
</radialGradient>
<radialGradient id="paint17_radial" cx="0" cy="0" r="1" gradientUnits="userSpaceOnUse" gradientTransform="translate(403.355 141.073) rotate(-87.7013) scale(1.67391 1.67569)">
<stop offset="0.00561773" stop-color="#534741"/>
<stop offset="0.1684" stop-color="#5C5450"/>
<stop offset="0.4792" stop-color="#737577"/>
<stop offset="0.6742" stop-color="#838C92"/>
<stop offset="0.9793" stop-color="#333333"/>
<stop offset="0.9852" stop-color="#3E4042"/>
<stop offset="0.9965" stop-color="#5B6469"/>
<stop offset="1" stop-color="#657076"/>
</radialGradient>
<radialGradient id="paint18_radial" cx="0" cy="0" r="1" gradientUnits="userSpaceOnUse" gradientTransform="translate(388.033 147.413) rotate(-132.732) scale(1.67474 1.67488)">
<stop offset="0.00561773" stop-color="#534741"/>
<stop offset="0.1684" stop-color="#5C5450"/>
<stop offset="0.4792" stop-color="#737577"/>
<stop offset="0.6742" stop-color="#838C92"/>
<stop offset="0.9793" stop-color="#333333"/>
<stop offset="0.9852" stop-color="#3E4042"/>
<stop offset="0.9965" stop-color="#5B6469"/>
<stop offset="1" stop-color="#657076"/>
</radialGradient>
<radialGradient id="paint19_radial" cx="0" cy="0" r="1" gradientUnits="userSpaceOnUse" gradientTransform="translate(400.727 134.732) rotate(-132.732) scale(1.67475 1.67489)">
<stop offset="0.00561773" stop-color="#534741"/>
<stop offset="0.1684" stop-color="#5C5450"/>
<stop offset="0.4792" stop-color="#737577"/>
<stop offset="0.6742" stop-color="#838C92"/>
<stop offset="0.9793" stop-color="#333333"/>
<stop offset="0.9852" stop-color="#3E4042"/>
<stop offset="0.9965" stop-color="#5B6469"/>
<stop offset="1" stop-color="#657076"/>
</radialGradient>
</defs>
</svg>
