<svg width="408" height="200" viewBox="0 0 408 200" fill="none" xmlns="http://www.w3.org/2000/svg">
<path d="M1.01051 147.269C1.01051 147.179 1.0837 147.105 1.17397 147.105H15.3659C15.4561 147.105 15.5293 147.179 15.5293 147.269V167.234C15.5293 167.325 15.4561 167.398 15.3659 167.398H1.17397C1.08369 167.398 1.01051 167.325 1.01051 167.234V147.269Z" fill="#B8B8B8" stroke="black" stroke-width="0.326926"/>
<mask id="path-2-inside-1" fill="white">
<path fill-rule="evenodd" clip-rule="evenodd" d="M40.5298 40.1971C40.8743 39.657 41.4753 39.3242 42.116 39.3242H121.433C122.471 39.3242 123.312 40.1658 123.312 41.204V135.43H110.455V50.7548C110.455 49.7166 109.614 48.875 108.576 48.875H41.3466C40.6495 48.875 40.005 49.2695 39.6799 49.8862C25.2595 77.242 18.114 92.5746 15.6729 110.955L15.6729 147.126C15.6224 147.094 15.5624 147.075 15.4981 147.075H4.31104V122.868C4.31104 122.687 4.3382 122.504 4.3895 122.331C15.658 84.296 23.8168 66.3928 40.5298 40.1971ZM15.825 167.582H59.3275C59.327 167.51 59.3267 167.437 59.3267 167.365C59.3267 149.827 73.4891 135.591 91.0206 135.431V135.43H91.3196H110.374V50.7548C110.374 49.7618 109.569 48.9567 108.576 48.9567H41.3466C40.6803 48.9567 40.0633 49.3341 39.7522 49.9243C25.3327 77.2783 18.1942 92.5987 15.7547 110.961L15.7547 147.2C15.7987 147.255 15.825 147.326 15.825 147.402V167.582ZM43.5712 52.4385C42.9524 52.4498 42.3776 52.7653 42.04 53.284C32.4854 67.9614 26.3982 83.359 24.3439 91.9022L19.7243 106.425C19.2698 107.854 20.5886 109.213 22.0304 108.803L107.468 84.4767C107.643 84.4267 107.764 84.2662 107.764 84.0836V53.1773C107.764 52.1256 106.902 51.2785 105.85 51.2978L43.5712 52.4385Z"/>
</mask>
<path fill-rule="evenodd" clip-rule="evenodd" d="M40.5298 40.1971C40.8743 39.657 41.4753 39.3242 42.116 39.3242H121.433C122.471 39.3242 123.312 40.1658 123.312 41.204V135.43H110.455V50.7548C110.455 49.7166 109.614 48.875 108.576 48.875H41.3466C40.6495 48.875 40.005 49.2695 39.6799 49.8862C25.2595 77.242 18.114 92.5746 15.6729 110.955L15.6729 147.126C15.6224 147.094 15.5624 147.075 15.4981 147.075H4.31104V122.868C4.31104 122.687 4.3382 122.504 4.3895 122.331C15.658 84.296 23.8168 66.3928 40.5298 40.1971ZM15.825 167.582H59.3275C59.327 167.51 59.3267 167.437 59.3267 167.365C59.3267 149.827 73.4891 135.591 91.0206 135.431V135.43H91.3196H110.374V50.7548C110.374 49.7618 109.569 48.9567 108.576 48.9567H41.3466C40.6803 48.9567 40.0633 49.3341 39.7522 49.9243C25.3327 77.2783 18.1942 92.5987 15.7547 110.961L15.7547 147.2C15.7987 147.255 15.825 147.326 15.825 147.402V167.582ZM43.5712 52.4385C42.9524 52.4498 42.3776 52.7653 42.04 53.284C32.4854 67.9614 26.3982 83.359 24.3439 91.9022L19.7243 106.425C19.2698 107.854 20.5886 109.213 22.0304 108.803L107.468 84.4767C107.643 84.4267 107.764 84.2662 107.764 84.0836V53.1773C107.764 52.1256 106.902 51.2785 105.85 51.2978L43.5712 52.4385Z" fill="#FFF3DC"/>
<path d="M40.5298 40.1971L40.8054 40.3729V40.3729L40.5298 40.1971ZM123.312 135.43V135.756H123.639V135.43H123.312ZM110.455 135.43H110.128V135.756H110.455V135.43ZM39.6799 49.8862L39.3907 49.7337L39.6799 49.8862ZM15.6729 110.955L15.3488 110.912L15.346 110.934V110.955H15.6729ZM15.6729 147.126L15.4978 147.402L15.9999 147.72V147.126H15.6729ZM4.31104 147.075H3.98411V147.402H4.31104V147.075ZM4.3895 122.331L4.07604 122.238H4.07604L4.3895 122.331ZM15.825 167.582H15.4981V167.909H15.825V167.582ZM59.3275 167.582V167.909H59.6566L59.6544 167.58L59.3275 167.582ZM91.0206 135.431L91.0236 135.758L91.3475 135.755V135.431H91.0206ZM91.0206 135.43V135.103H90.6936V135.43H91.0206ZM110.374 135.43V135.756H110.701V135.43H110.374ZM39.7522 49.9243L39.463 49.7718V49.7718L39.7522 49.9243ZM15.7547 110.961L15.4306 110.918L15.4277 110.939V110.961H15.7547ZM15.7547 147.2H15.4277V147.313L15.4982 147.402L15.7547 147.2ZM42.04 53.284L41.766 53.1056L42.04 53.284ZM43.5712 52.4385L43.5772 52.7654L43.5712 52.4385ZM24.3439 91.9022L24.6554 92.0013L24.659 91.9901L24.6617 91.9787L24.3439 91.9022ZM19.7243 106.425L19.4127 106.326L19.7243 106.425ZM22.0304 108.803L22.1199 109.117L22.0304 108.803ZM107.468 84.4767L107.378 84.1623L107.468 84.4767ZM105.85 51.2978L105.844 50.9709L105.85 51.2978ZM42.116 38.9973C41.3625 38.9973 40.6581 39.388 40.2541 40.0212L40.8054 40.3729C41.0905 39.926 41.5881 39.6511 42.116 39.6511V38.9973ZM121.433 38.9973H42.116V39.6511H121.433V38.9973ZM123.639 41.204C123.639 39.9853 122.651 38.9973 121.433 38.9973V39.6511C122.29 39.6511 122.985 40.3464 122.985 41.204H123.639ZM123.639 135.43V41.204H122.985V135.43H123.639ZM110.455 135.756H123.312V135.103H110.455V135.756ZM110.128 50.7548V135.43H110.782V50.7548H110.128ZM108.576 49.2019C109.433 49.2019 110.128 49.8972 110.128 50.7548H110.782C110.782 49.5361 109.794 48.5481 108.576 48.5481V49.2019ZM41.3466 49.2019H108.576V48.5481H41.3466V49.2019ZM39.9691 50.0386C40.2385 49.5277 40.7727 49.2019 41.3466 49.2019V48.5481C40.5264 48.5481 39.7715 49.0114 39.3907 49.7337L39.9691 50.0386ZM15.997 110.998C18.4294 92.6828 25.5469 77.3979 39.9691 50.0386L39.3907 49.7337C24.9721 77.0862 17.7985 92.4665 15.3488 110.912L15.997 110.998ZM15.9999 147.126L15.9999 110.955H15.346L15.346 147.126H15.9999ZM15.4981 147.402L15.4978 147.402L15.848 146.85C15.7467 146.786 15.6262 146.748 15.4981 146.748V147.402ZM4.31104 147.402H15.4981V146.748H4.31104V147.402ZM3.98411 122.868V147.075H4.63796V122.868H3.98411ZM4.07604 122.238C4.016 122.44 3.98411 122.655 3.98411 122.868H4.63796C4.63796 122.719 4.6604 122.567 4.70296 122.423L4.07604 122.238ZM40.2541 40.0212C23.5223 66.2466 15.3518 84.1787 4.07604 122.238L4.70296 122.423C15.9642 84.4133 24.1114 66.5389 40.8054 40.3729L40.2541 40.0212ZM15.825 167.909H59.3275V167.255H15.825V167.909ZM59.6544 167.58C59.6539 167.508 59.6537 167.437 59.6537 167.365H58.9998C58.9998 167.438 59.0001 167.511 59.0005 167.584L59.6544 167.58ZM59.6537 167.365C59.6537 150.007 73.6708 135.916 91.0236 135.758L91.0176 135.104C73.3074 135.266 58.9998 149.647 58.9998 167.365H59.6537ZM91.3475 135.431V135.43H90.6936V135.431H91.3475ZM91.0206 135.756H91.3196V135.103H91.0206V135.756ZM91.3196 135.756H110.374V135.103H91.3196V135.756ZM110.701 135.43V50.7548H110.047V135.43H110.701ZM110.701 50.7548C110.701 49.5812 109.749 48.6298 108.576 48.6298V49.2837C109.388 49.2837 110.047 49.9423 110.047 50.7548H110.701ZM108.576 48.6298H41.3466V49.2837H108.576V48.6298ZM41.3466 48.6298C40.5572 48.6298 39.8299 49.0759 39.463 49.7718L40.0414 50.0767C40.2968 49.5922 40.8034 49.2837 41.3466 49.2837V48.6298ZM39.463 49.7718C25.0453 77.1225 17.8788 92.4905 15.4306 110.918L16.0787 111.004C18.5096 92.7069 25.6201 77.4342 40.0414 50.0767L39.463 49.7718ZM15.4277 110.961L15.4277 147.2H16.0816L16.0816 110.961H15.4277ZM15.4982 147.402L15.4981 147.402H16.1519C16.1519 147.249 16.0992 147.108 16.0111 146.997L15.4982 147.402ZM15.4981 147.402V167.582H16.1519V147.402H15.4981ZM42.314 53.4623C42.5918 53.0355 43.0657 52.7747 43.5772 52.7654L43.5652 52.1116C42.8391 52.1249 42.1634 52.4951 41.766 53.1056L42.314 53.4623ZM24.6617 91.9787C26.7065 83.4751 32.7777 68.1117 42.314 53.4623L41.766 53.1056C32.1931 67.8111 26.0899 83.2429 24.026 91.8258L24.6617 91.9787ZM20.0358 106.524L24.6554 92.0013L24.0323 91.8031L19.4127 106.326L20.0358 106.524ZM21.9409 108.488C20.7498 108.827 19.6604 107.704 20.0358 106.524L19.4127 106.326C18.8792 108.003 20.4273 109.599 22.1199 109.117L21.9409 108.488ZM107.378 84.1623L21.9409 108.488L22.1199 109.117L107.557 84.7911L107.378 84.1623ZM107.437 84.0836C107.437 84.1202 107.413 84.1523 107.378 84.1623L107.557 84.7911C107.873 84.7011 108.091 84.4123 108.091 84.0836H107.437ZM107.437 53.1773V84.0836H108.091V53.1773H107.437ZM105.856 51.6247C106.725 51.6088 107.437 52.3085 107.437 53.1773H108.091C108.091 51.9427 107.079 50.9483 105.844 50.9709L105.856 51.6247ZM43.5772 52.7654L105.856 51.6247L105.844 50.9709L43.5652 52.1116L43.5772 52.7654Z" fill="black" mask="url(#path-2-inside-1)"/>
<mask id="path-4-inside-2" fill="white">
<path fill-rule="evenodd" clip-rule="evenodd" d="M131.213 39.9211H123.439V149.159H131.213V149.159H147.06L161.711 143.379H131.213V39.9211Z"/>
</mask>
<path fill-rule="evenodd" clip-rule="evenodd" d="M131.213 39.9211H123.439V149.159H131.213V149.159H147.06L161.711 143.379H131.213V39.9211Z" fill="#FFF3DC"/>
<path d="M123.439 39.9211V39.5942H123.112V39.9211H123.439ZM131.213 39.9211H131.54V39.5942H131.213V39.9211ZM123.439 149.159H123.112V149.486H123.439V149.159ZM131.213 149.159H131.54V148.832H131.213V149.159ZM131.213 149.159H130.886V149.486H131.213V149.159ZM147.06 149.159V149.486H147.122L147.18 149.463L147.06 149.159ZM161.711 143.379L161.831 143.683L161.711 143.052V143.379ZM131.213 143.379H130.886V143.706H131.213V143.379ZM123.439 40.2481H131.213V39.5942H123.439V40.2481ZM123.766 149.159V39.9211H123.112V149.159H123.766ZM131.213 148.832H123.439V149.486H131.213V148.832ZM131.54 149.159V149.159H130.886V149.159H131.54ZM147.06 148.832H131.213V149.486H147.06V148.832ZM161.591 143.075L146.94 148.855L147.18 149.463L161.831 143.683L161.591 143.075ZM131.213 143.706H161.711V143.052H131.213V143.706ZM130.886 39.9211V143.379H131.54V39.9211H130.886Z" fill="black" mask="url(#path-4-inside-2)"/>
<path d="M106.604 135.488L113.08 135.488C118.252 145.502 122.823 148.778 126.285 161.75C129.746 174.721 124.519 164.084 124.519 164.084C119.144 151.33 114.84 144.944 106.604 135.488Z" fill="black"/>
<path d="M90.5784 138.694C105.391 138.694 117.39 150.681 117.39 165.478C117.39 180.274 105.391 192.261 90.5784 192.261C75.7662 192.261 63.7669 180.274 63.7669 165.478C63.7669 150.681 75.8018 138.694 90.5784 138.694ZM90.5784 185.538C101.688 185.538 110.66 176.539 110.66 165.478C110.66 154.416 101.652 145.417 90.5784 145.417C79.5049 145.417 70.4965 154.416 70.4965 165.478C70.4965 176.539 79.5049 185.538 90.5784 185.538Z" fill="url(#paint0_radial)"/>
<path d="M90.6853 185.467C79.5746 185.467 70.5677 176.47 70.5677 165.371C70.5677 154.272 79.5746 145.274 90.6853 145.274C101.796 145.274 110.803 154.272 110.803 165.371C110.803 176.47 101.796 185.467 90.6853 185.467Z" fill="url(#paint1_radial)"/>
<path d="M89.9019 155.269L91.6466 155.198L92.5724 156.656L91.7534 158.221L90.0087 158.293L89.083 156.799L89.9019 155.269Z" fill="url(#paint2_radial)"/>
<path d="M89.9019 172.698L91.6466 172.627L92.5724 174.085L91.7534 175.65L90.0087 175.721L89.083 174.227L89.9019 172.698Z" fill="url(#paint3_radial)"/>
<path d="M97.4861 157.617L98.7679 158.791L98.4119 160.498L96.7384 160.996L95.4565 159.822L95.8482 158.115L97.4861 157.617Z" fill="url(#paint4_radial)"/>
<path d="M85.1663 169.924L86.4481 171.098L86.0565 172.805L84.383 173.338L83.1011 172.129L83.4928 170.457L85.1663 169.924Z" fill="url(#paint5_radial)"/>
<path d="M101.154 164.553L101.225 166.26L99.7293 167.22L98.1982 166.402L98.127 164.659L99.5868 163.735L101.154 164.553Z" fill="url(#paint6_radial)"/>
<path d="M83.7064 164.553L83.7776 166.26L82.2821 167.22L80.7511 166.402L80.6798 164.659L82.1397 163.735L83.7064 164.553Z" fill="url(#paint7_radial)"/>
<path d="M98.8036 172.022L97.6286 173.303L95.9195 172.911L95.421 171.24L96.596 169.959L98.3051 170.35L98.8036 172.022Z" fill="url(#paint8_radial)"/>
<path d="M86.4838 159.68L85.3088 160.96L83.5996 160.569L83.0655 158.933L84.2762 157.652L85.9497 158.008L86.4838 159.68Z" fill="url(#paint9_radial)"/>
<path d="M308.581 142.897C323.393 142.897 335.392 154.884 335.392 169.681C335.392 184.477 323.393 196.464 308.581 196.464C293.768 196.464 281.769 184.477 281.769 169.681C281.769 154.884 293.804 142.897 308.581 142.897ZM308.581 189.742C319.69 189.742 328.662 180.743 328.662 169.681C328.662 158.619 319.654 149.62 308.581 149.62C297.507 149.62 288.499 158.619 288.499 169.681C288.499 180.743 297.507 189.742 308.581 189.742Z" fill="url(#paint10_radial)"/>
<path d="M308.687 189.671C297.577 189.671 288.57 180.673 288.57 169.574C288.57 158.475 297.577 149.478 308.687 149.478C319.798 149.478 328.805 158.475 328.805 169.574C328.805 180.673 319.798 189.671 308.687 189.671Z" fill="url(#paint11_radial)"/>
<path d="M307.904 159.472L309.649 159.401L310.574 160.86L309.756 162.425L308.011 162.496L307.085 161.002L307.904 159.472Z" fill="url(#paint12_radial)"/>
<path d="M307.904 176.901L309.649 176.83L310.574 178.288L309.756 179.853L308.011 179.925L307.085 178.431L307.904 176.901Z" fill="url(#paint13_radial)"/>
<path d="M315.488 161.82L316.77 162.994L316.414 164.701L314.74 165.199L313.459 164.025L313.85 162.318L315.488 161.82Z" fill="url(#paint14_radial)"/>
<path d="M303.168 174.127L304.45 175.301L304.059 177.008L302.385 177.542L301.103 176.332L301.495 174.66L303.168 174.127Z" fill="url(#paint15_radial)"/>
<path d="M319.156 168.756L319.227 170.463L317.731 171.424L316.2 170.606L316.129 168.863L317.589 167.938L319.156 168.756Z" fill="url(#paint16_radial)"/>
<path d="M301.708 168.756L301.78 170.463L300.284 171.424L298.753 170.606L298.682 168.863L300.142 167.938L301.708 168.756Z" fill="url(#paint17_radial)"/>
<path d="M316.806 176.225L315.631 177.506L313.921 177.115L313.423 175.443L314.598 174.162L316.307 174.554L316.806 176.225Z" fill="url(#paint18_radial)"/>
<path d="M304.486 163.883L303.311 165.163L301.602 164.772L301.068 163.136L302.278 161.856L303.952 162.211L304.486 163.883Z" fill="url(#paint19_radial)"/>
<mask id="path-27-inside-3" fill="white">
<path fill-rule="evenodd" clip-rule="evenodd" d="M197.449 143.452H200.439V158.376H233.329V143.452H236.319V158.376H269.208V143.452H272.198V161.36H269.208V161.36H236.319V161.36H233.329V161.36H200.439V161.36H197.449V161.36H164.559V161.361H161.569V143.453H164.559V158.376H197.449V143.452Z"/>
</mask>
<path fill-rule="evenodd" clip-rule="evenodd" d="M197.449 143.452H200.439V158.376H233.329V143.452H236.319V158.376H269.208V143.452H272.198V161.36H269.208V161.36H236.319V161.36H233.329V161.36H200.439V161.36H197.449V161.36H164.559V161.361H161.569V143.453H164.559V158.376H197.449V143.452Z" fill="#B8B8B8"/>
<path d="M200.439 143.452H200.766V143.126H200.439V143.452ZM197.449 143.452V143.126H197.122V143.452H197.449ZM200.439 158.376H200.112V158.703H200.439V158.376ZM233.329 158.376V158.703H233.656V158.376H233.329ZM233.329 143.452V143.126H233.002V143.452H233.329ZM236.319 143.452H236.646V143.126H236.319V143.452ZM236.319 158.376H235.992V158.703H236.319V158.376ZM269.208 158.376V158.703H269.535V158.376H269.208ZM269.208 143.452V143.126H268.882V143.452H269.208ZM272.198 143.452H272.525V143.126H272.198V143.452ZM272.198 161.36V161.687H272.525V161.36H272.198ZM269.208 161.36H268.882V161.687H269.208V161.36ZM269.208 161.36H269.535V161.033H269.208V161.36ZM236.319 161.36V161.033H235.992V161.36H236.319ZM236.319 161.36V161.687H236.646V161.36H236.319ZM233.329 161.36H233.002V161.687H233.329V161.36ZM233.329 161.36H233.656V161.033H233.329V161.36ZM200.439 161.36V161.033H200.112V161.36H200.439ZM200.439 161.36V161.687H200.766V161.36H200.439ZM197.449 161.36H197.122V161.687H197.449V161.36ZM197.449 161.36H197.776V161.033H197.449V161.36ZM164.559 161.36V161.033H164.232V161.36H164.559ZM164.559 161.361V161.688H164.886V161.361H164.559ZM161.569 161.361H161.242V161.688H161.569V161.361ZM161.569 143.453V143.126H161.242V143.453H161.569ZM164.559 143.453H164.886V143.126H164.559V143.453ZM164.559 158.376H164.232V158.703H164.559V158.376ZM197.449 158.376V158.703H197.776V158.376H197.449ZM200.439 143.126H197.449V143.779H200.439V143.126ZM200.766 158.376V143.452H200.112V158.376H200.766ZM200.439 158.703H233.329V158.049H200.439V158.703ZM233.656 158.376V143.452H233.002V158.376H233.656ZM233.329 143.779H236.319V143.126H233.329V143.779ZM235.992 143.452V158.376H236.646V143.452H235.992ZM236.319 158.703H269.208V158.049H236.319V158.703ZM268.882 143.452V158.376H269.535V143.452H268.882ZM272.198 143.126H269.208V143.779H272.198V143.126ZM272.525 161.36V143.452H271.872V161.36H272.525ZM269.208 161.687H272.198V161.033H269.208V161.687ZM268.882 161.36V161.36H269.535V161.36H268.882ZM269.208 161.033H236.319V161.687H269.208V161.033ZM235.992 161.36V161.36H236.646V161.36H235.992ZM236.319 161.033H233.329V161.687H236.319V161.033ZM233.656 161.36V161.36H233.002V161.36H233.656ZM233.329 161.033H200.439V161.687H233.329V161.033ZM200.766 161.36V161.36H200.112V161.36H200.766ZM197.449 161.687H200.439V161.033H197.449V161.687ZM197.122 161.36V161.36H197.776V161.36H197.122ZM197.449 161.033H164.559V161.687H197.449V161.033ZM164.886 161.361V161.36H164.232V161.361H164.886ZM161.569 161.688H164.559V161.034H161.569V161.688ZM161.242 143.453V161.361H161.896V143.453H161.242ZM164.559 143.126H161.569V143.78H164.559V143.126ZM164.886 158.376V143.453H164.232V158.376H164.886ZM164.559 158.703H197.449V158.049H164.559V158.703ZM197.122 143.452V158.376H197.776V143.452H197.122Z" fill="black" mask="url(#path-27-inside-3)"/>
<mask id="path-29-inside-4" fill="white">
<path fill-rule="evenodd" clip-rule="evenodd" d="M382.779 143.432H379.789V158.355H346.899V143.432H343.909V161.34H346.899V161.339H379.789V161.34H382.779V161.339H396.092C396.094 161.34 396.096 161.34 396.098 161.34H402.947C403.038 161.34 403.111 161.266 403.111 161.176V149.565C403.111 149.474 403.038 149.401 402.947 149.401H396.098C396.008 149.401 395.935 149.474 395.935 149.565V158.355H382.779V143.432Z"/>
</mask>
<path fill-rule="evenodd" clip-rule="evenodd" d="M382.779 143.432H379.789V158.355H346.899V143.432H343.909V161.34H346.899V161.339H379.789V161.34H382.779V161.339H396.092C396.094 161.34 396.096 161.34 396.098 161.34H402.947C403.038 161.34 403.111 161.266 403.111 161.176V149.565C403.111 149.474 403.038 149.401 402.947 149.401H396.098C396.008 149.401 395.935 149.474 395.935 149.565V158.355H382.779V143.432Z" fill="#B8B8B8"/>
<path d="M379.789 143.432V143.105H379.462V143.432H379.789ZM382.779 143.432H383.106V143.105H382.779V143.432ZM379.789 158.355V158.682H380.116V158.355H379.789ZM346.899 158.355H346.572V158.682H346.899V158.355ZM346.899 143.432H347.226V143.105H346.899V143.432ZM343.909 143.432V143.105H343.582V143.432H343.909ZM343.909 161.34H343.582V161.667H343.909V161.34ZM346.899 161.34V161.667H347.226V161.34H346.899ZM346.899 161.339V161.013H346.572V161.339H346.899ZM379.789 161.339H380.116V161.013H379.789V161.339ZM379.789 161.34H379.462V161.666H379.789V161.34ZM382.779 161.34V161.666H383.106V161.34H382.779ZM382.779 161.339V161.013H382.452V161.339H382.779ZM396.092 161.339L396.105 161.013H396.092V161.339ZM395.935 158.355V158.682H396.262V158.355H395.935ZM382.779 158.355H382.452V158.682H382.779V158.355ZM379.789 143.759H382.779V143.105H379.789V143.759ZM380.116 158.355V143.432H379.462V158.355H380.116ZM346.899 158.682H379.789V158.028H346.899V158.682ZM346.572 143.432V158.355H347.226V143.432H346.572ZM343.909 143.759H346.899V143.105H343.909V143.759ZM344.236 161.34V143.432H343.582V161.34H344.236ZM346.899 161.013H343.909V161.667H346.899V161.013ZM346.572 161.339V161.34H347.226V161.339H346.572ZM379.789 161.013H346.899V161.666H379.789V161.013ZM380.116 161.34V161.339H379.462V161.34H380.116ZM382.779 161.013H379.789V161.666H382.779V161.013ZM382.452 161.339V161.34H383.106V161.339H382.452ZM396.092 161.013H382.779V161.666H396.092V161.013ZM396.098 161.013C396.1 161.013 396.103 161.013 396.105 161.013L396.079 161.666C396.085 161.666 396.092 161.667 396.098 161.667V161.013ZM402.947 161.013H396.098V161.667H402.947V161.013ZM402.784 161.176C402.784 161.086 402.857 161.013 402.947 161.013V161.667C403.218 161.667 403.438 161.447 403.438 161.176H402.784ZM402.784 149.565V161.176H403.438V149.565H402.784ZM402.947 149.728C402.857 149.728 402.784 149.655 402.784 149.565H403.438C403.438 149.294 403.218 149.074 402.947 149.074V149.728ZM396.098 149.728H402.947V149.074H396.098V149.728ZM396.262 149.565C396.262 149.655 396.189 149.728 396.098 149.728V149.074C395.827 149.074 395.608 149.294 395.608 149.565H396.262ZM396.262 158.355V149.565H395.608V158.355H396.262ZM382.779 158.682H395.935V158.028H382.779V158.682ZM382.452 143.432V158.355H383.106V143.432H382.452Z" fill="black" mask="url(#path-29-inside-4)"/>
<rect x="131.186" y="113.181" width="265.782" height="30.1163" rx="0.245195" fill="#FFF3DC" stroke="black" stroke-width="0.326926"/>
<rect x="131.208" y="0.905437" width="265.785" height="111.811" rx="0.245195" fill="#2F80ED" stroke="black" stroke-width="0.326926"/>
<path d="M148.593 121.053C148.625 121 148.702 121 148.733 121.053L155.436 132.212C155.469 132.267 155.429 132.336 155.366 132.336H141.961C141.897 132.336 141.858 132.267 141.891 132.212L148.593 121.053Z" fill="#FF0000" stroke="black" stroke-width="0.163463"/>
<path d="M379.42 121.053C379.452 121 379.528 121 379.56 121.053L386.263 132.212C386.295 132.267 386.256 132.336 386.193 132.336H372.788C372.724 132.336 372.685 132.267 372.717 132.212L379.42 121.053Z" fill="#FF0000" stroke="black" stroke-width="0.163463"/>
<path d="M326.509 143.366L332.729 143.366C335.735 149.987 339.3 151.685 340.29 160.787C341.281 169.889 338.327 162.812 338.327 162.812C335.586 154.183 332.353 149.073 326.509 143.366Z" fill="black"/>
<path d="M290.84 143.366L284.621 143.366C281.615 149.987 278.05 151.685 277.06 160.787C276.069 169.889 279.023 162.812 279.023 162.812C281.764 154.183 284.997 149.073 290.84 143.366Z" fill="black"/>
<path d="M26.0346 98.3579C25.5336 103.813 23.7912 104.852 19.5748 105.173" stroke="black" stroke-width="0.0817316"/>
<path d="M27.9614 82.9438C27.9713 82.9056 28.0071 82.8789 28.0466 82.8804L29.6583 82.9394C29.7073 82.9412 29.7425 82.985 29.7335 83.033L25.5399 105.322C25.5281 105.385 25.4517 105.413 25.4041 105.372L22.7895 103.122C22.7668 103.103 22.7574 103.072 22.765 103.043L27.9614 82.9438Z" fill="black"/>
<path d="M397.554 41.6637V136.474L402.635 139.368L400.067 75.0875L398.428 43.2475L397.554 41.6637Z" fill="#B8B8B8" stroke="black" stroke-width="0.326926"/>
<path d="M402.947 139.606C402.947 137.55 401.281 135.884 399.225 135.884H397.003V143.329H399.225C401.281 143.329 402.947 141.662 402.947 139.606Z" fill="#B8B8B8" stroke="black" stroke-width="0.326926"/>
<path d="M398.829 139.566C398.829 140.067 399.235 140.474 399.737 140.474C400.239 140.474 400.645 140.067 400.645 139.566C400.645 139.066 400.239 138.659 399.737 138.659C399.235 138.659 398.829 139.066 398.829 139.566Z" stroke="black" stroke-width="0.326926"/>
<defs>
<radialGradient id="paint0_radial" cx="0" cy="0" r="1" gradientUnits="userSpaceOnUse" gradientTransform="translate(90.5962 165.46) rotate(180) scale(26.7938 26.7656)">
<stop offset="0.7777" stop-color="#1A1A1A"/>
<stop offset="0.8882" stop-color="#333333"/>
<stop offset="1"/>
</radialGradient>
<radialGradient id="paint1_radial" cx="0" cy="0" r="1" gradientUnits="userSpaceOnUse" gradientTransform="translate(90.6853 165.371) rotate(180) scale(20.1176 20.0965)">
<stop stop-color="#8D8C8C"/>
<stop offset="0.0810056" stop-color="#898989"/>
<stop offset="0.1659" stop-color="#808080"/>
<stop offset="0.2687" stop-color="#868686"/>
<stop offset="0.3295" stop-color="#A4A4A4"/>
<stop offset="0.3447" stop-color="#ACACAC"/>
<stop offset="0.5274" stop-color="#B3B3B3"/>
<stop offset="0.5715" stop-color="#A4A4A4"/>
<stop offset="0.6558" stop-color="#7D7D7D"/>
<stop offset="0.7012" stop-color="#666666"/>
<stop offset="0.7387" stop-color="#6F6F70"/>
<stop offset="0.8018" stop-color="#88898A"/>
<stop offset="0.8676" stop-color="#A8AAAC"/>
<stop offset="0.927" stop-color="#7E8486"/>
<stop offset="1" stop-color="#465053"/>
</radialGradient>
<radialGradient id="paint2_radial" cx="0" cy="0" r="1" gradientUnits="userSpaceOnUse" gradientTransform="translate(90.8238 156.74) rotate(177.706) scale(1.62853 1.62682)">
<stop offset="0.00561773" stop-color="#534741"/>
<stop offset="0.1684" stop-color="#5C5450"/>
<stop offset="0.4792" stop-color="#737577"/>
<stop offset="0.6742" stop-color="#838C92"/>
<stop offset="0.9793" stop-color="#333333"/>
<stop offset="0.9852" stop-color="#3E4042"/>
<stop offset="0.9965" stop-color="#5B6469"/>
<stop offset="1" stop-color="#657076"/>
</radialGradient>
<radialGradient id="paint3_radial" cx="0" cy="0" r="1" gradientUnits="userSpaceOnUse" gradientTransform="translate(90.8239 174.169) rotate(177.706) scale(1.62853 1.62682)">
<stop offset="0.00561773" stop-color="#534741"/>
<stop offset="0.1684" stop-color="#5C5450"/>
<stop offset="0.4792" stop-color="#737577"/>
<stop offset="0.6742" stop-color="#838C92"/>
<stop offset="0.9793" stop-color="#333333"/>
<stop offset="0.9852" stop-color="#3E4042"/>
<stop offset="0.9965" stop-color="#5B6469"/>
<stop offset="1" stop-color="#657076"/>
</radialGradient>
<radialGradient id="paint4_radial" cx="0" cy="0" r="1" gradientUnits="userSpaceOnUse" gradientTransform="translate(97.1145 159.304) rotate(-137.328) scale(1.62777 1.62763)">
<stop offset="0.00561773" stop-color="#534741"/>
<stop offset="0.1684" stop-color="#5C5450"/>
<stop offset="0.4792" stop-color="#737577"/>
<stop offset="0.6742" stop-color="#838C92"/>
<stop offset="0.9793" stop-color="#333333"/>
<stop offset="0.9852" stop-color="#3E4042"/>
<stop offset="0.9965" stop-color="#5B6469"/>
<stop offset="1" stop-color="#657076"/>
</radialGradient>
<radialGradient id="paint5_radial" cx="0" cy="0" r="1" gradientUnits="userSpaceOnUse" gradientTransform="translate(84.7776 171.629) rotate(-137.328) scale(1.62777 1.62763)">
<stop offset="0.00561773" stop-color="#534741"/>
<stop offset="0.1684" stop-color="#5C5450"/>
<stop offset="0.4792" stop-color="#737577"/>
<stop offset="0.6742" stop-color="#838C92"/>
<stop offset="0.9793" stop-color="#333333"/>
<stop offset="0.9852" stop-color="#3E4042"/>
<stop offset="0.9965" stop-color="#5B6469"/>
<stop offset="1" stop-color="#657076"/>
</radialGradient>
<radialGradient id="paint6_radial" cx="0" cy="0" r="1" gradientUnits="userSpaceOnUse" gradientTransform="translate(99.6701 165.465) rotate(-92.2987) scale(1.62682 1.62852)">
<stop offset="0.00561773" stop-color="#534741"/>
<stop offset="0.1684" stop-color="#5C5450"/>
<stop offset="0.4792" stop-color="#737577"/>
<stop offset="0.6742" stop-color="#838C92"/>
<stop offset="0.9793" stop-color="#333333"/>
<stop offset="0.9852" stop-color="#3E4042"/>
<stop offset="0.9965" stop-color="#5B6469"/>
<stop offset="1" stop-color="#657076"/>
</radialGradient>
<radialGradient id="paint7_radial" cx="0" cy="0" r="1" gradientUnits="userSpaceOnUse" gradientTransform="translate(82.2229 165.465) rotate(-92.2987) scale(1.62682 1.62853)">
<stop offset="0.00561773" stop-color="#534741"/>
<stop offset="0.1684" stop-color="#5C5450"/>
<stop offset="0.4792" stop-color="#737577"/>
<stop offset="0.6742" stop-color="#838C92"/>
<stop offset="0.9793" stop-color="#333333"/>
<stop offset="0.9852" stop-color="#3E4042"/>
<stop offset="0.9965" stop-color="#5B6469"/>
<stop offset="1" stop-color="#657076"/>
</radialGradient>
<radialGradient id="paint8_radial" cx="0" cy="0" r="1" gradientUnits="userSpaceOnUse" gradientTransform="translate(97.1144 171.627) rotate(-47.2677) scale(1.62763 1.62777)">
<stop offset="0.00561773" stop-color="#534741"/>
<stop offset="0.1684" stop-color="#5C5450"/>
<stop offset="0.4792" stop-color="#737577"/>
<stop offset="0.6742" stop-color="#838C92"/>
<stop offset="0.9793" stop-color="#333333"/>
<stop offset="0.9852" stop-color="#3E4042"/>
<stop offset="0.9965" stop-color="#5B6469"/>
<stop offset="1" stop-color="#657076"/>
</radialGradient>
<radialGradient id="paint9_radial" cx="0" cy="0" r="1" gradientUnits="userSpaceOnUse" gradientTransform="translate(84.7769 159.303) rotate(-47.2676) scale(1.62763 1.62777)">
<stop offset="0.00561773" stop-color="#534741"/>
<stop offset="0.1684" stop-color="#5C5450"/>
<stop offset="0.4792" stop-color="#737577"/>
<stop offset="0.6742" stop-color="#838C92"/>
<stop offset="0.9793" stop-color="#333333"/>
<stop offset="0.9852" stop-color="#3E4042"/>
<stop offset="0.9965" stop-color="#5B6469"/>
<stop offset="1" stop-color="#657076"/>
</radialGradient>
<radialGradient id="paint10_radial" cx="0" cy="0" r="1" gradientUnits="userSpaceOnUse" gradientTransform="translate(308.598 169.663) rotate(180) scale(26.7938 26.7656)">
<stop offset="0.7777" stop-color="#1A1A1A"/>
<stop offset="0.8882" stop-color="#333333"/>
<stop offset="1"/>
</radialGradient>
<radialGradient id="paint11_radial" cx="0" cy="0" r="1" gradientUnits="userSpaceOnUse" gradientTransform="translate(308.687 169.574) rotate(180) scale(20.1176 20.0965)">
<stop stop-color="#8D8C8C"/>
<stop offset="0.0810056" stop-color="#898989"/>
<stop offset="0.1659" stop-color="#808080"/>
<stop offset="0.2687" stop-color="#868686"/>
<stop offset="0.3295" stop-color="#A4A4A4"/>
<stop offset="0.3447" stop-color="#ACACAC"/>
<stop offset="0.5274" stop-color="#B3B3B3"/>
<stop offset="0.5715" stop-color="#A4A4A4"/>
<stop offset="0.6558" stop-color="#7D7D7D"/>
<stop offset="0.7012" stop-color="#666666"/>
<stop offset="0.7387" stop-color="#6F6F70"/>
<stop offset="0.8018" stop-color="#88898A"/>
<stop offset="0.8676" stop-color="#A8AAAC"/>
<stop offset="0.927" stop-color="#7E8486"/>
<stop offset="1" stop-color="#465053"/>
</radialGradient>
<radialGradient id="paint12_radial" cx="0" cy="0" r="1" gradientUnits="userSpaceOnUse" gradientTransform="translate(308.826 160.943) rotate(177.706) scale(1.62853 1.62682)">
<stop offset="0.00561773" stop-color="#534741"/>
<stop offset="0.1684" stop-color="#5C5450"/>
<stop offset="0.4792" stop-color="#737577"/>
<stop offset="0.6742" stop-color="#838C92"/>
<stop offset="0.9793" stop-color="#333333"/>
<stop offset="0.9852" stop-color="#3E4042"/>
<stop offset="0.9965" stop-color="#5B6469"/>
<stop offset="1" stop-color="#657076"/>
</radialGradient>
<radialGradient id="paint13_radial" cx="0" cy="0" r="1" gradientUnits="userSpaceOnUse" gradientTransform="translate(308.826 178.372) rotate(177.706) scale(1.62853 1.62682)">
<stop offset="0.00561773" stop-color="#534741"/>
<stop offset="0.1684" stop-color="#5C5450"/>
<stop offset="0.4792" stop-color="#737577"/>
<stop offset="0.6742" stop-color="#838C92"/>
<stop offset="0.9793" stop-color="#333333"/>
<stop offset="0.9852" stop-color="#3E4042"/>
<stop offset="0.9965" stop-color="#5B6469"/>
<stop offset="1" stop-color="#657076"/>
</radialGradient>
<radialGradient id="paint14_radial" cx="0" cy="0" r="1" gradientUnits="userSpaceOnUse" gradientTransform="translate(315.117 163.507) rotate(-137.328) scale(1.62777 1.62763)">
<stop offset="0.00561773" stop-color="#534741"/>
<stop offset="0.1684" stop-color="#5C5450"/>
<stop offset="0.4792" stop-color="#737577"/>
<stop offset="0.6742" stop-color="#838C92"/>
<stop offset="0.9793" stop-color="#333333"/>
<stop offset="0.9852" stop-color="#3E4042"/>
<stop offset="0.9965" stop-color="#5B6469"/>
<stop offset="1" stop-color="#657076"/>
</radialGradient>
<radialGradient id="paint15_radial" cx="0" cy="0" r="1" gradientUnits="userSpaceOnUse" gradientTransform="translate(302.78 175.832) rotate(-137.328) scale(1.62777 1.62763)">
<stop offset="0.00561773" stop-color="#534741"/>
<stop offset="0.1684" stop-color="#5C5450"/>
<stop offset="0.4792" stop-color="#737577"/>
<stop offset="0.6742" stop-color="#838C92"/>
<stop offset="0.9793" stop-color="#333333"/>
<stop offset="0.9852" stop-color="#3E4042"/>
<stop offset="0.9965" stop-color="#5B6469"/>
<stop offset="1" stop-color="#657076"/>
</radialGradient>
<radialGradient id="paint16_radial" cx="0" cy="0" r="1" gradientUnits="userSpaceOnUse" gradientTransform="translate(317.672 169.669) rotate(-92.2987) scale(1.62682 1.62854)">
<stop offset="0.00561773" stop-color="#534741"/>
<stop offset="0.1684" stop-color="#5C5450"/>
<stop offset="0.4792" stop-color="#737577"/>
<stop offset="0.6742" stop-color="#838C92"/>
<stop offset="0.9793" stop-color="#333333"/>
<stop offset="0.9852" stop-color="#3E4042"/>
<stop offset="0.9965" stop-color="#5B6469"/>
<stop offset="1" stop-color="#657076"/>
</radialGradient>
<radialGradient id="paint17_radial" cx="0" cy="0" r="1" gradientUnits="userSpaceOnUse" gradientTransform="translate(300.225 169.668) rotate(-92.2987) scale(1.62682 1.62852)">
<stop offset="0.00561773" stop-color="#534741"/>
<stop offset="0.1684" stop-color="#5C5450"/>
<stop offset="0.4792" stop-color="#737577"/>
<stop offset="0.6742" stop-color="#838C92"/>
<stop offset="0.9793" stop-color="#333333"/>
<stop offset="0.9852" stop-color="#3E4042"/>
<stop offset="0.9965" stop-color="#5B6469"/>
<stop offset="1" stop-color="#657076"/>
</radialGradient>
<radialGradient id="paint18_radial" cx="0" cy="0" r="1" gradientUnits="userSpaceOnUse" gradientTransform="translate(315.116 175.83) rotate(-47.2677) scale(1.62763 1.62776)">
<stop offset="0.00561773" stop-color="#534741"/>
<stop offset="0.1684" stop-color="#5C5450"/>
<stop offset="0.4792" stop-color="#737577"/>
<stop offset="0.6742" stop-color="#838C92"/>
<stop offset="0.9793" stop-color="#333333"/>
<stop offset="0.9852" stop-color="#3E4042"/>
<stop offset="0.9965" stop-color="#5B6469"/>
<stop offset="1" stop-color="#657076"/>
</radialGradient>
<radialGradient id="paint19_radial" cx="0" cy="0" r="1" gradientUnits="userSpaceOnUse" gradientTransform="translate(302.779 163.506) rotate(-47.2678) scale(1.62763 1.62777)">
<stop offset="0.00561773" stop-color="#534741"/>
<stop offset="0.1684" stop-color="#5C5450"/>
<stop offset="0.4792" stop-color="#737577"/>
<stop offset="0.6742" stop-color="#838C92"/>
<stop offset="0.9793" stop-color="#333333"/>
<stop offset="0.9852" stop-color="#3E4042"/>
<stop offset="0.9965" stop-color="#5B6469"/>
<stop offset="1" stop-color="#657076"/>
</radialGradient>
</defs>
</svg>
