<svg width="444" height="191" viewBox="0 0 444 191" fill="none" xmlns="http://www.w3.org/2000/svg">
<circle cx="307.315" cy="134.877" r="14.9025" fill="url(#paint0_radial)" fill-opacity="0.62" stroke="black" stroke-width="0.236548"/>
<ellipse opacity="0.5" rx="185.611" ry="5.08577" transform="matrix(-1 0 0 1 251.135 185.301)" fill="#403F45" fill-opacity="0.72"/>
<path d="M443.842 138.031C443.842 137.944 443.772 137.873 443.685 137.873H429.571C429.483 137.873 429.413 137.944 429.413 138.031V157.901C429.413 157.988 429.483 158.059 429.571 158.059H443.685C443.772 158.059 443.842 157.988 443.842 157.901V138.031Z" fill="#B8B8B8" stroke="black" stroke-width="0.315397"/>
<mask id="path-4-inside-1" fill="white">
<path fill-rule="evenodd" clip-rule="evenodd" d="M404.571 31.5601C404.239 31.0387 403.659 30.7172 403.04 30.7172H324.181C323.179 30.7172 322.367 31.5292 322.367 32.5308V126.27H335.137V42.0266C335.137 41.025 335.949 40.2131 336.95 40.2131H403.808C404.48 40.2131 405.102 40.5942 405.416 41.1895C419.749 68.406 426.85 83.6548 429.275 101.936L429.275 137.894C429.323 137.865 429.379 137.848 429.439 137.848H440.56V113.772C440.56 113.598 440.534 113.421 440.484 113.254C429.287 75.4207 421.183 57.6205 404.571 31.5601ZM429.124 158.239H385.917C385.918 158.167 385.918 158.094 385.918 158.021C385.918 140.584 371.852 126.43 354.44 126.271V126.27H354.143H335.216V42.0266C335.216 41.0686 335.992 40.2919 336.95 40.2919H403.808C404.451 40.2919 405.046 40.6564 405.346 41.2262C419.678 68.441 426.772 83.678 429.196 101.941L429.196 137.963C429.151 138.017 429.124 138.087 429.124 138.164V158.239ZM401.594 43.7566L357.581 42.9496V81.1613L423.057 99.8235C424.448 100.22 425.72 98.9085 425.282 97.5302L420.663 82.9928C418.621 74.4941 412.57 59.1731 403.072 44.573C402.746 44.0723 402.191 43.7676 401.594 43.7566ZM352.22 42.8513V79.6331L338.096 75.6075C337.926 75.5592 337.81 75.4045 337.81 75.2283V44.4342C337.81 43.4196 338.642 42.6024 339.656 42.621L352.22 42.8513Z"/>
</mask>
<path fill-rule="evenodd" clip-rule="evenodd" d="M404.571 31.5601C404.239 31.0387 403.659 30.7172 403.04 30.7172H324.181C323.179 30.7172 322.367 31.5292 322.367 32.5308V126.27H335.137V42.0266C335.137 41.025 335.949 40.2131 336.95 40.2131H403.808C404.48 40.2131 405.102 40.5942 405.416 41.1895C419.749 68.406 426.85 83.6548 429.275 101.936L429.275 137.894C429.323 137.865 429.379 137.848 429.439 137.848H440.56V113.772C440.56 113.598 440.534 113.421 440.484 113.254C429.287 75.4207 421.183 57.6205 404.571 31.5601ZM429.124 158.239H385.917C385.918 158.167 385.918 158.094 385.918 158.021C385.918 140.584 371.852 126.43 354.44 126.271V126.27H354.143H335.216V42.0266C335.216 41.0686 335.992 40.2919 336.95 40.2919H403.808C404.451 40.2919 405.046 40.6564 405.346 41.2262C419.678 68.441 426.772 83.678 429.196 101.941L429.196 137.963C429.151 138.017 429.124 138.087 429.124 138.164V158.239ZM401.594 43.7566L357.581 42.9496V81.1613L423.057 99.8235C424.448 100.22 425.72 98.9085 425.282 97.5302L420.663 82.9928C418.621 74.4941 412.57 59.1731 403.072 44.573C402.746 44.0723 402.191 43.7676 401.594 43.7566ZM352.22 42.8513V79.6331L338.096 75.6075C337.926 75.5592 337.81 75.4045 337.81 75.2283V44.4342C337.81 43.4196 338.642 42.6024 339.656 42.621L352.22 42.8513Z" fill="#FFF3DC"/>
<path d="M404.571 31.5601L404.837 31.3906V31.3906L404.571 31.5601ZM322.367 126.27V126.585H322.052V126.27H322.367ZM335.137 126.27H335.452V126.585H335.137V126.27ZM405.416 41.1895L405.137 41.3364V41.3364L405.416 41.1895ZM429.275 101.936L429.588 101.895L429.59 101.915V101.936H429.275ZM429.275 137.894L429.439 138.163L428.96 138.457V137.894H429.275ZM440.56 137.848H440.875V138.164H440.56V137.848ZM440.484 113.254L440.787 113.164H440.787L440.484 113.254ZM429.124 158.239H429.439V158.555H429.124V158.239ZM385.917 158.239V158.555H385.6L385.602 158.237L385.917 158.239ZM354.44 126.271L354.437 126.586L354.124 126.583V126.271H354.44ZM354.44 126.27V125.954H354.755V126.27H354.44ZM335.216 126.27V126.585H334.9V126.27H335.216ZM405.346 41.2262L405.625 41.0792H405.625L405.346 41.2262ZM429.196 101.941L429.509 101.9L429.512 101.921V101.941H429.196ZM429.196 137.963H429.511V138.076L429.439 138.164L429.196 137.963ZM357.581 42.9496H357.266V42.6284L357.587 42.6343L357.581 42.9496ZM401.594 43.7566L401.588 44.0719L401.594 43.7566ZM357.581 81.1613L357.495 81.4647L357.266 81.3994V81.1613H357.581ZM423.057 99.8235L422.97 100.127L423.057 99.8235ZM425.282 97.5302L424.982 97.6257L425.282 97.5302ZM420.663 82.9928L420.362 83.0883L420.359 83.0775L420.356 83.0664L420.663 82.9928ZM403.072 44.573L402.807 44.745L403.072 44.573ZM352.22 79.6331H352.535V80.051L352.133 79.9364L352.22 79.6331ZM352.22 42.8513L352.225 42.536L352.535 42.5417V42.8513H352.22ZM338.096 75.6075L338.182 75.3042H338.182L338.096 75.6075ZM339.656 42.621L339.662 42.3056L339.656 42.621ZM403.04 30.4018C403.768 30.4018 404.448 30.7793 404.837 31.3906L404.305 31.7296C404.03 31.2981 403.55 31.0326 403.04 31.0326V30.4018ZM324.181 30.4018H403.04V31.0326H324.181V30.4018ZM322.052 32.5308C322.052 31.355 323.005 30.4018 324.181 30.4018V31.0326C323.354 31.0326 322.683 31.7034 322.683 32.5308H322.052ZM322.052 126.27V32.5308H322.683V126.27H322.052ZM335.137 126.585H322.367V125.954H335.137V126.585ZM335.452 42.0266V126.27H334.821V42.0266H335.452ZM336.95 40.5285C336.123 40.5285 335.452 41.1992 335.452 42.0266H334.821C334.821 40.8509 335.775 39.8977 336.95 39.8977V40.5285ZM403.808 40.5285H336.95V39.8977H403.808V40.5285ZM405.137 41.3364C404.877 40.8431 404.361 40.5285 403.808 40.5285V39.8977C404.599 39.8977 405.328 40.3452 405.695 41.0425L405.137 41.3364ZM428.962 101.978C426.545 83.759 419.471 68.5563 405.137 41.3364L405.695 41.0425C420.026 68.2558 427.154 83.5505 429.588 101.895L428.962 101.978ZM428.96 137.894L428.96 101.936H429.59L429.59 137.894H428.96ZM429.439 138.164L429.439 138.163L429.11 137.625C429.206 137.567 429.319 137.533 429.439 137.533V138.164ZM440.56 138.164H429.439V137.533H440.56V138.164ZM440.875 113.772V137.848H440.244V113.772H440.875ZM440.787 113.164C440.844 113.36 440.875 113.567 440.875 113.772H440.244C440.244 113.629 440.223 113.482 440.182 113.343L440.787 113.164ZM404.837 31.3906C421.467 57.4796 429.583 75.3076 440.787 113.164L440.182 113.343C428.992 75.5338 420.898 57.7614 404.305 31.7296L404.837 31.3906ZM429.124 158.555H385.917V157.924H429.124V158.555ZM385.602 158.237C385.602 158.165 385.603 158.093 385.603 158.021H386.233C386.233 158.095 386.233 158.168 386.233 158.241L385.602 158.237ZM385.603 158.021C385.603 140.758 371.676 126.744 354.437 126.586L354.442 125.956C372.027 126.116 386.233 140.411 386.233 158.021H385.603ZM354.124 126.271V126.27H354.755V126.271H354.124ZM354.44 126.585H354.143V125.954H354.44V126.585ZM354.143 126.585H335.216V125.954H354.143V126.585ZM334.9 126.27V42.0266H335.531V126.27H334.9ZM334.9 42.0266C334.9 40.8944 335.818 39.9765 336.95 39.9765V40.6073C336.167 40.6073 335.531 41.2428 335.531 42.0266H334.9ZM336.95 39.9765H403.808V40.6073H336.95V39.9765ZM403.808 39.9765C404.569 39.9765 405.271 40.4074 405.625 41.0792L405.067 41.3732C404.821 40.9054 404.332 40.6073 403.808 40.6073V39.9765ZM405.625 41.0792C419.955 68.2908 427.077 83.5737 429.509 101.9L428.883 101.983C426.468 83.7822 419.401 68.5913 405.067 41.3732L405.625 41.0792ZM429.512 101.941L429.511 137.963H428.881L428.881 101.941H429.512ZM429.439 138.164L429.439 138.164H428.808C428.808 138.011 428.863 137.871 428.953 137.762L429.439 138.164ZM429.439 138.164V158.239H428.808V138.164H429.439ZM357.587 42.6343L401.6 43.4413L401.588 44.0719L357.576 43.265L357.587 42.6343ZM357.266 81.1613V42.9496H357.897V81.1613H357.266ZM422.97 100.127L357.495 81.4647L357.668 80.858L423.143 99.5201L422.97 100.127ZM425.583 97.4347C426.097 99.0527 424.603 100.592 422.97 100.127L423.143 99.5201C424.292 99.8476 425.344 98.7643 424.982 97.6257L425.583 97.4347ZM420.964 82.8972L425.583 97.4347L424.982 97.6257L420.362 83.0883L420.964 82.8972ZM403.336 44.401C412.852 59.0282 418.919 74.3822 420.97 82.9191L420.356 83.0664C418.324 74.606 412.288 59.3179 402.807 44.745L403.336 44.401ZM401.6 43.4413C402.301 43.4541 402.953 43.8117 403.336 44.401L402.807 44.745C402.539 44.3328 402.082 44.081 401.588 44.0719L401.6 43.4413ZM351.904 79.6331V42.8513H352.535V79.6331H351.904ZM338.182 75.3042L352.306 79.3298L352.133 79.9364L338.009 75.9108L338.182 75.3042ZM338.125 75.2283C338.125 75.2636 338.148 75.2945 338.182 75.3042L338.009 75.9108C337.704 75.8239 337.494 75.5454 337.494 75.2283H338.125ZM338.125 44.4342V75.2283H337.494V44.4342H338.125ZM339.651 42.9363C338.813 42.921 338.125 43.5961 338.125 44.4342H337.494C337.494 43.2432 338.471 42.2838 339.662 42.3056L339.651 42.9363ZM352.214 43.1667L339.651 42.9363L339.662 42.3056L352.225 42.536L352.214 43.1667Z" fill="black" mask="url(#path-4-inside-1)"/>
<path d="M338.963 126.328L332.531 126.328C327.393 136.284 322.853 139.541 319.415 152.438C315.978 165.335 321.169 154.759 321.169 154.759C326.507 142.078 330.782 135.729 338.963 126.328Z" fill="black"/>
<path d="M354.879 129.515C340.167 129.515 328.249 141.433 328.249 156.145C328.249 170.856 340.167 182.774 354.879 182.774C369.59 182.774 381.508 170.856 381.508 156.145C381.508 141.433 369.555 129.515 354.879 129.515ZM354.879 176.09C343.845 176.09 334.933 167.143 334.933 156.145C334.933 145.146 343.88 136.199 354.879 136.199C365.877 136.199 374.824 145.146 374.824 156.145C374.824 167.143 365.877 176.09 354.879 176.09Z" fill="url(#paint1_radial)"/>
<path d="M354.773 176.019C365.808 176.019 374.753 167.074 374.753 156.038C374.753 145.003 365.808 136.058 354.773 136.058C343.737 136.058 334.792 145.003 334.792 156.038C334.792 167.074 343.737 176.019 354.773 176.019Z" fill="url(#paint2_radial)"/>
<path d="M355.551 145.995L353.818 145.924L352.898 147.374L353.712 148.93L355.445 149.001L356.364 147.516L355.551 145.995Z" fill="url(#paint3_radial)"/>
<path d="M355.551 163.324L353.818 163.253L352.898 164.703L353.712 166.259L355.445 166.329L356.364 164.844L355.551 163.324Z" fill="url(#paint4_radial)"/>
<path d="M348.018 148.329L346.745 149.496L347.099 151.194L348.761 151.689L350.034 150.522L349.645 148.824L348.018 148.329Z" fill="url(#paint5_radial)"/>
<path d="M360.254 160.565L358.981 161.732L359.37 163.43L361.032 163.96L362.305 162.758L361.916 161.096L360.254 160.565Z" fill="url(#paint6_radial)"/>
<path d="M344.376 155.225L344.305 156.923L345.79 157.877L347.311 157.064L347.382 155.331L345.932 154.412L344.376 155.225Z" fill="url(#paint7_radial)"/>
<path d="M361.704 155.225L361.633 156.923L363.119 157.877L364.639 157.064L364.71 155.331L363.26 154.412L361.704 155.225Z" fill="url(#paint8_radial)"/>
<path d="M346.71 162.652L347.877 163.925L349.574 163.536L350.069 161.874L348.902 160.6L347.205 160.989L346.71 162.652Z" fill="url(#paint9_radial)"/>
<path d="M358.946 150.38L360.113 151.653L361.81 151.264L362.341 149.637L361.138 148.364L359.476 148.718L358.946 150.38Z" fill="url(#paint10_radial)"/>
<path d="M138.359 133.694C123.647 133.694 111.729 145.612 111.729 160.324C111.729 175.035 123.647 186.953 138.359 186.953C153.07 186.953 164.988 175.035 164.988 160.324C164.988 145.612 153.035 133.694 138.359 133.694ZM138.359 180.269C127.325 180.269 118.413 171.322 118.413 160.324C118.413 149.325 127.361 140.378 138.359 140.378C149.357 140.378 158.304 149.325 158.304 160.324C158.304 171.322 149.357 180.269 138.359 180.269Z" fill="url(#paint11_radial)"/>
<path d="M138.253 180.198C149.288 180.198 158.234 171.253 158.234 160.218C158.234 149.182 149.288 140.237 138.253 140.237C127.218 140.237 118.272 149.182 118.272 160.218C118.272 171.253 127.218 180.198 138.253 180.198Z" fill="url(#paint12_radial)"/>
<path d="M139.031 150.174L137.298 150.103L136.378 151.553L137.192 153.109L138.925 153.18L139.844 151.695L139.031 150.174Z" fill="url(#paint13_radial)"/>
<path d="M139.031 167.503L137.298 167.432L136.378 168.882L137.192 170.438L138.925 170.509L139.844 169.023L139.031 167.503Z" fill="url(#paint14_radial)"/>
<path d="M131.498 152.508L130.225 153.675L130.579 155.373L132.241 155.868L133.514 154.701L133.125 153.003L131.498 152.508Z" fill="url(#paint15_radial)"/>
<path d="M143.734 164.744L142.461 165.911L142.85 167.609L144.512 168.139L145.785 166.937L145.396 165.275L143.734 164.744Z" fill="url(#paint16_radial)"/>
<path d="M127.856 159.404L127.785 161.102L129.27 162.056L130.791 161.243L130.862 159.51L129.412 158.591L127.856 159.404Z" fill="url(#paint17_radial)"/>
<path d="M145.184 159.404L145.113 161.102L146.599 162.056L148.119 161.243L148.19 159.51L146.74 158.591L145.184 159.404Z" fill="url(#paint18_radial)"/>
<path d="M130.19 166.831L131.357 168.104L133.054 167.715L133.549 166.053L132.382 164.779L130.685 165.168L130.19 166.831Z" fill="url(#paint19_radial)"/>
<path d="M142.426 154.559L143.593 155.832L145.29 155.443L145.821 153.817L144.618 152.543L142.956 152.897L142.426 154.559Z" fill="url(#paint20_radial)"/>
<path d="M75.9102 133.734C61.1986 133.734 49.2809 145.651 49.2809 160.363C49.2809 175.075 61.1986 186.992 75.9102 186.992C90.6217 186.992 102.539 175.075 102.539 160.363C102.539 145.651 90.5864 133.734 75.9102 133.734ZM75.9102 180.308C64.8765 180.308 55.9647 171.361 55.9647 160.363C55.9647 149.365 64.9119 140.418 75.9102 140.418C86.9085 140.418 95.8556 149.365 95.8556 160.363C95.8556 171.361 86.9085 180.308 75.9102 180.308Z" fill="url(#paint21_radial)"/>
<path d="M75.8041 180.238C86.8392 180.238 95.7849 171.292 95.7849 160.257C95.7849 149.222 86.8392 140.276 75.8041 140.276C64.769 140.276 55.8232 149.222 55.8232 160.257C55.8232 171.292 64.769 180.238 75.8041 180.238Z" fill="url(#paint22_radial)"/>
<path d="M76.5821 150.213L74.8492 150.143L73.9297 151.593L74.7431 153.149L76.476 153.219L77.3954 151.734L76.5821 150.213Z" fill="url(#paint23_radial)"/>
<path d="M76.5821 167.542L74.8492 167.471L73.9297 168.921L74.7431 170.477L76.476 170.548L77.3954 169.063L76.5821 167.542Z" fill="url(#paint24_radial)"/>
<path d="M69.0497 152.548L67.7766 153.715L68.1302 155.412L69.7923 155.907L71.0654 154.74L70.6764 153.043L69.0497 152.548Z" fill="url(#paint25_radial)"/>
<path d="M81.2856 164.784L80.0125 165.951L80.4015 167.648L82.0636 168.179L83.3367 166.976L82.9477 165.314L81.2856 164.784Z" fill="url(#paint26_radial)"/>
<path d="M65.407 159.444L65.3362 161.141L66.8215 162.096L68.3422 161.282L68.4129 159.55L66.963 158.63L65.407 159.444Z" fill="url(#paint27_radial)"/>
<path d="M82.7355 159.443L82.6647 161.141L84.15 162.096L85.6707 161.282L85.7414 159.55L84.2915 158.63L82.7355 159.443Z" fill="url(#paint28_radial)"/>
<path d="M67.741 166.87L68.908 168.143L70.6055 167.754L71.1006 166.092L69.9336 164.819L68.2361 165.208L67.741 166.87Z" fill="url(#paint29_radial)"/>
<path d="M79.977 154.599L81.144 155.872L82.8415 155.483L83.372 153.856L82.1696 152.583L80.5075 152.936L79.977 154.599Z" fill="url(#paint30_radial)"/>
<mask id="path-37-inside-2" fill="white">
<path fill-rule="evenodd" clip-rule="evenodd" d="M303.412 122.852V119.856H8.83115V122.852L59.0581 122.852L59.0581 127.031L59.0581 127.132L40.4497 150.162L42.7596 152.028L60.5364 130.028H151.577L172.002 150.453L174.102 148.353L153.046 127.297V127.031H152.731V122.852H174.493V152.894V155.811H177.49H212.656H215.889H250.898H254.131V155.811H289.061V155.811H292.294V122.852H303.412ZM106.447 122.852L61.9755 122.852V127.031H106.447V122.852ZM149.814 122.852L109.364 122.852V127.031H149.814V122.852ZM212.656 122.852H177.49V136.572H212.656V122.852ZM215.889 136.572V122.852H250.898V136.572H215.889ZM250.898 139.569H215.889V152.894H250.898V139.569ZM254.131 136.572V122.852H289.061V136.572H254.131ZM289.061 139.569H254.131V152.894H289.061V139.569ZM212.656 139.569H177.49V152.894H212.656V139.569Z"/>
</mask>
<path fill-rule="evenodd" clip-rule="evenodd" d="M303.412 122.852V119.856H8.83115V122.852L59.0581 122.852L59.0581 127.031L59.0581 127.132L40.4497 150.162L42.7596 152.028L60.5364 130.028H151.577L172.002 150.453L174.102 148.353L153.046 127.297V127.031H152.731V122.852H174.493V152.894V155.811H177.49H212.656H215.889H250.898H254.131V155.811H289.061V155.811H292.294V122.852H303.412ZM106.447 122.852L61.9755 122.852V127.031H106.447V122.852ZM149.814 122.852L109.364 122.852V127.031H149.814V122.852ZM212.656 122.852H177.49V136.572H212.656V122.852ZM215.889 136.572V122.852H250.898V136.572H215.889ZM250.898 139.569H215.889V152.894H250.898V139.569ZM254.131 136.572V122.852H289.061V136.572H254.131ZM289.061 139.569H254.131V152.894H289.061V139.569ZM212.656 139.569H177.49V152.894H212.656V139.569Z" fill="#B8B8B8"/>
<path d="M303.412 119.856V119.541H303.727V119.856H303.412ZM303.412 122.852H303.727V123.168H303.412V122.852ZM8.83115 119.856H8.51575V119.541H8.83115V119.856ZM8.83115 122.852V123.168H8.51575V122.852H8.83115ZM59.0581 122.852V122.537H59.3735V122.852L59.0581 122.852ZM59.0581 127.031L58.7427 127.031V127.031L59.0581 127.031ZM59.0581 127.132L59.3735 127.132L59.3735 127.244L59.3035 127.33L59.0581 127.132ZM40.4497 150.162L40.2515 150.407L40.0061 150.209L40.2044 149.963L40.4497 150.162ZM42.7596 152.028L43.0049 152.226L42.8066 152.472L42.5613 152.273L42.7596 152.028ZM60.5364 130.028L60.2911 129.829L60.3858 129.712H60.5364V130.028ZM151.577 130.028V129.712H151.708L151.8 129.805L151.577 130.028ZM172.002 150.453L172.225 150.676L172.002 150.899L171.779 150.676L172.002 150.453ZM174.102 148.353L174.325 148.13L174.548 148.353L174.325 148.576L174.102 148.353ZM153.046 127.297L152.823 127.52L152.731 127.428V127.297H153.046ZM153.046 127.031V126.716H153.362V127.031H153.046ZM152.731 127.031V127.347H152.416V127.031H152.731ZM152.731 122.852H152.416V122.537H152.731V122.852ZM174.493 122.852V122.537H174.809V122.852H174.493ZM174.493 155.811V156.127H174.178V155.811H174.493ZM254.131 155.811H254.447V156.127H254.131V155.811ZM254.131 155.811H253.816V155.496H254.131V155.811ZM289.061 155.811V155.496H289.377V155.811H289.061ZM289.061 155.811V156.127H288.746V155.811H289.061ZM292.294 155.811H292.61V156.127H292.294V155.811ZM292.294 122.852H291.979V122.537H292.294V122.852ZM61.9755 122.852H61.6602V122.537H61.9755V122.852ZM106.447 122.852V122.537H106.762V122.852H106.447ZM61.9755 127.031V127.347H61.6602V127.031H61.9755ZM106.447 127.031H106.762V127.347H106.447V127.031ZM109.364 122.852H109.049V122.537H109.364V122.852ZM149.814 122.852V122.537H150.129V122.852H149.814ZM109.364 127.031V127.347H109.049V127.031H109.364ZM149.814 127.031H150.129V127.347H149.814V127.031ZM177.49 122.852H177.174V122.537H177.49V122.852ZM212.656 122.852V122.537H212.972V122.852H212.656ZM177.49 136.572V136.888H177.174V136.572H177.49ZM212.656 136.572H212.972V136.888H212.656V136.572ZM215.889 136.572V136.888H215.574V136.572H215.889ZM215.889 122.852H215.574V122.537H215.889V122.852ZM250.898 122.852V122.537H251.214V122.852H250.898ZM250.898 136.572H251.214V136.888H250.898V136.572ZM215.889 139.569H215.574V139.253H215.889V139.569ZM250.898 139.569V139.253H251.214V139.569H250.898ZM215.889 152.894V153.209H215.574V152.894H215.889ZM250.898 152.894H251.214V153.209H250.898V152.894ZM254.131 136.572V136.888H253.816V136.572H254.131ZM254.131 122.852H253.816V122.537H254.131V122.852ZM289.061 122.852V122.537H289.377V122.852H289.061ZM289.061 136.572H289.377V136.888H289.061V136.572ZM254.131 139.569H253.816V139.253H254.131V139.569ZM289.061 139.569V139.253H289.377V139.569H289.061ZM254.131 152.894V153.209H253.816V152.894H254.131ZM289.061 152.894H289.377V153.209H289.061V152.894ZM177.49 139.569H177.174V139.253H177.49V139.569ZM212.656 139.569V139.253H212.972V139.569H212.656ZM177.49 152.894V153.209H177.174V152.894H177.49ZM212.656 152.894H212.972V153.209H212.656V152.894ZM303.727 119.856V122.852H303.096V119.856H303.727ZM8.83115 119.541H303.412V120.172H8.83115V119.541ZM8.51575 122.852V119.856H9.14655V122.852H8.51575ZM59.0581 123.168L8.83115 123.168V122.537L59.0581 122.537V123.168ZM58.7427 127.031L58.7427 122.852L59.3735 122.852L59.3735 127.031L58.7427 127.031ZM58.7427 127.132L58.7427 127.031L59.3735 127.031L59.3735 127.132L58.7427 127.132ZM40.2044 149.963L58.8128 126.934L59.3035 127.33L40.695 150.36L40.2044 149.963ZM42.5613 152.273L40.2515 150.407L40.6479 149.916L42.9578 151.783L42.5613 152.273ZM60.7818 130.226L43.0049 152.226L42.5143 151.83L60.2911 129.829L60.7818 130.226ZM151.577 130.343H60.5364V129.712H151.577V130.343ZM171.779 150.676L151.354 130.251L151.8 129.805L172.225 150.23L171.779 150.676ZM174.325 148.576L172.225 150.676L171.779 150.23L173.879 148.13L174.325 148.576ZM153.269 127.074L174.325 148.13L173.879 148.576L152.823 127.52L153.269 127.074ZM153.362 127.031V127.297H152.731V127.031H153.362ZM152.731 126.716H153.046V127.347H152.731V126.716ZM153.046 122.852V127.031H152.416V122.852H153.046ZM174.493 123.168H152.731V122.537H174.493V123.168ZM174.178 152.894V122.852H174.809V152.894H174.178ZM174.178 155.811V152.894H174.809V155.811H174.178ZM177.49 156.127H174.493V155.496H177.49V156.127ZM212.656 156.127H177.49V155.496H212.656V156.127ZM215.889 156.127H212.656V155.496H215.889V156.127ZM250.898 156.127H215.889V155.496H250.898V156.127ZM254.131 156.127H250.898V155.496H254.131V156.127ZM254.447 155.811V155.811H253.816V155.811H254.447ZM289.061 156.127H254.131V155.496H289.061V156.127ZM288.746 155.811V155.811H289.377V155.811H288.746ZM292.294 156.127H289.061V155.496H292.294V156.127ZM292.61 122.852V155.811H291.979V122.852H292.61ZM303.412 123.168H292.294V122.537H303.412V123.168ZM61.9755 122.537L106.447 122.537V123.168L61.9755 123.168V122.537ZM61.6602 127.031V122.852H62.2909V127.031H61.6602ZM106.447 127.347H61.9755V126.716H106.447V127.347ZM106.762 122.852V127.031H106.131V122.852H106.762ZM109.364 122.537L149.814 122.537V123.168L109.364 123.168V122.537ZM109.049 127.031V122.852H109.679V127.031H109.049ZM149.814 127.347H109.364V126.716H149.814V127.347ZM150.129 122.852V127.031H149.498V122.852H150.129ZM177.49 122.537H212.656V123.168H177.49V122.537ZM177.174 136.572V122.852H177.805V136.572H177.174ZM212.656 136.888H177.49V136.257H212.656V136.888ZM212.972 122.852V136.572H212.341V122.852H212.972ZM215.574 136.572V122.852H216.205V136.572H215.574ZM215.889 122.537H250.898V123.168H215.889V122.537ZM251.214 122.852V136.572H250.583V122.852H251.214ZM250.898 136.888H215.889V136.257H250.898V136.888ZM215.889 139.253H250.898V139.884H215.889V139.253ZM215.574 152.894V139.569H216.205V152.894H215.574ZM250.898 153.209H215.889V152.579H250.898V153.209ZM251.214 139.569V152.894H250.583V139.569H251.214ZM253.816 136.572V122.852H254.447V136.572H253.816ZM254.131 122.537H289.061V123.168H254.131V122.537ZM289.377 122.852V136.572H288.746V122.852H289.377ZM289.061 136.888H254.131V136.257H289.061V136.888ZM254.131 139.253H289.061V139.884H254.131V139.253ZM253.816 152.894V139.569H254.447V152.894H253.816ZM289.061 153.209H254.131V152.579H289.061V153.209ZM289.377 139.569V152.894H288.746V139.569H289.377ZM177.49 139.253H212.656V139.884H177.49V139.253ZM177.174 152.894V139.569H177.805V152.894H177.174ZM212.656 153.209H177.49V152.579H212.656V153.209ZM212.972 139.569V152.894H212.341V139.569H212.972Z" fill="black" mask="url(#path-37-inside-2)"/>
<path d="M191.485 34.3048C186.394 34.3048 181.791 33.5169 178.467 32.2482C176.805 31.6137 175.47 30.862 174.554 30.0353C173.638 29.2086 173.153 28.3197 173.153 27.4055C173.153 26.4913 173.638 25.6024 174.554 24.7757C175.47 23.949 176.805 23.1973 178.467 22.5628C181.791 21.2942 186.394 20.5062 191.485 20.5062C196.577 20.5062 201.18 21.2942 204.504 22.5628C206.166 23.1973 207.501 23.949 208.417 24.7757C209.333 25.6024 209.818 26.4913 209.818 27.4055C209.818 28.3197 209.333 29.2086 208.417 30.0353C207.501 30.862 206.166 31.6137 204.504 32.2482C201.18 33.5169 196.577 34.3048 191.485 34.3048Z" fill="#2F80ED" stroke="black" stroke-width="0.315397"/>
<rect x="-0.157698" y="0.157698" width="309.562" height="3.23282" transform="matrix(-1 0 0 1 318.393 36.6703)" fill="#2F80ED" stroke="black" stroke-width="0.315397"/>
<rect x="-0.157698" y="0.157698" width="309.562" height="3.23282" transform="matrix(-1 0 0 1 318.393 116.308)" fill="#2F80ED" stroke="black" stroke-width="0.315397"/>
<rect x="-0.157698" y="0.157698" width="298.996" height="5.67714" transform="matrix(-1 0 0 1 313.426 30.9143)" fill="#2F80ED" stroke="black" stroke-width="0.315397"/>
<rect x="-0.157698" y="0.157698" width="298.996" height="5.67714" transform="matrix(-1 0 0 1 313.426 110.552)" fill="#2F80ED" stroke="black" stroke-width="0.315397"/>
<rect x="-0.157698" y="0.157698" width="309.562" height="3.07512" transform="matrix(-1 0 0 1 318.393 27.3661)" fill="#2F80ED" stroke="black" stroke-width="0.315397"/>
<rect x="-0.157698" y="0.157698" width="309.562" height="3.07512" transform="matrix(-1 0 0 1 318.393 107.004)" fill="#2F80ED" stroke="black" stroke-width="0.315397"/>
<path d="M418.984 89.4113C419.481 94.8347 421.212 95.8676 425.4 96.1874" stroke="black" stroke-width="0.0788492"/>
<path d="M417.07 74.0839C417.06 74.047 417.026 74.0213 416.988 74.0227L415.382 74.0815C415.335 74.0833 415.301 74.1255 415.31 74.1719L419.476 96.3394C419.487 96.3999 419.561 96.4268 419.607 96.3872L422.208 94.1473C422.23 94.1285 422.239 94.0988 422.232 94.0703L417.07 74.0839Z" fill="black"/>
<mask id="path-48-inside-3" fill="white">
<path fill-rule="evenodd" clip-rule="evenodd" d="M310.785 107.004C317.164 107.004 322.336 92.0534 322.336 73.6112C322.336 55.1689 317.164 40.2185 310.785 40.2185C310.401 40.2185 310.023 40.2725 309.649 40.3779H13.3949C13.0218 40.2728 12.6435 40.219 12.2609 40.219C5.88136 40.219 0.709717 55.1694 0.709717 73.6117C0.709717 92.0539 5.88136 107.004 12.2609 107.004C12.5322 107.004 12.8013 106.977 13.0679 106.924H309.98C310.246 106.977 310.514 107.004 310.785 107.004Z"/>
</mask>
<path fill-rule="evenodd" clip-rule="evenodd" d="M310.785 107.004C317.164 107.004 322.336 92.0534 322.336 73.6112C322.336 55.1689 317.164 40.2185 310.785 40.2185C310.401 40.2185 310.023 40.2725 309.649 40.3779H13.3949C13.0218 40.2728 12.6435 40.219 12.2609 40.219C5.88136 40.219 0.709717 55.1694 0.709717 73.6117C0.709717 92.0539 5.88136 107.004 12.2609 107.004C12.5322 107.004 12.8013 106.977 13.0679 106.924H309.98C310.246 106.977 310.514 107.004 310.785 107.004Z" fill="#2F80ED"/>
<path d="M309.649 40.3779V40.6933H309.692L309.734 40.6814L309.649 40.3779ZM13.3949 40.3779L13.3094 40.6815L13.3513 40.6933H13.3949V40.3779ZM13.0679 106.924V106.609H13.0367L13.0062 106.615L13.0679 106.924ZM309.98 106.924L310.042 106.615L310.011 106.609H309.98V106.924ZM322.02 73.6112C322.02 82.8068 320.731 91.1185 318.655 97.1202C317.616 100.123 316.386 102.53 315.037 104.18C313.685 105.833 312.246 106.688 310.785 106.688V107.319C312.513 107.319 314.113 106.306 315.525 104.579C316.939 102.85 318.199 100.367 319.251 97.3264C321.355 91.2424 322.651 82.8577 322.651 73.6112H322.02ZM310.785 40.5339C312.246 40.5339 313.685 41.3897 315.037 43.0423C316.386 44.6926 317.616 47.0997 318.655 50.1021C320.731 56.1038 322.02 64.4155 322.02 73.6112H322.651C322.651 64.3646 321.355 55.9799 319.251 49.8959C318.199 46.8554 316.939 44.3722 315.525 42.643C314.113 40.9161 312.513 39.9031 310.785 39.9031V40.5339ZM309.734 40.6814C310.081 40.5836 310.431 40.5339 310.785 40.5339V39.9031C310.371 39.9031 309.964 39.9613 309.563 40.0743L309.734 40.6814ZM13.3949 40.6933H309.649V40.0625H13.3949V40.6933ZM12.2609 40.5344C12.6136 40.5344 12.9631 40.5839 13.3094 40.6815L13.4804 40.0743C13.0805 39.9617 12.6735 39.9036 12.2609 39.9036V40.5344ZM1.02511 73.6117C1.02511 64.416 2.31494 56.1043 4.39105 50.1026C5.42962 47.1003 6.65912 44.6931 8.0088 43.0429C9.3604 41.3902 10.7991 40.5344 12.2609 40.5344V39.9036C10.533 39.9036 8.93284 40.9166 7.52051 42.6435C6.10627 44.3727 4.84669 46.8559 3.79491 49.8964C1.69031 55.9805 0.39432 64.3651 0.39432 73.6117H1.02511ZM12.2609 106.689C10.7991 106.689 9.3604 105.833 8.0088 104.18C6.65912 102.53 5.42962 100.123 4.39105 97.1207C2.31494 91.119 1.02511 82.8073 1.02511 73.6117H0.39432C0.39432 82.8583 1.69031 91.2429 3.79491 97.327C4.84669 100.367 6.10627 102.851 7.52051 104.58C8.93284 106.307 10.533 107.32 12.2609 107.32V106.689ZM13.0062 106.615C12.7595 106.664 12.5111 106.689 12.2609 106.689V107.32C12.5533 107.32 12.843 107.291 13.1296 107.233L13.0062 106.615ZM309.98 106.609H13.0679V107.24H309.98V106.609ZM310.785 106.688C310.535 106.688 310.288 106.664 310.042 106.615L309.919 107.233C310.204 107.29 310.493 107.319 310.785 107.319V106.688Z" fill="black" mask="url(#path-48-inside-3)"/>
<path d="M307.397 66.9778C307.367 66.9268 307.293 66.9268 307.262 66.9778L300.597 78.0867C300.565 78.1392 300.603 78.2061 300.665 78.2061H313.995C314.056 78.2061 314.094 78.1392 314.063 78.0867L307.397 66.9778Z" fill="#FF0000" stroke="black" stroke-width="0.157698"/>
<g filter="url(#filter0_d)">
<path d="M62.7223 70.2183C65.6757 70.2183 67.9961 70.9535 69.6837 72.4237C71.3841 73.8812 72.2343 75.8821 72.2343 78.4263C72.2343 81.3284 71.3074 83.6042 69.4536 85.2534C67.6126 86.9027 65.0684 87.7273 61.821 87.7273C58.6631 87.7273 56.2532 87.2223 54.5911 86.2123V83.1439C55.4861 83.7192 56.5984 84.1731 57.928 84.5055C59.2576 84.8251 60.5681 84.9849 61.8594 84.9849C64.1095 84.9849 65.8547 84.4544 67.0948 83.3932C68.3477 82.3321 68.9742 80.7979 68.9742 78.7906C68.9742 74.8784 66.577 72.9223 61.7827 72.9223C60.5681 72.9223 58.9444 73.1077 56.9116 73.4785L55.2623 72.4237L56.3171 59.3064H70.2591V62.2405H59.0403L58.3307 70.6594C59.801 70.3653 61.2649 70.2183 62.7223 70.2183ZM81.2285 82.7795L81.5162 83.2206C81.1838 84.4991 80.7044 85.9822 80.0779 87.6698C79.4514 89.3702 78.7994 90.9491 78.1218 92.4066H75.7246C76.0698 91.077 76.447 89.4341 76.8561 87.478C77.278 85.5219 77.5721 83.9557 77.7383 82.7795H81.2285ZM104.644 73.2867C104.644 78.1322 103.877 81.7503 102.343 84.1411C100.821 86.5319 98.4882 87.7273 95.3431 87.7273C92.3259 87.7273 90.031 86.5063 88.4584 84.0644C86.8859 81.6097 86.0996 78.0171 86.0996 73.2867C86.0996 68.4029 86.8603 64.7783 88.3817 62.4131C89.9031 60.0479 92.2236 58.8653 95.3431 58.8653C98.3859 58.8653 100.694 60.099 102.266 62.5665C103.851 65.034 104.644 68.6074 104.644 73.2867ZM89.3214 73.2867C89.3214 77.3651 89.8008 80.3376 90.7597 82.2042C91.7186 84.058 93.2464 84.9849 95.3431 84.9849C97.4654 84.9849 98.9996 84.0452 99.9457 82.1658C100.905 80.2737 101.384 77.314 101.384 73.2867C101.384 69.2595 100.905 66.3125 99.9457 64.4459C98.9996 62.5665 97.4654 61.6268 95.3431 61.6268C93.2464 61.6268 91.7186 62.5538 90.7597 64.4076C89.8008 66.2486 89.3214 69.2083 89.3214 73.2867ZM127.12 73.2867C127.12 78.1322 126.353 81.7503 124.819 84.1411C123.297 86.5319 120.964 87.7273 117.819 87.7273C114.802 87.7273 112.507 86.5063 110.934 84.0644C109.362 81.6097 108.576 78.0171 108.576 73.2867C108.576 68.4029 109.336 64.7783 110.858 62.4131C112.379 60.0479 114.7 58.8653 117.819 58.8653C120.862 58.8653 123.17 60.099 124.742 62.5665C126.327 65.034 127.12 68.6074 127.12 73.2867ZM111.797 73.2867C111.797 77.3651 112.277 80.3376 113.236 82.2042C114.195 84.058 115.722 84.9849 117.819 84.9849C119.941 84.9849 121.476 84.0452 122.422 82.1658C123.38 80.2737 123.86 77.314 123.86 73.2867C123.86 69.2595 123.38 66.3125 122.422 64.4459C121.476 62.5665 119.941 61.6268 117.819 61.6268C115.722 61.6268 114.195 62.5538 113.236 64.4076C112.277 66.2486 111.797 69.2083 111.797 73.2867ZM149.596 73.2867C149.596 78.1322 148.829 81.7503 147.295 84.1411C145.773 86.5319 143.44 87.7273 140.295 87.7273C137.278 87.7273 134.983 86.5063 133.41 84.0644C131.838 81.6097 131.051 78.0171 131.051 73.2867C131.051 68.4029 131.812 64.7783 133.334 62.4131C134.855 60.0479 137.175 58.8653 140.295 58.8653C143.338 58.8653 145.645 60.099 147.218 62.5665C148.803 65.034 149.596 68.6074 149.596 73.2867ZM134.273 73.2867C134.273 77.3651 134.753 80.3376 135.712 82.2042C136.67 84.058 138.198 84.9849 140.295 84.9849C142.417 84.9849 143.951 84.0452 144.898 82.1658C145.856 80.2737 146.336 77.314 146.336 73.2867C146.336 69.2595 145.856 66.3125 144.898 64.4459C143.951 62.5665 142.417 61.6268 140.295 61.6268C138.198 61.6268 136.67 62.5538 135.712 64.4076C134.753 66.2486 134.273 69.2083 134.273 73.2867ZM177.959 72.6539H187.491V86.289C186.008 86.762 184.499 87.12 182.965 87.3629C181.431 87.6058 179.653 87.7273 177.633 87.7273C173.389 87.7273 170.084 86.468 167.719 83.9493C165.353 81.4179 164.171 77.8765 164.171 73.3251C164.171 70.4101 164.753 67.8595 165.916 65.6733C167.092 63.4743 168.78 61.7994 170.979 60.6488C173.178 59.4854 175.754 58.9036 178.707 58.9036C181.699 58.9036 184.486 59.4534 187.069 60.5529L185.803 63.4295C183.272 62.3556 180.836 61.8186 178.496 61.8186C175.083 61.8186 172.417 62.835 170.499 64.8678C168.582 66.9006 167.623 69.7197 167.623 73.3251C167.623 77.1094 168.543 79.9796 170.384 81.9357C172.238 83.8918 174.955 84.8699 178.535 84.8699C180.478 84.8699 182.377 84.6461 184.23 84.1987V75.5688H177.959V72.6539ZM206.687 87.3438L206.054 84.3521H205.901C204.853 85.6689 203.804 86.5639 202.756 87.0369C201.72 87.4972 200.423 87.7273 198.863 87.7273C196.779 87.7273 195.142 87.1903 193.953 86.1164C192.777 85.0425 192.189 83.5147 192.189 81.533C192.189 77.2884 195.583 75.0638 202.372 74.8593L205.939 74.7442V73.4401C205.939 71.7909 205.581 70.5763 204.865 69.7964C204.162 69.0038 203.031 68.6074 201.471 68.6074C199.719 68.6074 197.738 69.1444 195.526 70.2183L194.548 67.7828C195.583 67.2203 196.715 66.7792 197.942 66.4595C199.182 66.1399 200.423 65.9801 201.663 65.9801C204.169 65.9801 206.022 66.5363 207.224 67.6485C208.439 68.7608 209.046 70.5443 209.046 72.999V87.3438H206.687ZM199.496 85.1C201.477 85.1 203.031 84.5566 204.156 83.4699C205.294 82.3832 205.863 80.8618 205.863 78.9057V77.0071L202.679 77.1414C200.148 77.2309 198.319 77.6272 197.194 78.3304C196.082 79.0208 195.526 80.1011 195.526 81.5713C195.526 82.722 195.871 83.5978 196.561 84.1987C197.265 84.7995 198.243 85.1 199.496 85.1ZM218.807 87.3438H215.624V57.5037H218.807V87.3438ZM228.741 87.3438H225.558V57.5037H228.741V87.3438ZM253.633 76.8154C253.633 80.2417 252.77 82.9202 251.045 84.8507C249.319 86.7684 246.934 87.7273 243.891 87.7273C242.012 87.7273 240.344 87.2862 238.886 86.4041C237.429 85.5219 236.303 84.2562 235.511 82.6069C234.718 80.9577 234.322 79.0271 234.322 76.8154C234.322 73.389 235.178 70.7233 236.892 68.8184C238.605 66.9006 240.983 65.9418 244.026 65.9418C246.966 65.9418 249.299 66.9198 251.025 68.8759C252.764 70.832 253.633 73.4785 253.633 76.8154ZM237.62 76.8154C237.62 79.5002 238.157 81.5458 239.231 82.9521C240.305 84.3585 241.884 85.0616 243.968 85.0616C246.052 85.0616 247.631 84.3649 248.705 82.9713C249.792 81.565 250.335 79.513 250.335 76.8154C250.335 74.1433 249.792 72.1169 248.705 70.7361C247.631 69.3426 246.039 68.6458 243.93 68.6458C241.846 68.6458 240.273 69.3298 239.212 70.6978C238.151 72.0657 237.62 74.1049 237.62 76.8154ZM273.616 87.3438V73.747C273.616 72.0338 273.226 70.7553 272.447 69.9115C271.667 69.0677 270.446 68.6458 268.784 68.6458C266.585 68.6458 264.974 69.2403 263.951 70.4293C262.928 71.6183 262.417 73.5808 262.417 76.3167V87.3438H259.233V66.3253H261.822L262.34 69.2019H262.493C263.145 68.1663 264.06 67.3673 265.236 66.8047C266.412 66.2294 267.722 65.9418 269.167 65.9418C271.699 65.9418 273.604 66.5554 274.882 67.7828C276.161 68.9974 276.8 70.9471 276.8 73.6319V87.3438H273.616Z" fill="#FCFCFC"/>
</g>
<path d="M18.8883 66.9778C18.8577 66.9268 18.7837 66.9268 18.7531 66.9778L12.0877 78.0867C12.0562 78.1392 12.0941 78.2061 12.1553 78.2061H25.486C25.5473 78.2061 25.5851 78.1392 25.5536 78.0867L18.8883 66.9778Z" fill="#FF0000" stroke="black" stroke-width="0.157698"/>
<mask id="path-53-inside-4" fill="white">
<path fill-rule="evenodd" clip-rule="evenodd" d="M37.6111 122.695H34.6937V139.161H4.55599V130.29C4.55599 130.203 4.48539 130.132 4.39829 130.132H0.157692C0.0705986 130.132 -3.8147e-06 130.203 -3.8147e-06 130.29V142.013C-3.8147e-06 142.1 0.0705986 142.171 0.157692 142.171H4.39829C4.4007 142.171 4.40309 142.17 4.40546 142.17H34.6937V142.171H37.6111V122.695Z"/>
</mask>
<path fill-rule="evenodd" clip-rule="evenodd" d="M37.6111 122.695H34.6937V139.161H4.55599V130.29C4.55599 130.203 4.48539 130.132 4.39829 130.132H0.157692C0.0705986 130.132 -3.8147e-06 130.203 -3.8147e-06 130.29V142.013C-3.8147e-06 142.1 0.0705986 142.171 0.157692 142.171H4.39829C4.4007 142.171 4.40309 142.17 4.40546 142.17H34.6937V142.171H37.6111V122.695Z" fill="#B8B8B8"/>
<path d="M34.6937 122.695H34.3783V122.379H34.6937V122.695ZM37.6111 122.695V122.379H37.9265V122.695H37.6111ZM34.6937 139.161H35.0091V139.476H34.6937V139.161ZM4.55599 139.161V139.476H4.2406V139.161H4.55599ZM4.40546 142.17L4.3913 141.855L4.39838 141.855H4.40546V142.17ZM34.6937 142.17V141.855H35.0091V142.17H34.6937ZM34.6937 142.171V142.486H34.3783V142.171H34.6937ZM37.6111 142.171H37.9265V142.486H37.6111V142.171ZM34.6937 122.379H37.6111V123.01H34.6937V122.379ZM34.3783 139.161V122.695H35.0091V139.161H34.3783ZM4.55599 138.845H34.6937V139.476H4.55599V138.845ZM4.2406 139.161V130.29H4.87139V139.161H4.2406ZM4.2406 130.29C4.2406 130.377 4.3112 130.447 4.39829 130.447V129.817C4.65958 129.817 4.87139 130.028 4.87139 130.29H4.2406ZM4.39829 130.447H0.157692V129.817H4.39829V130.447ZM0.157692 130.447C0.244793 130.447 0.315392 130.377 0.315392 130.29H-0.315399C-0.315399 130.028 -0.103596 129.817 0.157692 129.817V130.447ZM0.315392 130.29V142.013H-0.315399V130.29H0.315392ZM0.315392 142.013C0.315392 141.926 0.244797 141.855 0.157692 141.855V142.486C-0.1036 142.486 -0.315399 142.274 -0.315399 142.013H0.315392ZM0.157692 141.855H4.39829V142.486H0.157692V141.855ZM4.39829 141.855C4.39603 141.855 4.3937 141.855 4.3913 141.855L4.41962 142.485C4.41248 142.486 4.40536 142.486 4.39829 142.486V141.855ZM34.6937 142.486H4.40546V141.855H34.6937V142.486ZM34.3783 142.171V142.17H35.0091V142.171H34.3783ZM37.6111 142.486H34.6937V141.855H37.6111V142.486ZM37.9265 122.695V142.171H37.2957V122.695H37.9265Z" fill="black" mask="url(#path-53-inside-4)"/>
<defs>
<filter id="filter0_d" x="54.5911" y="57.5037" width="223.565" height="36.2597" filterUnits="userSpaceOnUse" color-interpolation-filters="sRGB">
<feFlood flood-opacity="0" result="BackgroundImageFix"/>
<feColorMatrix in="SourceAlpha" type="matrix" values="0 0 0 0 0 0 0 0 0 0 0 0 0 0 0 0 0 0 127 0"/>
<feOffset dx="1.07115" dy="1.07115"/>
<feGaussianBlur stdDeviation="0.142819"/>
<feColorMatrix type="matrix" values="0 0 0 0 0 0 0 0 0 0 0 0 0 0 0 0 0 0 0.17 0"/>
<feBlend mode="normal" in2="BackgroundImageFix" result="effect1_dropShadow"/>
<feBlend mode="normal" in="SourceGraphic" in2="effect1_dropShadow" result="shape"/>
</filter>
<radialGradient id="paint0_radial" cx="0" cy="0" r="1" gradientUnits="userSpaceOnUse" gradientTransform="translate(307.315 134.877) rotate(90) scale(15.0208)">
<stop stop-color="#333333"/>
<stop offset="0.40625" stop-color="#5B6469"/>
<stop offset="1"/>
</radialGradient>
<radialGradient id="paint1_radial" cx="0" cy="0" r="1" gradientUnits="userSpaceOnUse" gradientTransform="translate(354.861 156.127) scale(26.6116)">
<stop offset="0.7777" stop-color="#1A1A1A"/>
<stop offset="0.8882" stop-color="#333333"/>
<stop offset="1"/>
</radialGradient>
<radialGradient id="paint2_radial" cx="0" cy="0" r="1" gradientUnits="userSpaceOnUse" gradientTransform="translate(354.773 156.038) scale(19.9808)">
<stop stop-color="#8D8C8C"/>
<stop offset="0.0810056" stop-color="#898989"/>
<stop offset="0.1659" stop-color="#808080"/>
<stop offset="0.2687" stop-color="#868686"/>
<stop offset="0.3295" stop-color="#A4A4A4"/>
<stop offset="0.3447" stop-color="#ACACAC"/>
<stop offset="0.5274" stop-color="#B3B3B3"/>
<stop offset="0.5715" stop-color="#A4A4A4"/>
<stop offset="0.6558" stop-color="#7D7D7D"/>
<stop offset="0.7012" stop-color="#666666"/>
<stop offset="0.7387" stop-color="#6F6F70"/>
<stop offset="0.8018" stop-color="#88898A"/>
<stop offset="0.8676" stop-color="#A8AAAC"/>
<stop offset="0.927" stop-color="#7E8486"/>
<stop offset="1" stop-color="#465053"/>
</radialGradient>
<radialGradient id="paint3_radial" cx="0" cy="0" r="1" gradientUnits="userSpaceOnUse" gradientTransform="translate(354.635 147.457) rotate(2.29628) scale(1.61746)">
<stop offset="0.00561773" stop-color="#534741"/>
<stop offset="0.1684" stop-color="#5C5450"/>
<stop offset="0.4792" stop-color="#737577"/>
<stop offset="0.6742" stop-color="#838C92"/>
<stop offset="0.9793" stop-color="#333333"/>
<stop offset="0.9852" stop-color="#3E4042"/>
<stop offset="0.9965" stop-color="#5B6469"/>
<stop offset="1" stop-color="#657076"/>
</radialGradient>
<radialGradient id="paint4_radial" cx="0" cy="0" r="1" gradientUnits="userSpaceOnUse" gradientTransform="translate(354.635 164.786) rotate(2.29628) scale(1.61746)">
<stop offset="0.00561773" stop-color="#534741"/>
<stop offset="0.1684" stop-color="#5C5450"/>
<stop offset="0.4792" stop-color="#737577"/>
<stop offset="0.6742" stop-color="#838C92"/>
<stop offset="0.9793" stop-color="#333333"/>
<stop offset="0.9852" stop-color="#3E4042"/>
<stop offset="0.9965" stop-color="#5B6469"/>
<stop offset="1" stop-color="#657076"/>
</radialGradient>
<radialGradient id="paint5_radial" cx="0" cy="0" r="1" gradientUnits="userSpaceOnUse" gradientTransform="translate(348.387 150.007) rotate(-42.7022) scale(1.61749)">
<stop offset="0.00561773" stop-color="#534741"/>
<stop offset="0.1684" stop-color="#5C5450"/>
<stop offset="0.4792" stop-color="#737577"/>
<stop offset="0.6742" stop-color="#838C92"/>
<stop offset="0.9793" stop-color="#333333"/>
<stop offset="0.9852" stop-color="#3E4042"/>
<stop offset="0.9965" stop-color="#5B6469"/>
<stop offset="1" stop-color="#657076"/>
</radialGradient>
<radialGradient id="paint6_radial" cx="0" cy="0" r="1" gradientUnits="userSpaceOnUse" gradientTransform="translate(360.64 162.26) rotate(-42.7022) scale(1.61748)">
<stop offset="0.00561773" stop-color="#534741"/>
<stop offset="0.1684" stop-color="#5C5450"/>
<stop offset="0.4792" stop-color="#737577"/>
<stop offset="0.6742" stop-color="#838C92"/>
<stop offset="0.9793" stop-color="#333333"/>
<stop offset="0.9852" stop-color="#3E4042"/>
<stop offset="0.9965" stop-color="#5B6469"/>
<stop offset="1" stop-color="#657076"/>
</radialGradient>
<radialGradient id="paint7_radial" cx="0" cy="0" r="1" gradientUnits="userSpaceOnUse" gradientTransform="translate(345.849 156.132) rotate(-87.7037) scale(1.61746)">
<stop offset="0.00561773" stop-color="#534741"/>
<stop offset="0.1684" stop-color="#5C5450"/>
<stop offset="0.4792" stop-color="#737577"/>
<stop offset="0.6742" stop-color="#838C92"/>
<stop offset="0.9793" stop-color="#333333"/>
<stop offset="0.9852" stop-color="#3E4042"/>
<stop offset="0.9965" stop-color="#5B6469"/>
<stop offset="1" stop-color="#657076"/>
</radialGradient>
<radialGradient id="paint8_radial" cx="0" cy="0" r="1" gradientUnits="userSpaceOnUse" gradientTransform="translate(363.177 156.132) rotate(-87.7037) scale(1.61746)">
<stop offset="0.00561773" stop-color="#534741"/>
<stop offset="0.1684" stop-color="#5C5450"/>
<stop offset="0.4792" stop-color="#737577"/>
<stop offset="0.6742" stop-color="#838C92"/>
<stop offset="0.9793" stop-color="#333333"/>
<stop offset="0.9852" stop-color="#3E4042"/>
<stop offset="0.9965" stop-color="#5B6469"/>
<stop offset="1" stop-color="#657076"/>
</radialGradient>
<radialGradient id="paint9_radial" cx="0" cy="0" r="1" gradientUnits="userSpaceOnUse" gradientTransform="translate(348.387 162.258) rotate(-132.702) scale(1.61748)">
<stop offset="0.00561773" stop-color="#534741"/>
<stop offset="0.1684" stop-color="#5C5450"/>
<stop offset="0.4792" stop-color="#737577"/>
<stop offset="0.6742" stop-color="#838C92"/>
<stop offset="0.9793" stop-color="#333333"/>
<stop offset="0.9852" stop-color="#3E4042"/>
<stop offset="0.9965" stop-color="#5B6469"/>
<stop offset="1" stop-color="#657076"/>
</radialGradient>
<radialGradient id="paint10_radial" cx="0" cy="0" r="1" gradientUnits="userSpaceOnUse" gradientTransform="translate(360.641 150.005) rotate(-132.702) scale(1.61748)">
<stop offset="0.00561773" stop-color="#534741"/>
<stop offset="0.1684" stop-color="#5C5450"/>
<stop offset="0.4792" stop-color="#737577"/>
<stop offset="0.6742" stop-color="#838C92"/>
<stop offset="0.9793" stop-color="#333333"/>
<stop offset="0.9852" stop-color="#3E4042"/>
<stop offset="0.9965" stop-color="#5B6469"/>
<stop offset="1" stop-color="#657076"/>
</radialGradient>
<radialGradient id="paint11_radial" cx="0" cy="0" r="1" gradientUnits="userSpaceOnUse" gradientTransform="translate(138.341 160.306) scale(26.6116)">
<stop offset="0.7777" stop-color="#1A1A1A"/>
<stop offset="0.8882" stop-color="#333333"/>
<stop offset="1"/>
</radialGradient>
<radialGradient id="paint12_radial" cx="0" cy="0" r="1" gradientUnits="userSpaceOnUse" gradientTransform="translate(138.253 160.218) scale(19.9808)">
<stop stop-color="#8D8C8C"/>
<stop offset="0.0810056" stop-color="#898989"/>
<stop offset="0.1659" stop-color="#808080"/>
<stop offset="0.2687" stop-color="#868686"/>
<stop offset="0.3295" stop-color="#A4A4A4"/>
<stop offset="0.3447" stop-color="#ACACAC"/>
<stop offset="0.5274" stop-color="#B3B3B3"/>
<stop offset="0.5715" stop-color="#A4A4A4"/>
<stop offset="0.6558" stop-color="#7D7D7D"/>
<stop offset="0.7012" stop-color="#666666"/>
<stop offset="0.7387" stop-color="#6F6F70"/>
<stop offset="0.8018" stop-color="#88898A"/>
<stop offset="0.8676" stop-color="#A8AAAC"/>
<stop offset="0.927" stop-color="#7E8486"/>
<stop offset="1" stop-color="#465053"/>
</radialGradient>
<radialGradient id="paint13_radial" cx="0" cy="0" r="1" gradientUnits="userSpaceOnUse" gradientTransform="translate(138.115 151.636) rotate(2.29626) scale(1.61747)">
<stop offset="0.00561773" stop-color="#534741"/>
<stop offset="0.1684" stop-color="#5C5450"/>
<stop offset="0.4792" stop-color="#737577"/>
<stop offset="0.6742" stop-color="#838C92"/>
<stop offset="0.9793" stop-color="#333333"/>
<stop offset="0.9852" stop-color="#3E4042"/>
<stop offset="0.9965" stop-color="#5B6469"/>
<stop offset="1" stop-color="#657076"/>
</radialGradient>
<radialGradient id="paint14_radial" cx="0" cy="0" r="1" gradientUnits="userSpaceOnUse" gradientTransform="translate(138.115 168.965) rotate(2.29627) scale(1.61747)">
<stop offset="0.00561773" stop-color="#534741"/>
<stop offset="0.1684" stop-color="#5C5450"/>
<stop offset="0.4792" stop-color="#737577"/>
<stop offset="0.6742" stop-color="#838C92"/>
<stop offset="0.9793" stop-color="#333333"/>
<stop offset="0.9852" stop-color="#3E4042"/>
<stop offset="0.9965" stop-color="#5B6469"/>
<stop offset="1" stop-color="#657076"/>
</radialGradient>
<radialGradient id="paint15_radial" cx="0" cy="0" r="1" gradientUnits="userSpaceOnUse" gradientTransform="translate(131.867 154.186) rotate(-42.7024) scale(1.61748)">
<stop offset="0.00561773" stop-color="#534741"/>
<stop offset="0.1684" stop-color="#5C5450"/>
<stop offset="0.4792" stop-color="#737577"/>
<stop offset="0.6742" stop-color="#838C92"/>
<stop offset="0.9793" stop-color="#333333"/>
<stop offset="0.9852" stop-color="#3E4042"/>
<stop offset="0.9965" stop-color="#5B6469"/>
<stop offset="1" stop-color="#657076"/>
</radialGradient>
<radialGradient id="paint16_radial" cx="0" cy="0" r="1" gradientUnits="userSpaceOnUse" gradientTransform="translate(144.12 166.439) rotate(-42.7021) scale(1.61748)">
<stop offset="0.00561773" stop-color="#534741"/>
<stop offset="0.1684" stop-color="#5C5450"/>
<stop offset="0.4792" stop-color="#737577"/>
<stop offset="0.6742" stop-color="#838C92"/>
<stop offset="0.9793" stop-color="#333333"/>
<stop offset="0.9852" stop-color="#3E4042"/>
<stop offset="0.9965" stop-color="#5B6469"/>
<stop offset="1" stop-color="#657076"/>
</radialGradient>
<radialGradient id="paint17_radial" cx="0" cy="0" r="1" gradientUnits="userSpaceOnUse" gradientTransform="translate(129.329 160.311) rotate(-87.7037) scale(1.61746)">
<stop offset="0.00561773" stop-color="#534741"/>
<stop offset="0.1684" stop-color="#5C5450"/>
<stop offset="0.4792" stop-color="#737577"/>
<stop offset="0.6742" stop-color="#838C92"/>
<stop offset="0.9793" stop-color="#333333"/>
<stop offset="0.9852" stop-color="#3E4042"/>
<stop offset="0.9965" stop-color="#5B6469"/>
<stop offset="1" stop-color="#657076"/>
</radialGradient>
<radialGradient id="paint18_radial" cx="0" cy="0" r="1" gradientUnits="userSpaceOnUse" gradientTransform="translate(146.657 160.311) rotate(-87.7037) scale(1.61746)">
<stop offset="0.00561773" stop-color="#534741"/>
<stop offset="0.1684" stop-color="#5C5450"/>
<stop offset="0.4792" stop-color="#737577"/>
<stop offset="0.6742" stop-color="#838C92"/>
<stop offset="0.9793" stop-color="#333333"/>
<stop offset="0.9852" stop-color="#3E4042"/>
<stop offset="0.9965" stop-color="#5B6469"/>
<stop offset="1" stop-color="#657076"/>
</radialGradient>
<radialGradient id="paint19_radial" cx="0" cy="0" r="1" gradientUnits="userSpaceOnUse" gradientTransform="translate(131.867 166.437) rotate(-132.702) scale(1.61748)">
<stop offset="0.00561773" stop-color="#534741"/>
<stop offset="0.1684" stop-color="#5C5450"/>
<stop offset="0.4792" stop-color="#737577"/>
<stop offset="0.6742" stop-color="#838C92"/>
<stop offset="0.9793" stop-color="#333333"/>
<stop offset="0.9852" stop-color="#3E4042"/>
<stop offset="0.9965" stop-color="#5B6469"/>
<stop offset="1" stop-color="#657076"/>
</radialGradient>
<radialGradient id="paint20_radial" cx="0" cy="0" r="1" gradientUnits="userSpaceOnUse" gradientTransform="translate(144.121 154.184) rotate(-132.702) scale(1.61748)">
<stop offset="0.00561773" stop-color="#534741"/>
<stop offset="0.1684" stop-color="#5C5450"/>
<stop offset="0.4792" stop-color="#737577"/>
<stop offset="0.6742" stop-color="#838C92"/>
<stop offset="0.9793" stop-color="#333333"/>
<stop offset="0.9852" stop-color="#3E4042"/>
<stop offset="0.9965" stop-color="#5B6469"/>
<stop offset="1" stop-color="#657076"/>
</radialGradient>
<radialGradient id="paint21_radial" cx="0" cy="0" r="1" gradientUnits="userSpaceOnUse" gradientTransform="translate(75.8925 160.345) scale(26.6116)">
<stop offset="0.7777" stop-color="#1A1A1A"/>
<stop offset="0.8882" stop-color="#333333"/>
<stop offset="1"/>
</radialGradient>
<radialGradient id="paint22_radial" cx="0" cy="0" r="1" gradientUnits="userSpaceOnUse" gradientTransform="translate(75.8041 160.257) scale(19.9808)">
<stop stop-color="#8D8C8C"/>
<stop offset="0.0810056" stop-color="#898989"/>
<stop offset="0.1659" stop-color="#808080"/>
<stop offset="0.2687" stop-color="#868686"/>
<stop offset="0.3295" stop-color="#A4A4A4"/>
<stop offset="0.3447" stop-color="#ACACAC"/>
<stop offset="0.5274" stop-color="#B3B3B3"/>
<stop offset="0.5715" stop-color="#A4A4A4"/>
<stop offset="0.6558" stop-color="#7D7D7D"/>
<stop offset="0.7012" stop-color="#666666"/>
<stop offset="0.7387" stop-color="#6F6F70"/>
<stop offset="0.8018" stop-color="#88898A"/>
<stop offset="0.8676" stop-color="#A8AAAC"/>
<stop offset="0.927" stop-color="#7E8486"/>
<stop offset="1" stop-color="#465053"/>
</radialGradient>
<radialGradient id="paint23_radial" cx="0" cy="0" r="1" gradientUnits="userSpaceOnUse" gradientTransform="translate(75.6664 151.676) rotate(2.29629) scale(1.61746)">
<stop offset="0.00561773" stop-color="#534741"/>
<stop offset="0.1684" stop-color="#5C5450"/>
<stop offset="0.4792" stop-color="#737577"/>
<stop offset="0.6742" stop-color="#838C92"/>
<stop offset="0.9793" stop-color="#333333"/>
<stop offset="0.9852" stop-color="#3E4042"/>
<stop offset="0.9965" stop-color="#5B6469"/>
<stop offset="1" stop-color="#657076"/>
</radialGradient>
<radialGradient id="paint24_radial" cx="0" cy="0" r="1" gradientUnits="userSpaceOnUse" gradientTransform="translate(75.6664 169.004) rotate(2.29629) scale(1.61746)">
<stop offset="0.00561773" stop-color="#534741"/>
<stop offset="0.1684" stop-color="#5C5450"/>
<stop offset="0.4792" stop-color="#737577"/>
<stop offset="0.6742" stop-color="#838C92"/>
<stop offset="0.9793" stop-color="#333333"/>
<stop offset="0.9852" stop-color="#3E4042"/>
<stop offset="0.9965" stop-color="#5B6469"/>
<stop offset="1" stop-color="#657076"/>
</radialGradient>
<radialGradient id="paint25_radial" cx="0" cy="0" r="1" gradientUnits="userSpaceOnUse" gradientTransform="translate(69.4187 154.225) rotate(-42.7024) scale(1.61748)">
<stop offset="0.00561773" stop-color="#534741"/>
<stop offset="0.1684" stop-color="#5C5450"/>
<stop offset="0.4792" stop-color="#737577"/>
<stop offset="0.6742" stop-color="#838C92"/>
<stop offset="0.9793" stop-color="#333333"/>
<stop offset="0.9852" stop-color="#3E4042"/>
<stop offset="0.9965" stop-color="#5B6469"/>
<stop offset="1" stop-color="#657076"/>
</radialGradient>
<radialGradient id="paint26_radial" cx="0" cy="0" r="1" gradientUnits="userSpaceOnUse" gradientTransform="translate(81.6716 166.479) rotate(-42.7022) scale(1.61749)">
<stop offset="0.00561773" stop-color="#534741"/>
<stop offset="0.1684" stop-color="#5C5450"/>
<stop offset="0.4792" stop-color="#737577"/>
<stop offset="0.6742" stop-color="#838C92"/>
<stop offset="0.9793" stop-color="#333333"/>
<stop offset="0.9852" stop-color="#3E4042"/>
<stop offset="0.9965" stop-color="#5B6469"/>
<stop offset="1" stop-color="#657076"/>
</radialGradient>
<radialGradient id="paint27_radial" cx="0" cy="0" r="1" gradientUnits="userSpaceOnUse" gradientTransform="translate(66.8803 160.351) rotate(-87.7037) scale(1.61746)">
<stop offset="0.00561773" stop-color="#534741"/>
<stop offset="0.1684" stop-color="#5C5450"/>
<stop offset="0.4792" stop-color="#737577"/>
<stop offset="0.6742" stop-color="#838C92"/>
<stop offset="0.9793" stop-color="#333333"/>
<stop offset="0.9852" stop-color="#3E4042"/>
<stop offset="0.9965" stop-color="#5B6469"/>
<stop offset="1" stop-color="#657076"/>
</radialGradient>
<radialGradient id="paint28_radial" cx="0" cy="0" r="1" gradientUnits="userSpaceOnUse" gradientTransform="translate(84.2088 160.351) rotate(-87.7037) scale(1.61746)">
<stop offset="0.00561773" stop-color="#534741"/>
<stop offset="0.1684" stop-color="#5C5450"/>
<stop offset="0.4792" stop-color="#737577"/>
<stop offset="0.6742" stop-color="#838C92"/>
<stop offset="0.9793" stop-color="#333333"/>
<stop offset="0.9852" stop-color="#3E4042"/>
<stop offset="0.9965" stop-color="#5B6469"/>
<stop offset="1" stop-color="#657076"/>
</radialGradient>
<radialGradient id="paint29_radial" cx="0" cy="0" r="1" gradientUnits="userSpaceOnUse" gradientTransform="translate(69.4187 166.477) rotate(-132.702) scale(1.61748)">
<stop offset="0.00561773" stop-color="#534741"/>
<stop offset="0.1684" stop-color="#5C5450"/>
<stop offset="0.4792" stop-color="#737577"/>
<stop offset="0.6742" stop-color="#838C92"/>
<stop offset="0.9793" stop-color="#333333"/>
<stop offset="0.9852" stop-color="#3E4042"/>
<stop offset="0.9965" stop-color="#5B6469"/>
<stop offset="1" stop-color="#657076"/>
</radialGradient>
<radialGradient id="paint30_radial" cx="0" cy="0" r="1" gradientUnits="userSpaceOnUse" gradientTransform="translate(81.6723 154.224) rotate(-132.703) scale(1.61749)">
<stop offset="0.00561773" stop-color="#534741"/>
<stop offset="0.1684" stop-color="#5C5450"/>
<stop offset="0.4792" stop-color="#737577"/>
<stop offset="0.6742" stop-color="#838C92"/>
<stop offset="0.9793" stop-color="#333333"/>
<stop offset="0.9852" stop-color="#3E4042"/>
<stop offset="0.9965" stop-color="#5B6469"/>
<stop offset="1" stop-color="#657076"/>
</radialGradient>
</defs>
</svg>
