<svg width="571" height="184" viewBox="0 0 571 184" fill="none" xmlns="http://www.w3.org/2000/svg">
<path fill-rule="evenodd" clip-rule="evenodd" d="M2.18616 153.83H25.3262C25.3192 153.564 25.3157 153.297 25.3157 153.029C25.3157 136.489 38.7247 123.08 55.2656 123.08C71.8064 123.08 85.2155 136.489 85.2155 153.029C85.2155 153.297 85.2119 153.564 85.205 153.83H148.388C148.381 153.564 148.377 153.297 148.377 153.029C148.377 136.489 161.786 123.08 178.327 123.08C194.868 123.08 208.277 136.489 208.277 153.029C208.277 153.297 208.273 153.564 208.266 153.83H215.927V141.227H219.931V129.929H215.927V124.622H194.696V116.645H160.179V124.622H91.1461V33.6748H87.1726C87.2813 25.5596 88.9162 8.46351 94.5859 5C82.6653 5 51.47 27.0324 48.6826 30.3536H32.6994L3.16472 107.334V124.622H6.18936V135.237H2.18616V153.83ZM13.5434 92.418H62.7975V41.8294H32.5149L13.5434 92.418Z" fill="#FFF3DC"/>
<path d="M25.3262 153.83V154.067H25.5698L25.5634 153.824L25.3262 153.83ZM2.18616 153.83H1.94893V154.067H2.18616V153.83ZM85.205 153.83L84.9678 153.824L84.9614 154.067H85.205V153.83ZM148.388 153.83V154.067H148.631L148.625 153.824L148.388 153.83ZM208.266 153.83L208.029 153.824L208.023 154.067H208.266V153.83ZM215.927 153.83V154.067H216.165V153.83H215.927ZM215.927 141.227V140.99H215.69V141.227H215.927ZM219.931 141.227V141.465H220.168V141.227H219.931ZM219.931 129.929H220.168V129.692H219.931V129.929ZM215.927 129.929H215.69V130.167H215.927V129.929ZM215.927 124.622H216.165V124.384H215.927V124.622ZM194.696 124.622H194.458V124.859H194.696V124.622ZM194.696 116.645H194.933V116.408H194.696V116.645ZM160.179 116.645V116.408H159.942V116.645H160.179ZM160.179 124.622V124.859H160.416V124.622H160.179ZM91.1461 124.622H90.9089V124.859H91.1461V124.622ZM91.1461 33.6748H91.3834V33.4375H91.1461V33.6748ZM87.1726 33.6748L86.9354 33.6716L86.9322 33.912H87.1726V33.6748ZM94.5859 5L94.7096 5.20244L95.4293 4.76277H94.5859V5ZM48.6826 30.3536V30.5908H48.7932L48.8643 30.5061L48.6826 30.3536ZM32.6994 30.3536V30.1164H32.5364L32.4779 30.2686L32.6994 30.3536ZM3.16472 107.334L2.94323 107.249L2.92749 107.29V107.334H3.16472ZM3.16472 124.622H2.92749V124.859H3.16472V124.622ZM6.18936 124.622H6.42658V124.384H6.18936V124.622ZM6.18936 135.237V135.475H6.42658V135.237H6.18936ZM2.18616 135.237V135H1.94893V135.237H2.18616ZM62.7975 92.418V92.6553H63.0348V92.418H62.7975ZM13.5434 92.418L13.3212 92.3347L13.201 92.6553H13.5434V92.418ZM62.7975 41.8294H63.0348V41.5922H62.7975V41.8294ZM32.5149 41.8294V41.5922H32.3505L32.2928 41.7461L32.5149 41.8294ZM25.3262 153.593H2.18616V154.067H25.3262V153.593ZM25.0785 153.029C25.0785 153.299 25.082 153.568 25.0891 153.836L25.5634 153.824C25.5564 153.56 25.553 153.295 25.553 153.029H25.0785ZM55.2656 122.842C38.5937 122.842 25.0785 136.358 25.0785 153.029H25.553C25.553 136.62 38.8558 123.317 55.2656 123.317V122.842ZM85.4527 153.029C85.4527 136.358 71.9375 122.842 55.2656 122.842V123.317C71.6754 123.317 84.9782 136.62 84.9782 153.029H85.4527ZM85.4421 153.836C85.4491 153.568 85.4527 153.299 85.4527 153.029H84.9782C84.9782 153.295 84.9747 153.56 84.9678 153.824L85.4421 153.836ZM148.388 153.593H85.205V154.067H148.388V153.593ZM148.625 153.824C148.618 153.56 148.614 153.295 148.614 153.029H148.14C148.14 153.299 148.143 153.568 148.15 153.836L148.625 153.824ZM148.614 153.029C148.614 136.62 161.917 123.317 178.327 123.317V122.842C161.655 122.842 148.14 136.358 148.14 153.029H148.614ZM178.327 123.317C194.737 123.317 208.04 136.62 208.04 153.029H208.514C208.514 136.358 194.999 122.842 178.327 122.842V123.317ZM208.04 153.029C208.04 153.295 208.036 153.56 208.029 153.824L208.503 153.836C208.51 153.568 208.514 153.299 208.514 153.029H208.04ZM215.927 153.593H208.266V154.067H215.927V153.593ZM215.69 141.227V153.83H216.165V141.227H215.69ZM219.931 140.99H215.927V141.465H219.931V140.99ZM219.693 129.929V141.227H220.168V129.929H219.693ZM215.927 130.167H219.931V129.692H215.927V130.167ZM215.69 124.622V129.929H216.165V124.622H215.69ZM194.696 124.859H215.927V124.384H194.696V124.859ZM194.458 116.645V124.622H194.933V116.645H194.458ZM160.179 116.882H194.696V116.408H160.179V116.882ZM160.416 124.622V116.645H159.942V124.622H160.416ZM91.1461 124.859H160.179V124.384H91.1461V124.859ZM90.9089 33.6748V124.622H91.3834V33.6748H90.9089ZM87.1726 33.912H91.1461V33.4375H87.1726V33.912ZM94.4623 4.79756C92.9812 5.70233 91.7914 7.47603 90.833 9.70677C89.8716 11.9446 89.1284 14.6778 88.5612 17.547C87.4266 23.2862 86.9899 29.6039 86.9354 33.6716L87.4098 33.6779C87.464 29.6305 87.8991 23.3426 89.0266 17.639C89.5905 14.7869 90.3258 12.0894 91.2689 9.89405C92.2152 7.69155 93.3559 6.02942 94.7096 5.20244L94.4623 4.79756ZM48.8643 30.5061C49.1957 30.1113 49.9701 29.4173 51.1151 28.4954C52.2541 27.5784 53.7444 26.4479 55.4936 25.1832C58.9918 22.654 63.5201 19.5919 68.3335 16.6335C73.1476 13.6747 78.2426 10.8222 82.8749 8.71031C87.5171 6.59393 91.6612 5.23723 94.5859 5.23723V4.76277C91.5504 4.76277 87.3249 6.16012 82.6781 8.27861C78.0215 10.4016 72.9084 13.2648 68.0851 16.2293C63.2612 19.1941 58.723 22.2628 55.2156 24.7987C53.462 26.0666 51.9647 27.2023 50.8176 28.1259C49.6765 29.0446 48.8663 29.7656 48.5009 30.2011L48.8643 30.5061ZM32.6994 30.5908H48.6826V30.1164H32.6994V30.5908ZM3.3862 107.419L32.9209 30.4386L32.4779 30.2686L2.94323 107.249L3.3862 107.419ZM3.40194 124.622V107.334H2.92749V124.622H3.40194ZM6.18936 124.384H3.16472V124.859H6.18936V124.384ZM6.42658 135.237V124.622H5.95213V135.237H6.42658ZM2.18616 135.475H6.18936V135H2.18616V135.475ZM2.42338 153.83V135.237H1.94893V153.83H2.42338ZM62.7975 92.1808H13.5434V92.6553H62.7975V92.1808ZM62.5603 41.8294V92.418H63.0348V41.8294H62.5603ZM32.5149 42.0667H62.7975V41.5922H32.5149V42.0667ZM13.7655 92.5013L32.737 41.9127L32.2928 41.7461L13.3212 92.3347L13.7655 92.5013Z" fill="black"/>
<path d="M11.6159 134.763H1V153.8H11.6159V134.763Z" fill="#B8B8B8" stroke="black" stroke-width="0.237227"/>
<rect x="98.678" y="0.729902" width="471.488" height="115.707" fill="#2F80ED" stroke="black" stroke-width="0.474453"/>
<path d="M55.3842 126.697C40.673 126.697 28.7555 138.615 28.7555 153.326C28.7555 168.037 40.673 179.955 55.3842 179.955C70.0954 179.955 82.0129 168.037 82.0129 153.326C82.0129 138.615 70.06 126.697 55.3842 126.697ZM55.3842 173.271C44.3508 173.271 35.4392 164.324 35.4392 153.326C35.4392 142.328 44.3861 133.381 55.3842 133.381C66.3822 133.381 75.3292 142.328 75.3292 153.326C75.3292 164.324 66.3822 173.271 55.3842 173.271Z" fill="url(#paint0_radial)"/>
<path d="M55.2781 173.2C66.3129 173.2 75.2584 164.255 75.2584 153.22C75.2584 142.185 66.3129 133.24 55.2781 133.24C44.2432 133.24 35.2977 142.185 35.2977 153.22C35.2977 164.255 44.2432 173.2 55.2781 173.2Z" fill="url(#paint1_radial)"/>
<path d="M56.0561 143.177L54.3233 143.106L53.4038 144.556L54.2172 146.112L55.95 146.183L56.8694 144.697L56.0561 143.177Z" fill="url(#paint2_radial)"/>
<path d="M56.0561 160.505L54.3233 160.434L53.4038 161.884L54.2172 163.44L55.95 163.511L56.8694 162.025L56.0561 160.505Z" fill="url(#paint3_radial)"/>
<path d="M48.5237 145.511L47.2506 146.678L47.6042 148.375L49.2663 148.87L50.5394 147.703L50.1504 146.006L48.5237 145.511Z" fill="url(#paint4_radial)"/>
<path d="M60.7594 157.747L59.4863 158.914L59.8753 160.611L61.5374 161.141L62.8105 159.939L62.4215 158.277L60.7594 157.747Z" fill="url(#paint5_radial)"/>
<path d="M44.8812 152.407L44.8104 154.105L46.2957 155.059L47.8163 154.246L47.887 152.513L46.4371 151.594L44.8812 152.407Z" fill="url(#paint6_radial)"/>
<path d="M62.2093 152.406L62.1385 154.104L63.6238 155.059L65.1444 154.245L65.2152 152.513L63.7653 151.593L62.2093 152.406Z" fill="url(#paint7_radial)"/>
<path d="M47.2152 159.833L48.3822 161.106L50.0797 160.717L50.5747 159.055L49.4077 157.782L47.7103 158.171L47.2152 159.833Z" fill="url(#paint8_radial)"/>
<path d="M59.4509 147.562L60.6179 148.835L62.3154 148.446L62.8458 146.819L61.6435 145.546L59.9814 145.9L59.4509 147.562Z" fill="url(#paint9_radial)"/>
<path d="M178.446 126.697C163.734 126.697 151.817 138.615 151.817 153.326C151.817 168.037 163.734 179.955 178.446 179.955C193.157 179.955 205.074 168.037 205.074 153.326C205.074 138.615 193.121 126.697 178.446 126.697ZM178.446 173.271C167.412 173.271 158.501 164.324 158.501 153.326C158.501 142.328 167.448 133.381 178.446 133.381C189.444 133.381 198.391 142.328 198.391 153.326C198.391 164.324 189.444 173.271 178.446 173.271Z" fill="url(#paint10_radial)"/>
<path d="M178.339 173.2C189.374 173.2 198.32 164.255 198.32 153.22C198.32 142.185 189.374 133.24 178.339 133.24C167.305 133.24 158.359 142.185 158.359 153.22C158.359 164.255 167.305 173.2 178.339 173.2Z" fill="url(#paint11_radial)"/>
<path d="M179.117 143.177L177.385 143.106L176.465 144.556L177.278 146.112L179.011 146.183L179.931 144.697L179.117 143.177Z" fill="url(#paint12_radial)"/>
<path d="M179.117 160.505L177.385 160.434L176.465 161.884L177.278 163.44L179.011 163.511L179.931 162.025L179.117 160.505Z" fill="url(#paint13_radial)"/>
<path d="M171.585 145.511L170.312 146.678L170.666 148.375L172.328 148.87L173.601 147.703L173.212 146.006L171.585 145.511Z" fill="url(#paint14_radial)"/>
<path d="M183.821 157.747L182.548 158.914L182.937 160.611L184.599 161.141L185.872 159.939L185.483 158.277L183.821 157.747Z" fill="url(#paint15_radial)"/>
<path d="M167.943 152.407L167.872 154.105L169.357 155.059L170.878 154.246L170.948 152.513L169.499 151.594L167.943 152.407Z" fill="url(#paint16_radial)"/>
<path d="M185.271 152.406L185.2 154.104L186.685 155.059L188.206 154.245L188.276 152.513L186.827 151.593L185.271 152.406Z" fill="url(#paint17_radial)"/>
<path d="M170.276 159.833L171.443 161.106L173.141 160.717L173.636 159.055L172.469 157.782L170.772 158.171L170.276 159.833Z" fill="url(#paint18_radial)"/>
<path d="M182.512 147.562L183.679 148.835L185.377 148.446L185.907 146.819L184.705 145.546L183.043 145.9L182.512 147.562Z" fill="url(#paint19_radial)"/>
<path d="M378.665 126.697C363.954 126.697 352.036 138.615 352.036 153.326C352.036 168.037 363.954 179.955 378.665 179.955C393.376 179.955 405.294 168.037 405.294 153.326C405.294 138.615 393.341 126.697 378.665 126.697ZM378.665 173.271C367.631 173.271 358.72 164.324 358.72 153.326C358.72 142.328 367.667 133.381 378.665 133.381C389.663 133.381 398.61 142.328 398.61 153.326C398.61 164.324 389.663 173.271 378.665 173.271Z" fill="url(#paint20_radial)"/>
<path d="M378.559 173.2C389.594 173.2 398.539 164.255 398.539 153.22C398.539 142.185 389.594 133.24 378.559 133.24C367.524 133.24 358.578 142.185 358.578 153.22C358.578 164.255 367.524 173.2 378.559 173.2Z" fill="url(#paint21_radial)"/>
<path d="M379.337 143.177L377.604 143.106L376.684 144.556L377.498 146.112L379.231 146.183L380.15 144.697L379.337 143.177Z" fill="url(#paint22_radial)"/>
<path d="M379.337 160.505L377.604 160.434L376.684 161.884L377.498 163.44L379.231 163.511L380.15 162.025L379.337 160.505Z" fill="url(#paint23_radial)"/>
<path d="M371.804 145.511L370.531 146.678L370.885 148.375L372.547 148.87L373.82 147.703L373.431 146.006L371.804 145.511Z" fill="url(#paint24_radial)"/>
<path d="M384.04 157.747L382.767 158.914L383.156 160.611L384.818 161.141L386.091 159.939L385.702 158.277L384.04 157.747Z" fill="url(#paint25_radial)"/>
<path d="M368.162 152.407L368.091 154.105L369.577 155.059L371.097 154.246L371.168 152.513L369.718 151.594L368.162 152.407Z" fill="url(#paint26_radial)"/>
<path d="M385.49 152.406L385.419 154.104L386.904 155.059L388.425 154.245L388.496 152.513L387.046 151.593L385.49 152.406Z" fill="url(#paint27_radial)"/>
<path d="M370.496 159.833L371.663 161.106L373.36 160.717L373.855 159.055L372.688 157.782L370.991 158.171L370.496 159.833Z" fill="url(#paint28_radial)"/>
<path d="M382.732 147.562L383.899 148.835L385.596 148.446L386.126 146.819L384.924 145.546L383.262 145.9L382.732 147.562Z" fill="url(#paint29_radial)"/>
<path d="M446.215 126.697C431.504 126.697 419.586 138.615 419.586 153.326C419.586 168.037 431.504 179.955 446.215 179.955C460.926 179.955 472.844 168.037 472.844 153.326C472.844 138.615 460.891 126.697 446.215 126.697ZM446.215 173.271C435.182 173.271 426.27 164.324 426.27 153.326C426.27 142.328 435.217 133.381 446.215 133.381C457.213 133.381 466.16 142.328 466.16 153.326C466.16 164.324 457.213 173.271 446.215 173.271Z" fill="url(#paint30_radial)"/>
<path d="M446.109 173.2C457.144 173.2 466.089 164.255 466.089 153.22C466.089 142.185 457.144 133.24 446.109 133.24C435.074 133.24 426.129 142.185 426.129 153.22C426.129 164.255 435.074 173.2 446.109 173.2Z" fill="url(#paint31_radial)"/>
<path d="M446.887 143.177L445.154 143.106L444.235 144.556L445.048 146.112L446.781 146.183L447.7 144.697L446.887 143.177Z" fill="url(#paint32_radial)"/>
<path d="M446.887 160.505L445.154 160.434L444.235 161.884L445.048 163.44L446.781 163.511L447.7 162.025L446.887 160.505Z" fill="url(#paint33_radial)"/>
<path d="M439.355 145.511L438.082 146.678L438.435 148.375L440.097 148.87L441.37 147.703L440.981 146.006L439.355 145.511Z" fill="url(#paint34_radial)"/>
<path d="M451.59 157.747L450.317 158.914L450.706 160.611L452.368 161.141L453.642 159.939L453.253 158.277L451.59 157.747Z" fill="url(#paint35_radial)"/>
<path d="M435.712 152.407L435.641 154.105L437.127 155.059L438.647 154.246L438.718 152.513L437.268 151.594L435.712 152.407Z" fill="url(#paint36_radial)"/>
<path d="M453.04 152.406L452.97 154.104L454.455 155.059L455.975 154.245L456.046 152.513L454.596 151.593L453.04 152.406Z" fill="url(#paint37_radial)"/>
<path d="M438.046 159.833L439.213 161.106L440.911 160.717L441.406 159.055L440.239 157.782L438.541 158.171L438.046 159.833Z" fill="url(#paint38_radial)"/>
<path d="M450.282 147.562L451.449 148.835L453.146 148.446L453.677 146.819L452.474 145.546L450.812 145.9L450.282 147.562Z" fill="url(#paint39_radial)"/>
<path d="M513.884 126.697C499.173 126.697 487.255 138.615 487.255 153.326C487.255 168.037 499.173 179.955 513.884 179.955C528.595 179.955 540.513 168.037 540.513 153.326C540.513 138.615 528.56 126.697 513.884 126.697ZM513.884 173.271C502.851 173.271 493.939 164.324 493.939 153.326C493.939 142.328 502.886 133.381 513.884 133.381C524.882 133.381 533.829 142.328 533.829 153.326C533.829 164.324 524.882 173.271 513.884 173.271Z" fill="url(#paint40_radial)"/>
<path d="M513.778 173.2C524.813 173.2 533.758 164.255 533.758 153.22C533.758 142.185 524.813 133.24 513.778 133.24C502.743 133.24 493.798 142.185 493.798 153.22C493.798 164.255 502.743 173.2 513.778 173.2Z" fill="url(#paint41_radial)"/>
<path d="M514.556 143.177L512.823 143.106L511.904 144.556L512.717 146.112L514.45 146.183L515.369 144.697L514.556 143.177Z" fill="url(#paint42_radial)"/>
<path d="M514.556 160.505L512.823 160.434L511.904 161.884L512.717 163.44L514.45 163.511L515.369 162.025L514.556 160.505Z" fill="url(#paint43_radial)"/>
<path d="M507.024 145.511L505.75 146.678L506.104 148.375L507.766 148.87L509.039 147.703L508.65 146.006L507.024 145.511Z" fill="url(#paint44_radial)"/>
<path d="M519.259 157.747L517.986 158.914L518.375 160.611L520.037 161.141L521.31 159.939L520.921 158.277L519.259 157.747Z" fill="url(#paint45_radial)"/>
<path d="M503.381 152.407L503.31 154.105L504.796 155.059L506.316 154.246L506.387 152.513L504.937 151.594L503.381 152.407Z" fill="url(#paint46_radial)"/>
<path d="M520.709 152.406L520.638 154.104L522.124 155.059L523.644 154.245L523.715 152.513L522.265 151.593L520.709 152.406Z" fill="url(#paint47_radial)"/>
<path d="M505.715 159.833L506.882 161.106L508.579 160.717L509.074 159.055L507.908 157.782L506.21 158.171L505.715 159.833Z" fill="url(#paint48_radial)"/>
<path d="M517.951 147.562L519.118 148.835L520.815 148.446L521.346 146.819L520.143 145.546L518.481 145.9L517.951 147.562Z" fill="url(#paint49_radial)"/>
<path d="M108.733 103.115C108.71 103.077 108.655 103.077 108.632 103.115L103.618 111.471C103.595 111.51 103.623 111.561 103.669 111.561H113.696C113.742 111.561 113.77 111.51 113.747 111.471L108.733 103.115Z" fill="#FF0000" stroke="black" stroke-width="0.118613"/>
<path d="M557.032 103.115C557.009 103.077 556.954 103.077 556.931 103.115L551.917 111.471C551.894 111.51 551.922 111.561 551.968 111.561H561.995C562.041 111.561 562.069 111.51 562.046 111.471L557.032 103.115Z" fill="#FF0000" stroke="black" stroke-width="0.118613"/>
<path fill-rule="evenodd" clip-rule="evenodd" d="M258.747 147.692H232.474L238.227 140.308V116.912H550.862V128.803H557V140.308H550.862V154.245H543.454C543.47 153.842 543.478 153.437 543.478 153.029C543.478 136.489 530.069 123.08 513.528 123.08C496.987 123.08 483.578 136.489 483.578 153.029C483.578 153.437 483.586 153.842 483.603 154.245H475.963C475.979 153.842 475.987 153.437 475.987 153.029C475.987 136.489 462.578 123.08 446.037 123.08C429.496 123.08 416.087 136.489 416.087 153.029C416.087 153.437 416.095 153.842 416.112 154.245H408.472C408.488 153.842 408.496 153.437 408.496 153.029C408.496 136.489 395.087 123.08 378.546 123.08C362.005 123.08 348.596 136.489 348.596 153.029C348.596 153.437 348.604 153.842 348.621 154.245H344.089V128.803H335.875V154.245H265.715V128.803H251.363V140.308L258.747 147.692ZM332.939 129.129H268.295V151.606H332.939V129.129Z" fill="#B8B8B8"/>
<path d="M232.474 147.692L232.287 147.546L231.988 147.929H232.474V147.692ZM258.747 147.692V147.929H259.319L258.914 147.524L258.747 147.692ZM238.227 140.308L238.414 140.454L238.464 140.39V140.308H238.227ZM238.227 116.912V116.674H237.989V116.912H238.227ZM550.862 116.912H551.099V116.674H550.862V116.912ZM550.862 128.803H550.624V129.04H550.862V128.803ZM557 128.803H557.237V128.565H557V128.803ZM557 140.308V140.545H557.237V140.308H557ZM550.862 140.308V140.071H550.624V140.308H550.862ZM550.862 154.245V154.482H551.099V154.245H550.862ZM543.454 154.245L543.217 154.236L543.207 154.482H543.454V154.245ZM483.603 154.245V154.482H483.849L483.84 154.236L483.603 154.245ZM475.963 154.245L475.726 154.236L475.716 154.482H475.963V154.245ZM416.112 154.245V154.482H416.358L416.349 154.236L416.112 154.245ZM408.472 154.245L408.235 154.236L408.225 154.482H408.472V154.245ZM348.621 154.245V154.482H348.867L348.858 154.236L348.621 154.245ZM344.089 154.245H343.852V154.482H344.089V154.245ZM344.089 128.803H344.326V128.565H344.089V128.803ZM335.875 128.803V128.565H335.638V128.803H335.875ZM335.875 154.245V154.482H336.112V154.245H335.875ZM265.715 154.245H265.478V154.482H265.715V154.245ZM265.715 128.803H265.952V128.565H265.715V128.803ZM251.363 128.803V128.565H251.126V128.803H251.363ZM251.363 140.308H251.126V140.406L251.195 140.476L251.363 140.308ZM268.295 129.129V128.892H268.058V129.129H268.295ZM332.939 129.129H333.177V128.892H332.939V129.129ZM268.295 151.606H268.058V151.843H268.295V151.606ZM332.939 151.606V151.843H333.177V151.606H332.939ZM232.474 147.929H258.747V147.455H232.474V147.929ZM238.039 140.162L232.287 147.546L232.661 147.838L238.414 140.454L238.039 140.162ZM237.989 116.912V140.308H238.464V116.912H237.989ZM550.862 116.674H238.227V117.149H550.862V116.674ZM551.099 128.803V116.912H550.624V128.803H551.099ZM557 128.565H550.862V129.04H557V128.565ZM557.237 140.308V128.803H556.763V140.308H557.237ZM550.862 140.545H557V140.071H550.862V140.545ZM551.099 154.245V140.308H550.624V154.245H551.099ZM543.454 154.482H550.862V154.008H543.454V154.482ZM543.241 153.029C543.241 153.433 543.233 153.836 543.217 154.236L543.691 154.255C543.707 153.848 543.715 153.44 543.715 153.029H543.241ZM513.528 123.317C529.938 123.317 543.241 136.62 543.241 153.029H543.715C543.715 136.358 530.2 122.842 513.528 122.842V123.317ZM483.816 153.029C483.816 136.62 497.118 123.317 513.528 123.317V122.842C496.856 122.842 483.341 136.358 483.341 153.029H483.816ZM483.84 154.236C483.824 153.836 483.816 153.433 483.816 153.029H483.341C483.341 153.44 483.349 153.848 483.366 154.255L483.84 154.236ZM475.963 154.482H483.603V154.008H475.963V154.482ZM475.75 153.029C475.75 153.433 475.742 153.836 475.726 154.236L476.2 154.255C476.216 153.848 476.224 153.44 476.224 153.029H475.75ZM446.037 123.317C462.447 123.317 475.75 136.62 475.75 153.029H476.224C476.224 136.358 462.709 122.842 446.037 122.842V123.317ZM416.325 153.029C416.325 136.62 429.627 123.317 446.037 123.317V122.842C429.365 122.842 415.85 136.358 415.85 153.029H416.325ZM416.349 154.236C416.333 153.836 416.325 153.433 416.325 153.029H415.85C415.85 153.44 415.858 153.848 415.875 154.255L416.349 154.236ZM408.472 154.482H416.112V154.008H408.472V154.482ZM408.259 153.029C408.259 153.433 408.251 153.836 408.235 154.236L408.709 154.255C408.725 153.848 408.733 153.44 408.733 153.029H408.259ZM378.546 123.317C394.956 123.317 408.259 136.62 408.259 153.029H408.733C408.733 136.358 395.218 122.842 378.546 122.842V123.317ZM348.834 153.029C348.834 136.62 362.136 123.317 378.546 123.317V122.842C361.874 122.842 348.359 136.358 348.359 153.029H348.834ZM348.858 154.236C348.842 153.836 348.834 153.433 348.834 153.029H348.359C348.359 153.44 348.367 153.848 348.384 154.255L348.858 154.236ZM344.089 154.482H348.621V154.008H344.089V154.482ZM343.852 128.803V154.245H344.326V128.803H343.852ZM335.875 129.04H344.089V128.565H335.875V129.04ZM336.112 154.245V128.803H335.638V154.245H336.112ZM265.715 154.482H335.875V154.008H265.715V154.482ZM265.478 128.803V154.245H265.952V128.803H265.478ZM251.363 129.04H265.715V128.565H251.363V129.04ZM251.6 140.308V128.803H251.126V140.308H251.6ZM258.914 147.524L251.531 140.14L251.195 140.476L258.579 147.86L258.914 147.524ZM268.295 129.366H332.939V128.892H268.295V129.366ZM268.532 151.606V129.129H268.058V151.606H268.532ZM332.939 151.369H268.295V151.843H332.939V151.369ZM332.702 129.129V151.606H333.177V129.129H332.702Z" fill="black"/>
<mask id="path-59-inside-1" fill="white">
<path fill-rule="evenodd" clip-rule="evenodd" d="M321.793 129.129H278.329V129.326C272.844 129.986 268.592 134.704 268.592 140.427C268.592 146.149 272.844 150.868 278.329 151.527V151.606H279.648H321.764H321.793V151.606C327.886 151.59 332.821 146.591 332.821 140.427C332.821 134.262 327.886 129.263 321.793 129.247V129.129Z"/>
</mask>
<path fill-rule="evenodd" clip-rule="evenodd" d="M321.793 129.129H278.329V129.326C272.844 129.986 268.592 134.704 268.592 140.427C268.592 146.149 272.844 150.868 278.329 151.527V151.606H279.648H321.764H321.793V151.606C327.886 151.59 332.821 146.591 332.821 140.427C332.821 134.262 327.886 129.263 321.793 129.247V129.129Z" fill="#B8B8B8"/>
<path d="M278.329 129.129V128.892H278.091V129.129H278.329ZM321.793 129.129H322.031V128.892H321.793V129.129ZM278.329 129.326L278.357 129.562L278.566 129.537V129.326H278.329ZM278.329 151.527H278.566V151.317L278.357 151.292L278.329 151.527ZM278.329 151.606H278.091V151.843H278.329V151.606ZM321.793 151.606V151.843H322.031V151.606H321.793ZM321.793 151.606L321.793 151.369L321.556 151.369V151.606H321.793ZM321.793 129.247H321.556V129.484L321.793 129.485L321.793 129.247ZM278.329 129.366H321.793V128.892H278.329V129.366ZM278.566 129.326V129.129H278.091V129.326H278.566ZM278.3 129.091C272.696 129.765 268.354 134.585 268.354 140.427H268.829C268.829 134.824 272.992 130.207 278.357 129.562L278.3 129.091ZM268.354 140.427C268.354 146.269 272.696 151.089 278.3 151.763L278.357 151.292C272.992 150.647 268.829 146.03 268.829 140.427H268.354ZM278.566 151.606V151.527H278.091V151.606H278.566ZM279.648 151.369H278.329V151.843H279.648V151.369ZM321.764 151.369H279.648V151.843H321.764V151.369ZM321.793 151.369H321.764V151.843H321.793V151.369ZM321.556 151.606V151.606H322.031V151.606H321.556ZM321.794 151.843C328.02 151.827 333.058 146.719 333.058 140.427H332.584C332.584 146.463 327.753 151.353 321.793 151.369L321.794 151.843ZM333.058 140.427C333.058 134.134 328.02 129.027 321.794 129.01L321.793 129.485C327.753 129.5 332.584 134.391 332.584 140.427H333.058ZM321.556 129.129V129.247H322.031V129.129H321.556Z" fill="black" mask="url(#path-59-inside-1)"/>
<ellipse opacity="0.5" rx="273.819" ry="3.82528" transform="matrix(-1 0 0 1 283.181 179.747)" fill="#403F45" fill-opacity="0.72"/>
<defs>
<radialGradient id="paint0_radial" cx="0" cy="0" r="1" gradientUnits="userSpaceOnUse" gradientTransform="translate(55.3665 153.308) scale(26.611)">
<stop offset="0.7777" stop-color="#1A1A1A"/>
<stop offset="0.8882" stop-color="#333333"/>
<stop offset="1"/>
</radialGradient>
<radialGradient id="paint1_radial" cx="0" cy="0" r="1" gradientUnits="userSpaceOnUse" gradientTransform="translate(55.2781 153.22) scale(19.9804)">
<stop stop-color="#8D8C8C"/>
<stop offset="0.0810056" stop-color="#898989"/>
<stop offset="0.1659" stop-color="#808080"/>
<stop offset="0.2687" stop-color="#868686"/>
<stop offset="0.3295" stop-color="#A4A4A4"/>
<stop offset="0.3447" stop-color="#ACACAC"/>
<stop offset="0.5274" stop-color="#B3B3B3"/>
<stop offset="0.5715" stop-color="#A4A4A4"/>
<stop offset="0.6558" stop-color="#7D7D7D"/>
<stop offset="0.7012" stop-color="#666666"/>
<stop offset="0.7387" stop-color="#6F6F70"/>
<stop offset="0.8018" stop-color="#88898A"/>
<stop offset="0.8676" stop-color="#A8AAAC"/>
<stop offset="0.927" stop-color="#7E8486"/>
<stop offset="1" stop-color="#465053"/>
</radialGradient>
<radialGradient id="paint2_radial" cx="0" cy="0" r="1" gradientUnits="userSpaceOnUse" gradientTransform="translate(55.1404 144.639) rotate(2.29628) scale(1.61742)">
<stop offset="0.00561773" stop-color="#534741"/>
<stop offset="0.1684" stop-color="#5C5450"/>
<stop offset="0.4792" stop-color="#737577"/>
<stop offset="0.6742" stop-color="#838C92"/>
<stop offset="0.9793" stop-color="#333333"/>
<stop offset="0.9852" stop-color="#3E4042"/>
<stop offset="0.9965" stop-color="#5B6469"/>
<stop offset="1" stop-color="#657076"/>
</radialGradient>
<radialGradient id="paint3_radial" cx="0" cy="0" r="1" gradientUnits="userSpaceOnUse" gradientTransform="translate(55.1404 161.967) rotate(2.29627) scale(1.61742)">
<stop offset="0.00561773" stop-color="#534741"/>
<stop offset="0.1684" stop-color="#5C5450"/>
<stop offset="0.4792" stop-color="#737577"/>
<stop offset="0.6742" stop-color="#838C92"/>
<stop offset="0.9793" stop-color="#333333"/>
<stop offset="0.9852" stop-color="#3E4042"/>
<stop offset="0.9965" stop-color="#5B6469"/>
<stop offset="1" stop-color="#657076"/>
</radialGradient>
<radialGradient id="paint4_radial" cx="0" cy="0" r="1" gradientUnits="userSpaceOnUse" gradientTransform="translate(48.8928 147.188) rotate(-42.7023) scale(1.61745)">
<stop offset="0.00561773" stop-color="#534741"/>
<stop offset="0.1684" stop-color="#5C5450"/>
<stop offset="0.4792" stop-color="#737577"/>
<stop offset="0.6742" stop-color="#838C92"/>
<stop offset="0.9793" stop-color="#333333"/>
<stop offset="0.9852" stop-color="#3E4042"/>
<stop offset="0.9965" stop-color="#5B6469"/>
<stop offset="1" stop-color="#657076"/>
</radialGradient>
<radialGradient id="paint5_radial" cx="0" cy="0" r="1" gradientUnits="userSpaceOnUse" gradientTransform="translate(61.1454 159.442) rotate(-42.7022) scale(1.61744)">
<stop offset="0.00561773" stop-color="#534741"/>
<stop offset="0.1684" stop-color="#5C5450"/>
<stop offset="0.4792" stop-color="#737577"/>
<stop offset="0.6742" stop-color="#838C92"/>
<stop offset="0.9793" stop-color="#333333"/>
<stop offset="0.9852" stop-color="#3E4042"/>
<stop offset="0.9965" stop-color="#5B6469"/>
<stop offset="1" stop-color="#657076"/>
</radialGradient>
<radialGradient id="paint6_radial" cx="0" cy="0" r="1" gradientUnits="userSpaceOnUse" gradientTransform="translate(46.3544 153.314) rotate(-87.7037) scale(1.61742)">
<stop offset="0.00561773" stop-color="#534741"/>
<stop offset="0.1684" stop-color="#5C5450"/>
<stop offset="0.4792" stop-color="#737577"/>
<stop offset="0.6742" stop-color="#838C92"/>
<stop offset="0.9793" stop-color="#333333"/>
<stop offset="0.9852" stop-color="#3E4042"/>
<stop offset="0.9965" stop-color="#5B6469"/>
<stop offset="1" stop-color="#657076"/>
</radialGradient>
<radialGradient id="paint7_radial" cx="0" cy="0" r="1" gradientUnits="userSpaceOnUse" gradientTransform="translate(63.6826 153.314) rotate(-87.7037) scale(1.61743)">
<stop offset="0.00561773" stop-color="#534741"/>
<stop offset="0.1684" stop-color="#5C5450"/>
<stop offset="0.4792" stop-color="#737577"/>
<stop offset="0.6742" stop-color="#838C92"/>
<stop offset="0.9793" stop-color="#333333"/>
<stop offset="0.9852" stop-color="#3E4042"/>
<stop offset="0.9965" stop-color="#5B6469"/>
<stop offset="1" stop-color="#657076"/>
</radialGradient>
<radialGradient id="paint8_radial" cx="0" cy="0" r="1" gradientUnits="userSpaceOnUse" gradientTransform="translate(48.8929 159.44) rotate(-132.702) scale(1.61745)">
<stop offset="0.00561773" stop-color="#534741"/>
<stop offset="0.1684" stop-color="#5C5450"/>
<stop offset="0.4792" stop-color="#737577"/>
<stop offset="0.6742" stop-color="#838C92"/>
<stop offset="0.9793" stop-color="#333333"/>
<stop offset="0.9852" stop-color="#3E4042"/>
<stop offset="0.9965" stop-color="#5B6469"/>
<stop offset="1" stop-color="#657076"/>
</radialGradient>
<radialGradient id="paint9_radial" cx="0" cy="0" r="1" gradientUnits="userSpaceOnUse" gradientTransform="translate(61.1461 147.187) rotate(-132.702) scale(1.61745)">
<stop offset="0.00561773" stop-color="#534741"/>
<stop offset="0.1684" stop-color="#5C5450"/>
<stop offset="0.4792" stop-color="#737577"/>
<stop offset="0.6742" stop-color="#838C92"/>
<stop offset="0.9793" stop-color="#333333"/>
<stop offset="0.9852" stop-color="#3E4042"/>
<stop offset="0.9965" stop-color="#5B6469"/>
<stop offset="1" stop-color="#657076"/>
</radialGradient>
<radialGradient id="paint10_radial" cx="0" cy="0" r="1" gradientUnits="userSpaceOnUse" gradientTransform="translate(178.428 153.308) scale(26.611)">
<stop offset="0.7777" stop-color="#1A1A1A"/>
<stop offset="0.8882" stop-color="#333333"/>
<stop offset="1"/>
</radialGradient>
<radialGradient id="paint11_radial" cx="0" cy="0" r="1" gradientUnits="userSpaceOnUse" gradientTransform="translate(178.339 153.22) scale(19.9804)">
<stop stop-color="#8D8C8C"/>
<stop offset="0.0810056" stop-color="#898989"/>
<stop offset="0.1659" stop-color="#808080"/>
<stop offset="0.2687" stop-color="#868686"/>
<stop offset="0.3295" stop-color="#A4A4A4"/>
<stop offset="0.3447" stop-color="#ACACAC"/>
<stop offset="0.5274" stop-color="#B3B3B3"/>
<stop offset="0.5715" stop-color="#A4A4A4"/>
<stop offset="0.6558" stop-color="#7D7D7D"/>
<stop offset="0.7012" stop-color="#666666"/>
<stop offset="0.7387" stop-color="#6F6F70"/>
<stop offset="0.8018" stop-color="#88898A"/>
<stop offset="0.8676" stop-color="#A8AAAC"/>
<stop offset="0.927" stop-color="#7E8486"/>
<stop offset="1" stop-color="#465053"/>
</radialGradient>
<radialGradient id="paint12_radial" cx="0" cy="0" r="1" gradientUnits="userSpaceOnUse" gradientTransform="translate(178.202 144.639) rotate(2.29629) scale(1.61742)">
<stop offset="0.00561773" stop-color="#534741"/>
<stop offset="0.1684" stop-color="#5C5450"/>
<stop offset="0.4792" stop-color="#737577"/>
<stop offset="0.6742" stop-color="#838C92"/>
<stop offset="0.9793" stop-color="#333333"/>
<stop offset="0.9852" stop-color="#3E4042"/>
<stop offset="0.9965" stop-color="#5B6469"/>
<stop offset="1" stop-color="#657076"/>
</radialGradient>
<radialGradient id="paint13_radial" cx="0" cy="0" r="1" gradientUnits="userSpaceOnUse" gradientTransform="translate(178.202 161.967) rotate(2.29628) scale(1.61742)">
<stop offset="0.00561773" stop-color="#534741"/>
<stop offset="0.1684" stop-color="#5C5450"/>
<stop offset="0.4792" stop-color="#737577"/>
<stop offset="0.6742" stop-color="#838C92"/>
<stop offset="0.9793" stop-color="#333333"/>
<stop offset="0.9852" stop-color="#3E4042"/>
<stop offset="0.9965" stop-color="#5B6469"/>
<stop offset="1" stop-color="#657076"/>
</radialGradient>
<radialGradient id="paint14_radial" cx="0" cy="0" r="1" gradientUnits="userSpaceOnUse" gradientTransform="translate(171.954 147.188) rotate(-42.7023) scale(1.61745)">
<stop offset="0.00561773" stop-color="#534741"/>
<stop offset="0.1684" stop-color="#5C5450"/>
<stop offset="0.4792" stop-color="#737577"/>
<stop offset="0.6742" stop-color="#838C92"/>
<stop offset="0.9793" stop-color="#333333"/>
<stop offset="0.9852" stop-color="#3E4042"/>
<stop offset="0.9965" stop-color="#5B6469"/>
<stop offset="1" stop-color="#657076"/>
</radialGradient>
<radialGradient id="paint15_radial" cx="0" cy="0" r="1" gradientUnits="userSpaceOnUse" gradientTransform="translate(184.207 159.442) rotate(-42.7022) scale(1.61744)">
<stop offset="0.00561773" stop-color="#534741"/>
<stop offset="0.1684" stop-color="#5C5450"/>
<stop offset="0.4792" stop-color="#737577"/>
<stop offset="0.6742" stop-color="#838C92"/>
<stop offset="0.9793" stop-color="#333333"/>
<stop offset="0.9852" stop-color="#3E4042"/>
<stop offset="0.9965" stop-color="#5B6469"/>
<stop offset="1" stop-color="#657076"/>
</radialGradient>
<radialGradient id="paint16_radial" cx="0" cy="0" r="1" gradientUnits="userSpaceOnUse" gradientTransform="translate(169.416 153.314) rotate(-87.7037) scale(1.61742)">
<stop offset="0.00561773" stop-color="#534741"/>
<stop offset="0.1684" stop-color="#5C5450"/>
<stop offset="0.4792" stop-color="#737577"/>
<stop offset="0.6742" stop-color="#838C92"/>
<stop offset="0.9793" stop-color="#333333"/>
<stop offset="0.9852" stop-color="#3E4042"/>
<stop offset="0.9965" stop-color="#5B6469"/>
<stop offset="1" stop-color="#657076"/>
</radialGradient>
<radialGradient id="paint17_radial" cx="0" cy="0" r="1" gradientUnits="userSpaceOnUse" gradientTransform="translate(186.744 153.314) rotate(-87.7037) scale(1.61743)">
<stop offset="0.00561773" stop-color="#534741"/>
<stop offset="0.1684" stop-color="#5C5450"/>
<stop offset="0.4792" stop-color="#737577"/>
<stop offset="0.6742" stop-color="#838C92"/>
<stop offset="0.9793" stop-color="#333333"/>
<stop offset="0.9852" stop-color="#3E4042"/>
<stop offset="0.9965" stop-color="#5B6469"/>
<stop offset="1" stop-color="#657076"/>
</radialGradient>
<radialGradient id="paint18_radial" cx="0" cy="0" r="1" gradientUnits="userSpaceOnUse" gradientTransform="translate(171.954 159.44) rotate(-132.702) scale(1.61745)">
<stop offset="0.00561773" stop-color="#534741"/>
<stop offset="0.1684" stop-color="#5C5450"/>
<stop offset="0.4792" stop-color="#737577"/>
<stop offset="0.6742" stop-color="#838C92"/>
<stop offset="0.9793" stop-color="#333333"/>
<stop offset="0.9852" stop-color="#3E4042"/>
<stop offset="0.9965" stop-color="#5B6469"/>
<stop offset="1" stop-color="#657076"/>
</radialGradient>
<radialGradient id="paint19_radial" cx="0" cy="0" r="1" gradientUnits="userSpaceOnUse" gradientTransform="translate(184.207 147.187) rotate(-132.702) scale(1.61744)">
<stop offset="0.00561773" stop-color="#534741"/>
<stop offset="0.1684" stop-color="#5C5450"/>
<stop offset="0.4792" stop-color="#737577"/>
<stop offset="0.6742" stop-color="#838C92"/>
<stop offset="0.9793" stop-color="#333333"/>
<stop offset="0.9852" stop-color="#3E4042"/>
<stop offset="0.9965" stop-color="#5B6469"/>
<stop offset="1" stop-color="#657076"/>
</radialGradient>
<radialGradient id="paint20_radial" cx="0" cy="0" r="1" gradientUnits="userSpaceOnUse" gradientTransform="translate(378.647 153.308) scale(26.611)">
<stop offset="0.7777" stop-color="#1A1A1A"/>
<stop offset="0.8882" stop-color="#333333"/>
<stop offset="1"/>
</radialGradient>
<radialGradient id="paint21_radial" cx="0" cy="0" r="1" gradientUnits="userSpaceOnUse" gradientTransform="translate(378.559 153.22) scale(19.9804)">
<stop stop-color="#8D8C8C"/>
<stop offset="0.0810056" stop-color="#898989"/>
<stop offset="0.1659" stop-color="#808080"/>
<stop offset="0.2687" stop-color="#868686"/>
<stop offset="0.3295" stop-color="#A4A4A4"/>
<stop offset="0.3447" stop-color="#ACACAC"/>
<stop offset="0.5274" stop-color="#B3B3B3"/>
<stop offset="0.5715" stop-color="#A4A4A4"/>
<stop offset="0.6558" stop-color="#7D7D7D"/>
<stop offset="0.7012" stop-color="#666666"/>
<stop offset="0.7387" stop-color="#6F6F70"/>
<stop offset="0.8018" stop-color="#88898A"/>
<stop offset="0.8676" stop-color="#A8AAAC"/>
<stop offset="0.927" stop-color="#7E8486"/>
<stop offset="1" stop-color="#465053"/>
</radialGradient>
<radialGradient id="paint22_radial" cx="0" cy="0" r="1" gradientUnits="userSpaceOnUse" gradientTransform="translate(378.421 144.639) rotate(2.29629) scale(1.61742)">
<stop offset="0.00561773" stop-color="#534741"/>
<stop offset="0.1684" stop-color="#5C5450"/>
<stop offset="0.4792" stop-color="#737577"/>
<stop offset="0.6742" stop-color="#838C92"/>
<stop offset="0.9793" stop-color="#333333"/>
<stop offset="0.9852" stop-color="#3E4042"/>
<stop offset="0.9965" stop-color="#5B6469"/>
<stop offset="1" stop-color="#657076"/>
</radialGradient>
<radialGradient id="paint23_radial" cx="0" cy="0" r="1" gradientUnits="userSpaceOnUse" gradientTransform="translate(378.421 161.967) rotate(2.29628) scale(1.61742)">
<stop offset="0.00561773" stop-color="#534741"/>
<stop offset="0.1684" stop-color="#5C5450"/>
<stop offset="0.4792" stop-color="#737577"/>
<stop offset="0.6742" stop-color="#838C92"/>
<stop offset="0.9793" stop-color="#333333"/>
<stop offset="0.9852" stop-color="#3E4042"/>
<stop offset="0.9965" stop-color="#5B6469"/>
<stop offset="1" stop-color="#657076"/>
</radialGradient>
<radialGradient id="paint24_radial" cx="0" cy="0" r="1" gradientUnits="userSpaceOnUse" gradientTransform="translate(372.173 147.188) rotate(-42.7023) scale(1.61745)">
<stop offset="0.00561773" stop-color="#534741"/>
<stop offset="0.1684" stop-color="#5C5450"/>
<stop offset="0.4792" stop-color="#737577"/>
<stop offset="0.6742" stop-color="#838C92"/>
<stop offset="0.9793" stop-color="#333333"/>
<stop offset="0.9852" stop-color="#3E4042"/>
<stop offset="0.9965" stop-color="#5B6469"/>
<stop offset="1" stop-color="#657076"/>
</radialGradient>
<radialGradient id="paint25_radial" cx="0" cy="0" r="1" gradientUnits="userSpaceOnUse" gradientTransform="translate(384.426 159.442) rotate(-42.7023) scale(1.61744)">
<stop offset="0.00561773" stop-color="#534741"/>
<stop offset="0.1684" stop-color="#5C5450"/>
<stop offset="0.4792" stop-color="#737577"/>
<stop offset="0.6742" stop-color="#838C92"/>
<stop offset="0.9793" stop-color="#333333"/>
<stop offset="0.9852" stop-color="#3E4042"/>
<stop offset="0.9965" stop-color="#5B6469"/>
<stop offset="1" stop-color="#657076"/>
</radialGradient>
<radialGradient id="paint26_radial" cx="0" cy="0" r="1" gradientUnits="userSpaceOnUse" gradientTransform="translate(369.635 153.314) rotate(-87.7037) scale(1.61742)">
<stop offset="0.00561773" stop-color="#534741"/>
<stop offset="0.1684" stop-color="#5C5450"/>
<stop offset="0.4792" stop-color="#737577"/>
<stop offset="0.6742" stop-color="#838C92"/>
<stop offset="0.9793" stop-color="#333333"/>
<stop offset="0.9852" stop-color="#3E4042"/>
<stop offset="0.9965" stop-color="#5B6469"/>
<stop offset="1" stop-color="#657076"/>
</radialGradient>
<radialGradient id="paint27_radial" cx="0" cy="0" r="1" gradientUnits="userSpaceOnUse" gradientTransform="translate(386.963 153.314) rotate(-87.7037) scale(1.61743)">
<stop offset="0.00561773" stop-color="#534741"/>
<stop offset="0.1684" stop-color="#5C5450"/>
<stop offset="0.4792" stop-color="#737577"/>
<stop offset="0.6742" stop-color="#838C92"/>
<stop offset="0.9793" stop-color="#333333"/>
<stop offset="0.9852" stop-color="#3E4042"/>
<stop offset="0.9965" stop-color="#5B6469"/>
<stop offset="1" stop-color="#657076"/>
</radialGradient>
<radialGradient id="paint28_radial" cx="0" cy="0" r="1" gradientUnits="userSpaceOnUse" gradientTransform="translate(372.174 159.44) rotate(-132.702) scale(1.61745)">
<stop offset="0.00561773" stop-color="#534741"/>
<stop offset="0.1684" stop-color="#5C5450"/>
<stop offset="0.4792" stop-color="#737577"/>
<stop offset="0.6742" stop-color="#838C92"/>
<stop offset="0.9793" stop-color="#333333"/>
<stop offset="0.9852" stop-color="#3E4042"/>
<stop offset="0.9965" stop-color="#5B6469"/>
<stop offset="1" stop-color="#657076"/>
</radialGradient>
<radialGradient id="paint29_radial" cx="0" cy="0" r="1" gradientUnits="userSpaceOnUse" gradientTransform="translate(384.427 147.187) rotate(-132.702) scale(1.61745)">
<stop offset="0.00561773" stop-color="#534741"/>
<stop offset="0.1684" stop-color="#5C5450"/>
<stop offset="0.4792" stop-color="#737577"/>
<stop offset="0.6742" stop-color="#838C92"/>
<stop offset="0.9793" stop-color="#333333"/>
<stop offset="0.9852" stop-color="#3E4042"/>
<stop offset="0.9965" stop-color="#5B6469"/>
<stop offset="1" stop-color="#657076"/>
</radialGradient>
<radialGradient id="paint30_radial" cx="0" cy="0" r="1" gradientUnits="userSpaceOnUse" gradientTransform="translate(446.197 153.308) scale(26.611)">
<stop offset="0.7777" stop-color="#1A1A1A"/>
<stop offset="0.8882" stop-color="#333333"/>
<stop offset="1"/>
</radialGradient>
<radialGradient id="paint31_radial" cx="0" cy="0" r="1" gradientUnits="userSpaceOnUse" gradientTransform="translate(446.109 153.22) scale(19.9804)">
<stop stop-color="#8D8C8C"/>
<stop offset="0.0810056" stop-color="#898989"/>
<stop offset="0.1659" stop-color="#808080"/>
<stop offset="0.2687" stop-color="#868686"/>
<stop offset="0.3295" stop-color="#A4A4A4"/>
<stop offset="0.3447" stop-color="#ACACAC"/>
<stop offset="0.5274" stop-color="#B3B3B3"/>
<stop offset="0.5715" stop-color="#A4A4A4"/>
<stop offset="0.6558" stop-color="#7D7D7D"/>
<stop offset="0.7012" stop-color="#666666"/>
<stop offset="0.7387" stop-color="#6F6F70"/>
<stop offset="0.8018" stop-color="#88898A"/>
<stop offset="0.8676" stop-color="#A8AAAC"/>
<stop offset="0.927" stop-color="#7E8486"/>
<stop offset="1" stop-color="#465053"/>
</radialGradient>
<radialGradient id="paint32_radial" cx="0" cy="0" r="1" gradientUnits="userSpaceOnUse" gradientTransform="translate(445.971 144.639) rotate(2.29627) scale(1.61743)">
<stop offset="0.00561773" stop-color="#534741"/>
<stop offset="0.1684" stop-color="#5C5450"/>
<stop offset="0.4792" stop-color="#737577"/>
<stop offset="0.6742" stop-color="#838C92"/>
<stop offset="0.9793" stop-color="#333333"/>
<stop offset="0.9852" stop-color="#3E4042"/>
<stop offset="0.9965" stop-color="#5B6469"/>
<stop offset="1" stop-color="#657076"/>
</radialGradient>
<radialGradient id="paint33_radial" cx="0" cy="0" r="1" gradientUnits="userSpaceOnUse" gradientTransform="translate(445.971 161.967) rotate(2.29626) scale(1.61743)">
<stop offset="0.00561773" stop-color="#534741"/>
<stop offset="0.1684" stop-color="#5C5450"/>
<stop offset="0.4792" stop-color="#737577"/>
<stop offset="0.6742" stop-color="#838C92"/>
<stop offset="0.9793" stop-color="#333333"/>
<stop offset="0.9852" stop-color="#3E4042"/>
<stop offset="0.9965" stop-color="#5B6469"/>
<stop offset="1" stop-color="#657076"/>
</radialGradient>
<radialGradient id="paint34_radial" cx="0" cy="0" r="1" gradientUnits="userSpaceOnUse" gradientTransform="translate(439.724 147.188) rotate(-42.7023) scale(1.61745)">
<stop offset="0.00561773" stop-color="#534741"/>
<stop offset="0.1684" stop-color="#5C5450"/>
<stop offset="0.4792" stop-color="#737577"/>
<stop offset="0.6742" stop-color="#838C92"/>
<stop offset="0.9793" stop-color="#333333"/>
<stop offset="0.9852" stop-color="#3E4042"/>
<stop offset="0.9965" stop-color="#5B6469"/>
<stop offset="1" stop-color="#657076"/>
</radialGradient>
<radialGradient id="paint35_radial" cx="0" cy="0" r="1" gradientUnits="userSpaceOnUse" gradientTransform="translate(451.976 159.442) rotate(-42.7023) scale(1.61744)">
<stop offset="0.00561773" stop-color="#534741"/>
<stop offset="0.1684" stop-color="#5C5450"/>
<stop offset="0.4792" stop-color="#737577"/>
<stop offset="0.6742" stop-color="#838C92"/>
<stop offset="0.9793" stop-color="#333333"/>
<stop offset="0.9852" stop-color="#3E4042"/>
<stop offset="0.9965" stop-color="#5B6469"/>
<stop offset="1" stop-color="#657076"/>
</radialGradient>
<radialGradient id="paint36_radial" cx="0" cy="0" r="1" gradientUnits="userSpaceOnUse" gradientTransform="translate(437.185 153.314) rotate(-87.7037) scale(1.61742)">
<stop offset="0.00561773" stop-color="#534741"/>
<stop offset="0.1684" stop-color="#5C5450"/>
<stop offset="0.4792" stop-color="#737577"/>
<stop offset="0.6742" stop-color="#838C92"/>
<stop offset="0.9793" stop-color="#333333"/>
<stop offset="0.9852" stop-color="#3E4042"/>
<stop offset="0.9965" stop-color="#5B6469"/>
<stop offset="1" stop-color="#657076"/>
</radialGradient>
<radialGradient id="paint37_radial" cx="0" cy="0" r="1" gradientUnits="userSpaceOnUse" gradientTransform="translate(454.514 153.314) rotate(-87.7037) scale(1.61743)">
<stop offset="0.00561773" stop-color="#534741"/>
<stop offset="0.1684" stop-color="#5C5450"/>
<stop offset="0.4792" stop-color="#737577"/>
<stop offset="0.6742" stop-color="#838C92"/>
<stop offset="0.9793" stop-color="#333333"/>
<stop offset="0.9852" stop-color="#3E4042"/>
<stop offset="0.9965" stop-color="#5B6469"/>
<stop offset="1" stop-color="#657076"/>
</radialGradient>
<radialGradient id="paint38_radial" cx="0" cy="0" r="1" gradientUnits="userSpaceOnUse" gradientTransform="translate(439.724 159.44) rotate(-132.702) scale(1.61744)">
<stop offset="0.00561773" stop-color="#534741"/>
<stop offset="0.1684" stop-color="#5C5450"/>
<stop offset="0.4792" stop-color="#737577"/>
<stop offset="0.6742" stop-color="#838C92"/>
<stop offset="0.9793" stop-color="#333333"/>
<stop offset="0.9852" stop-color="#3E4042"/>
<stop offset="0.9965" stop-color="#5B6469"/>
<stop offset="1" stop-color="#657076"/>
</radialGradient>
<radialGradient id="paint39_radial" cx="0" cy="0" r="1" gradientUnits="userSpaceOnUse" gradientTransform="translate(451.977 147.187) rotate(-132.702) scale(1.61744)">
<stop offset="0.00561773" stop-color="#534741"/>
<stop offset="0.1684" stop-color="#5C5450"/>
<stop offset="0.4792" stop-color="#737577"/>
<stop offset="0.6742" stop-color="#838C92"/>
<stop offset="0.9793" stop-color="#333333"/>
<stop offset="0.9852" stop-color="#3E4042"/>
<stop offset="0.9965" stop-color="#5B6469"/>
<stop offset="1" stop-color="#657076"/>
</radialGradient>
<radialGradient id="paint40_radial" cx="0" cy="0" r="1" gradientUnits="userSpaceOnUse" gradientTransform="translate(513.866 153.308) scale(26.611)">
<stop offset="0.7777" stop-color="#1A1A1A"/>
<stop offset="0.8882" stop-color="#333333"/>
<stop offset="1"/>
</radialGradient>
<radialGradient id="paint41_radial" cx="0" cy="0" r="1" gradientUnits="userSpaceOnUse" gradientTransform="translate(513.778 153.22) scale(19.9804)">
<stop stop-color="#8D8C8C"/>
<stop offset="0.0810056" stop-color="#898989"/>
<stop offset="0.1659" stop-color="#808080"/>
<stop offset="0.2687" stop-color="#868686"/>
<stop offset="0.3295" stop-color="#A4A4A4"/>
<stop offset="0.3447" stop-color="#ACACAC"/>
<stop offset="0.5274" stop-color="#B3B3B3"/>
<stop offset="0.5715" stop-color="#A4A4A4"/>
<stop offset="0.6558" stop-color="#7D7D7D"/>
<stop offset="0.7012" stop-color="#666666"/>
<stop offset="0.7387" stop-color="#6F6F70"/>
<stop offset="0.8018" stop-color="#88898A"/>
<stop offset="0.8676" stop-color="#A8AAAC"/>
<stop offset="0.927" stop-color="#7E8486"/>
<stop offset="1" stop-color="#465053"/>
</radialGradient>
<radialGradient id="paint42_radial" cx="0" cy="0" r="1" gradientUnits="userSpaceOnUse" gradientTransform="translate(513.64 144.639) rotate(2.29628) scale(1.61742)">
<stop offset="0.00561773" stop-color="#534741"/>
<stop offset="0.1684" stop-color="#5C5450"/>
<stop offset="0.4792" stop-color="#737577"/>
<stop offset="0.6742" stop-color="#838C92"/>
<stop offset="0.9793" stop-color="#333333"/>
<stop offset="0.9852" stop-color="#3E4042"/>
<stop offset="0.9965" stop-color="#5B6469"/>
<stop offset="1" stop-color="#657076"/>
</radialGradient>
<radialGradient id="paint43_radial" cx="0" cy="0" r="1" gradientUnits="userSpaceOnUse" gradientTransform="translate(513.64 161.967) rotate(2.29628) scale(1.61742)">
<stop offset="0.00561773" stop-color="#534741"/>
<stop offset="0.1684" stop-color="#5C5450"/>
<stop offset="0.4792" stop-color="#737577"/>
<stop offset="0.6742" stop-color="#838C92"/>
<stop offset="0.9793" stop-color="#333333"/>
<stop offset="0.9852" stop-color="#3E4042"/>
<stop offset="0.9965" stop-color="#5B6469"/>
<stop offset="1" stop-color="#657076"/>
</radialGradient>
<radialGradient id="paint44_radial" cx="0" cy="0" r="1" gradientUnits="userSpaceOnUse" gradientTransform="translate(507.393 147.188) rotate(-42.7023) scale(1.61745)">
<stop offset="0.00561773" stop-color="#534741"/>
<stop offset="0.1684" stop-color="#5C5450"/>
<stop offset="0.4792" stop-color="#737577"/>
<stop offset="0.6742" stop-color="#838C92"/>
<stop offset="0.9793" stop-color="#333333"/>
<stop offset="0.9852" stop-color="#3E4042"/>
<stop offset="0.9965" stop-color="#5B6469"/>
<stop offset="1" stop-color="#657076"/>
</radialGradient>
<radialGradient id="paint45_radial" cx="0" cy="0" r="1" gradientUnits="userSpaceOnUse" gradientTransform="translate(519.645 159.442) rotate(-42.7027) scale(1.61743)">
<stop offset="0.00561773" stop-color="#534741"/>
<stop offset="0.1684" stop-color="#5C5450"/>
<stop offset="0.4792" stop-color="#737577"/>
<stop offset="0.6742" stop-color="#838C92"/>
<stop offset="0.9793" stop-color="#333333"/>
<stop offset="0.9852" stop-color="#3E4042"/>
<stop offset="0.9965" stop-color="#5B6469"/>
<stop offset="1" stop-color="#657076"/>
</radialGradient>
<radialGradient id="paint46_radial" cx="0" cy="0" r="1" gradientUnits="userSpaceOnUse" gradientTransform="translate(504.854 153.314) rotate(-87.7037) scale(1.61742)">
<stop offset="0.00561773" stop-color="#534741"/>
<stop offset="0.1684" stop-color="#5C5450"/>
<stop offset="0.4792" stop-color="#737577"/>
<stop offset="0.6742" stop-color="#838C92"/>
<stop offset="0.9793" stop-color="#333333"/>
<stop offset="0.9852" stop-color="#3E4042"/>
<stop offset="0.9965" stop-color="#5B6469"/>
<stop offset="1" stop-color="#657076"/>
</radialGradient>
<radialGradient id="paint47_radial" cx="0" cy="0" r="1" gradientUnits="userSpaceOnUse" gradientTransform="translate(522.182 153.314) rotate(-87.7037) scale(1.61743)">
<stop offset="0.00561773" stop-color="#534741"/>
<stop offset="0.1684" stop-color="#5C5450"/>
<stop offset="0.4792" stop-color="#737577"/>
<stop offset="0.6742" stop-color="#838C92"/>
<stop offset="0.9793" stop-color="#333333"/>
<stop offset="0.9852" stop-color="#3E4042"/>
<stop offset="0.9965" stop-color="#5B6469"/>
<stop offset="1" stop-color="#657076"/>
</radialGradient>
<radialGradient id="paint48_radial" cx="0" cy="0" r="1" gradientUnits="userSpaceOnUse" gradientTransform="translate(507.393 159.44) rotate(-132.702) scale(1.61745)">
<stop offset="0.00561773" stop-color="#534741"/>
<stop offset="0.1684" stop-color="#5C5450"/>
<stop offset="0.4792" stop-color="#737577"/>
<stop offset="0.6742" stop-color="#838C92"/>
<stop offset="0.9793" stop-color="#333333"/>
<stop offset="0.9852" stop-color="#3E4042"/>
<stop offset="0.9965" stop-color="#5B6469"/>
<stop offset="1" stop-color="#657076"/>
</radialGradient>
<radialGradient id="paint49_radial" cx="0" cy="0" r="1" gradientUnits="userSpaceOnUse" gradientTransform="translate(519.646 147.187) rotate(-132.702) scale(1.61744)">
<stop offset="0.00561773" stop-color="#534741"/>
<stop offset="0.1684" stop-color="#5C5450"/>
<stop offset="0.4792" stop-color="#737577"/>
<stop offset="0.6742" stop-color="#838C92"/>
<stop offset="0.9793" stop-color="#333333"/>
<stop offset="0.9852" stop-color="#3E4042"/>
<stop offset="0.9965" stop-color="#5B6469"/>
<stop offset="1" stop-color="#657076"/>
</radialGradient>
</defs>
</svg>
