<svg width="313" height="148" viewBox="0 0 313 148" fill="none" xmlns="http://www.w3.org/2000/svg">
<g filter="url(#filter0_d)">
<g filter="url(#filter1_d)">
<rect x="9.10882" y="9.4393" width="137.348" height="55.5629" stroke="#2F80ED" stroke-width="1.40111" stroke-linecap="round" stroke-linejoin="round"/>
</g>
<g filter="url(#filter2_d)">
<rect x="19.452" y="9.43934" width="22.225" height="55.5629" stroke="#2F80ED" stroke-width="1.40111" stroke-linecap="round" stroke-linejoin="round"/>
</g>
<g filter="url(#filter3_d)">
<rect x="41.7035" y="9.43934" width="22.225" height="55.5629" stroke="#2F80ED" stroke-width="1.40111" stroke-linecap="round" stroke-linejoin="round"/>
</g>
<g filter="url(#filter4_d)">
<rect x="63.9552" y="9.43934" width="22.225" height="55.5629" stroke="#2F80ED" stroke-width="1.40111" stroke-linecap="round" stroke-linejoin="round"/>
</g>
<g filter="url(#filter5_d)">
<rect x="86.2068" y="9.43933" width="22.225" height="55.5629" stroke="#2F80ED" stroke-width="1.40111" stroke-linecap="round" stroke-linejoin="round"/>
</g>
<g filter="url(#filter6_d)">
<rect x="108.458" y="9.43934" width="22.225" height="55.5629" stroke="#2F80ED" stroke-width="1.40111" stroke-linecap="round" stroke-linejoin="round"/>
</g>
<g filter="url(#filter7_d)">
<rect x="9.10882" y="32.0074" width="137.348" height="10.4267" stroke="#2F80ED" stroke-width="1.40111" stroke-linecap="round" stroke-linejoin="round"/>
</g>
<line x1="0.700556" y1="-0.700556" x2="30.752" y2="-0.700556" transform="matrix(0.707467 -0.706724 0.707489 0.706746 19.8365 32.265)" stroke="#2F80ED" stroke-width="1.40111" stroke-linecap="round" stroke-linejoin="round"/>
<line x1="0.700556" y1="-0.700556" x2="30.7511" y2="-0.700556" transform="matrix(0.707489 0.706746 -0.707467 0.706724 18.8499 10.0367)" stroke="#2F80ED" stroke-width="1.40111" stroke-linecap="round" stroke-linejoin="round"/>
<path fill-rule="evenodd" clip-rule="evenodd" d="M33.5062 21.3127C34.1595 20.8682 34.5935 20.0831 34.5935 19.1887C34.5936 17.8025 33.5511 16.6788 32.2651 16.6789C31.5473 16.6789 30.9053 17.029 30.4782 17.5796C30.0511 17.029 29.4091 16.6788 28.6912 16.6789C27.4052 16.6789 26.3628 17.8026 26.3627 19.1888C26.3627 20.0833 26.7969 20.8686 27.4505 21.3131L30.4781 24.3603L33.5062 21.3127Z" fill="#2F80ED"/>
<line x1="0.700556" y1="-0.700556" x2="30.752" y2="-0.700556" transform="matrix(0.707467 -0.706724 0.707489 0.706746 19.728 64.8936)" stroke="#2F80ED" stroke-width="1.40111" stroke-linecap="round" stroke-linejoin="round"/>
<line x1="0.700556" y1="-0.700556" x2="30.7511" y2="-0.700556" transform="matrix(0.707489 0.706746 -0.707467 0.706724 18.7414 42.6653)" stroke="#2F80ED" stroke-width="1.40111" stroke-linecap="round" stroke-linejoin="round"/>
<path fill-rule="evenodd" clip-rule="evenodd" d="M33.3976 53.9413C34.0509 53.4968 34.4849 52.7116 34.485 51.8173C34.485 50.4311 33.4425 49.3074 32.1566 49.3074C31.4387 49.3074 30.7967 49.6576 30.3696 50.2081C29.9425 49.6576 29.3005 49.3074 28.5826 49.3074C27.2967 49.3075 26.2542 50.4312 26.2542 51.8174C26.2541 52.7119 26.6883 53.4972 27.3419 53.9416L30.3696 56.9888L33.3976 53.9413Z" fill="#2F80ED"/>
<line x1="0.700556" y1="-0.700556" x2="30.752" y2="-0.700556" transform="matrix(0.707467 -0.706724 0.707489 0.706746 20.0002 64.8936)" stroke="#2F80ED" stroke-width="1.40111" stroke-linecap="round" stroke-linejoin="round"/>
<line x1="0.700556" y1="-0.700556" x2="30.7511" y2="-0.700556" transform="matrix(0.707489 0.706746 -0.707467 0.706724 19.0135 42.6653)" stroke="#2F80ED" stroke-width="1.40111" stroke-linecap="round" stroke-linejoin="round"/>
<path fill-rule="evenodd" clip-rule="evenodd" d="M33.6698 53.9413C34.3232 53.4968 34.7572 52.7116 34.7572 51.8173C34.7572 50.4311 33.7147 49.3074 32.4288 49.3074C31.7109 49.3074 31.0689 49.6576 30.6418 50.2081C30.2147 49.6576 29.5727 49.3074 28.8548 49.3074C27.5689 49.3075 26.5264 50.4312 26.5264 51.8174C26.5264 52.7119 26.9605 53.4972 27.6141 53.9416L30.6418 56.9888L33.6698 53.9413Z" fill="#2F80ED"/>
<line x1="0.700556" y1="-0.700556" x2="30.752" y2="-0.700556" transform="matrix(0.707467 -0.706724 0.707489 0.706746 64.2992 32.265)" stroke="#2F80ED" stroke-width="1.40111" stroke-linecap="round" stroke-linejoin="round"/>
<line x1="0.700556" y1="-0.700556" x2="30.7511" y2="-0.700556" transform="matrix(0.707489 0.706746 -0.707467 0.706724 63.3126 10.0367)" stroke="#2F80ED" stroke-width="1.40111" stroke-linecap="round" stroke-linejoin="round"/>
<path fill-rule="evenodd" clip-rule="evenodd" d="M71.9111 21.311C71.2592 20.8662 70.8263 20.082 70.8263 19.1887C70.8263 17.8026 71.8688 16.6788 73.1548 16.6788C73.8724 16.6788 74.5142 17.0287 74.9413 17.5789C75.3684 17.0288 76.0102 16.6788 76.7278 16.6788C78.0137 16.6788 79.0562 17.8025 79.0562 19.1887C79.0562 20.083 78.6222 20.8682 77.9688 21.3127L74.9408 24.3602L71.9111 21.311Z" fill="#2F80ED"/>
<line x1="0.700556" y1="-0.700556" x2="30.752" y2="-0.700556" transform="matrix(0.707467 -0.706724 0.707489 0.706746 64.1907 64.8936)" stroke="#2F80ED" stroke-width="1.40111" stroke-linecap="round" stroke-linejoin="round"/>
<line x1="0.700556" y1="-0.700556" x2="30.7511" y2="-0.700556" transform="matrix(0.707489 0.706746 -0.707467 0.706724 63.204 42.6653)" stroke="#2F80ED" stroke-width="1.40111" stroke-linecap="round" stroke-linejoin="round"/>
<path fill-rule="evenodd" clip-rule="evenodd" d="M77.8603 53.9413C78.5136 53.4967 78.9476 52.7116 78.9476 51.8173C78.9476 50.4311 77.9052 49.3074 76.6192 49.3074C75.9013 49.3074 75.2594 49.6576 74.8322 50.2081C74.4051 49.6576 73.7631 49.3074 73.0453 49.3074C71.7593 49.3075 70.7168 50.4312 70.7168 51.8174C70.7168 52.7119 71.1509 53.4972 71.8045 53.9416L74.8322 56.9888L77.8603 53.9413Z" fill="#2F80ED"/>
<line x1="0.700556" y1="-0.700556" x2="30.752" y2="-0.700556" transform="matrix(0.707467 -0.706724 0.707489 0.706746 64.4629 64.8936)" stroke="#2F80ED" stroke-width="1.40111" stroke-linecap="round" stroke-linejoin="round"/>
<line x1="0.700556" y1="-0.700556" x2="30.7511" y2="-0.700556" transform="matrix(0.707489 0.706746 -0.707467 0.706724 63.4762 42.6653)" stroke="#2F80ED" stroke-width="1.40111" stroke-linecap="round" stroke-linejoin="round"/>
<path fill-rule="evenodd" clip-rule="evenodd" d="M72.0748 53.9396C71.4228 53.4948 70.9899 52.7105 70.9899 51.8173C70.99 50.4311 72.0324 49.3074 73.3184 49.3074C74.036 49.3074 74.6778 49.6573 75.1049 50.2075C75.5321 49.6573 76.1738 49.3074 76.8914 49.3074C78.1774 49.3074 79.2198 50.4311 79.2198 51.8172C79.2198 52.7116 78.7858 53.4967 78.1325 53.9412L75.1044 56.9888L72.0748 53.9396Z" fill="#2F80ED"/>
<line x1="0.700556" y1="-0.700556" x2="30.752" y2="-0.700556" transform="matrix(0.707467 -0.706724 0.707489 0.706746 42.2518 32.2468)" stroke="#2F80ED" stroke-width="1.40111" stroke-linecap="round" stroke-linejoin="round"/>
<line x1="0.700556" y1="-0.700556" x2="30.7511" y2="-0.700556" transform="matrix(0.707489 0.706746 -0.707467 0.706724 41.2651 10.0185)" stroke="#2F80ED" stroke-width="1.40111" stroke-linecap="round" stroke-linejoin="round"/>
<path fill-rule="evenodd" clip-rule="evenodd" d="M49.8657 21.2948C49.2121 20.8503 48.7779 20.0651 48.778 19.1705C48.778 17.7844 49.8205 16.6606 51.1064 16.6606C51.8243 16.6606 52.4663 17.0108 52.8934 17.5613C53.3205 17.0108 53.9625 16.6606 54.6804 16.6606C55.9663 16.6606 57.0088 17.7843 57.0087 19.1705C57.0087 20.0648 56.5748 20.8499 55.9214 21.2945L52.8934 24.342L49.8657 21.2948Z" fill="#2F80ED"/>
<line x1="0.700556" y1="-0.700556" x2="30.7521" y2="-0.700556" transform="matrix(0.707467 -0.706724 0.707489 0.706746 42.1432 64.8753)" stroke="#2F80ED" stroke-width="1.40111" stroke-linecap="round" stroke-linejoin="round"/>
<line x1="0.700556" y1="-0.700556" x2="30.7511" y2="-0.700556" transform="matrix(0.707489 0.706746 -0.707467 0.706724 41.1566 42.647)" stroke="#2F80ED" stroke-width="1.40111" stroke-linecap="round" stroke-linejoin="round"/>
<path fill-rule="evenodd" clip-rule="evenodd" d="M49.7551 53.9213C49.1032 53.4765 48.6704 52.6922 48.6704 51.7991C48.6704 50.4129 49.7129 49.2892 50.9989 49.2891C51.7165 49.2891 52.3583 49.639 52.7854 50.1892C53.2125 49.6391 53.8543 49.2892 54.5719 49.2891C55.8578 49.2891 56.9003 50.4128 56.9003 51.799C56.9002 52.6934 56.4663 53.4785 55.8129 53.923L52.7849 56.9705L49.7551 53.9213Z" fill="#2F80ED"/>
<line x1="0.700556" y1="-0.700556" x2="30.752" y2="-0.700556" transform="matrix(0.707467 -0.706724 0.707489 0.706746 42.4154 64.8753)" stroke="#2F80ED" stroke-width="1.40111" stroke-linecap="round" stroke-linejoin="round"/>
<line x1="0.700556" y1="-0.700556" x2="30.7511" y2="-0.700556" transform="matrix(0.707489 0.706746 -0.707467 0.706724 41.4288 42.647)" stroke="#2F80ED" stroke-width="1.40111" stroke-linecap="round" stroke-linejoin="round"/>
<path fill-rule="evenodd" clip-rule="evenodd" d="M56.085 53.923C56.7384 53.4785 57.1724 52.6934 57.1724 51.799C57.1724 50.4129 56.1299 49.2892 54.844 49.2892C54.1261 49.2892 53.4842 49.6394 53.057 50.1899C52.6299 49.6394 51.9879 49.2892 51.2701 49.2892C49.9841 49.2892 48.9416 50.4129 48.9416 51.7991C48.9416 52.6937 49.3757 53.4789 50.0293 53.9234L53.057 56.9706L56.085 53.923Z" fill="#2F80ED"/>
<line x1="0.700556" y1="-0.700556" x2="30.752" y2="-0.700556" transform="matrix(0.707467 -0.706724 0.707489 0.706746 86.7145 32.2468)" stroke="#2F80ED" stroke-width="1.40111" stroke-linecap="round" stroke-linejoin="round"/>
<line x1="0.700556" y1="-0.700556" x2="30.7511" y2="-0.700556" transform="matrix(0.707489 0.706746 -0.707467 0.706724 85.7278 10.0185)" stroke="#2F80ED" stroke-width="1.40111" stroke-linecap="round" stroke-linejoin="round"/>
<path fill-rule="evenodd" clip-rule="evenodd" d="M94.3283 21.2948C93.6747 20.8503 93.2406 20.0651 93.2406 19.1705C93.2406 17.7844 94.2831 16.6606 95.5691 16.6606C96.2869 16.6606 96.9289 17.0108 97.356 17.5613C97.7832 17.0108 98.4252 16.6606 99.143 16.6606C100.429 16.6606 101.471 17.7843 101.471 19.1705C101.471 20.0648 101.037 20.8499 100.384 21.2944L97.356 24.342L94.3283 21.2948Z" fill="#2F80ED"/>
<line x1="0.700556" y1="-0.700556" x2="30.7521" y2="-0.700556" transform="matrix(0.707467 -0.706724 0.707489 0.706746 86.6059 64.8753)" stroke="#2F80ED" stroke-width="1.40111" stroke-linecap="round" stroke-linejoin="round"/>
<line x1="0.700556" y1="-0.700556" x2="30.7511" y2="-0.700556" transform="matrix(0.707489 0.706746 -0.707467 0.706724 85.6193 42.647)" stroke="#2F80ED" stroke-width="1.40111" stroke-linecap="round" stroke-linejoin="round"/>
<path fill-rule="evenodd" clip-rule="evenodd" d="M100.275 53.9231C100.929 53.4785 101.363 52.6934 101.363 51.799C101.363 50.4129 100.32 49.2892 99.0344 49.2892C98.3166 49.2892 97.6746 49.6394 97.2475 50.1899C96.8203 49.6394 96.1784 49.2892 95.4605 49.2892C94.1745 49.2892 93.132 50.4129 93.132 51.7991C93.132 52.6937 93.5662 53.4789 94.2197 53.9234L97.2474 56.9706L100.275 53.9231Z" fill="#2F80ED"/>
<line x1="0.700556" y1="-0.700556" x2="30.752" y2="-0.700556" transform="matrix(0.707467 -0.706724 0.707489 0.706746 86.8781 64.8753)" stroke="#2F80ED" stroke-width="1.40111" stroke-linecap="round" stroke-linejoin="round"/>
<line x1="0.700556" y1="-0.700556" x2="30.7511" y2="-0.700556" transform="matrix(0.707489 0.706746 -0.707467 0.706724 85.8915 42.647)" stroke="#2F80ED" stroke-width="1.40111" stroke-linecap="round" stroke-linejoin="round"/>
<path fill-rule="evenodd" clip-rule="evenodd" d="M100.548 53.923C101.201 53.4785 101.635 52.6934 101.635 51.799C101.635 50.4129 100.593 49.2892 99.3066 49.2892C98.5888 49.2892 97.9468 49.6394 97.5197 50.1899C97.0926 49.6393 96.4506 49.2892 95.7327 49.2892C94.4467 49.2892 93.4043 50.4129 93.4042 51.7991C93.4042 52.6937 93.8384 53.4789 94.492 53.9234L97.5197 56.9706L100.548 53.923Z" fill="#2F80ED"/>
<line x1="0.700556" y1="-0.700556" x2="30.7521" y2="-0.700556" transform="matrix(0.707467 -0.706724 0.707489 0.706746 108.87 32.2468)" stroke="#2F80ED" stroke-width="1.40111" stroke-linecap="round" stroke-linejoin="round"/>
<line x1="0.700556" y1="-0.700556" x2="30.7511" y2="-0.700556" transform="matrix(0.707489 0.706746 -0.707467 0.706724 107.884 10.0185)" stroke="#2F80ED" stroke-width="1.40111" stroke-linecap="round" stroke-linejoin="round"/>
<path fill-rule="evenodd" clip-rule="evenodd" d="M116.484 21.2948C115.831 20.8503 115.397 20.0651 115.397 19.1705C115.397 17.7844 116.439 16.6606 117.725 16.6606C118.443 16.6606 119.085 17.0108 119.512 17.5613C119.939 17.0108 120.581 16.6606 121.299 16.6606C122.585 16.6606 123.627 17.7843 123.627 19.1705C123.627 20.0648 123.193 20.8499 122.54 21.2945L119.512 24.342L116.484 21.2948Z" fill="#2F80ED"/>
<line x1="0.700556" y1="-0.700556" x2="30.752" y2="-0.700556" transform="matrix(0.707467 -0.706724 0.707489 0.706746 108.762 64.8753)" stroke="#2F80ED" stroke-width="1.40111" stroke-linecap="round" stroke-linejoin="round"/>
<line x1="0.700556" y1="-0.700556" x2="30.7511" y2="-0.700556" transform="matrix(0.707489 0.706746 -0.707467 0.706724 107.775 42.647)" stroke="#2F80ED" stroke-width="1.40111" stroke-linecap="round" stroke-linejoin="round"/>
<path fill-rule="evenodd" clip-rule="evenodd" d="M116.374 53.9213C115.722 53.4764 115.289 52.6922 115.289 51.7991C115.289 50.4129 116.332 49.2892 117.618 49.2891C118.335 49.2891 118.977 49.639 119.404 50.1892C119.831 49.6391 120.473 49.2892 121.19 49.2891C122.476 49.2891 123.519 50.4128 123.519 51.799C123.519 52.6933 123.085 53.4784 122.432 53.923L119.404 56.9705L116.374 53.9213Z" fill="#2F80ED"/>
<line x1="0.700556" y1="-0.700556" x2="30.752" y2="-0.700556" transform="matrix(0.707467 -0.706724 0.707489 0.706746 109.034 64.8753)" stroke="#2F80ED" stroke-width="1.40111" stroke-linecap="round" stroke-linejoin="round"/>
<line x1="0.700556" y1="-0.700556" x2="30.7511" y2="-0.700556" transform="matrix(0.707489 0.706746 -0.707467 0.706724 108.047 42.647)" stroke="#2F80ED" stroke-width="1.40111" stroke-linecap="round" stroke-linejoin="round"/>
<path fill-rule="evenodd" clip-rule="evenodd" d="M122.704 53.9231C123.357 53.4785 123.791 52.6934 123.791 51.799C123.791 50.4129 122.749 49.2892 121.463 49.2892C120.745 49.2892 120.103 49.6394 119.676 50.1899C119.249 49.6393 118.607 49.2892 117.889 49.2892C116.603 49.2892 115.56 50.4129 115.56 51.7991C115.56 52.6937 115.994 53.4789 116.648 53.9234L119.676 56.9706L122.704 53.9231Z" fill="#2F80ED"/>
<line x1="9.05854" y1="9.65652" x2="9.05854" y2="5.21168" stroke="#2F80ED" stroke-width="1.40111" stroke-linecap="round" stroke-linejoin="round"/>
<line x1="146.447" y1="9.31664" x2="146.447" y2="4.8718" stroke="#2F80ED" stroke-width="1.40111" stroke-linecap="round" stroke-linejoin="round"/>
</g>
<path d="M148.008 74.0033L146.755 70.2007L146.273 65.9062L7.76201 65.9067L4.35543 73.5429L4.36397 79.8396L2.06865 81.7449L2.09827 103.587L5.1205 105.157L4.7296 107.387L7.69378 116.836L50.5035 116.836C50.4867 104.439 59.4099 91.1824 75.9455 91.1599C92.481 91.1374 102.091 104.369 102.108 116.766L147.974 116.787L150.554 111.649L148.008 74.0033Z" fill="#FFF3DC" stroke="black" stroke-width="0.280222" stroke-miterlimit="10"/>
<path fill-rule="evenodd" clip-rule="evenodd" d="M222.173 59.5623L225.712 71.2395L225.646 71.2395L225.626 105.609L219.909 112.689L154.387 112.651L151.587 72.5735L150.08 68.3093L149.23 62.2088L150.204 36.2449C167.799 36.7799 186.536 37.1751 191.854 37.7029C195.267 40.3285 203.076 46.0395 222.173 59.5623ZM153.207 62.0338L153.993 65.8385L218.99 65.9421L217.68 61.4812C202.389 50.1251 193.858 43.7578 189.855 40.6071C184.537 40.2104 170.314 39.5132 154.097 38.979L153.207 62.0338Z" fill="#FFF3DC" stroke="black" stroke-width="0.280222" stroke-miterlimit="10"/>
<path fill-rule="evenodd" clip-rule="evenodd" d="M239.531 63.323L295.863 75.3254L310.307 84.18L310.307 111.072L301.444 118.681L287.197 118.681L285.621 116.451L285.621 115.795C285.621 102.48 274.066 91.7234 259.819 91.7236C245.572 91.7238 234.017 102.481 234.017 115.796C234.017 116.714 234.082 117.698 234.214 118.616L216.618 118.616L213.467 116.714L148.178 116.788L150.73 111.723L148.11 73.9962L146.919 70.2235L146.105 63.2586L147.172 32.2565C147.172 32.2565 192.326 33.2174 192.982 34.2013C193.639 35.1852 239.531 63.323 239.531 63.323ZM222.217 59.6254L225.763 71.3005L225.697 71.3005L225.697 105.67L219.985 112.754L154.462 112.755L151.639 72.6789L150.129 68.4155L149.275 62.3156L150.254 36.2451C167.849 36.7696 186.567 37.2594 191.885 37.7841C195.299 40.4076 203.112 46.1139 222.217 59.6254Z" fill="#FFF3DC" stroke="black" stroke-width="0.280222" stroke-miterlimit="10"/>
<path d="M301.752 79.1134L296.037 80.314C294.63 80.6096 294.055 82.3053 294.992 83.3966L298.775 87.8038L310.081 89.716L310.102 84.2779L301.752 79.1134Z" fill="#F2F2F2" stroke="black" stroke-width="0.280222" stroke-miterlimit="10"/>
<path d="M301.817 79.1677L296.15 80.3504C294.732 80.6465 294.16 82.3628 295.118 83.4511L298.805 87.6412L300.218 87.892L298.818 84.6882C298.818 84.6882 299.518 86.2901 298.818 84.5431C298.119 82.7961 298.261 82.9368 298.829 82.1733C299.396 81.4099 301.817 79.1677 301.817 79.1677Z" fill="#DBDBDB"/>
<path d="M2.13781 81.7681L3.87301 80.3046C5.10804 86.6556 7.64826 99.5963 8.30473 102.318C8.96121 105.04 5.64212 105.456 5.0297 105.014L2.21233 103.577L2.13781 81.7681Z" fill="#BE0606" stroke="black" stroke-width="0.0700556"/>
<ellipse opacity="0.5" rx="133.441" ry="4.38447" transform="matrix(-1 -3.24225e-09 3.22754e-09 1 159.668 139.002)" fill="#403F45" fill-opacity="0.72"/>
<path d="M76.2521 95.1363C63.9381 95.1365 53.9327 105.132 53.9325 117.433C53.9323 129.735 63.9374 139.73 76.2515 139.729C88.5656 139.729 98.5709 129.734 98.5711 117.433C98.5713 105.131 88.5662 95.1361 76.2521 95.1363ZM76.2516 134.155C67.016 134.155 59.5122 126.659 59.5123 117.433C59.5125 108.207 67.0165 100.711 76.2521 100.71C85.4876 100.71 92.9914 108.206 92.9913 117.433C92.9911 126.659 85.4871 134.155 76.2516 134.155Z" fill="url(#paint0_radial)"/>
<path d="M76.131 134.477C85.6542 134.477 93.3745 126.764 93.3746 117.251C93.3747 107.737 85.6547 100.025 76.1315 100.025C66.6082 100.025 58.888 107.738 58.8879 117.251C58.8877 126.765 66.6077 134.477 76.131 134.477Z" fill="url(#paint1_radial)"/>
<path d="M76.8027 108.592L75.3072 108.531L74.5137 109.781L75.2156 111.123L76.7111 111.184L77.5046 109.903L76.8027 108.592Z" fill="url(#paint2_radial)"/>
<path d="M76.8027 123.531L75.3072 123.47L74.5137 124.72L75.2156 126.062L76.7111 126.123L77.5046 124.842L76.8027 123.531Z" fill="url(#paint3_radial)"/>
<path d="M70.302 110.605L69.2033 111.611L69.5085 113.074L70.9429 113.501L72.0416 112.495L71.7059 111.031L70.302 110.605Z" fill="url(#paint4_radial)"/>
<path d="M80.8619 121.153L79.7632 122.159L80.0988 123.623L81.5332 124.08L82.6319 123.044L82.2962 121.611L80.8619 121.153Z" fill="url(#paint5_radial)"/>
<path d="M67.159 116.55L67.098 118.013L68.3797 118.836L69.692 118.135L69.7531 116.641L68.5019 115.848L67.159 116.55Z" fill="url(#paint6_radial)"/>
<path d="M82.1131 116.55L82.0521 118.013L83.3338 118.836L84.6461 118.135L84.7072 116.641L83.456 115.848L82.1131 116.55Z" fill="url(#paint7_radial)"/>
<path d="M259.764 95.1307C247.45 95.1309 237.445 105.126 237.445 117.428C237.445 129.729 247.45 139.724 259.764 139.724C272.078 139.724 282.083 129.728 282.083 117.427C282.084 105.125 272.079 95.1305 259.764 95.1307ZM259.764 134.15C250.528 134.15 243.025 126.654 243.025 117.427C243.025 108.201 250.529 100.705 259.764 100.705C269 100.705 276.504 108.201 276.504 117.427C276.503 126.653 268.999 134.149 259.764 134.15Z" fill="url(#paint8_radial)"/>
<path d="M259.643 134.471C269.167 134.471 276.887 126.759 276.887 117.245C276.887 107.731 269.167 100.019 259.644 100.019C250.121 100.02 242.4 107.732 242.4 117.246C242.4 126.759 250.12 134.471 259.643 134.471Z" fill="url(#paint9_radial)"/>
<path d="M260.315 108.587L258.82 108.526L258.026 109.776L258.728 111.117L260.223 111.178L261.017 109.898L260.315 108.587Z" fill="url(#paint10_radial)"/>
<path d="M260.315 123.526L258.82 123.465L258.026 124.715L258.728 126.056L260.223 126.117L261.017 124.837L260.315 123.526Z" fill="url(#paint11_radial)"/>
<path d="M253.814 110.599L252.716 111.605L253.021 113.069L254.455 113.495L255.554 112.489L255.218 111.026L253.814 110.599Z" fill="url(#paint12_radial)"/>
<path d="M264.374 121.148L263.275 122.154L263.611 123.617L265.046 124.075L266.144 123.038L265.809 121.605L264.374 121.148Z" fill="url(#paint13_radial)"/>
<path d="M250.671 116.544L250.61 118.007L251.892 118.831L253.204 118.129L253.265 116.635L252.014 115.843L250.671 116.544Z" fill="url(#paint14_radial)"/>
<path d="M265.625 116.544L265.564 118.007L266.846 118.831L268.159 118.129L268.22 116.635L266.968 115.843L265.625 116.544Z" fill="url(#paint15_radial)"/>
<path d="M252.639 122.973L253.631 124.051L255.121 123.727L255.552 122.304L254.538 121.205L253.092 121.528L252.639 122.973Z" fill="url(#paint16_radial)"/>
<path d="M263.213 112.41L264.206 113.488L265.695 113.165L266.127 111.742L265.112 110.642L263.666 110.966L263.213 112.41Z" fill="url(#paint17_radial)"/>
<path d="M297.599 104.92L310.392 104.92L310.392 111.076L301.682 118.719L297.599 118.719L297.599 104.92Z" fill="#B8B8B8" stroke="black" stroke-width="0.280222"/>
<path d="M69.1728 122.952L70.1799 124.05L71.6448 123.714L72.0721 122.281L71.065 121.184L69.6001 121.519L69.1728 122.952Z" fill="url(#paint18_radial)"/>
<path d="M79.7326 112.373L80.7397 113.47L82.2046 113.135L82.6624 111.732L81.6248 110.635L80.1904 110.94L79.7326 112.373Z" fill="url(#paint19_radial)"/>
<defs>
<filter id="filter0_d" x="7.65742" y="3.47069" width="140.201" height="62.9327" filterUnits="userSpaceOnUse" color-interpolation-filters="sRGB">
<feFlood flood-opacity="0" result="BackgroundImageFix"/>
<feColorMatrix in="SourceAlpha" type="matrix" values="0 0 0 0 0 0 0 0 0 0 0 0 0 0 0 0 0 0 127 0"/>
<feOffset/>
<feGaussianBlur stdDeviation="0.350278"/>
<feColorMatrix type="matrix" values="0 0 0 0 0 0 0 0 0 0 0 0 0 0 0 0 0 0 1 0"/>
<feBlend mode="normal" in2="BackgroundImageFix" result="effect1_dropShadow"/>
<feBlend mode="normal" in="SourceGraphic" in2="effect1_dropShadow" result="shape"/>
</filter>
<filter id="filter1_d" x="8.12804" y="8.73874" width="139.31" height="57.5245" filterUnits="userSpaceOnUse" color-interpolation-filters="sRGB">
<feFlood flood-opacity="0" result="BackgroundImageFix"/>
<feColorMatrix in="SourceAlpha" type="matrix" values="0 0 0 0 0 0 0 0 0 0 0 0 0 0 0 0 0 0 127 0"/>
<feOffset dy="0.280222"/>
<feGaussianBlur stdDeviation="0.140111"/>
<feColorMatrix type="matrix" values="0 0 0 0 0 0 0 0 0 0 0 0 0 0 0 0 0 0 0.25 0"/>
<feBlend mode="normal" in2="BackgroundImageFix" result="effect1_dropShadow"/>
<feBlend mode="normal" in="SourceGraphic" in2="effect1_dropShadow" result="shape"/>
</filter>
<filter id="filter2_d" x="18.4712" y="8.73878" width="24.1866" height="57.5245" filterUnits="userSpaceOnUse" color-interpolation-filters="sRGB">
<feFlood flood-opacity="0" result="BackgroundImageFix"/>
<feColorMatrix in="SourceAlpha" type="matrix" values="0 0 0 0 0 0 0 0 0 0 0 0 0 0 0 0 0 0 127 0"/>
<feOffset dy="0.280222"/>
<feGaussianBlur stdDeviation="0.140111"/>
<feColorMatrix type="matrix" values="0 0 0 0 0 0 0 0 0 0 0 0 0 0 0 0 0 0 0.25 0"/>
<feBlend mode="normal" in2="BackgroundImageFix" result="effect1_dropShadow"/>
<feBlend mode="normal" in="SourceGraphic" in2="effect1_dropShadow" result="shape"/>
</filter>
<filter id="filter3_d" x="40.7228" y="8.73878" width="24.1866" height="57.5245" filterUnits="userSpaceOnUse" color-interpolation-filters="sRGB">
<feFlood flood-opacity="0" result="BackgroundImageFix"/>
<feColorMatrix in="SourceAlpha" type="matrix" values="0 0 0 0 0 0 0 0 0 0 0 0 0 0 0 0 0 0 127 0"/>
<feOffset dy="0.280222"/>
<feGaussianBlur stdDeviation="0.140111"/>
<feColorMatrix type="matrix" values="0 0 0 0 0 0 0 0 0 0 0 0 0 0 0 0 0 0 0.25 0"/>
<feBlend mode="normal" in2="BackgroundImageFix" result="effect1_dropShadow"/>
<feBlend mode="normal" in="SourceGraphic" in2="effect1_dropShadow" result="shape"/>
</filter>
<filter id="filter4_d" x="62.9744" y="8.73878" width="24.1866" height="57.5245" filterUnits="userSpaceOnUse" color-interpolation-filters="sRGB">
<feFlood flood-opacity="0" result="BackgroundImageFix"/>
<feColorMatrix in="SourceAlpha" type="matrix" values="0 0 0 0 0 0 0 0 0 0 0 0 0 0 0 0 0 0 127 0"/>
<feOffset dy="0.280222"/>
<feGaussianBlur stdDeviation="0.140111"/>
<feColorMatrix type="matrix" values="0 0 0 0 0 0 0 0 0 0 0 0 0 0 0 0 0 0 0.25 0"/>
<feBlend mode="normal" in2="BackgroundImageFix" result="effect1_dropShadow"/>
<feBlend mode="normal" in="SourceGraphic" in2="effect1_dropShadow" result="shape"/>
</filter>
<filter id="filter5_d" x="85.226" y="8.73878" width="24.1866" height="57.5245" filterUnits="userSpaceOnUse" color-interpolation-filters="sRGB">
<feFlood flood-opacity="0" result="BackgroundImageFix"/>
<feColorMatrix in="SourceAlpha" type="matrix" values="0 0 0 0 0 0 0 0 0 0 0 0 0 0 0 0 0 0 127 0"/>
<feOffset dy="0.280222"/>
<feGaussianBlur stdDeviation="0.140111"/>
<feColorMatrix type="matrix" values="0 0 0 0 0 0 0 0 0 0 0 0 0 0 0 0 0 0 0.25 0"/>
<feBlend mode="normal" in2="BackgroundImageFix" result="effect1_dropShadow"/>
<feBlend mode="normal" in="SourceGraphic" in2="effect1_dropShadow" result="shape"/>
</filter>
<filter id="filter6_d" x="107.478" y="8.73878" width="24.1866" height="57.5245" filterUnits="userSpaceOnUse" color-interpolation-filters="sRGB">
<feFlood flood-opacity="0" result="BackgroundImageFix"/>
<feColorMatrix in="SourceAlpha" type="matrix" values="0 0 0 0 0 0 0 0 0 0 0 0 0 0 0 0 0 0 127 0"/>
<feOffset dy="0.280222"/>
<feGaussianBlur stdDeviation="0.140111"/>
<feColorMatrix type="matrix" values="0 0 0 0 0 0 0 0 0 0 0 0 0 0 0 0 0 0 0.25 0"/>
<feBlend mode="normal" in2="BackgroundImageFix" result="effect1_dropShadow"/>
<feBlend mode="normal" in="SourceGraphic" in2="effect1_dropShadow" result="shape"/>
</filter>
<filter id="filter7_d" x="8.12804" y="31.3069" width="139.31" height="12.3883" filterUnits="userSpaceOnUse" color-interpolation-filters="sRGB">
<feFlood flood-opacity="0" result="BackgroundImageFix"/>
<feColorMatrix in="SourceAlpha" type="matrix" values="0 0 0 0 0 0 0 0 0 0 0 0 0 0 0 0 0 0 127 0"/>
<feOffset dy="0.280222"/>
<feGaussianBlur stdDeviation="0.140111"/>
<feColorMatrix type="matrix" values="0 0 0 0 0 0 0 0 0 0 0 0 0 0 0 0 0 0 0.25 0"/>
<feBlend mode="normal" in2="BackgroundImageFix" result="effect1_dropShadow"/>
<feBlend mode="normal" in="SourceGraphic" in2="effect1_dropShadow" result="shape"/>
</filter>
<radialGradient id="paint0_radial" cx="0" cy="0" r="1" gradientUnits="userSpaceOnUse" gradientTransform="translate(76.2518 117.433) scale(22.3193 22.2965)">
<stop offset="0.7777" stop-color="#1A1A1A"/>
<stop offset="0.8882" stop-color="#333333"/>
<stop offset="1"/>
</radialGradient>
<radialGradient id="paint1_radial" cx="0" cy="0" r="1" gradientUnits="userSpaceOnUse" gradientTransform="translate(76.1312 117.251) scale(17.2434 17.2258)">
<stop stop-color="#8D8C8C"/>
<stop offset="0.0810056" stop-color="#898989"/>
<stop offset="0.1659" stop-color="#808080"/>
<stop offset="0.2687" stop-color="#868686"/>
<stop offset="0.3295" stop-color="#A4A4A4"/>
<stop offset="0.3447" stop-color="#ACACAC"/>
<stop offset="0.5274" stop-color="#B3B3B3"/>
<stop offset="0.5715" stop-color="#A4A4A4"/>
<stop offset="0.6558" stop-color="#7D7D7D"/>
<stop offset="0.7012" stop-color="#666666"/>
<stop offset="0.7387" stop-color="#6F6F70"/>
<stop offset="0.8018" stop-color="#88898A"/>
<stop offset="0.8676" stop-color="#A8AAAC"/>
<stop offset="0.927" stop-color="#7E8486"/>
<stop offset="1" stop-color="#465053"/>
</radialGradient>
<radialGradient id="paint2_radial" cx="0" cy="0" r="1" gradientUnits="userSpaceOnUse" gradientTransform="translate(76.0124 109.853) rotate(2.29309) scale(1.39586 1.39445)">
<stop offset="0.00561773" stop-color="#534741"/>
<stop offset="0.1684" stop-color="#5C5450"/>
<stop offset="0.4792" stop-color="#737577"/>
<stop offset="0.6742" stop-color="#838C92"/>
<stop offset="0.9793" stop-color="#333333"/>
<stop offset="0.9852" stop-color="#3E4042"/>
<stop offset="0.9965" stop-color="#5B6469"/>
<stop offset="1" stop-color="#657076"/>
</radialGradient>
<radialGradient id="paint3_radial" cx="0" cy="0" r="1" gradientUnits="userSpaceOnUse" gradientTransform="translate(76.0124 124.792) rotate(2.29307) scale(1.39586 1.39444)">
<stop offset="0.00561773" stop-color="#534741"/>
<stop offset="0.1684" stop-color="#5C5450"/>
<stop offset="0.4792" stop-color="#737577"/>
<stop offset="0.6742" stop-color="#838C92"/>
<stop offset="0.9793" stop-color="#333333"/>
<stop offset="0.9852" stop-color="#3E4042"/>
<stop offset="0.9965" stop-color="#5B6469"/>
<stop offset="1" stop-color="#657076"/>
</radialGradient>
<radialGradient id="paint4_radial" cx="0" cy="0" r="1" gradientUnits="userSpaceOnUse" gradientTransform="translate(70.6205 112.051) rotate(-42.6741) scale(1.39527 1.39507)">
<stop offset="0.00561773" stop-color="#534741"/>
<stop offset="0.1684" stop-color="#5C5450"/>
<stop offset="0.4792" stop-color="#737577"/>
<stop offset="0.6742" stop-color="#838C92"/>
<stop offset="0.9793" stop-color="#333333"/>
<stop offset="0.9852" stop-color="#3E4042"/>
<stop offset="0.9965" stop-color="#5B6469"/>
<stop offset="1" stop-color="#657076"/>
</radialGradient>
<radialGradient id="paint5_radial" cx="0" cy="0" r="1" gradientUnits="userSpaceOnUse" gradientTransform="translate(81.1949 122.615) rotate(-42.6742) scale(1.39527 1.39507)">
<stop offset="0.00561773" stop-color="#534741"/>
<stop offset="0.1684" stop-color="#5C5450"/>
<stop offset="0.4792" stop-color="#737577"/>
<stop offset="0.6742" stop-color="#838C92"/>
<stop offset="0.9793" stop-color="#333333"/>
<stop offset="0.9852" stop-color="#3E4042"/>
<stop offset="0.9965" stop-color="#5B6469"/>
<stop offset="1" stop-color="#657076"/>
</radialGradient>
<radialGradient id="paint6_radial" cx="0" cy="0" r="1" gradientUnits="userSpaceOnUse" gradientTransform="translate(68.4305 117.332) rotate(-87.6998) scale(1.39446 1.39583)">
<stop offset="0.00561773" stop-color="#534741"/>
<stop offset="0.1684" stop-color="#5C5450"/>
<stop offset="0.4792" stop-color="#737577"/>
<stop offset="0.6742" stop-color="#838C92"/>
<stop offset="0.9793" stop-color="#333333"/>
<stop offset="0.9852" stop-color="#3E4042"/>
<stop offset="0.9965" stop-color="#5B6469"/>
<stop offset="1" stop-color="#657076"/>
</radialGradient>
<radialGradient id="paint7_radial" cx="0" cy="0" r="1" gradientUnits="userSpaceOnUse" gradientTransform="translate(83.3846 117.332) rotate(-87.6998) scale(1.39446 1.39583)">
<stop offset="0.00561773" stop-color="#534741"/>
<stop offset="0.1684" stop-color="#5C5450"/>
<stop offset="0.4792" stop-color="#737577"/>
<stop offset="0.6742" stop-color="#838C92"/>
<stop offset="0.9793" stop-color="#333333"/>
<stop offset="0.9852" stop-color="#3E4042"/>
<stop offset="0.9965" stop-color="#5B6469"/>
<stop offset="1" stop-color="#657076"/>
</radialGradient>
<radialGradient id="paint8_radial" cx="0" cy="0" r="1" gradientUnits="userSpaceOnUse" gradientTransform="translate(259.764 117.427) scale(22.3193 22.2965)">
<stop offset="0.7777" stop-color="#1A1A1A"/>
<stop offset="0.8882" stop-color="#333333"/>
<stop offset="1"/>
</radialGradient>
<radialGradient id="paint9_radial" cx="0" cy="0" r="1" gradientUnits="userSpaceOnUse" gradientTransform="translate(259.644 117.245) scale(17.2434 17.2258)">
<stop stop-color="#8D8C8C"/>
<stop offset="0.0810056" stop-color="#898989"/>
<stop offset="0.1659" stop-color="#808080"/>
<stop offset="0.2687" stop-color="#868686"/>
<stop offset="0.3295" stop-color="#A4A4A4"/>
<stop offset="0.3447" stop-color="#ACACAC"/>
<stop offset="0.5274" stop-color="#B3B3B3"/>
<stop offset="0.5715" stop-color="#A4A4A4"/>
<stop offset="0.6558" stop-color="#7D7D7D"/>
<stop offset="0.7012" stop-color="#666666"/>
<stop offset="0.7387" stop-color="#6F6F70"/>
<stop offset="0.8018" stop-color="#88898A"/>
<stop offset="0.8676" stop-color="#A8AAAC"/>
<stop offset="0.927" stop-color="#7E8486"/>
<stop offset="1" stop-color="#465053"/>
</radialGradient>
<radialGradient id="paint10_radial" cx="0" cy="0" r="1" gradientUnits="userSpaceOnUse" gradientTransform="translate(259.525 109.847) rotate(2.29309) scale(1.39586 1.39445)">
<stop offset="0.00561773" stop-color="#534741"/>
<stop offset="0.1684" stop-color="#5C5450"/>
<stop offset="0.4792" stop-color="#737577"/>
<stop offset="0.6742" stop-color="#838C92"/>
<stop offset="0.9793" stop-color="#333333"/>
<stop offset="0.9852" stop-color="#3E4042"/>
<stop offset="0.9965" stop-color="#5B6469"/>
<stop offset="1" stop-color="#657076"/>
</radialGradient>
<radialGradient id="paint11_radial" cx="0" cy="0" r="1" gradientUnits="userSpaceOnUse" gradientTransform="translate(259.525 124.786) rotate(2.29307) scale(1.39587 1.39444)">
<stop offset="0.00561773" stop-color="#534741"/>
<stop offset="0.1684" stop-color="#5C5450"/>
<stop offset="0.4792" stop-color="#737577"/>
<stop offset="0.6742" stop-color="#838C92"/>
<stop offset="0.9793" stop-color="#333333"/>
<stop offset="0.9852" stop-color="#3E4042"/>
<stop offset="0.9965" stop-color="#5B6469"/>
<stop offset="1" stop-color="#657076"/>
</radialGradient>
<radialGradient id="paint12_radial" cx="0" cy="0" r="1" gradientUnits="userSpaceOnUse" gradientTransform="translate(254.133 112.045) rotate(-42.674) scale(1.39527 1.39507)">
<stop offset="0.00561773" stop-color="#534741"/>
<stop offset="0.1684" stop-color="#5C5450"/>
<stop offset="0.4792" stop-color="#737577"/>
<stop offset="0.6742" stop-color="#838C92"/>
<stop offset="0.9793" stop-color="#333333"/>
<stop offset="0.9852" stop-color="#3E4042"/>
<stop offset="0.9965" stop-color="#5B6469"/>
<stop offset="1" stop-color="#657076"/>
</radialGradient>
<radialGradient id="paint13_radial" cx="0" cy="0" r="1" gradientUnits="userSpaceOnUse" gradientTransform="translate(264.707 122.609) rotate(-42.6742) scale(1.39527 1.39507)">
<stop offset="0.00561773" stop-color="#534741"/>
<stop offset="0.1684" stop-color="#5C5450"/>
<stop offset="0.4792" stop-color="#737577"/>
<stop offset="0.6742" stop-color="#838C92"/>
<stop offset="0.9793" stop-color="#333333"/>
<stop offset="0.9852" stop-color="#3E4042"/>
<stop offset="0.9965" stop-color="#5B6469"/>
<stop offset="1" stop-color="#657076"/>
</radialGradient>
<radialGradient id="paint14_radial" cx="0" cy="0" r="1" gradientUnits="userSpaceOnUse" gradientTransform="translate(251.943 117.326) rotate(-87.6998) scale(1.39446 1.39582)">
<stop offset="0.00561773" stop-color="#534741"/>
<stop offset="0.1684" stop-color="#5C5450"/>
<stop offset="0.4792" stop-color="#737577"/>
<stop offset="0.6742" stop-color="#838C92"/>
<stop offset="0.9793" stop-color="#333333"/>
<stop offset="0.9852" stop-color="#3E4042"/>
<stop offset="0.9965" stop-color="#5B6469"/>
<stop offset="1" stop-color="#657076"/>
</radialGradient>
<radialGradient id="paint15_radial" cx="0" cy="0" r="1" gradientUnits="userSpaceOnUse" gradientTransform="translate(266.897 117.326) rotate(-87.6998) scale(1.39446 1.39585)">
<stop offset="0.00561773" stop-color="#534741"/>
<stop offset="0.1684" stop-color="#5C5450"/>
<stop offset="0.4792" stop-color="#737577"/>
<stop offset="0.6742" stop-color="#838C92"/>
<stop offset="0.9793" stop-color="#333333"/>
<stop offset="0.9852" stop-color="#3E4042"/>
<stop offset="0.9965" stop-color="#5B6469"/>
<stop offset="1" stop-color="#657076"/>
</radialGradient>
<radialGradient id="paint16_radial" cx="0" cy="0" r="1" gradientUnits="userSpaceOnUse" gradientTransform="translate(254.092 122.628) rotate(-132.734) scale(1.39509 1.39521)">
<stop offset="0.00561773" stop-color="#534741"/>
<stop offset="0.1684" stop-color="#5C5450"/>
<stop offset="0.4792" stop-color="#737577"/>
<stop offset="0.6742" stop-color="#838C92"/>
<stop offset="0.9793" stop-color="#333333"/>
<stop offset="0.9852" stop-color="#3E4042"/>
<stop offset="0.9965" stop-color="#5B6469"/>
<stop offset="1" stop-color="#657076"/>
</radialGradient>
<radialGradient id="paint17_radial" cx="0" cy="0" r="1" gradientUnits="userSpaceOnUse" gradientTransform="translate(264.666 112.065) rotate(-132.734) scale(1.39509 1.39521)">
<stop offset="0.00561773" stop-color="#534741"/>
<stop offset="0.1684" stop-color="#5C5450"/>
<stop offset="0.4792" stop-color="#737577"/>
<stop offset="0.6742" stop-color="#838C92"/>
<stop offset="0.9793" stop-color="#333333"/>
<stop offset="0.9852" stop-color="#3E4042"/>
<stop offset="0.9965" stop-color="#5B6469"/>
<stop offset="1" stop-color="#657076"/>
</radialGradient>
<radialGradient id="paint18_radial" cx="0" cy="0" r="1" gradientUnits="userSpaceOnUse" gradientTransform="translate(70.6206 122.613) rotate(-132.731) scale(1.39509 1.39525)">
<stop offset="0.00561773" stop-color="#534741"/>
<stop offset="0.1684" stop-color="#5C5450"/>
<stop offset="0.4792" stop-color="#737577"/>
<stop offset="0.6742" stop-color="#838C92"/>
<stop offset="0.9793" stop-color="#333333"/>
<stop offset="0.9852" stop-color="#3E4042"/>
<stop offset="0.9965" stop-color="#5B6469"/>
<stop offset="1" stop-color="#657076"/>
</radialGradient>
<radialGradient id="paint19_radial" cx="0" cy="0" r="1" gradientUnits="userSpaceOnUse" gradientTransform="translate(81.1956 112.05) rotate(-132.731) scale(1.39509 1.39524)">
<stop offset="0.00561773" stop-color="#534741"/>
<stop offset="0.1684" stop-color="#5C5450"/>
<stop offset="0.4792" stop-color="#737577"/>
<stop offset="0.6742" stop-color="#838C92"/>
<stop offset="0.9793" stop-color="#333333"/>
<stop offset="0.9852" stop-color="#3E4042"/>
<stop offset="0.9965" stop-color="#5B6469"/>
<stop offset="1" stop-color="#657076"/>
</radialGradient>
</defs>
</svg>
